%TF.GenerationSoftware,KiCad,Pcbnew,10.0.5*%
%TF.CreationDate,2026-08-09T22:17:37-07:00*%
%TF.ProjectId,chopper_body_v2,63686f70-7065-4725-9f62-6f64795f7632,rev?*%
%TF.SameCoordinates,Original*%
%TF.FileFunction,Other,User*%
%FSLAX46Y46*%
G04 Gerber Fmt 4.6, Leading zero omitted, Abs format (unit mm)*
G04 Created by KiCad (PCBNEW 10.0.5) date 2026-08-09 22:17:37*
%MOMM*%
%LPD*%
G01*
G04 APERTURE LIST*
%ADD10C,0.050000*%
G04 APERTURE END LIST*
%TO.C,R15*%
D10*
X94950000Y-45240000D02*
X97050000Y-45240000D01*
X97050000Y-54760000D01*
X94950000Y-54760000D01*
X94950000Y-45240000D01*
%TO.C,XIAO-ESP32-C6-SMD1*%
X89480000Y-90955000D02*
X107280000Y-90955000D01*
X107280000Y-111930000D01*
X89480000Y-111930000D01*
X89480000Y-90955000D01*
%TO.C,Encoder_motor1*%
X43900000Y-23090000D02*
X55560000Y-23090000D01*
X55560000Y-30590000D01*
X43900000Y-30590000D01*
X43900000Y-23090000D01*
%TO.C,R14*%
X101450000Y-68620000D02*
X103550000Y-68620000D01*
X103550000Y-78140000D01*
X101450000Y-78140000D01*
X101450000Y-68620000D01*
%TO.C,foot_Motor_2*%
X31900000Y-78390000D02*
X39400000Y-78390000D01*
X39400000Y-87520000D01*
X31900000Y-87520000D01*
X31900000Y-78390000D01*
%TO.C,R4*%
X54950000Y-34240000D02*
X57050000Y-34240000D01*
X57050000Y-43760000D01*
X54950000Y-43760000D01*
X54950000Y-34240000D01*
%TO.C,R7*%
X66050000Y-32950000D02*
X75570000Y-32950000D01*
X75570000Y-35050000D01*
X66050000Y-35050000D01*
X66050000Y-32950000D01*
%TO.C,U4*%
X109500000Y-79500000D02*
X133500000Y-79500000D01*
X133500000Y-122000000D01*
X109500000Y-122000000D01*
X109500000Y-79500000D01*
%TO.C,foot_Motor_1*%
X31600000Y-97440000D02*
X39100000Y-97440000D01*
X39100000Y-106570000D01*
X31600000Y-106570000D01*
X31600000Y-97440000D01*
%TO.C,bubble_Relay1*%
X31900000Y-66970000D02*
X39400000Y-66970000D01*
X39400000Y-76100000D01*
X31900000Y-76100000D01*
X31900000Y-66970000D01*
%TO.C,R11*%
X38740000Y-107450000D02*
X48260000Y-107450000D01*
X48260000Y-109550000D01*
X38740000Y-109550000D01*
X38740000Y-107450000D01*
%TO.C,Power1*%
X55930000Y-102100000D02*
X62520000Y-102100000D01*
X62520000Y-109600000D01*
X55930000Y-109600000D01*
X55930000Y-102100000D01*
%TO.C,R16*%
X90450000Y-53050000D02*
X92550000Y-53050000D01*
X92550000Y-62570000D01*
X90450000Y-62570000D01*
X90450000Y-53050000D01*
%TO.C,R2*%
X40450000Y-34240000D02*
X42550000Y-34240000D01*
X42550000Y-43760000D01*
X40450000Y-43760000D01*
X40450000Y-34240000D01*
%TO.C,JP1*%
X31000000Y-59000000D02*
X34000000Y-59000000D01*
X34000000Y-66000000D01*
X31000000Y-66000000D01*
X31000000Y-59000000D01*
%TO.C,R8*%
X68550000Y-38950000D02*
X78070000Y-38950000D01*
X78070000Y-41050000D01*
X68550000Y-41050000D01*
X68550000Y-38950000D01*
%TO.C,R6*%
X35950000Y-47740000D02*
X38050000Y-47740000D01*
X38050000Y-57260000D01*
X35950000Y-57260000D01*
X35950000Y-47740000D01*
%TO.C,R3*%
X50450000Y-34240000D02*
X52550000Y-34240000D01*
X52550000Y-43760000D01*
X50450000Y-43760000D01*
X50450000Y-34240000D01*
%TO.C,R13*%
X96800000Y-76240000D02*
X98900000Y-76240000D01*
X98900000Y-85760000D01*
X96800000Y-85760000D01*
X96800000Y-76240000D01*
%TO.C,Cytron_MD10C1*%
X64980000Y-23090000D02*
X74110000Y-23090000D01*
X74110000Y-30590000D01*
X64980000Y-30590000D01*
X64980000Y-23090000D01*
%TO.C,R5*%
X33445000Y-34457500D02*
X35545000Y-34457500D01*
X35545000Y-43977500D01*
X33445000Y-43977500D01*
X33445000Y-34457500D01*
%TO.C,R9*%
X41740000Y-75950000D02*
X51260000Y-75950000D01*
X51260000Y-78050000D01*
X41740000Y-78050000D01*
X41740000Y-75950000D01*
%TO.C,R12*%
X30240000Y-93950000D02*
X39760000Y-93950000D01*
X39760000Y-96050000D01*
X30240000Y-96050000D01*
X30240000Y-93950000D01*
%TO.C,home_sensor1*%
X32435000Y-23117500D02*
X41565000Y-23117500D01*
X41565000Y-30617500D01*
X32435000Y-30617500D01*
X32435000Y-23117500D01*
%TO.C,R1*%
X44950000Y-34240000D02*
X47050000Y-34240000D01*
X47050000Y-43760000D01*
X44950000Y-43760000D01*
X44950000Y-34240000D01*
%TO.C,R10*%
X30240000Y-88950000D02*
X39760000Y-88950000D01*
X39760000Y-91050000D01*
X30240000Y-91050000D01*
X30240000Y-88950000D01*
%TD*%
M02*
