%TF.GenerationSoftware,KiCad,Pcbnew,10.0.5*%
%TF.CreationDate,2026-08-09T22:17:37-07:00*%
%TF.ProjectId,chopper_body_v2,63686f70-7065-4725-9f62-6f64795f7632,rev?*%
%TF.SameCoordinates,Original*%
%TF.FileFunction,Copper,L1,Top*%
%TF.FilePolarity,Positive*%
%FSLAX46Y46*%
G04 Gerber Fmt 4.6, Leading zero omitted, Abs format (unit mm)*
G04 Created by KiCad (PCBNEW 10.0.5) date 2026-08-09 22:17:37*
%MOMM*%
%LPD*%
G01*
G04 APERTURE LIST*
%TA.AperFunction,ComponentPad*%
%ADD10C,1.900000*%
%TD*%
%TA.AperFunction,ComponentPad*%
%ADD11R,1.900000X1.900000*%
%TD*%
%TA.AperFunction,Conductor*%
%ADD12C,1.500000*%
%TD*%
%TA.AperFunction,Conductor*%
%ADD13C,0.500000*%
%TD*%
%TA.AperFunction,Conductor*%
%ADD14C,0.700000*%
%TD*%
%TA.AperFunction,Conductor*%
%ADD15C,0.600000*%
%TD*%
G04 APERTURE END LIST*
D10*
%TO.P,R15,1*%
%TO.N,Net-(R15-Pad1)*%
X96000000Y-46190000D03*
%TO.P,R15,2*%
%TO.N,pololu_tx_resistor*%
X96000000Y-53810000D03*
%TD*%
%TO.P,XIAO-ESP32-C6-SMD1,1,D0_1*%
%TO.N,unconnected-(XIAO-ESP32-C6-SMD1-D0-Pad1)*%
X106000000Y-109000000D03*
%TO.P,XIAO-ESP32-C6-SMD1,2,D1_2*%
%TO.N,unconnected-(XIAO-ESP32-C6-SMD1-D1-Pad2)*%
X106000000Y-106460000D03*
%TO.P,XIAO-ESP32-C6-SMD1,3,D2_3*%
%TO.N,unconnected-(XIAO-ESP32-C6-SMD1-D2-Pad3)*%
X106000000Y-103920000D03*
%TO.P,XIAO-ESP32-C6-SMD1,4,D3_4*%
%TO.N,unconnected-(XIAO-ESP32-C6-SMD1-D3-Pad4)*%
X106000000Y-101380000D03*
%TO.P,XIAO-ESP32-C6-SMD1,5,D4_5*%
%TO.N,unconnected-(XIAO-ESP32-C6-SMD1-D4-Pad5)*%
X106000000Y-98840000D03*
%TO.P,XIAO-ESP32-C6-SMD1,6,D5_6*%
%TO.N,unconnected-(XIAO-ESP32-C6-SMD1-D5-Pad6)*%
X106000000Y-96300000D03*
%TO.P,XIAO-ESP32-C6-SMD1,7,D6_7*%
%TO.N,unconnected-(XIAO-ESP32-C6-SMD1-D6-Pad7)*%
X106000000Y-93760000D03*
%TO.P,XIAO-ESP32-C6-SMD1,8,D7_8*%
%TO.N,unconnected-(XIAO-ESP32-C6-SMD1-D7-Pad8)*%
X90760000Y-93760000D03*
%TO.P,XIAO-ESP32-C6-SMD1,9,D8_9*%
%TO.N,unconnected-(XIAO-ESP32-C6-SMD1-D8-Pad9)*%
X90760000Y-96300000D03*
%TO.P,XIAO-ESP32-C6-SMD1,10,D9_10*%
%TO.N,unconnected-(XIAO-ESP32-C6-SMD1-D9-Pad10)*%
X90760000Y-98840000D03*
%TO.P,XIAO-ESP32-C6-SMD1,11,D10_11*%
%TO.N,unconnected-(XIAO-ESP32-C6-SMD1-D10-Pad11)*%
X90760000Y-101380000D03*
%TO.P,XIAO-ESP32-C6-SMD1,12,3V3_OUT_12*%
%TO.N,unconnected-(XIAO-ESP32-C6-SMD1-3V3_OUT-Pad12)*%
X90760000Y-103920000D03*
D11*
%TO.P,XIAO-ESP32-C6-SMD1,13,GND_13*%
%TO.N,GND*%
X90760000Y-106460000D03*
D10*
%TO.P,XIAO-ESP32-C6-SMD1,14,VBUS_14*%
%TO.N,+5V*%
X90760000Y-109000000D03*
%TD*%
%TO.P,Encoder_motor1,1,Pin_1_1*%
%TO.N,Net-(Encoder_motor1-Pin_1)*%
X45920000Y-26690000D03*
%TO.P,Encoder_motor1,2,Pin_2_2*%
%TO.N,Net-(Encoder_motor1-Pin_2)*%
X48460000Y-26690000D03*
%TO.P,Encoder_motor1,3,Pin_3_3*%
%TO.N,+5V*%
X51000000Y-26690000D03*
D11*
%TO.P,Encoder_motor1,4,Pin_4_4*%
%TO.N,GND*%
X53540000Y-26690000D03*
%TD*%
D10*
%TO.P,R14,1*%
%TO.N,Net-(U1-GPIO16)*%
X102500000Y-77190000D03*
D11*
%TO.P,R14,2*%
%TO.N,GND*%
X102500000Y-69570000D03*
%TD*%
D10*
%TO.P,foot_Motor_2,1,Pin_1_1*%
%TO.N,Net-(U1-GPIO14)*%
X35500000Y-85500000D03*
%TO.P,foot_Motor_2,2,Pin_2_2*%
%TO.N,unconnected-(U1-GPIO3-Pad27)*%
X35500000Y-82960000D03*
D11*
%TO.P,foot_Motor_2,3,Pin_3_3*%
%TO.N,GND*%
X35500000Y-80420000D03*
%TD*%
D10*
%TO.P,R4,1*%
%TO.N,Net-(U1-GPIO34)*%
X56000000Y-42810000D03*
D11*
%TO.P,R4,2*%
%TO.N,GND*%
X56000000Y-35190000D03*
%TD*%
D10*
%TO.P,R7,1*%
%TO.N,Net-(Cytron_MD10C1-Pin_1)*%
X67000000Y-34000000D03*
D11*
%TO.P,R7,2*%
%TO.N,GND*%
X74620000Y-34000000D03*
%TD*%
D10*
%TO.P,U4,5V*%
%TO.N,+5V*%
X121880000Y-82200000D03*
%TO.P,U4,GND*%
%TO.N,GND*%
X124420000Y-82200000D03*
%TO.P,U4,RX*%
%TO.N,audio_rx*%
X119340000Y-82200000D03*
%TO.P,U4,TX*%
%TO.N,Net-(U1-GPIO16)*%
X116800000Y-82200000D03*
%TD*%
%TO.P,foot_Motor_1,1,Pin_1_1*%
%TO.N,Net-(U1-GPIO12)*%
X35500000Y-99460000D03*
%TO.P,foot_Motor_1,2,Pin_2_2*%
%TO.N,Net-(U1-GPIO13)*%
X35500000Y-102000000D03*
D11*
%TO.P,foot_Motor_1,3,Pin_3_3*%
%TO.N,GND*%
X35500000Y-104540000D03*
%TD*%
D10*
%TO.P,bubble_Relay1,1,Pin_1_1*%
%TO.N,Net-(U1-GPIO26)*%
X35500000Y-74080000D03*
%TO.P,bubble_Relay1,2,Pin_2_2*%
%TO.N,+5V*%
X35500000Y-71540000D03*
D11*
%TO.P,bubble_Relay1,3,Pin_3_3*%
%TO.N,GND*%
X35500000Y-69000000D03*
%TD*%
D10*
%TO.P,R11,1*%
%TO.N,Net-(U1-GPIO13)*%
X39690000Y-108500000D03*
D11*
%TO.P,R11,2*%
%TO.N,GND*%
X47310000Y-108500000D03*
%TD*%
D10*
%TO.P,Power1,1,Pin_1_1*%
%TO.N,+5V*%
X60500000Y-106000000D03*
D11*
%TO.P,Power1,2,Pin_2_2*%
%TO.N,GND*%
X57960000Y-106000000D03*
%TD*%
D10*
%TO.P,R16,1*%
%TO.N,pololu_tx_resistor*%
X91500000Y-54000000D03*
D11*
%TO.P,R16,2*%
%TO.N,GND*%
X91500000Y-61620000D03*
%TD*%
D10*
%TO.P,R2,1*%
%TO.N,Net-(U1-GPIO35)*%
X41500000Y-42810000D03*
D11*
%TO.P,R2,2*%
%TO.N,GND*%
X41500000Y-35190000D03*
%TD*%
D10*
%TO.P,JP1,1*%
%TO.N,GND*%
X32500000Y-60000000D03*
%TO.P,JP1,2*%
X32500000Y-65000000D03*
%TD*%
%TO.P,R8,1*%
%TO.N,Net-(Cytron_MD10C1-Pin_2)*%
X69500000Y-40000000D03*
D11*
%TO.P,R8,2*%
%TO.N,GND*%
X77120000Y-40000000D03*
%TD*%
D10*
%TO.P,R6,1*%
%TO.N,Net-(U1-GPIO32)*%
X37000000Y-48690000D03*
D11*
%TO.P,R6,2*%
%TO.N,GND*%
X37000000Y-56310000D03*
%TD*%
D10*
%TO.P,R3,1*%
%TO.N,Net-(Encoder_motor1-Pin_2)*%
X51500000Y-35190000D03*
%TO.P,R3,2*%
%TO.N,Net-(U1-GPIO34)*%
X51500000Y-42810000D03*
%TD*%
%TO.P,R13,1*%
%TO.N,/audio_tx_board*%
X97850000Y-84810000D03*
%TO.P,R13,2*%
%TO.N,Net-(U1-GPIO16)*%
X97850000Y-77190000D03*
%TD*%
%TO.P,Cytron_MD10C1,1,Pin_1_1*%
%TO.N,Net-(Cytron_MD10C1-Pin_1)*%
X67000000Y-26690000D03*
%TO.P,Cytron_MD10C1,2,Pin_2_2*%
%TO.N,Net-(Cytron_MD10C1-Pin_2)*%
X69540000Y-26690000D03*
D11*
%TO.P,Cytron_MD10C1,3,Pin_3_3*%
%TO.N,GND*%
X72080000Y-26690000D03*
%TD*%
D10*
%TO.P,U3,0,0_0*%
%TO.N,unconnected-(U3-Pad0)*%
X128280000Y-36580000D03*
%TO.P,U3,1,1_1*%
%TO.N,unconnected-(U3-Pad1)*%
X128280000Y-39120000D03*
%TO.P,U3,2,2_2*%
%TO.N,unconnected-(U3-Pad2)*%
X128280000Y-41660000D03*
%TO.P,U3,3,3_3*%
%TO.N,unconnected-(U3-Pad3)*%
X128280000Y-44200000D03*
%TO.P,U3,4,4_4*%
%TO.N,unconnected-(U3-Pad4)*%
X128280000Y-46740000D03*
%TO.P,U3,5,5_5*%
%TO.N,unconnected-(U3-Pad5)*%
X128280000Y-49280000D03*
%TO.P,U3,5V,5V_5V*%
%TO.N,unconnected-(U3-Pad5V)*%
X128280000Y-51820000D03*
%TO.P,U3,6,6_6*%
%TO.N,unconnected-(U3-Pad6)*%
X128280000Y-54360000D03*
%TO.P,U3,7,7_7*%
%TO.N,unconnected-(U3-Pad7)*%
X128280000Y-56900000D03*
%TO.P,U3,8,8_8*%
%TO.N,unconnected-(U3-Pad8)*%
X128280000Y-59440000D03*
%TO.P,U3,9,9_9*%
%TO.N,unconnected-(U3-Pad9)*%
X128280000Y-61980000D03*
%TO.P,U3,10,10_10*%
%TO.N,unconnected-(U3-Pad10)*%
X128280000Y-64520000D03*
%TO.P,U3,11,11_11*%
%TO.N,unconnected-(U3-Pad11)*%
X128280000Y-67060000D03*
%TO.P,U3,ERR,ERR_ERR*%
%TO.N,unconnected-(U3-PadERR)*%
X108500000Y-58460000D03*
%TO.P,U3,GND0,GND0_GND0*%
%TO.N,unconnected-(U3-PadGND0)*%
X133360000Y-36580000D03*
%TO.P,U3,GND1,GND1_GND1*%
%TO.N,unconnected-(U3-PadGND1)*%
X133360000Y-39160000D03*
%TO.P,U3,GND2,GND2_GND2*%
%TO.N,unconnected-(U3-PadGND2)*%
X133360000Y-41660000D03*
%TO.P,U3,GND3,GND3_GND3*%
%TO.N,unconnected-(U3-PadGND3)*%
X133360000Y-44200000D03*
%TO.P,U3,GND4,GND4_GND4*%
%TO.N,unconnected-(U3-PadGND4)*%
X133360000Y-46740000D03*
%TO.P,U3,GND5,GND5_GND5*%
%TO.N,unconnected-(U3-PadGND5)*%
X133360000Y-49280000D03*
%TO.P,U3,GND5V,GND5V_GND5V*%
%TO.N,unconnected-(U3-PadGND5V)*%
X133360000Y-51820000D03*
%TO.P,U3,GND6,GND6_GND6*%
%TO.N,unconnected-(U3-PadGND6)*%
X133360000Y-54360000D03*
%TO.P,U3,GND7,GND7_GND7*%
%TO.N,unconnected-(U3-PadGND7)*%
X133360000Y-56900000D03*
%TO.P,U3,GND8,GND8_GND8*%
%TO.N,unconnected-(U3-PadGND8)*%
X133360000Y-59440000D03*
%TO.P,U3,GND9,GND9_GND9*%
%TO.N,unconnected-(U3-PadGND9)*%
X133360000Y-61980000D03*
%TO.P,U3,GND10,GND10_GND10*%
%TO.N,unconnected-(U3-PadGND10)*%
X133360000Y-64520000D03*
%TO.P,U3,GND11,GND11_GND11*%
%TO.N,unconnected-(U3-PadGND11)*%
X133360000Y-67060000D03*
D11*
%TO.P,U3,GNDBoard,GNDBoard_GNDBoard*%
%TO.N,GND*%
X108500000Y-45760000D03*
%TO.P,U3,GNDIn,GNDIn_GNDIn*%
X133360000Y-69600000D03*
D10*
%TO.P,U3,RST,RST_RST*%
%TO.N,unconnected-(U3-PadRST)*%
X108500000Y-55920000D03*
%TO.P,U3,Rx,Rx_Rx*%
%TO.N,/pololu_rx*%
X108500000Y-50840000D03*
%TO.P,U3,TXIn,TXIn_TXIn*%
%TO.N,unconnected-(U3-PadTXIn)*%
X108500000Y-61000000D03*
%TO.P,U3,Tx,Tx_Tx*%
%TO.N,Net-(R15-Pad1)*%
X108500000Y-53380000D03*
%TO.P,U3,V0,V0_V0*%
%TO.N,unconnected-(U3-PadV0)*%
X130820000Y-36580000D03*
%TO.P,U3,V1,V1_V1*%
%TO.N,unconnected-(U3-PadV1)*%
X130880000Y-39160000D03*
%TO.P,U3,V2,V2_V2*%
%TO.N,unconnected-(U3-PadV2)*%
X130880000Y-41660000D03*
%TO.P,U3,V3,V3_V3*%
%TO.N,unconnected-(U3-PadV3)*%
X130880000Y-44160000D03*
%TO.P,U3,V4,V4_V4*%
%TO.N,unconnected-(U3-PadV4)*%
X130880000Y-46660000D03*
%TO.P,U3,V5,V5_V5*%
%TO.N,unconnected-(U3-PadV5)*%
X130880000Y-49160000D03*
%TO.P,U3,V5In,V5In_V5In*%
%TO.N,+5V*%
X130820000Y-69600000D03*
%TO.P,U3,V5V,V5V_V5V*%
%TO.N,unconnected-(U3-PadV5V)*%
X130820000Y-51820000D03*
%TO.P,U3,V6,V6_V6*%
%TO.N,unconnected-(U3-PadV6)*%
X130820000Y-54360000D03*
%TO.P,U3,V7,V7_V7*%
%TO.N,unconnected-(U3-PadV7)*%
X130820000Y-56900000D03*
%TO.P,U3,V8,V8_V8*%
%TO.N,unconnected-(U3-PadV8)*%
X130820000Y-59440000D03*
%TO.P,U3,V9,V9_V9*%
%TO.N,unconnected-(U3-PadV9)*%
X130820000Y-61980000D03*
%TO.P,U3,V10,V10_V10*%
%TO.N,unconnected-(U3-PadV10)*%
X130820000Y-64520000D03*
%TO.P,U3,V11,V11_V11*%
%TO.N,unconnected-(U3-PadV11)*%
X130820000Y-67060000D03*
%TO.P,U3,VSRV,VSRV_VSRV*%
%TO.N,Net-(U3-PadVSRV)*%
X125740000Y-69600000D03*
%TO.P,U3,VinBoard,VinBoard_VinBoard*%
%TO.N,unconnected-(U3-PadVinBoard)*%
X108500000Y-48300000D03*
%TO.P,U3,vin,vin_vin*%
%TO.N,Net-(U3-PadVSRV)*%
X128280000Y-69600000D03*
%TD*%
%TO.P,R5,1*%
%TO.N,Net-(home_sensor1-Pin_1)*%
X34495000Y-35407500D03*
%TO.P,R5,2*%
%TO.N,Net-(U1-GPIO32)*%
X34495000Y-43027500D03*
%TD*%
%TO.P,R9,1*%
%TO.N,unconnected-(U1-GPIO3-Pad27)*%
X50310000Y-77000000D03*
D11*
%TO.P,R9,2*%
%TO.N,GND*%
X42690000Y-77000000D03*
%TD*%
D10*
%TO.P,R12,1*%
%TO.N,Net-(U1-GPIO12)*%
X38810000Y-95000000D03*
D11*
%TO.P,R12,2*%
%TO.N,GND*%
X31190000Y-95000000D03*
%TD*%
D10*
%TO.P,home_sensor1,1,Pin_1_1*%
%TO.N,Net-(home_sensor1-Pin_1)*%
X34455000Y-26717500D03*
%TO.P,home_sensor1,2,Pin_2_2*%
%TO.N,+5V*%
X36995000Y-26717500D03*
D11*
%TO.P,home_sensor1,3,Pin_3_3*%
%TO.N,GND*%
X39535000Y-26717500D03*
%TD*%
D10*
%TO.P,R1,1*%
%TO.N,Net-(Encoder_motor1-Pin_1)*%
X46000000Y-35190000D03*
%TO.P,R1,2*%
%TO.N,Net-(U1-GPIO35)*%
X46000000Y-42810000D03*
%TD*%
%TO.P,R10,1*%
%TO.N,Net-(U1-GPIO14)*%
X38810000Y-90000000D03*
D11*
%TO.P,R10,2*%
%TO.N,GND*%
X31190000Y-90000000D03*
%TD*%
D10*
%TO.P,U1,1,VIN_1*%
%TO.N,+5V*%
X60002460Y-89519813D03*
D11*
%TO.P,U1,2,GND_2*%
%TO.N,GND*%
X60002460Y-86979813D03*
D10*
%TO.P,U1,3,GPIO13_3*%
%TO.N,Net-(U1-GPIO13)*%
X60002460Y-84439813D03*
%TO.P,U1,4,GPIO12_4*%
%TO.N,Net-(U1-GPIO12)*%
X60002460Y-81899813D03*
%TO.P,U1,5,GPIO14_5*%
%TO.N,Net-(U1-GPIO14)*%
X60002460Y-79359813D03*
%TO.P,U1,6,GPIO27_6*%
%TO.N,unconnected-(U1-GPIO3-Pad27)*%
X60002460Y-76819813D03*
%TO.P,U1,7,GPIO26_7*%
%TO.N,Net-(U1-GPIO26)*%
X60002460Y-74279813D03*
%TO.P,U1,8,GPIO25_8*%
%TO.N,Net-(Cytron_MD10C1-Pin_2)*%
X60002460Y-71739813D03*
%TO.P,U1,9,GPIO33_9*%
%TO.N,Net-(Cytron_MD10C1-Pin_1)*%
X60002460Y-69199813D03*
%TO.P,U1,10,GPIO32_10*%
%TO.N,Net-(U1-GPIO32)*%
X60002460Y-66659813D03*
%TO.P,U1,11,GPIO35_11*%
%TO.N,Net-(U1-GPIO35)*%
X60002460Y-64119813D03*
%TO.P,U1,12,GPIO34_12*%
%TO.N,Net-(U1-GPIO34)*%
X60002460Y-61579813D03*
%TO.P,U1,13,GPIO39_13*%
%TO.N,unconnected-(U1-GPIO39-Pad13)*%
X60002460Y-59039813D03*
%TO.P,U1,14,GPIO36_14*%
%TO.N,unconnected-(U1-GPIO36-Pad14)*%
X60002460Y-56499813D03*
%TO.P,U1,15,EN_15*%
%TO.N,unconnected-(U1-EN-Pad15)*%
X60002460Y-53959813D03*
%TO.P,U1,16,3.3v_16*%
%TO.N,3.3v*%
X85402460Y-89519813D03*
D11*
%TO.P,U1,17,GND_17*%
%TO.N,GND*%
X85402460Y-86979813D03*
D10*
%TO.P,U1,18,GPIO15_18*%
%TO.N,unconnected-(U1-GPIO15-Pad18)*%
X85402460Y-84439813D03*
%TO.P,U1,19,GPIO2_19*%
%TO.N,unconnected-(U1-GPIO2-Pad19)*%
X85402460Y-81899813D03*
%TO.P,U1,20,GPIO4_20*%
%TO.N,audio_rx*%
X85402460Y-79359813D03*
%TO.P,U1,21,GPIO16_21*%
%TO.N,/audio_tx_board*%
X85402460Y-76819813D03*
%TO.P,U1,22,GPIO17_22*%
%TO.N,Gpio17*%
X85402460Y-74279813D03*
%TO.P,U1,23,GPIO5_23*%
%TO.N,Net-(U1-GPIO5)*%
X85402460Y-71739813D03*
%TO.P,U1,24,GPIO18_24*%
%TO.N,unconnected-(U1-GPIO18-Pad24)*%
X85402460Y-69199813D03*
%TO.P,U1,25,GPIO19_25*%
%TO.N,unconnected-(U1-GPIO19-Pad25)*%
X85402460Y-66659813D03*
%TO.P,U1,26,GPIO21_26*%
%TO.N,unconnected-(U1-GPIO21-Pad26)*%
X85402460Y-64119813D03*
%TO.P,U1,27,GPIO3_27*%
%TO.N,unconnected-(U1-3.3v-Pad16)*%
X85402460Y-61579813D03*
%TO.P,U1,28,GPIO1_28*%
%TO.N,unconnected-(U1-GPIO1-Pad28)*%
X85402460Y-59039813D03*
%TO.P,U1,29,GPIO22_29*%
%TO.N,pololu_tx_resistor*%
X85402460Y-56499813D03*
%TO.P,U1,30,GPIO23_30*%
%TO.N,/pololu_rx*%
X85402460Y-53959813D03*
%TD*%
%TO.N,GND*%
D12*
X32500000Y-65000000D02*
X32500000Y-68500000D01*
X33000000Y-69000000D02*
X35500000Y-69000000D01*
D13*
X32500000Y-68500000D02*
X33000000Y-69000000D01*
D12*
X32500000Y-56310000D02*
X37000000Y-56310000D01*
X31810000Y-56310000D02*
X32500000Y-56310000D01*
X30500000Y-55000000D02*
X31810000Y-56310000D01*
X32500000Y-58022500D02*
X32500000Y-56310000D01*
%TO.N,+5V*%
X96000000Y-21000000D02*
X120000000Y-45000000D01*
X120000000Y-45000000D02*
X120000000Y-76000000D01*
X87000000Y-21000000D02*
X96000000Y-21000000D01*
X87000000Y-23500000D02*
X87000000Y-21000000D01*
X81000000Y-21000000D02*
X85500000Y-21000000D01*
X81000000Y-21000000D02*
X84500000Y-21000000D01*
X85500000Y-21000000D02*
X87000000Y-21000000D01*
X53500000Y-21000000D02*
X81000000Y-21000000D01*
X53000000Y-21500000D02*
X53500000Y-21000000D01*
%TO.N,Net-(Encoder_motor1-Pin_2)*%
D14*
X48460000Y-32150000D02*
X51500000Y-35190000D01*
X48460000Y-31650000D02*
X48460000Y-32150000D01*
%TO.N,GND*%
D12*
X56000000Y-39000000D02*
X62500000Y-39000000D01*
X56000000Y-35190000D02*
X56000000Y-39000000D01*
X41500000Y-39000000D02*
X56000000Y-39000000D01*
X41500000Y-37000000D02*
X41500000Y-39000000D01*
X39500000Y-39000000D02*
X40500000Y-39000000D01*
X30500000Y-41000000D02*
X30500000Y-55000000D01*
X32500000Y-39000000D02*
X30500000Y-41000000D01*
X39500000Y-39000000D02*
X32500000Y-39000000D01*
%TO.N,Net-(U1-GPIO32)*%
D14*
X44659813Y-66659813D02*
X60002460Y-66659813D01*
X43000000Y-65000000D02*
X44659813Y-66659813D01*
X43000000Y-49000000D02*
X43000000Y-65000000D01*
X39500000Y-45500000D02*
X43000000Y-49000000D01*
X34712500Y-45500000D02*
X39500000Y-45500000D01*
X34495000Y-45717500D02*
X34712500Y-45500000D01*
X35185000Y-48690000D02*
X34495000Y-48000000D01*
X37000000Y-48690000D02*
X35185000Y-48690000D01*
%TO.N,GND*%
D12*
X31190000Y-90000000D02*
X27000000Y-90000000D01*
X27000000Y-90000000D02*
X27000000Y-88500000D01*
X27000000Y-95000000D02*
X31190000Y-95000000D01*
X27000000Y-95000000D02*
X27000000Y-91500000D01*
%TO.N,Net-(U1-GPIO12)*%
D14*
X41500000Y-95000000D02*
X38810000Y-95000000D01*
X42000000Y-95500000D02*
X40000000Y-97500000D01*
X42000000Y-95500000D02*
X41500000Y-95000000D01*
%TO.N,Net-(U1-GPIO14)*%
X38810000Y-88500000D02*
X38810000Y-90000000D01*
X41000000Y-86310000D02*
X38810000Y-88500000D01*
%TO.N,GND*%
D13*
X27080000Y-80420000D02*
X27000000Y-80500000D01*
D12*
X27000000Y-80500000D02*
X27000000Y-71500000D01*
X35500000Y-80420000D02*
X27080000Y-80420000D01*
X27000000Y-88500000D02*
X27000000Y-80500000D01*
X27000000Y-71500000D02*
X29500000Y-69000000D01*
X87500000Y-49000000D02*
X85000000Y-51500000D01*
X112500000Y-45000000D02*
X112500000Y-45500000D01*
X105500000Y-38000000D02*
X112500000Y-45000000D01*
X92500000Y-38000000D02*
X105500000Y-38000000D01*
X87500000Y-43000000D02*
X92500000Y-38000000D01*
X87500000Y-49000000D02*
X87500000Y-43000000D01*
X81500000Y-51500000D02*
X85000000Y-51500000D01*
X79500000Y-53500000D02*
X81500000Y-51500000D01*
X79500000Y-85500000D02*
X79500000Y-53500000D01*
X85382273Y-87000000D02*
X81000000Y-87000000D01*
X81000000Y-87000000D02*
X79500000Y-85500000D01*
X85402460Y-86979813D02*
X85382273Y-87000000D01*
X57960000Y-103040000D02*
X56000000Y-101080000D01*
X56000000Y-101080000D02*
X56000000Y-104000000D01*
X35500000Y-112500000D02*
X30500000Y-107500000D01*
X47500000Y-112500000D02*
X35500000Y-112500000D01*
X54000000Y-106000000D02*
X47500000Y-112500000D01*
X57960000Y-103040000D02*
X57960000Y-106000000D01*
X56000000Y-97000000D02*
X56000000Y-101080000D01*
X56000000Y-89000000D02*
X56000000Y-97000000D01*
X56000000Y-104000000D02*
X54000000Y-106000000D01*
X58020187Y-86979813D02*
X56000000Y-89000000D01*
X60002460Y-86979813D02*
X58020187Y-86979813D01*
X60022647Y-87000000D02*
X65500000Y-87000000D01*
X60002460Y-86979813D02*
X60022647Y-87000000D01*
X65500000Y-87000000D02*
X72500000Y-80000000D01*
X72500000Y-80000000D02*
X72500000Y-47500000D01*
X72500000Y-47500000D02*
X80000000Y-40000000D01*
X132360000Y-90140000D02*
X124420000Y-82200000D01*
X133360000Y-90140000D02*
X132360000Y-90140000D01*
X37500000Y-38500000D02*
X38000000Y-39000000D01*
X62500000Y-39000000D02*
X62500000Y-37000000D01*
X40500000Y-39000000D02*
X41500000Y-39000000D01*
X57000000Y-28000000D02*
X61500000Y-23500000D01*
X61500000Y-23500000D02*
X72500000Y-23500000D01*
X62500000Y-33500000D02*
X57000000Y-28000000D01*
X72080000Y-26690000D02*
X72080000Y-23920000D01*
D13*
X72080000Y-23920000D02*
X72500000Y-23500000D01*
D12*
X75000000Y-23500000D02*
X72500000Y-23500000D01*
X76590000Y-25090000D02*
X75000000Y-23500000D01*
%TO.N,+5V*%
X36995000Y-23505000D02*
X39000000Y-21500000D01*
X39000000Y-21500000D02*
X53000000Y-21500000D01*
X51000000Y-23500000D02*
X53000000Y-21500000D01*
%TO.N,GND*%
X41500000Y-35190000D02*
X41500000Y-37000000D01*
X37500000Y-31000000D02*
X39535000Y-28965000D01*
X37500000Y-38500000D02*
X37500000Y-31000000D01*
X39535000Y-28965000D02*
X39535000Y-26717500D01*
X62500000Y-37000000D02*
X62500000Y-33500000D01*
X62500000Y-33500000D02*
X55690000Y-26690000D01*
X55690000Y-26690000D02*
X53540000Y-26690000D01*
X80000000Y-34000000D02*
X81000000Y-33000000D01*
X74620000Y-34000000D02*
X80000000Y-34000000D01*
X81000000Y-33000000D02*
X81000000Y-39000000D01*
X80000000Y-40000000D02*
X77120000Y-40000000D01*
X81000000Y-39000000D02*
X80000000Y-40000000D01*
X76590000Y-25090000D02*
X81000000Y-29500000D01*
X81000000Y-29500000D02*
X81000000Y-33000000D01*
X32500000Y-60000000D02*
X32500000Y-58500000D01*
X32500000Y-58500000D02*
X32500000Y-58022500D01*
X110500000Y-113000000D02*
X133360000Y-90140000D01*
X94000000Y-110500000D02*
X103000000Y-110500000D01*
X133360000Y-90140000D02*
X133360000Y-69600000D01*
X94000000Y-110500000D02*
X95250000Y-109250000D01*
X103000000Y-110500000D02*
X105500000Y-113000000D01*
X105500000Y-113000000D02*
X110500000Y-113000000D01*
X112240000Y-45760000D02*
X112500000Y-45500000D01*
X108500000Y-45760000D02*
X112240000Y-45760000D01*
X112500000Y-45500000D02*
X112500000Y-65000000D01*
X94880000Y-65000000D02*
X91500000Y-61620000D01*
X112500000Y-65000000D02*
X94880000Y-65000000D01*
X112500000Y-65000000D02*
X112500000Y-67000000D01*
X109930000Y-69570000D02*
X102500000Y-69570000D01*
X112500000Y-67000000D02*
X109930000Y-69570000D01*
X92460000Y-106460000D02*
X95250000Y-109250000D01*
X90760000Y-106460000D02*
X92460000Y-106460000D01*
X95250000Y-109250000D02*
X95500000Y-109000000D01*
X90479813Y-86979813D02*
X85402460Y-86979813D01*
X95500000Y-92000000D02*
X90479813Y-86979813D01*
X95500000Y-109000000D02*
X95500000Y-92000000D01*
X60000000Y-112500000D02*
X92000000Y-112500000D01*
X57960000Y-110460000D02*
X60000000Y-112500000D01*
X92000000Y-112500000D02*
X94000000Y-110500000D01*
X57960000Y-106000000D02*
X57960000Y-110460000D01*
X27500000Y-77000000D02*
X42690000Y-77000000D01*
X29500000Y-69000000D02*
X33000000Y-69000000D01*
X35080000Y-80420000D02*
X35500000Y-80420000D01*
X27000000Y-91500000D02*
X27000000Y-90000000D01*
X27000000Y-96500000D02*
X27000000Y-95000000D01*
X27000000Y-104000000D02*
X27000000Y-96500000D01*
X28000000Y-105000000D02*
X27000000Y-104000000D01*
X33460000Y-104540000D02*
X30500000Y-107500000D01*
X35500000Y-104540000D02*
X33460000Y-104540000D01*
X30500000Y-107500000D02*
X28000000Y-105000000D01*
X28000000Y-105000000D02*
X28500000Y-105500000D01*
X54000000Y-106000000D02*
X49810000Y-106000000D01*
X49810000Y-106000000D02*
X47310000Y-108500000D01*
%TO.N,Net-(U1-GPIO13)*%
D15*
X41690000Y-106500000D02*
X39690000Y-108500000D01*
D13*
X52750000Y-95440000D02*
X52750000Y-95250000D01*
D14*
X46040000Y-102150000D02*
X52750000Y-95440000D01*
%TO.N,Net-(U1-GPIO12)*%
X38040000Y-99460000D02*
X38500000Y-99000000D01*
X35500000Y-99460000D02*
X38040000Y-99460000D01*
%TO.N,Net-(U1-GPIO14)*%
X49500000Y-85500000D02*
X45190000Y-85500000D01*
X55640187Y-79359813D02*
X49500000Y-85500000D01*
X60002460Y-79359813D02*
X55640187Y-79359813D01*
X45190000Y-85500000D02*
X41000000Y-85500000D01*
%TO.N,Net-(U1-GPIO12)*%
X48500000Y-89000000D02*
X42000000Y-95500000D01*
X50000000Y-89000000D02*
X48500000Y-89000000D01*
X57100187Y-81899813D02*
X50000000Y-89000000D01*
X60002460Y-81899813D02*
X57100187Y-81899813D01*
%TO.N,Net-(U1-GPIO14)*%
X41000000Y-86310000D02*
X41000000Y-85500000D01*
X35500000Y-85500000D02*
X41000000Y-85500000D01*
%TO.N,Net-(U1-GPIO12)*%
D13*
X40000000Y-97500000D02*
X39810000Y-97500000D01*
%TO.N,Net-(U1-GPIO13)*%
D14*
X41690000Y-106500000D02*
X46040000Y-102150000D01*
%TO.N,+5V*%
D13*
X70040000Y-106000000D02*
X70500000Y-105540000D01*
D12*
X60500000Y-106000000D02*
X70040000Y-106000000D01*
X51000000Y-25000000D02*
X51000000Y-23500000D01*
X36995000Y-26717500D02*
X36995000Y-23505000D01*
X87000000Y-32500000D02*
X87000000Y-23500000D01*
%TO.N,Net-(R15-Pad1)*%
D14*
X103190000Y-53380000D02*
X96000000Y-46190000D01*
X108500000Y-53380000D02*
X103190000Y-53380000D01*
%TO.N,pololu_tx_resistor*%
D15*
X91690000Y-53810000D02*
X91500000Y-54000000D01*
D14*
X96000000Y-53810000D02*
X91690000Y-53810000D01*
X86999813Y-56499813D02*
X85402460Y-56499813D01*
X91500000Y-54000000D02*
X89000000Y-56500000D01*
D15*
X87000000Y-56500000D02*
X86999813Y-56499813D01*
D14*
X89000000Y-56500000D02*
X87000000Y-56500000D01*
%TO.N,+5V*%
D12*
X87000000Y-39000000D02*
X75500000Y-50500000D01*
X70500000Y-89519813D02*
X70500000Y-105540000D01*
X130820000Y-75180000D02*
X129500000Y-76500000D01*
X75500000Y-50500000D02*
X75500000Y-85500000D01*
X121880000Y-78380000D02*
X121880000Y-82200000D01*
X120000000Y-76000000D02*
X121880000Y-77880000D01*
X87000000Y-32500000D02*
X87000000Y-39000000D01*
X70500000Y-89519813D02*
X60002460Y-89519813D01*
X130820000Y-69600000D02*
X130820000Y-75180000D01*
X70500000Y-105540000D02*
X73960000Y-109000000D01*
X75500000Y-85500000D02*
X71480187Y-89519813D01*
X129500000Y-76500000D02*
X120500000Y-76500000D01*
X71480187Y-89519813D02*
X70500000Y-89519813D01*
X120500000Y-76500000D02*
X120000000Y-76000000D01*
X51000000Y-25000000D02*
X51000000Y-26690000D01*
X73960000Y-109000000D02*
X90760000Y-109000000D01*
X121880000Y-77880000D02*
X121880000Y-78380000D01*
%TO.N,Net-(Encoder_motor1-Pin_1)*%
D14*
X45920000Y-26690000D02*
X45920000Y-35770000D01*
%TO.N,Net-(Encoder_motor1-Pin_2)*%
D15*
X48460000Y-31650000D02*
X48500000Y-31690000D01*
D14*
X48460000Y-26690000D02*
X48460000Y-31650000D01*
%TO.N,Net-(U1-GPIO16)*%
X110500000Y-74000000D02*
X100000000Y-74000000D01*
X100000000Y-78139999D02*
X98799999Y-78139999D01*
X98799999Y-78139999D02*
X97850000Y-77190000D01*
X116800000Y-82200000D02*
X116800000Y-80300000D01*
X116800000Y-80300000D02*
X110500000Y-74000000D01*
X102500000Y-77190000D02*
X101550001Y-78139999D01*
X100000000Y-74000000D02*
X100000000Y-78139999D01*
X101550001Y-78139999D02*
X100000000Y-78139999D01*
%TO.N,unconnected-(U1-GPIO3-Pad27)*%
X42540000Y-82960000D02*
X46000000Y-79500000D01*
D15*
X50490187Y-76819813D02*
X50310000Y-77000000D01*
X54680187Y-76819813D02*
X55000000Y-76819813D01*
X42460000Y-82960000D02*
X42540000Y-82960000D01*
D14*
X55000000Y-76819813D02*
X50490187Y-76819813D01*
X35500000Y-82960000D02*
X42460000Y-82960000D01*
X52000000Y-79500000D02*
X54680187Y-76819813D01*
X60002460Y-76819813D02*
X55000000Y-76819813D01*
X46000000Y-79500000D02*
X52000000Y-79500000D01*
%TO.N,Net-(U1-GPIO34)*%
X51500000Y-42810000D02*
X54000000Y-42810000D01*
X54000000Y-42810000D02*
X56000000Y-42810000D01*
D15*
X52000000Y-43310000D02*
X51500000Y-42810000D01*
D14*
X55000000Y-61579813D02*
X60002460Y-61579813D01*
X54000000Y-60579813D02*
X55000000Y-61579813D01*
X54000000Y-42810000D02*
X54000000Y-60579813D01*
%TO.N,Net-(Cytron_MD10C1-Pin_1)*%
X60002460Y-69199813D02*
X67000000Y-62202273D01*
X67000000Y-62202273D02*
X67000000Y-26690000D01*
%TO.N,audio_rx*%
X113040000Y-88500000D02*
X94542647Y-88500000D01*
X119340000Y-82200000D02*
X113040000Y-88500000D01*
X94542647Y-88500000D02*
X85402460Y-79359813D01*
%TO.N,Net-(U1-GPIO12)*%
X38500000Y-99000000D02*
X40000000Y-97500000D01*
D13*
X35500000Y-99460000D02*
X35960000Y-99000000D01*
%TO.N,Net-(U1-GPIO13)*%
D14*
X57560187Y-84439813D02*
X52750000Y-89250000D01*
X52750000Y-89250000D02*
X52750000Y-95250000D01*
X60002460Y-84439813D02*
X57560187Y-84439813D01*
X35500000Y-101960000D02*
X46040000Y-101960000D01*
%TO.N,Net-(U1-GPIO26)*%
D15*
X59802647Y-74080000D02*
X60002460Y-74279813D01*
D14*
X35500000Y-74080000D02*
X59802647Y-74080000D01*
%TO.N,Net-(U1-GPIO35)*%
D15*
X45810000Y-43000000D02*
X46000000Y-42810000D01*
D14*
X41500000Y-43000000D02*
X44000000Y-43000000D01*
X44000000Y-46500000D02*
X48500000Y-51000000D01*
X48500000Y-51000000D02*
X48500000Y-61000000D01*
X48500000Y-61000000D02*
X51619813Y-64119813D01*
X44000000Y-43000000D02*
X45810000Y-43000000D01*
X44000000Y-43000000D02*
X44000000Y-46500000D01*
X51619813Y-64119813D02*
X60002460Y-64119813D01*
%TO.N,Net-(Cytron_MD10C1-Pin_2)*%
X69540000Y-62202273D02*
X69540000Y-26690000D01*
X60002460Y-71739813D02*
X69540000Y-62202273D01*
%TO.N,Net-(U1-GPIO32)*%
X34495000Y-43027500D02*
X34495000Y-45717500D01*
X34495000Y-45717500D02*
X34495000Y-48000000D01*
%TO.N,/audio_tx_board*%
X96310000Y-84810000D02*
X97850000Y-84810000D01*
X88319813Y-76819813D02*
X96310000Y-84810000D01*
X85402460Y-76819813D02*
X88319813Y-76819813D01*
D15*
X85772647Y-77190000D02*
X85402460Y-76819813D01*
%TO.N,/pololu_rx*%
D14*
X91500000Y-42000000D02*
X96500000Y-42000000D01*
X96500000Y-42000000D02*
X105340000Y-50840000D01*
X105340000Y-50840000D02*
X108500000Y-50840000D01*
X91500000Y-49500000D02*
X91500000Y-42000000D01*
X87040187Y-53959813D02*
X91500000Y-49500000D01*
X85402460Y-53959813D02*
X87040187Y-53959813D01*
%TO.N,Net-(U3-PadVSRV)*%
X125740000Y-69600000D02*
X128280000Y-69600000D01*
%TO.N,Net-(home_sensor1-Pin_1)*%
X34455000Y-26717500D02*
X34455000Y-35367500D01*
D15*
X34455000Y-35367500D02*
X34495000Y-35407500D01*
%TO.N,Net-(U1-GPIO5)*%
X85662647Y-72000000D02*
X85402460Y-71739813D01*
%TO.N,+5V*%
D12*
X41500000Y-71500000D02*
X41460000Y-71540000D01*
X41500000Y-69000000D02*
X41500000Y-71500000D01*
X41460000Y-71540000D02*
X35500000Y-71540000D01*
X35000000Y-62500000D02*
X41500000Y-69000000D01*
X27500000Y-21500000D02*
X27500000Y-62500000D01*
X27500000Y-62500000D02*
X35000000Y-62500000D01*
X39000000Y-21500000D02*
X27500000Y-21500000D01*
%TD*%
M02*
