M48
; DRILL file KiCad 10.0.5 date 2026-08-14T23:15:34
; FORMAT={-:-/ absolute / metric / decimal}
; #@! TF.CreationDate,2026-08-14T23:15:34-07:00
; #@! TF.GenerationSoftware,Kicad,Pcbnew,10.0.5
; #@! TF.FileFunction,Plated,1,2,PTH
FMAT,2
METRIC
; #@! TA.AperFunction,Plated,PTH,ComponentDrill
T1C0.700
; #@! TA.AperFunction,Plated,PTH,ComponentDrill
T2C0.800
; #@! TA.AperFunction,Plated,PTH,ComponentDrill
T3C0.889
; #@! TA.AperFunction,Plated,PTH,ComponentDrill
T4C1.200
%
G90
G05
T1
X40.69Y-58.98
X45.61Y-50.48
X45.92Y-105.48
X45.92Y-113.1
X48.31Y-58.98
X53.23Y-50.48
X60.42Y-50.17
X60.42Y-57.79
X60.92Y-105.48
X60.92Y-113.1
X65.42Y-50.17
X65.42Y-57.79
X67.0Y-105.69
X67.0Y-113.31
X71.42Y-49.88
X71.42Y-57.5
X74.92Y-49.88
X74.92Y-57.5
X80.0Y-105.69
X80.0Y-113.31
X80.42Y-49.88
X80.42Y-57.5
X84.92Y-49.88
X84.92Y-57.5
X88.92Y-62.67
X88.92Y-70.29
X93.5Y-96.67
X93.5Y-104.29
X94.92Y-57.67
X94.92Y-65.29
X95.92Y-84.17
X95.92Y-91.79
T2
X46.22Y-72.98
X46.22Y-98.38
X48.76Y-72.98
X48.76Y-98.38
X51.3Y-72.98
X51.3Y-98.38
X53.84Y-72.98
X53.84Y-98.38
X56.38Y-72.98
X56.38Y-98.38
X58.92Y-72.98
X58.92Y-98.38
X61.46Y-72.98
X61.46Y-98.38
X64.0Y-72.98
X64.0Y-98.38
X66.54Y-72.98
X66.54Y-98.38
X69.08Y-72.98
X69.08Y-98.38
X71.62Y-72.98
X71.62Y-98.38
X74.16Y-72.98
X74.16Y-98.38
X76.7Y-72.98
X76.7Y-98.38
X79.24Y-72.98
X79.24Y-98.38
X81.78Y-72.98
X81.78Y-98.38
X101.14Y-48.16
X101.14Y-50.7
X101.14Y-53.24
X101.14Y-55.78
X101.14Y-58.32
X101.14Y-60.86
X101.14Y-63.4
X102.62Y-86.56
X102.62Y-89.1
X102.62Y-91.64
X102.62Y-94.18
X118.38Y-72.0
X120.92Y-38.98
X120.92Y-41.52
X120.92Y-44.06
X120.92Y-46.6
X120.92Y-49.14
X120.92Y-51.68
X120.92Y-54.22
X120.92Y-56.76
X120.92Y-59.3
X120.92Y-61.84
X120.92Y-64.38
X120.92Y-66.92
X120.92Y-69.46
X120.92Y-72.0
X123.46Y-38.98
X123.46Y-54.22
X123.46Y-56.76
X123.46Y-59.3
X123.46Y-61.84
X123.46Y-64.38
X123.46Y-66.92
X123.46Y-69.46
X123.46Y-72.0
X123.52Y-41.56
X123.52Y-44.06
X123.52Y-46.56
X123.52Y-49.06
X123.52Y-51.56
X126.0Y-38.98
X126.0Y-41.56
X126.0Y-44.06
X126.0Y-46.6
X126.0Y-49.14
X126.0Y-51.68
X126.0Y-54.22
X126.0Y-56.76
X126.0Y-59.3
X126.0Y-61.84
X126.0Y-64.38
X126.0Y-66.92
X126.0Y-69.46
X126.0Y-72.0
T3
X111.26Y-105.0
X111.26Y-120.24
X113.8Y-105.0
X113.8Y-120.24
X116.34Y-105.0
X116.34Y-120.24
X118.88Y-105.0
X118.88Y-120.24
X121.42Y-105.0
X121.42Y-120.24
X123.96Y-105.0
X123.96Y-120.24
X126.5Y-105.0
X126.5Y-120.24
T4
X35.645Y-65.197
X38.185Y-65.197
X42.87Y-41.48
X45.41Y-41.48
X47.95Y-41.48
X51.84Y-109.48
X54.38Y-109.48
X56.92Y-109.48
X60.34Y-41.48
X62.88Y-41.48
X65.42Y-41.48
X71.42Y-109.5
X73.34Y-41.48
X73.96Y-109.5
X75.88Y-41.48
X76.5Y-109.5
X78.42Y-41.48
X80.96Y-41.48
X85.42Y-109.48
X87.96Y-109.48
M30
