M48
; DRILL file KiCad 10.0.5 date 2026-08-09T22:17:35
; FORMAT={-:-/ absolute / metric / decimal}
; #@! TF.CreationDate,2026-08-09T22:17:35-07:00
; #@! TF.GenerationSoftware,Kicad,Pcbnew,10.0.5
; #@! TF.FileFunction,Plated,1,2,PTH
FMAT,2
METRIC
; #@! TA.AperFunction,Plated,PTH,ComponentDrill
T1C0.700
; #@! TA.AperFunction,Plated,PTH,ComponentDrill
T2C0.800
; #@! TA.AperFunction,Plated,PTH,ComponentDrill
T3C0.889
; #@! TA.AperFunction,Plated,PTH,ComponentDrill
T4C1.000
; #@! TA.AperFunction,Plated,PTH,ComponentDrill
T5C1.200
%
G90
G05
T1
X31.19Y-90.0
X31.19Y-95.0
X34.495Y-35.407
X34.495Y-43.027
X37.0Y-48.69
X37.0Y-56.31
X38.81Y-90.0
X38.81Y-95.0
X39.69Y-108.5
X41.5Y-35.19
X41.5Y-42.81
X42.69Y-77.0
X46.0Y-35.19
X46.0Y-42.81
X47.31Y-108.5
X50.31Y-77.0
X51.5Y-35.19
X51.5Y-42.81
X56.0Y-35.19
X56.0Y-42.81
X67.0Y-34.0
X69.5Y-40.0
X74.62Y-34.0
X77.12Y-40.0
X91.5Y-54.0
X91.5Y-61.62
X96.0Y-46.19
X96.0Y-53.81
X97.85Y-77.19
X97.85Y-84.81
X102.5Y-69.57
X102.5Y-77.19
T2
X60.002Y-53.96
X60.002Y-56.5
X60.002Y-59.04
X60.002Y-61.58
X60.002Y-64.12
X60.002Y-66.66
X60.002Y-69.2
X60.002Y-71.74
X60.002Y-74.28
X60.002Y-76.82
X60.002Y-79.36
X60.002Y-81.9
X60.002Y-84.44
X60.002Y-86.98
X60.002Y-89.52
X85.402Y-53.96
X85.402Y-56.5
X85.402Y-59.04
X85.402Y-61.58
X85.402Y-64.12
X85.402Y-66.66
X85.402Y-69.2
X85.402Y-71.74
X85.402Y-74.28
X85.402Y-76.82
X85.402Y-79.36
X85.402Y-81.9
X85.402Y-84.44
X85.402Y-86.98
X85.402Y-89.52
X108.5Y-45.76
X108.5Y-48.3
X108.5Y-50.84
X108.5Y-53.38
X108.5Y-55.92
X108.5Y-58.46
X108.5Y-61.0
X116.8Y-82.2
X119.34Y-82.2
X121.88Y-82.2
X124.42Y-82.2
X125.74Y-69.6
X128.28Y-36.58
X128.28Y-39.12
X128.28Y-41.66
X128.28Y-44.2
X128.28Y-46.74
X128.28Y-49.28
X128.28Y-51.82
X128.28Y-54.36
X128.28Y-56.9
X128.28Y-59.44
X128.28Y-61.98
X128.28Y-64.52
X128.28Y-67.06
X128.28Y-69.6
X130.82Y-36.58
X130.82Y-51.82
X130.82Y-54.36
X130.82Y-56.9
X130.82Y-59.44
X130.82Y-61.98
X130.82Y-64.52
X130.82Y-67.06
X130.82Y-69.6
X130.88Y-39.16
X130.88Y-41.66
X130.88Y-44.16
X130.88Y-46.66
X130.88Y-49.16
X133.36Y-36.58
X133.36Y-39.16
X133.36Y-41.66
X133.36Y-44.2
X133.36Y-46.74
X133.36Y-49.28
X133.36Y-51.82
X133.36Y-54.36
X133.36Y-56.9
X133.36Y-59.44
X133.36Y-61.98
X133.36Y-64.52
X133.36Y-67.06
X133.36Y-69.6
T3
X90.76Y-93.76
X90.76Y-96.3
X90.76Y-98.84
X90.76Y-101.38
X90.76Y-103.92
X90.76Y-106.46
X90.76Y-109.0
X106.0Y-93.76
X106.0Y-96.3
X106.0Y-98.84
X106.0Y-101.38
X106.0Y-103.92
X106.0Y-106.46
X106.0Y-109.0
T4
X32.5Y-60.0
X32.5Y-65.0
T5
X34.455Y-26.717
X35.5Y-69.0
X35.5Y-71.54
X35.5Y-74.08
X35.5Y-80.42
X35.5Y-82.96
X35.5Y-85.5
X35.5Y-99.46
X35.5Y-102.0
X35.5Y-104.54
X36.995Y-26.717
X39.535Y-26.717
X45.92Y-26.69
X48.46Y-26.69
X51.0Y-26.69
X53.54Y-26.69
X57.96Y-106.0
X60.5Y-106.0
X67.0Y-26.69
X69.54Y-26.69
X72.08Y-26.69
M30
