%TF.GenerationSoftware,KiCad,Pcbnew,10.0.5*%
%TF.CreationDate,2026-08-14T23:15:36-07:00*%
%TF.ProjectId,chopper_body_v2,63686f70-7065-4725-9f62-6f64795f7632,rev?*%
%TF.SameCoordinates,Original*%
%TF.FileFunction,Legend,Top*%
%TF.FilePolarity,Positive*%
%FSLAX46Y46*%
G04 Gerber Fmt 4.6, Leading zero omitted, Abs format (unit mm)*
G04 Created by KiCad (PCBNEW 10.0.5) date 2026-08-14 23:15:36*
%MOMM*%
%LPD*%
G01*
G04 APERTURE LIST*
%ADD10C,0.150000*%
%ADD11C,0.100000*%
%ADD12C,0.101600*%
%ADD13C,0.120000*%
%ADD14C,0.200000*%
%ADD15C,0.127000*%
%ADD16C,0.504000*%
G04 APERTURE END LIST*
D10*
X80238094Y-36931009D02*
X80571427Y-36931009D01*
X80714284Y-37454819D02*
X80238094Y-37454819D01*
X80238094Y-37454819D02*
X80238094Y-36454819D01*
X80238094Y-36454819D02*
X80714284Y-36454819D01*
X81142856Y-36788152D02*
X81142856Y-37454819D01*
X81142856Y-36883390D02*
X81190475Y-36835771D01*
X81190475Y-36835771D02*
X81285713Y-36788152D01*
X81285713Y-36788152D02*
X81428570Y-36788152D01*
X81428570Y-36788152D02*
X81523808Y-36835771D01*
X81523808Y-36835771D02*
X81571427Y-36931009D01*
X81571427Y-36931009D02*
X81571427Y-37454819D01*
X82476189Y-37407200D02*
X82380951Y-37454819D01*
X82380951Y-37454819D02*
X82190475Y-37454819D01*
X82190475Y-37454819D02*
X82095237Y-37407200D01*
X82095237Y-37407200D02*
X82047618Y-37359580D01*
X82047618Y-37359580D02*
X81999999Y-37264342D01*
X81999999Y-37264342D02*
X81999999Y-36978628D01*
X81999999Y-36978628D02*
X82047618Y-36883390D01*
X82047618Y-36883390D02*
X82095237Y-36835771D01*
X82095237Y-36835771D02*
X82190475Y-36788152D01*
X82190475Y-36788152D02*
X82380951Y-36788152D01*
X82380951Y-36788152D02*
X82476189Y-36835771D01*
X83047618Y-37454819D02*
X82952380Y-37407200D01*
X82952380Y-37407200D02*
X82904761Y-37359580D01*
X82904761Y-37359580D02*
X82857142Y-37264342D01*
X82857142Y-37264342D02*
X82857142Y-36978628D01*
X82857142Y-36978628D02*
X82904761Y-36883390D01*
X82904761Y-36883390D02*
X82952380Y-36835771D01*
X82952380Y-36835771D02*
X83047618Y-36788152D01*
X83047618Y-36788152D02*
X83190475Y-36788152D01*
X83190475Y-36788152D02*
X83285713Y-36835771D01*
X83285713Y-36835771D02*
X83333332Y-36883390D01*
X83333332Y-36883390D02*
X83380951Y-36978628D01*
X83380951Y-36978628D02*
X83380951Y-37264342D01*
X83380951Y-37264342D02*
X83333332Y-37359580D01*
X83333332Y-37359580D02*
X83285713Y-37407200D01*
X83285713Y-37407200D02*
X83190475Y-37454819D01*
X83190475Y-37454819D02*
X83047618Y-37454819D01*
X84238094Y-37454819D02*
X84238094Y-36454819D01*
X84238094Y-37407200D02*
X84142856Y-37454819D01*
X84142856Y-37454819D02*
X83952380Y-37454819D01*
X83952380Y-37454819D02*
X83857142Y-37407200D01*
X83857142Y-37407200D02*
X83809523Y-37359580D01*
X83809523Y-37359580D02*
X83761904Y-37264342D01*
X83761904Y-37264342D02*
X83761904Y-36978628D01*
X83761904Y-36978628D02*
X83809523Y-36883390D01*
X83809523Y-36883390D02*
X83857142Y-36835771D01*
X83857142Y-36835771D02*
X83952380Y-36788152D01*
X83952380Y-36788152D02*
X84142856Y-36788152D01*
X84142856Y-36788152D02*
X84238094Y-36835771D01*
X85095237Y-37407200D02*
X84999999Y-37454819D01*
X84999999Y-37454819D02*
X84809523Y-37454819D01*
X84809523Y-37454819D02*
X84714285Y-37407200D01*
X84714285Y-37407200D02*
X84666666Y-37311961D01*
X84666666Y-37311961D02*
X84666666Y-36931009D01*
X84666666Y-36931009D02*
X84714285Y-36835771D01*
X84714285Y-36835771D02*
X84809523Y-36788152D01*
X84809523Y-36788152D02*
X84999999Y-36788152D01*
X84999999Y-36788152D02*
X85095237Y-36835771D01*
X85095237Y-36835771D02*
X85142856Y-36931009D01*
X85142856Y-36931009D02*
X85142856Y-37026247D01*
X85142856Y-37026247D02*
X84666666Y-37121485D01*
X85571428Y-37454819D02*
X85571428Y-36788152D01*
X85571428Y-36978628D02*
X85619047Y-36883390D01*
X85619047Y-36883390D02*
X85666666Y-36835771D01*
X85666666Y-36835771D02*
X85761904Y-36788152D01*
X85761904Y-36788152D02*
X85857142Y-36788152D01*
X85952381Y-37550057D02*
X86714285Y-37550057D01*
X86952381Y-37454819D02*
X86952381Y-36788152D01*
X86952381Y-36883390D02*
X87000000Y-36835771D01*
X87000000Y-36835771D02*
X87095238Y-36788152D01*
X87095238Y-36788152D02*
X87238095Y-36788152D01*
X87238095Y-36788152D02*
X87333333Y-36835771D01*
X87333333Y-36835771D02*
X87380952Y-36931009D01*
X87380952Y-36931009D02*
X87380952Y-37454819D01*
X87380952Y-36931009D02*
X87428571Y-36835771D01*
X87428571Y-36835771D02*
X87523809Y-36788152D01*
X87523809Y-36788152D02*
X87666666Y-36788152D01*
X87666666Y-36788152D02*
X87761905Y-36835771D01*
X87761905Y-36835771D02*
X87809524Y-36931009D01*
X87809524Y-36931009D02*
X87809524Y-37454819D01*
X88428571Y-37454819D02*
X88333333Y-37407200D01*
X88333333Y-37407200D02*
X88285714Y-37359580D01*
X88285714Y-37359580D02*
X88238095Y-37264342D01*
X88238095Y-37264342D02*
X88238095Y-36978628D01*
X88238095Y-36978628D02*
X88285714Y-36883390D01*
X88285714Y-36883390D02*
X88333333Y-36835771D01*
X88333333Y-36835771D02*
X88428571Y-36788152D01*
X88428571Y-36788152D02*
X88571428Y-36788152D01*
X88571428Y-36788152D02*
X88666666Y-36835771D01*
X88666666Y-36835771D02*
X88714285Y-36883390D01*
X88714285Y-36883390D02*
X88761904Y-36978628D01*
X88761904Y-36978628D02*
X88761904Y-37264342D01*
X88761904Y-37264342D02*
X88714285Y-37359580D01*
X88714285Y-37359580D02*
X88666666Y-37407200D01*
X88666666Y-37407200D02*
X88571428Y-37454819D01*
X88571428Y-37454819D02*
X88428571Y-37454819D01*
X89047619Y-36788152D02*
X89428571Y-36788152D01*
X89190476Y-36454819D02*
X89190476Y-37311961D01*
X89190476Y-37311961D02*
X89238095Y-37407200D01*
X89238095Y-37407200D02*
X89333333Y-37454819D01*
X89333333Y-37454819D02*
X89428571Y-37454819D01*
X89904762Y-37454819D02*
X89809524Y-37407200D01*
X89809524Y-37407200D02*
X89761905Y-37359580D01*
X89761905Y-37359580D02*
X89714286Y-37264342D01*
X89714286Y-37264342D02*
X89714286Y-36978628D01*
X89714286Y-36978628D02*
X89761905Y-36883390D01*
X89761905Y-36883390D02*
X89809524Y-36835771D01*
X89809524Y-36835771D02*
X89904762Y-36788152D01*
X89904762Y-36788152D02*
X90047619Y-36788152D01*
X90047619Y-36788152D02*
X90142857Y-36835771D01*
X90142857Y-36835771D02*
X90190476Y-36883390D01*
X90190476Y-36883390D02*
X90238095Y-36978628D01*
X90238095Y-36978628D02*
X90238095Y-37264342D01*
X90238095Y-37264342D02*
X90190476Y-37359580D01*
X90190476Y-37359580D02*
X90142857Y-37407200D01*
X90142857Y-37407200D02*
X90047619Y-37454819D01*
X90047619Y-37454819D02*
X89904762Y-37454819D01*
X90666667Y-37454819D02*
X90666667Y-36788152D01*
X90666667Y-36978628D02*
X90714286Y-36883390D01*
X90714286Y-36883390D02*
X90761905Y-36835771D01*
X90761905Y-36835771D02*
X90857143Y-36788152D01*
X90857143Y-36788152D02*
X90952381Y-36788152D01*
X91809524Y-37454819D02*
X91238096Y-37454819D01*
X91523810Y-37454819D02*
X91523810Y-36454819D01*
X91523810Y-36454819D02*
X91428572Y-36597676D01*
X91428572Y-36597676D02*
X91333334Y-36692914D01*
X91333334Y-36692914D02*
X91238096Y-36740533D01*
X85356666Y-105714819D02*
X85023333Y-105238628D01*
X84785238Y-105714819D02*
X84785238Y-104714819D01*
X84785238Y-104714819D02*
X85166190Y-104714819D01*
X85166190Y-104714819D02*
X85261428Y-104762438D01*
X85261428Y-104762438D02*
X85309047Y-104810057D01*
X85309047Y-104810057D02*
X85356666Y-104905295D01*
X85356666Y-104905295D02*
X85356666Y-105048152D01*
X85356666Y-105048152D02*
X85309047Y-105143390D01*
X85309047Y-105143390D02*
X85261428Y-105191009D01*
X85261428Y-105191009D02*
X85166190Y-105238628D01*
X85166190Y-105238628D02*
X84785238Y-105238628D01*
X85785238Y-105191009D02*
X86118571Y-105191009D01*
X86261428Y-105714819D02*
X85785238Y-105714819D01*
X85785238Y-105714819D02*
X85785238Y-104714819D01*
X85785238Y-104714819D02*
X86261428Y-104714819D01*
X87023333Y-105191009D02*
X86690000Y-105191009D01*
X86690000Y-105714819D02*
X86690000Y-104714819D01*
X86690000Y-104714819D02*
X87166190Y-104714819D01*
X87690000Y-104714819D02*
X87690000Y-104952914D01*
X87451905Y-104857676D02*
X87690000Y-104952914D01*
X87690000Y-104952914D02*
X87928095Y-104857676D01*
X87547143Y-105143390D02*
X87690000Y-104952914D01*
X87690000Y-104952914D02*
X87832857Y-105143390D01*
X88451905Y-104714819D02*
X88451905Y-104952914D01*
X88213810Y-104857676D02*
X88451905Y-104952914D01*
X88451905Y-104952914D02*
X88690000Y-104857676D01*
X88309048Y-105143390D02*
X88451905Y-104952914D01*
X88451905Y-104952914D02*
X88594762Y-105143390D01*
X83454819Y-53856666D02*
X82978628Y-54189999D01*
X83454819Y-54428094D02*
X82454819Y-54428094D01*
X82454819Y-54428094D02*
X82454819Y-54047142D01*
X82454819Y-54047142D02*
X82502438Y-53951904D01*
X82502438Y-53951904D02*
X82550057Y-53904285D01*
X82550057Y-53904285D02*
X82645295Y-53856666D01*
X82645295Y-53856666D02*
X82788152Y-53856666D01*
X82788152Y-53856666D02*
X82883390Y-53904285D01*
X82883390Y-53904285D02*
X82931009Y-53951904D01*
X82931009Y-53951904D02*
X82978628Y-54047142D01*
X82978628Y-54047142D02*
X82978628Y-54428094D01*
X82788152Y-52999523D02*
X83454819Y-52999523D01*
X82407200Y-53237618D02*
X83121485Y-53475713D01*
X83121485Y-53475713D02*
X83121485Y-52856666D01*
X69374819Y-110142857D02*
X68898628Y-110476190D01*
X69374819Y-110714285D02*
X68374819Y-110714285D01*
X68374819Y-110714285D02*
X68374819Y-110333333D01*
X68374819Y-110333333D02*
X68422438Y-110238095D01*
X68422438Y-110238095D02*
X68470057Y-110190476D01*
X68470057Y-110190476D02*
X68565295Y-110142857D01*
X68565295Y-110142857D02*
X68708152Y-110142857D01*
X68708152Y-110142857D02*
X68803390Y-110190476D01*
X68803390Y-110190476D02*
X68851009Y-110238095D01*
X68851009Y-110238095D02*
X68898628Y-110333333D01*
X68898628Y-110333333D02*
X68898628Y-110714285D01*
X69374819Y-109190476D02*
X69374819Y-109761904D01*
X69374819Y-109476190D02*
X68374819Y-109476190D01*
X68374819Y-109476190D02*
X68517676Y-109571428D01*
X68517676Y-109571428D02*
X68612914Y-109666666D01*
X68612914Y-109666666D02*
X68660533Y-109761904D01*
X68470057Y-108809523D02*
X68422438Y-108761904D01*
X68422438Y-108761904D02*
X68374819Y-108666666D01*
X68374819Y-108666666D02*
X68374819Y-108428571D01*
X68374819Y-108428571D02*
X68422438Y-108333333D01*
X68422438Y-108333333D02*
X68470057Y-108285714D01*
X68470057Y-108285714D02*
X68565295Y-108238095D01*
X68565295Y-108238095D02*
X68660533Y-108238095D01*
X68660533Y-108238095D02*
X68803390Y-108285714D01*
X68803390Y-108285714D02*
X69374819Y-108857142D01*
X69374819Y-108857142D02*
X69374819Y-108238095D01*
X40047618Y-34359580D02*
X39999999Y-34407200D01*
X39999999Y-34407200D02*
X39857142Y-34454819D01*
X39857142Y-34454819D02*
X39761904Y-34454819D01*
X39761904Y-34454819D02*
X39619047Y-34407200D01*
X39619047Y-34407200D02*
X39523809Y-34311961D01*
X39523809Y-34311961D02*
X39476190Y-34216723D01*
X39476190Y-34216723D02*
X39428571Y-34026247D01*
X39428571Y-34026247D02*
X39428571Y-33883390D01*
X39428571Y-33883390D02*
X39476190Y-33692914D01*
X39476190Y-33692914D02*
X39523809Y-33597676D01*
X39523809Y-33597676D02*
X39619047Y-33502438D01*
X39619047Y-33502438D02*
X39761904Y-33454819D01*
X39761904Y-33454819D02*
X39857142Y-33454819D01*
X39857142Y-33454819D02*
X39999999Y-33502438D01*
X39999999Y-33502438D02*
X40047618Y-33550057D01*
X40380952Y-33788152D02*
X40619047Y-34454819D01*
X40857142Y-33788152D02*
X40619047Y-34454819D01*
X40619047Y-34454819D02*
X40523809Y-34692914D01*
X40523809Y-34692914D02*
X40476190Y-34740533D01*
X40476190Y-34740533D02*
X40380952Y-34788152D01*
X41095238Y-33788152D02*
X41476190Y-33788152D01*
X41238095Y-33454819D02*
X41238095Y-34311961D01*
X41238095Y-34311961D02*
X41285714Y-34407200D01*
X41285714Y-34407200D02*
X41380952Y-34454819D01*
X41380952Y-34454819D02*
X41476190Y-34454819D01*
X41809524Y-34454819D02*
X41809524Y-33788152D01*
X41809524Y-33978628D02*
X41857143Y-33883390D01*
X41857143Y-33883390D02*
X41904762Y-33835771D01*
X41904762Y-33835771D02*
X42000000Y-33788152D01*
X42000000Y-33788152D02*
X42095238Y-33788152D01*
X42571429Y-34454819D02*
X42476191Y-34407200D01*
X42476191Y-34407200D02*
X42428572Y-34359580D01*
X42428572Y-34359580D02*
X42380953Y-34264342D01*
X42380953Y-34264342D02*
X42380953Y-33978628D01*
X42380953Y-33978628D02*
X42428572Y-33883390D01*
X42428572Y-33883390D02*
X42476191Y-33835771D01*
X42476191Y-33835771D02*
X42571429Y-33788152D01*
X42571429Y-33788152D02*
X42714286Y-33788152D01*
X42714286Y-33788152D02*
X42809524Y-33835771D01*
X42809524Y-33835771D02*
X42857143Y-33883390D01*
X42857143Y-33883390D02*
X42904762Y-33978628D01*
X42904762Y-33978628D02*
X42904762Y-34264342D01*
X42904762Y-34264342D02*
X42857143Y-34359580D01*
X42857143Y-34359580D02*
X42809524Y-34407200D01*
X42809524Y-34407200D02*
X42714286Y-34454819D01*
X42714286Y-34454819D02*
X42571429Y-34454819D01*
X43333334Y-33788152D02*
X43333334Y-34454819D01*
X43333334Y-33883390D02*
X43380953Y-33835771D01*
X43380953Y-33835771D02*
X43476191Y-33788152D01*
X43476191Y-33788152D02*
X43619048Y-33788152D01*
X43619048Y-33788152D02*
X43714286Y-33835771D01*
X43714286Y-33835771D02*
X43761905Y-33931009D01*
X43761905Y-33931009D02*
X43761905Y-34454819D01*
X44000001Y-34550057D02*
X44761905Y-34550057D01*
X45000001Y-34454819D02*
X45000001Y-33454819D01*
X45000001Y-33454819D02*
X45333334Y-34169104D01*
X45333334Y-34169104D02*
X45666667Y-33454819D01*
X45666667Y-33454819D02*
X45666667Y-34454819D01*
X46142858Y-34454819D02*
X46142858Y-33454819D01*
X46142858Y-33454819D02*
X46380953Y-33454819D01*
X46380953Y-33454819D02*
X46523810Y-33502438D01*
X46523810Y-33502438D02*
X46619048Y-33597676D01*
X46619048Y-33597676D02*
X46666667Y-33692914D01*
X46666667Y-33692914D02*
X46714286Y-33883390D01*
X46714286Y-33883390D02*
X46714286Y-34026247D01*
X46714286Y-34026247D02*
X46666667Y-34216723D01*
X46666667Y-34216723D02*
X46619048Y-34311961D01*
X46619048Y-34311961D02*
X46523810Y-34407200D01*
X46523810Y-34407200D02*
X46380953Y-34454819D01*
X46380953Y-34454819D02*
X46142858Y-34454819D01*
X47666667Y-34454819D02*
X47095239Y-34454819D01*
X47380953Y-34454819D02*
X47380953Y-33454819D01*
X47380953Y-33454819D02*
X47285715Y-33597676D01*
X47285715Y-33597676D02*
X47190477Y-33692914D01*
X47190477Y-33692914D02*
X47095239Y-33740533D01*
X48285715Y-33454819D02*
X48380953Y-33454819D01*
X48380953Y-33454819D02*
X48476191Y-33502438D01*
X48476191Y-33502438D02*
X48523810Y-33550057D01*
X48523810Y-33550057D02*
X48571429Y-33645295D01*
X48571429Y-33645295D02*
X48619048Y-33835771D01*
X48619048Y-33835771D02*
X48619048Y-34073866D01*
X48619048Y-34073866D02*
X48571429Y-34264342D01*
X48571429Y-34264342D02*
X48523810Y-34359580D01*
X48523810Y-34359580D02*
X48476191Y-34407200D01*
X48476191Y-34407200D02*
X48380953Y-34454819D01*
X48380953Y-34454819D02*
X48285715Y-34454819D01*
X48285715Y-34454819D02*
X48190477Y-34407200D01*
X48190477Y-34407200D02*
X48142858Y-34359580D01*
X48142858Y-34359580D02*
X48095239Y-34264342D01*
X48095239Y-34264342D02*
X48047620Y-34073866D01*
X48047620Y-34073866D02*
X48047620Y-33835771D01*
X48047620Y-33835771D02*
X48095239Y-33645295D01*
X48095239Y-33645295D02*
X48142858Y-33550057D01*
X48142858Y-33550057D02*
X48190477Y-33502438D01*
X48190477Y-33502438D02*
X48285715Y-33454819D01*
X49619048Y-34359580D02*
X49571429Y-34407200D01*
X49571429Y-34407200D02*
X49428572Y-34454819D01*
X49428572Y-34454819D02*
X49333334Y-34454819D01*
X49333334Y-34454819D02*
X49190477Y-34407200D01*
X49190477Y-34407200D02*
X49095239Y-34311961D01*
X49095239Y-34311961D02*
X49047620Y-34216723D01*
X49047620Y-34216723D02*
X49000001Y-34026247D01*
X49000001Y-34026247D02*
X49000001Y-33883390D01*
X49000001Y-33883390D02*
X49047620Y-33692914D01*
X49047620Y-33692914D02*
X49095239Y-33597676D01*
X49095239Y-33597676D02*
X49190477Y-33502438D01*
X49190477Y-33502438D02*
X49333334Y-33454819D01*
X49333334Y-33454819D02*
X49428572Y-33454819D01*
X49428572Y-33454819D02*
X49571429Y-33502438D01*
X49571429Y-33502438D02*
X49619048Y-33550057D01*
X50571429Y-34454819D02*
X50000001Y-34454819D01*
X50285715Y-34454819D02*
X50285715Y-33454819D01*
X50285715Y-33454819D02*
X50190477Y-33597676D01*
X50190477Y-33597676D02*
X50095239Y-33692914D01*
X50095239Y-33692914D02*
X50000001Y-33740533D01*
X49253333Y-49014819D02*
X48920000Y-48538628D01*
X48681905Y-49014819D02*
X48681905Y-48014819D01*
X48681905Y-48014819D02*
X49062857Y-48014819D01*
X49062857Y-48014819D02*
X49158095Y-48062438D01*
X49158095Y-48062438D02*
X49205714Y-48110057D01*
X49205714Y-48110057D02*
X49253333Y-48205295D01*
X49253333Y-48205295D02*
X49253333Y-48348152D01*
X49253333Y-48348152D02*
X49205714Y-48443390D01*
X49205714Y-48443390D02*
X49158095Y-48491009D01*
X49158095Y-48491009D02*
X49062857Y-48538628D01*
X49062857Y-48538628D02*
X48681905Y-48538628D01*
X49586667Y-48014819D02*
X50253333Y-48014819D01*
X50253333Y-48014819D02*
X49824762Y-49014819D01*
X93954819Y-84642857D02*
X93478628Y-84976190D01*
X93954819Y-85214285D02*
X92954819Y-85214285D01*
X92954819Y-85214285D02*
X92954819Y-84833333D01*
X92954819Y-84833333D02*
X93002438Y-84738095D01*
X93002438Y-84738095D02*
X93050057Y-84690476D01*
X93050057Y-84690476D02*
X93145295Y-84642857D01*
X93145295Y-84642857D02*
X93288152Y-84642857D01*
X93288152Y-84642857D02*
X93383390Y-84690476D01*
X93383390Y-84690476D02*
X93431009Y-84738095D01*
X93431009Y-84738095D02*
X93478628Y-84833333D01*
X93478628Y-84833333D02*
X93478628Y-85214285D01*
X93954819Y-83690476D02*
X93954819Y-84261904D01*
X93954819Y-83976190D02*
X92954819Y-83976190D01*
X92954819Y-83976190D02*
X93097676Y-84071428D01*
X93097676Y-84071428D02*
X93192914Y-84166666D01*
X93192914Y-84166666D02*
X93240533Y-84261904D01*
X93288152Y-82833333D02*
X93954819Y-82833333D01*
X92907200Y-83071428D02*
X93621485Y-83309523D01*
X93621485Y-83309523D02*
X93621485Y-82690476D01*
D11*
X110758095Y-55017419D02*
X110758095Y-55826942D01*
X110758095Y-55826942D02*
X110805714Y-55922180D01*
X110805714Y-55922180D02*
X110853333Y-55969800D01*
X110853333Y-55969800D02*
X110948571Y-56017419D01*
X110948571Y-56017419D02*
X111139047Y-56017419D01*
X111139047Y-56017419D02*
X111234285Y-55969800D01*
X111234285Y-55969800D02*
X111281904Y-55922180D01*
X111281904Y-55922180D02*
X111329523Y-55826942D01*
X111329523Y-55826942D02*
X111329523Y-55017419D01*
X111710476Y-55017419D02*
X112329523Y-55017419D01*
X112329523Y-55017419D02*
X111996190Y-55398371D01*
X111996190Y-55398371D02*
X112139047Y-55398371D01*
X112139047Y-55398371D02*
X112234285Y-55445990D01*
X112234285Y-55445990D02*
X112281904Y-55493609D01*
X112281904Y-55493609D02*
X112329523Y-55588847D01*
X112329523Y-55588847D02*
X112329523Y-55826942D01*
X112329523Y-55826942D02*
X112281904Y-55922180D01*
X112281904Y-55922180D02*
X112234285Y-55969800D01*
X112234285Y-55969800D02*
X112139047Y-56017419D01*
X112139047Y-56017419D02*
X111853333Y-56017419D01*
X111853333Y-56017419D02*
X111758095Y-55969800D01*
X111758095Y-55969800D02*
X111710476Y-55922180D01*
D10*
X78454819Y-110142857D02*
X77978628Y-110476190D01*
X78454819Y-110714285D02*
X77454819Y-110714285D01*
X77454819Y-110714285D02*
X77454819Y-110333333D01*
X77454819Y-110333333D02*
X77502438Y-110238095D01*
X77502438Y-110238095D02*
X77550057Y-110190476D01*
X77550057Y-110190476D02*
X77645295Y-110142857D01*
X77645295Y-110142857D02*
X77788152Y-110142857D01*
X77788152Y-110142857D02*
X77883390Y-110190476D01*
X77883390Y-110190476D02*
X77931009Y-110238095D01*
X77931009Y-110238095D02*
X77978628Y-110333333D01*
X77978628Y-110333333D02*
X77978628Y-110714285D01*
X78454819Y-109190476D02*
X78454819Y-109761904D01*
X78454819Y-109476190D02*
X77454819Y-109476190D01*
X77454819Y-109476190D02*
X77597676Y-109571428D01*
X77597676Y-109571428D02*
X77692914Y-109666666D01*
X77692914Y-109666666D02*
X77740533Y-109761904D01*
X78454819Y-108238095D02*
X78454819Y-108809523D01*
X78454819Y-108523809D02*
X77454819Y-108523809D01*
X77454819Y-108523809D02*
X77597676Y-108619047D01*
X77597676Y-108619047D02*
X77692914Y-108714285D01*
X77692914Y-108714285D02*
X77740533Y-108809523D01*
X97294819Y-62122857D02*
X96818628Y-62456190D01*
X97294819Y-62694285D02*
X96294819Y-62694285D01*
X96294819Y-62694285D02*
X96294819Y-62313333D01*
X96294819Y-62313333D02*
X96342438Y-62218095D01*
X96342438Y-62218095D02*
X96390057Y-62170476D01*
X96390057Y-62170476D02*
X96485295Y-62122857D01*
X96485295Y-62122857D02*
X96628152Y-62122857D01*
X96628152Y-62122857D02*
X96723390Y-62170476D01*
X96723390Y-62170476D02*
X96771009Y-62218095D01*
X96771009Y-62218095D02*
X96818628Y-62313333D01*
X96818628Y-62313333D02*
X96818628Y-62694285D01*
X97294819Y-61170476D02*
X97294819Y-61741904D01*
X97294819Y-61456190D02*
X96294819Y-61456190D01*
X96294819Y-61456190D02*
X96437676Y-61551428D01*
X96437676Y-61551428D02*
X96532914Y-61646666D01*
X96532914Y-61646666D02*
X96580533Y-61741904D01*
X96294819Y-60265714D02*
X96294819Y-60741904D01*
X96294819Y-60741904D02*
X96771009Y-60789523D01*
X96771009Y-60789523D02*
X96723390Y-60741904D01*
X96723390Y-60741904D02*
X96675771Y-60646666D01*
X96675771Y-60646666D02*
X96675771Y-60408571D01*
X96675771Y-60408571D02*
X96723390Y-60313333D01*
X96723390Y-60313333D02*
X96771009Y-60265714D01*
X96771009Y-60265714D02*
X96866247Y-60218095D01*
X96866247Y-60218095D02*
X97104342Y-60218095D01*
X97104342Y-60218095D02*
X97199580Y-60265714D01*
X97199580Y-60265714D02*
X97247200Y-60313333D01*
X97247200Y-60313333D02*
X97294819Y-60408571D01*
X97294819Y-60408571D02*
X97294819Y-60646666D01*
X97294819Y-60646666D02*
X97247200Y-60741904D01*
X97247200Y-60741904D02*
X97199580Y-60789523D01*
X65396904Y-86725180D02*
X65396904Y-85915657D01*
X65396904Y-85915657D02*
X65349285Y-85820419D01*
X65349285Y-85820419D02*
X65301666Y-85772800D01*
X65301666Y-85772800D02*
X65206428Y-85725180D01*
X65206428Y-85725180D02*
X65015952Y-85725180D01*
X65015952Y-85725180D02*
X64920714Y-85772800D01*
X64920714Y-85772800D02*
X64873095Y-85820419D01*
X64873095Y-85820419D02*
X64825476Y-85915657D01*
X64825476Y-85915657D02*
X64825476Y-86725180D01*
X63825476Y-85725180D02*
X64396904Y-85725180D01*
X64111190Y-85725180D02*
X64111190Y-86725180D01*
X64111190Y-86725180D02*
X64206428Y-86582323D01*
X64206428Y-86582323D02*
X64301666Y-86487085D01*
X64301666Y-86487085D02*
X64396904Y-86439466D01*
D11*
X39867393Y-84711424D02*
X39057870Y-84711424D01*
X39057870Y-84711424D02*
X38962632Y-84759043D01*
X38962632Y-84759043D02*
X38915013Y-84806662D01*
X38915013Y-84806662D02*
X38867393Y-84901900D01*
X38867393Y-84901900D02*
X38867393Y-85092376D01*
X38867393Y-85092376D02*
X38915013Y-85187614D01*
X38915013Y-85187614D02*
X38962632Y-85235233D01*
X38962632Y-85235233D02*
X39057870Y-85282852D01*
X39057870Y-85282852D02*
X39867393Y-85282852D01*
X38915013Y-85711424D02*
X38867393Y-85854281D01*
X38867393Y-85854281D02*
X38867393Y-86092376D01*
X38867393Y-86092376D02*
X38915013Y-86187614D01*
X38915013Y-86187614D02*
X38962632Y-86235233D01*
X38962632Y-86235233D02*
X39057870Y-86282852D01*
X39057870Y-86282852D02*
X39153108Y-86282852D01*
X39153108Y-86282852D02*
X39248346Y-86235233D01*
X39248346Y-86235233D02*
X39295965Y-86187614D01*
X39295965Y-86187614D02*
X39343584Y-86092376D01*
X39343584Y-86092376D02*
X39391203Y-85901900D01*
X39391203Y-85901900D02*
X39438822Y-85806662D01*
X39438822Y-85806662D02*
X39486441Y-85759043D01*
X39486441Y-85759043D02*
X39581679Y-85711424D01*
X39581679Y-85711424D02*
X39676917Y-85711424D01*
X39676917Y-85711424D02*
X39772155Y-85759043D01*
X39772155Y-85759043D02*
X39819774Y-85806662D01*
X39819774Y-85806662D02*
X39867393Y-85901900D01*
X39867393Y-85901900D02*
X39867393Y-86139995D01*
X39867393Y-86139995D02*
X39819774Y-86282852D01*
X39391203Y-87044757D02*
X39343584Y-87187614D01*
X39343584Y-87187614D02*
X39295965Y-87235233D01*
X39295965Y-87235233D02*
X39200727Y-87282852D01*
X39200727Y-87282852D02*
X39057870Y-87282852D01*
X39057870Y-87282852D02*
X38962632Y-87235233D01*
X38962632Y-87235233D02*
X38915013Y-87187614D01*
X38915013Y-87187614D02*
X38867393Y-87092376D01*
X38867393Y-87092376D02*
X38867393Y-86711424D01*
X38867393Y-86711424D02*
X39867393Y-86711424D01*
X39867393Y-86711424D02*
X39867393Y-87044757D01*
X39867393Y-87044757D02*
X39819774Y-87139995D01*
X39819774Y-87139995D02*
X39772155Y-87187614D01*
X39772155Y-87187614D02*
X39676917Y-87235233D01*
X39676917Y-87235233D02*
X39581679Y-87235233D01*
X39581679Y-87235233D02*
X39486441Y-87187614D01*
X39486441Y-87187614D02*
X39438822Y-87139995D01*
X39438822Y-87139995D02*
X39391203Y-87044757D01*
X39391203Y-87044757D02*
X39391203Y-86711424D01*
X46867393Y-74578090D02*
X45867393Y-74944757D01*
X45867393Y-74944757D02*
X46867393Y-75311424D01*
X45867393Y-75678090D02*
X46867393Y-75678090D01*
X45867393Y-76201900D02*
X46867393Y-76201900D01*
X46867393Y-76201900D02*
X45867393Y-76830472D01*
X45867393Y-76830472D02*
X46867393Y-76830472D01*
X46867393Y-94130471D02*
X46867393Y-94811424D01*
X46867393Y-94811424D02*
X46486441Y-94444757D01*
X46486441Y-94444757D02*
X46486441Y-94601900D01*
X46486441Y-94601900D02*
X46438822Y-94706662D01*
X46438822Y-94706662D02*
X46391203Y-94759043D01*
X46391203Y-94759043D02*
X46295965Y-94811424D01*
X46295965Y-94811424D02*
X46057870Y-94811424D01*
X46057870Y-94811424D02*
X45962632Y-94759043D01*
X45962632Y-94759043D02*
X45915013Y-94706662D01*
X45915013Y-94706662D02*
X45867393Y-94601900D01*
X45867393Y-94601900D02*
X45867393Y-94287614D01*
X45867393Y-94287614D02*
X45915013Y-94182852D01*
X45915013Y-94182852D02*
X45962632Y-94130471D01*
X45962632Y-95282852D02*
X45915013Y-95335233D01*
X45915013Y-95335233D02*
X45867393Y-95282852D01*
X45867393Y-95282852D02*
X45915013Y-95230471D01*
X45915013Y-95230471D02*
X45962632Y-95282852D01*
X45962632Y-95282852D02*
X45867393Y-95282852D01*
X46867393Y-95701900D02*
X46867393Y-96382853D01*
X46867393Y-96382853D02*
X46486441Y-96016186D01*
X46486441Y-96016186D02*
X46486441Y-96173329D01*
X46486441Y-96173329D02*
X46438822Y-96278091D01*
X46438822Y-96278091D02*
X46391203Y-96330472D01*
X46391203Y-96330472D02*
X46295965Y-96382853D01*
X46295965Y-96382853D02*
X46057870Y-96382853D01*
X46057870Y-96382853D02*
X45962632Y-96330472D01*
X45962632Y-96330472D02*
X45915013Y-96278091D01*
X45915013Y-96278091D02*
X45867393Y-96173329D01*
X45867393Y-96173329D02*
X45867393Y-95859043D01*
X45867393Y-95859043D02*
X45915013Y-95754281D01*
X45915013Y-95754281D02*
X45962632Y-95701900D01*
X46534060Y-96749519D02*
X45867393Y-97011424D01*
X45867393Y-97011424D02*
X46534060Y-97273329D01*
X49319774Y-74811424D02*
X49367393Y-74706662D01*
X49367393Y-74706662D02*
X49367393Y-74549519D01*
X49367393Y-74549519D02*
X49319774Y-74392376D01*
X49319774Y-74392376D02*
X49224536Y-74287614D01*
X49224536Y-74287614D02*
X49129298Y-74235233D01*
X49129298Y-74235233D02*
X48938822Y-74182852D01*
X48938822Y-74182852D02*
X48795965Y-74182852D01*
X48795965Y-74182852D02*
X48605489Y-74235233D01*
X48605489Y-74235233D02*
X48510251Y-74287614D01*
X48510251Y-74287614D02*
X48415013Y-74392376D01*
X48415013Y-74392376D02*
X48367393Y-74549519D01*
X48367393Y-74549519D02*
X48367393Y-74654281D01*
X48367393Y-74654281D02*
X48415013Y-74811424D01*
X48415013Y-74811424D02*
X48462632Y-74863805D01*
X48462632Y-74863805D02*
X48795965Y-74863805D01*
X48795965Y-74863805D02*
X48795965Y-74654281D01*
X48367393Y-75335233D02*
X49367393Y-75335233D01*
X49367393Y-75335233D02*
X48367393Y-75963805D01*
X48367393Y-75963805D02*
X49367393Y-75963805D01*
X48367393Y-76487614D02*
X49367393Y-76487614D01*
X49367393Y-76487614D02*
X49367393Y-76749519D01*
X49367393Y-76749519D02*
X49319774Y-76906662D01*
X49319774Y-76906662D02*
X49224536Y-77011424D01*
X49224536Y-77011424D02*
X49129298Y-77063805D01*
X49129298Y-77063805D02*
X48938822Y-77116186D01*
X48938822Y-77116186D02*
X48795965Y-77116186D01*
X48795965Y-77116186D02*
X48605489Y-77063805D01*
X48605489Y-77063805D02*
X48510251Y-77011424D01*
X48510251Y-77011424D02*
X48415013Y-76906662D01*
X48415013Y-76906662D02*
X48367393Y-76749519D01*
X48367393Y-76749519D02*
X48367393Y-76487614D01*
X49319774Y-94811424D02*
X49367393Y-94706662D01*
X49367393Y-94706662D02*
X49367393Y-94549519D01*
X49367393Y-94549519D02*
X49319774Y-94392376D01*
X49319774Y-94392376D02*
X49224536Y-94287614D01*
X49224536Y-94287614D02*
X49129298Y-94235233D01*
X49129298Y-94235233D02*
X48938822Y-94182852D01*
X48938822Y-94182852D02*
X48795965Y-94182852D01*
X48795965Y-94182852D02*
X48605489Y-94235233D01*
X48605489Y-94235233D02*
X48510251Y-94287614D01*
X48510251Y-94287614D02*
X48415013Y-94392376D01*
X48415013Y-94392376D02*
X48367393Y-94549519D01*
X48367393Y-94549519D02*
X48367393Y-94654281D01*
X48367393Y-94654281D02*
X48415013Y-94811424D01*
X48415013Y-94811424D02*
X48462632Y-94863805D01*
X48462632Y-94863805D02*
X48795965Y-94863805D01*
X48795965Y-94863805D02*
X48795965Y-94654281D01*
X48367393Y-95335233D02*
X49367393Y-95335233D01*
X49367393Y-95335233D02*
X48367393Y-95963805D01*
X48367393Y-95963805D02*
X49367393Y-95963805D01*
X48367393Y-96487614D02*
X49367393Y-96487614D01*
X49367393Y-96487614D02*
X49367393Y-96749519D01*
X49367393Y-96749519D02*
X49319774Y-96906662D01*
X49319774Y-96906662D02*
X49224536Y-97011424D01*
X49224536Y-97011424D02*
X49129298Y-97063805D01*
X49129298Y-97063805D02*
X48938822Y-97116186D01*
X48938822Y-97116186D02*
X48795965Y-97116186D01*
X48795965Y-97116186D02*
X48605489Y-97063805D01*
X48605489Y-97063805D02*
X48510251Y-97011424D01*
X48510251Y-97011424D02*
X48415013Y-96906662D01*
X48415013Y-96906662D02*
X48367393Y-96749519D01*
X48367393Y-96749519D02*
X48367393Y-96487614D01*
X51819774Y-74811424D02*
X51867393Y-74706662D01*
X51867393Y-74706662D02*
X51867393Y-74549519D01*
X51867393Y-74549519D02*
X51819774Y-74392376D01*
X51819774Y-74392376D02*
X51724536Y-74287614D01*
X51724536Y-74287614D02*
X51629298Y-74235233D01*
X51629298Y-74235233D02*
X51438822Y-74182852D01*
X51438822Y-74182852D02*
X51295965Y-74182852D01*
X51295965Y-74182852D02*
X51105489Y-74235233D01*
X51105489Y-74235233D02*
X51010251Y-74287614D01*
X51010251Y-74287614D02*
X50915013Y-74392376D01*
X50915013Y-74392376D02*
X50867393Y-74549519D01*
X50867393Y-74549519D02*
X50867393Y-74654281D01*
X50867393Y-74654281D02*
X50915013Y-74811424D01*
X50915013Y-74811424D02*
X50962632Y-74863805D01*
X50962632Y-74863805D02*
X51295965Y-74863805D01*
X51295965Y-74863805D02*
X51295965Y-74654281D01*
X50867393Y-75335233D02*
X51867393Y-75335233D01*
X51867393Y-75335233D02*
X51867393Y-75754281D01*
X51867393Y-75754281D02*
X51819774Y-75859043D01*
X51819774Y-75859043D02*
X51772155Y-75911424D01*
X51772155Y-75911424D02*
X51676917Y-75963805D01*
X51676917Y-75963805D02*
X51534060Y-75963805D01*
X51534060Y-75963805D02*
X51438822Y-75911424D01*
X51438822Y-75911424D02*
X51391203Y-75859043D01*
X51391203Y-75859043D02*
X51343584Y-75754281D01*
X51343584Y-75754281D02*
X51343584Y-75335233D01*
X50867393Y-76435233D02*
X51867393Y-76435233D01*
X51867393Y-77168567D02*
X51867393Y-77378091D01*
X51867393Y-77378091D02*
X51819774Y-77482853D01*
X51819774Y-77482853D02*
X51724536Y-77587615D01*
X51724536Y-77587615D02*
X51534060Y-77639996D01*
X51534060Y-77639996D02*
X51200727Y-77639996D01*
X51200727Y-77639996D02*
X51010251Y-77587615D01*
X51010251Y-77587615D02*
X50915013Y-77482853D01*
X50915013Y-77482853D02*
X50867393Y-77378091D01*
X50867393Y-77378091D02*
X50867393Y-77168567D01*
X50867393Y-77168567D02*
X50915013Y-77063805D01*
X50915013Y-77063805D02*
X51010251Y-76959043D01*
X51010251Y-76959043D02*
X51200727Y-76906662D01*
X51200727Y-76906662D02*
X51534060Y-76906662D01*
X51534060Y-76906662D02*
X51724536Y-76959043D01*
X51724536Y-76959043D02*
X51819774Y-77063805D01*
X51819774Y-77063805D02*
X51867393Y-77168567D01*
X50867393Y-78687615D02*
X50867393Y-78059043D01*
X50867393Y-78373329D02*
X51867393Y-78373329D01*
X51867393Y-78373329D02*
X51724536Y-78268567D01*
X51724536Y-78268567D02*
X51629298Y-78163805D01*
X51629298Y-78163805D02*
X51581679Y-78059043D01*
X51867393Y-79054281D02*
X51867393Y-79735234D01*
X51867393Y-79735234D02*
X51486441Y-79368567D01*
X51486441Y-79368567D02*
X51486441Y-79525710D01*
X51486441Y-79525710D02*
X51438822Y-79630472D01*
X51438822Y-79630472D02*
X51391203Y-79682853D01*
X51391203Y-79682853D02*
X51295965Y-79735234D01*
X51295965Y-79735234D02*
X51057870Y-79735234D01*
X51057870Y-79735234D02*
X50962632Y-79682853D01*
X50962632Y-79682853D02*
X50915013Y-79630472D01*
X50915013Y-79630472D02*
X50867393Y-79525710D01*
X50867393Y-79525710D02*
X50867393Y-79211424D01*
X50867393Y-79211424D02*
X50915013Y-79106662D01*
X50915013Y-79106662D02*
X50962632Y-79054281D01*
X51819774Y-92311424D02*
X51867393Y-92206662D01*
X51867393Y-92206662D02*
X51867393Y-92049519D01*
X51867393Y-92049519D02*
X51819774Y-91892376D01*
X51819774Y-91892376D02*
X51724536Y-91787614D01*
X51724536Y-91787614D02*
X51629298Y-91735233D01*
X51629298Y-91735233D02*
X51438822Y-91682852D01*
X51438822Y-91682852D02*
X51295965Y-91682852D01*
X51295965Y-91682852D02*
X51105489Y-91735233D01*
X51105489Y-91735233D02*
X51010251Y-91787614D01*
X51010251Y-91787614D02*
X50915013Y-91892376D01*
X50915013Y-91892376D02*
X50867393Y-92049519D01*
X50867393Y-92049519D02*
X50867393Y-92154281D01*
X50867393Y-92154281D02*
X50915013Y-92311424D01*
X50915013Y-92311424D02*
X50962632Y-92363805D01*
X50962632Y-92363805D02*
X51295965Y-92363805D01*
X51295965Y-92363805D02*
X51295965Y-92154281D01*
X50867393Y-92835233D02*
X51867393Y-92835233D01*
X51867393Y-92835233D02*
X51867393Y-93254281D01*
X51867393Y-93254281D02*
X51819774Y-93359043D01*
X51819774Y-93359043D02*
X51772155Y-93411424D01*
X51772155Y-93411424D02*
X51676917Y-93463805D01*
X51676917Y-93463805D02*
X51534060Y-93463805D01*
X51534060Y-93463805D02*
X51438822Y-93411424D01*
X51438822Y-93411424D02*
X51391203Y-93359043D01*
X51391203Y-93359043D02*
X51343584Y-93254281D01*
X51343584Y-93254281D02*
X51343584Y-92835233D01*
X50867393Y-93935233D02*
X51867393Y-93935233D01*
X51867393Y-94668567D02*
X51867393Y-94878091D01*
X51867393Y-94878091D02*
X51819774Y-94982853D01*
X51819774Y-94982853D02*
X51724536Y-95087615D01*
X51724536Y-95087615D02*
X51534060Y-95139996D01*
X51534060Y-95139996D02*
X51200727Y-95139996D01*
X51200727Y-95139996D02*
X51010251Y-95087615D01*
X51010251Y-95087615D02*
X50915013Y-94982853D01*
X50915013Y-94982853D02*
X50867393Y-94878091D01*
X50867393Y-94878091D02*
X50867393Y-94668567D01*
X50867393Y-94668567D02*
X50915013Y-94563805D01*
X50915013Y-94563805D02*
X51010251Y-94459043D01*
X51010251Y-94459043D02*
X51200727Y-94406662D01*
X51200727Y-94406662D02*
X51534060Y-94406662D01*
X51534060Y-94406662D02*
X51724536Y-94459043D01*
X51724536Y-94459043D02*
X51819774Y-94563805D01*
X51819774Y-94563805D02*
X51867393Y-94668567D01*
X50867393Y-96187615D02*
X50867393Y-95559043D01*
X50867393Y-95873329D02*
X51867393Y-95873329D01*
X51867393Y-95873329D02*
X51724536Y-95768567D01*
X51724536Y-95768567D02*
X51629298Y-95663805D01*
X51629298Y-95663805D02*
X51581679Y-95559043D01*
X51867393Y-97182853D02*
X51867393Y-96659043D01*
X51867393Y-96659043D02*
X51391203Y-96606662D01*
X51391203Y-96606662D02*
X51438822Y-96659043D01*
X51438822Y-96659043D02*
X51486441Y-96763805D01*
X51486441Y-96763805D02*
X51486441Y-97025710D01*
X51486441Y-97025710D02*
X51438822Y-97130472D01*
X51438822Y-97130472D02*
X51391203Y-97182853D01*
X51391203Y-97182853D02*
X51295965Y-97235234D01*
X51295965Y-97235234D02*
X51057870Y-97235234D01*
X51057870Y-97235234D02*
X50962632Y-97182853D01*
X50962632Y-97182853D02*
X50915013Y-97130472D01*
X50915013Y-97130472D02*
X50867393Y-97025710D01*
X50867393Y-97025710D02*
X50867393Y-96763805D01*
X50867393Y-96763805D02*
X50915013Y-96659043D01*
X50915013Y-96659043D02*
X50962632Y-96606662D01*
X54319774Y-74811424D02*
X54367393Y-74706662D01*
X54367393Y-74706662D02*
X54367393Y-74549519D01*
X54367393Y-74549519D02*
X54319774Y-74392376D01*
X54319774Y-74392376D02*
X54224536Y-74287614D01*
X54224536Y-74287614D02*
X54129298Y-74235233D01*
X54129298Y-74235233D02*
X53938822Y-74182852D01*
X53938822Y-74182852D02*
X53795965Y-74182852D01*
X53795965Y-74182852D02*
X53605489Y-74235233D01*
X53605489Y-74235233D02*
X53510251Y-74287614D01*
X53510251Y-74287614D02*
X53415013Y-74392376D01*
X53415013Y-74392376D02*
X53367393Y-74549519D01*
X53367393Y-74549519D02*
X53367393Y-74654281D01*
X53367393Y-74654281D02*
X53415013Y-74811424D01*
X53415013Y-74811424D02*
X53462632Y-74863805D01*
X53462632Y-74863805D02*
X53795965Y-74863805D01*
X53795965Y-74863805D02*
X53795965Y-74654281D01*
X53367393Y-75335233D02*
X54367393Y-75335233D01*
X54367393Y-75335233D02*
X54367393Y-75754281D01*
X54367393Y-75754281D02*
X54319774Y-75859043D01*
X54319774Y-75859043D02*
X54272155Y-75911424D01*
X54272155Y-75911424D02*
X54176917Y-75963805D01*
X54176917Y-75963805D02*
X54034060Y-75963805D01*
X54034060Y-75963805D02*
X53938822Y-75911424D01*
X53938822Y-75911424D02*
X53891203Y-75859043D01*
X53891203Y-75859043D02*
X53843584Y-75754281D01*
X53843584Y-75754281D02*
X53843584Y-75335233D01*
X53367393Y-76435233D02*
X54367393Y-76435233D01*
X54367393Y-77168567D02*
X54367393Y-77378091D01*
X54367393Y-77378091D02*
X54319774Y-77482853D01*
X54319774Y-77482853D02*
X54224536Y-77587615D01*
X54224536Y-77587615D02*
X54034060Y-77639996D01*
X54034060Y-77639996D02*
X53700727Y-77639996D01*
X53700727Y-77639996D02*
X53510251Y-77587615D01*
X53510251Y-77587615D02*
X53415013Y-77482853D01*
X53415013Y-77482853D02*
X53367393Y-77378091D01*
X53367393Y-77378091D02*
X53367393Y-77168567D01*
X53367393Y-77168567D02*
X53415013Y-77063805D01*
X53415013Y-77063805D02*
X53510251Y-76959043D01*
X53510251Y-76959043D02*
X53700727Y-76906662D01*
X53700727Y-76906662D02*
X54034060Y-76906662D01*
X54034060Y-76906662D02*
X54224536Y-76959043D01*
X54224536Y-76959043D02*
X54319774Y-77063805D01*
X54319774Y-77063805D02*
X54367393Y-77168567D01*
X53367393Y-78687615D02*
X53367393Y-78059043D01*
X53367393Y-78373329D02*
X54367393Y-78373329D01*
X54367393Y-78373329D02*
X54224536Y-78268567D01*
X54224536Y-78268567D02*
X54129298Y-78163805D01*
X54129298Y-78163805D02*
X54081679Y-78059043D01*
X54272155Y-79106662D02*
X54319774Y-79159043D01*
X54319774Y-79159043D02*
X54367393Y-79263805D01*
X54367393Y-79263805D02*
X54367393Y-79525710D01*
X54367393Y-79525710D02*
X54319774Y-79630472D01*
X54319774Y-79630472D02*
X54272155Y-79682853D01*
X54272155Y-79682853D02*
X54176917Y-79735234D01*
X54176917Y-79735234D02*
X54081679Y-79735234D01*
X54081679Y-79735234D02*
X53938822Y-79682853D01*
X53938822Y-79682853D02*
X53367393Y-79054281D01*
X53367393Y-79054281D02*
X53367393Y-79735234D01*
X54319774Y-93311424D02*
X54367393Y-93206662D01*
X54367393Y-93206662D02*
X54367393Y-93049519D01*
X54367393Y-93049519D02*
X54319774Y-92892376D01*
X54319774Y-92892376D02*
X54224536Y-92787614D01*
X54224536Y-92787614D02*
X54129298Y-92735233D01*
X54129298Y-92735233D02*
X53938822Y-92682852D01*
X53938822Y-92682852D02*
X53795965Y-92682852D01*
X53795965Y-92682852D02*
X53605489Y-92735233D01*
X53605489Y-92735233D02*
X53510251Y-92787614D01*
X53510251Y-92787614D02*
X53415013Y-92892376D01*
X53415013Y-92892376D02*
X53367393Y-93049519D01*
X53367393Y-93049519D02*
X53367393Y-93154281D01*
X53367393Y-93154281D02*
X53415013Y-93311424D01*
X53415013Y-93311424D02*
X53462632Y-93363805D01*
X53462632Y-93363805D02*
X53795965Y-93363805D01*
X53795965Y-93363805D02*
X53795965Y-93154281D01*
X53367393Y-93835233D02*
X54367393Y-93835233D01*
X54367393Y-93835233D02*
X54367393Y-94254281D01*
X54367393Y-94254281D02*
X54319774Y-94359043D01*
X54319774Y-94359043D02*
X54272155Y-94411424D01*
X54272155Y-94411424D02*
X54176917Y-94463805D01*
X54176917Y-94463805D02*
X54034060Y-94463805D01*
X54034060Y-94463805D02*
X53938822Y-94411424D01*
X53938822Y-94411424D02*
X53891203Y-94359043D01*
X53891203Y-94359043D02*
X53843584Y-94254281D01*
X53843584Y-94254281D02*
X53843584Y-93835233D01*
X53367393Y-94935233D02*
X54367393Y-94935233D01*
X54367393Y-95668567D02*
X54367393Y-95878091D01*
X54367393Y-95878091D02*
X54319774Y-95982853D01*
X54319774Y-95982853D02*
X54224536Y-96087615D01*
X54224536Y-96087615D02*
X54034060Y-96139996D01*
X54034060Y-96139996D02*
X53700727Y-96139996D01*
X53700727Y-96139996D02*
X53510251Y-96087615D01*
X53510251Y-96087615D02*
X53415013Y-95982853D01*
X53415013Y-95982853D02*
X53367393Y-95878091D01*
X53367393Y-95878091D02*
X53367393Y-95668567D01*
X53367393Y-95668567D02*
X53415013Y-95563805D01*
X53415013Y-95563805D02*
X53510251Y-95459043D01*
X53510251Y-95459043D02*
X53700727Y-95406662D01*
X53700727Y-95406662D02*
X54034060Y-95406662D01*
X54034060Y-95406662D02*
X54224536Y-95459043D01*
X54224536Y-95459043D02*
X54319774Y-95563805D01*
X54319774Y-95563805D02*
X54367393Y-95668567D01*
X54272155Y-96559043D02*
X54319774Y-96611424D01*
X54319774Y-96611424D02*
X54367393Y-96716186D01*
X54367393Y-96716186D02*
X54367393Y-96978091D01*
X54367393Y-96978091D02*
X54319774Y-97082853D01*
X54319774Y-97082853D02*
X54272155Y-97135234D01*
X54272155Y-97135234D02*
X54176917Y-97187615D01*
X54176917Y-97187615D02*
X54081679Y-97187615D01*
X54081679Y-97187615D02*
X53938822Y-97135234D01*
X53938822Y-97135234D02*
X53367393Y-96506662D01*
X53367393Y-96506662D02*
X53367393Y-97187615D01*
X56819774Y-74811424D02*
X56867393Y-74706662D01*
X56867393Y-74706662D02*
X56867393Y-74549519D01*
X56867393Y-74549519D02*
X56819774Y-74392376D01*
X56819774Y-74392376D02*
X56724536Y-74287614D01*
X56724536Y-74287614D02*
X56629298Y-74235233D01*
X56629298Y-74235233D02*
X56438822Y-74182852D01*
X56438822Y-74182852D02*
X56295965Y-74182852D01*
X56295965Y-74182852D02*
X56105489Y-74235233D01*
X56105489Y-74235233D02*
X56010251Y-74287614D01*
X56010251Y-74287614D02*
X55915013Y-74392376D01*
X55915013Y-74392376D02*
X55867393Y-74549519D01*
X55867393Y-74549519D02*
X55867393Y-74654281D01*
X55867393Y-74654281D02*
X55915013Y-74811424D01*
X55915013Y-74811424D02*
X55962632Y-74863805D01*
X55962632Y-74863805D02*
X56295965Y-74863805D01*
X56295965Y-74863805D02*
X56295965Y-74654281D01*
X55867393Y-75335233D02*
X56867393Y-75335233D01*
X56867393Y-75335233D02*
X56867393Y-75754281D01*
X56867393Y-75754281D02*
X56819774Y-75859043D01*
X56819774Y-75859043D02*
X56772155Y-75911424D01*
X56772155Y-75911424D02*
X56676917Y-75963805D01*
X56676917Y-75963805D02*
X56534060Y-75963805D01*
X56534060Y-75963805D02*
X56438822Y-75911424D01*
X56438822Y-75911424D02*
X56391203Y-75859043D01*
X56391203Y-75859043D02*
X56343584Y-75754281D01*
X56343584Y-75754281D02*
X56343584Y-75335233D01*
X55867393Y-76435233D02*
X56867393Y-76435233D01*
X56867393Y-77168567D02*
X56867393Y-77378091D01*
X56867393Y-77378091D02*
X56819774Y-77482853D01*
X56819774Y-77482853D02*
X56724536Y-77587615D01*
X56724536Y-77587615D02*
X56534060Y-77639996D01*
X56534060Y-77639996D02*
X56200727Y-77639996D01*
X56200727Y-77639996D02*
X56010251Y-77587615D01*
X56010251Y-77587615D02*
X55915013Y-77482853D01*
X55915013Y-77482853D02*
X55867393Y-77378091D01*
X55867393Y-77378091D02*
X55867393Y-77168567D01*
X55867393Y-77168567D02*
X55915013Y-77063805D01*
X55915013Y-77063805D02*
X56010251Y-76959043D01*
X56010251Y-76959043D02*
X56200727Y-76906662D01*
X56200727Y-76906662D02*
X56534060Y-76906662D01*
X56534060Y-76906662D02*
X56724536Y-76959043D01*
X56724536Y-76959043D02*
X56819774Y-77063805D01*
X56819774Y-77063805D02*
X56867393Y-77168567D01*
X55867393Y-78687615D02*
X55867393Y-78059043D01*
X55867393Y-78373329D02*
X56867393Y-78373329D01*
X56867393Y-78373329D02*
X56724536Y-78268567D01*
X56724536Y-78268567D02*
X56629298Y-78163805D01*
X56629298Y-78163805D02*
X56581679Y-78059043D01*
X56534060Y-79630472D02*
X55867393Y-79630472D01*
X56915013Y-79368567D02*
X56200727Y-79106662D01*
X56200727Y-79106662D02*
X56200727Y-79787615D01*
X56819774Y-93311424D02*
X56867393Y-93206662D01*
X56867393Y-93206662D02*
X56867393Y-93049519D01*
X56867393Y-93049519D02*
X56819774Y-92892376D01*
X56819774Y-92892376D02*
X56724536Y-92787614D01*
X56724536Y-92787614D02*
X56629298Y-92735233D01*
X56629298Y-92735233D02*
X56438822Y-92682852D01*
X56438822Y-92682852D02*
X56295965Y-92682852D01*
X56295965Y-92682852D02*
X56105489Y-92735233D01*
X56105489Y-92735233D02*
X56010251Y-92787614D01*
X56010251Y-92787614D02*
X55915013Y-92892376D01*
X55915013Y-92892376D02*
X55867393Y-93049519D01*
X55867393Y-93049519D02*
X55867393Y-93154281D01*
X55867393Y-93154281D02*
X55915013Y-93311424D01*
X55915013Y-93311424D02*
X55962632Y-93363805D01*
X55962632Y-93363805D02*
X56295965Y-93363805D01*
X56295965Y-93363805D02*
X56295965Y-93154281D01*
X55867393Y-93835233D02*
X56867393Y-93835233D01*
X56867393Y-93835233D02*
X56867393Y-94254281D01*
X56867393Y-94254281D02*
X56819774Y-94359043D01*
X56819774Y-94359043D02*
X56772155Y-94411424D01*
X56772155Y-94411424D02*
X56676917Y-94463805D01*
X56676917Y-94463805D02*
X56534060Y-94463805D01*
X56534060Y-94463805D02*
X56438822Y-94411424D01*
X56438822Y-94411424D02*
X56391203Y-94359043D01*
X56391203Y-94359043D02*
X56343584Y-94254281D01*
X56343584Y-94254281D02*
X56343584Y-93835233D01*
X55867393Y-94935233D02*
X56867393Y-94935233D01*
X56867393Y-95668567D02*
X56867393Y-95878091D01*
X56867393Y-95878091D02*
X56819774Y-95982853D01*
X56819774Y-95982853D02*
X56724536Y-96087615D01*
X56724536Y-96087615D02*
X56534060Y-96139996D01*
X56534060Y-96139996D02*
X56200727Y-96139996D01*
X56200727Y-96139996D02*
X56010251Y-96087615D01*
X56010251Y-96087615D02*
X55915013Y-95982853D01*
X55915013Y-95982853D02*
X55867393Y-95878091D01*
X55867393Y-95878091D02*
X55867393Y-95668567D01*
X55867393Y-95668567D02*
X55915013Y-95563805D01*
X55915013Y-95563805D02*
X56010251Y-95459043D01*
X56010251Y-95459043D02*
X56200727Y-95406662D01*
X56200727Y-95406662D02*
X56534060Y-95406662D01*
X56534060Y-95406662D02*
X56724536Y-95459043D01*
X56724536Y-95459043D02*
X56819774Y-95563805D01*
X56819774Y-95563805D02*
X56867393Y-95668567D01*
X56534060Y-97082853D02*
X55867393Y-97082853D01*
X56915013Y-96820948D02*
X56200727Y-96559043D01*
X56200727Y-96559043D02*
X56200727Y-97239996D01*
X59319774Y-74811424D02*
X59367393Y-74706662D01*
X59367393Y-74706662D02*
X59367393Y-74549519D01*
X59367393Y-74549519D02*
X59319774Y-74392376D01*
X59319774Y-74392376D02*
X59224536Y-74287614D01*
X59224536Y-74287614D02*
X59129298Y-74235233D01*
X59129298Y-74235233D02*
X58938822Y-74182852D01*
X58938822Y-74182852D02*
X58795965Y-74182852D01*
X58795965Y-74182852D02*
X58605489Y-74235233D01*
X58605489Y-74235233D02*
X58510251Y-74287614D01*
X58510251Y-74287614D02*
X58415013Y-74392376D01*
X58415013Y-74392376D02*
X58367393Y-74549519D01*
X58367393Y-74549519D02*
X58367393Y-74654281D01*
X58367393Y-74654281D02*
X58415013Y-74811424D01*
X58415013Y-74811424D02*
X58462632Y-74863805D01*
X58462632Y-74863805D02*
X58795965Y-74863805D01*
X58795965Y-74863805D02*
X58795965Y-74654281D01*
X58367393Y-75335233D02*
X59367393Y-75335233D01*
X59367393Y-75335233D02*
X59367393Y-75754281D01*
X59367393Y-75754281D02*
X59319774Y-75859043D01*
X59319774Y-75859043D02*
X59272155Y-75911424D01*
X59272155Y-75911424D02*
X59176917Y-75963805D01*
X59176917Y-75963805D02*
X59034060Y-75963805D01*
X59034060Y-75963805D02*
X58938822Y-75911424D01*
X58938822Y-75911424D02*
X58891203Y-75859043D01*
X58891203Y-75859043D02*
X58843584Y-75754281D01*
X58843584Y-75754281D02*
X58843584Y-75335233D01*
X58367393Y-76435233D02*
X59367393Y-76435233D01*
X59367393Y-77168567D02*
X59367393Y-77378091D01*
X59367393Y-77378091D02*
X59319774Y-77482853D01*
X59319774Y-77482853D02*
X59224536Y-77587615D01*
X59224536Y-77587615D02*
X59034060Y-77639996D01*
X59034060Y-77639996D02*
X58700727Y-77639996D01*
X58700727Y-77639996D02*
X58510251Y-77587615D01*
X58510251Y-77587615D02*
X58415013Y-77482853D01*
X58415013Y-77482853D02*
X58367393Y-77378091D01*
X58367393Y-77378091D02*
X58367393Y-77168567D01*
X58367393Y-77168567D02*
X58415013Y-77063805D01*
X58415013Y-77063805D02*
X58510251Y-76959043D01*
X58510251Y-76959043D02*
X58700727Y-76906662D01*
X58700727Y-76906662D02*
X59034060Y-76906662D01*
X59034060Y-76906662D02*
X59224536Y-76959043D01*
X59224536Y-76959043D02*
X59319774Y-77063805D01*
X59319774Y-77063805D02*
X59367393Y-77168567D01*
X59272155Y-78059043D02*
X59319774Y-78111424D01*
X59319774Y-78111424D02*
X59367393Y-78216186D01*
X59367393Y-78216186D02*
X59367393Y-78478091D01*
X59367393Y-78478091D02*
X59319774Y-78582853D01*
X59319774Y-78582853D02*
X59272155Y-78635234D01*
X59272155Y-78635234D02*
X59176917Y-78687615D01*
X59176917Y-78687615D02*
X59081679Y-78687615D01*
X59081679Y-78687615D02*
X58938822Y-78635234D01*
X58938822Y-78635234D02*
X58367393Y-78006662D01*
X58367393Y-78006662D02*
X58367393Y-78687615D01*
X59367393Y-79054281D02*
X59367393Y-79787615D01*
X59367393Y-79787615D02*
X58367393Y-79316186D01*
X59319774Y-92311424D02*
X59367393Y-92206662D01*
X59367393Y-92206662D02*
X59367393Y-92049519D01*
X59367393Y-92049519D02*
X59319774Y-91892376D01*
X59319774Y-91892376D02*
X59224536Y-91787614D01*
X59224536Y-91787614D02*
X59129298Y-91735233D01*
X59129298Y-91735233D02*
X58938822Y-91682852D01*
X58938822Y-91682852D02*
X58795965Y-91682852D01*
X58795965Y-91682852D02*
X58605489Y-91735233D01*
X58605489Y-91735233D02*
X58510251Y-91787614D01*
X58510251Y-91787614D02*
X58415013Y-91892376D01*
X58415013Y-91892376D02*
X58367393Y-92049519D01*
X58367393Y-92049519D02*
X58367393Y-92154281D01*
X58367393Y-92154281D02*
X58415013Y-92311424D01*
X58415013Y-92311424D02*
X58462632Y-92363805D01*
X58462632Y-92363805D02*
X58795965Y-92363805D01*
X58795965Y-92363805D02*
X58795965Y-92154281D01*
X58367393Y-92835233D02*
X59367393Y-92835233D01*
X59367393Y-92835233D02*
X59367393Y-93254281D01*
X59367393Y-93254281D02*
X59319774Y-93359043D01*
X59319774Y-93359043D02*
X59272155Y-93411424D01*
X59272155Y-93411424D02*
X59176917Y-93463805D01*
X59176917Y-93463805D02*
X59034060Y-93463805D01*
X59034060Y-93463805D02*
X58938822Y-93411424D01*
X58938822Y-93411424D02*
X58891203Y-93359043D01*
X58891203Y-93359043D02*
X58843584Y-93254281D01*
X58843584Y-93254281D02*
X58843584Y-92835233D01*
X58367393Y-93935233D02*
X59367393Y-93935233D01*
X59367393Y-94668567D02*
X59367393Y-94878091D01*
X59367393Y-94878091D02*
X59319774Y-94982853D01*
X59319774Y-94982853D02*
X59224536Y-95087615D01*
X59224536Y-95087615D02*
X59034060Y-95139996D01*
X59034060Y-95139996D02*
X58700727Y-95139996D01*
X58700727Y-95139996D02*
X58510251Y-95087615D01*
X58510251Y-95087615D02*
X58415013Y-94982853D01*
X58415013Y-94982853D02*
X58367393Y-94878091D01*
X58367393Y-94878091D02*
X58367393Y-94668567D01*
X58367393Y-94668567D02*
X58415013Y-94563805D01*
X58415013Y-94563805D02*
X58510251Y-94459043D01*
X58510251Y-94459043D02*
X58700727Y-94406662D01*
X58700727Y-94406662D02*
X59034060Y-94406662D01*
X59034060Y-94406662D02*
X59224536Y-94459043D01*
X59224536Y-94459043D02*
X59319774Y-94563805D01*
X59319774Y-94563805D02*
X59367393Y-94668567D01*
X58367393Y-96187615D02*
X58367393Y-95559043D01*
X58367393Y-95873329D02*
X59367393Y-95873329D01*
X59367393Y-95873329D02*
X59224536Y-95768567D01*
X59224536Y-95768567D02*
X59129298Y-95663805D01*
X59129298Y-95663805D02*
X59081679Y-95559043D01*
X59367393Y-97130472D02*
X59367393Y-96920948D01*
X59367393Y-96920948D02*
X59319774Y-96816186D01*
X59319774Y-96816186D02*
X59272155Y-96763805D01*
X59272155Y-96763805D02*
X59129298Y-96659043D01*
X59129298Y-96659043D02*
X58938822Y-96606662D01*
X58938822Y-96606662D02*
X58557870Y-96606662D01*
X58557870Y-96606662D02*
X58462632Y-96659043D01*
X58462632Y-96659043D02*
X58415013Y-96711424D01*
X58415013Y-96711424D02*
X58367393Y-96816186D01*
X58367393Y-96816186D02*
X58367393Y-97025710D01*
X58367393Y-97025710D02*
X58415013Y-97130472D01*
X58415013Y-97130472D02*
X58462632Y-97182853D01*
X58462632Y-97182853D02*
X58557870Y-97235234D01*
X58557870Y-97235234D02*
X58795965Y-97235234D01*
X58795965Y-97235234D02*
X58891203Y-97182853D01*
X58891203Y-97182853D02*
X58938822Y-97130472D01*
X58938822Y-97130472D02*
X58986441Y-97025710D01*
X58986441Y-97025710D02*
X58986441Y-96816186D01*
X58986441Y-96816186D02*
X58938822Y-96711424D01*
X58938822Y-96711424D02*
X58891203Y-96659043D01*
X58891203Y-96659043D02*
X58795965Y-96606662D01*
X61819774Y-74811424D02*
X61867393Y-74706662D01*
X61867393Y-74706662D02*
X61867393Y-74549519D01*
X61867393Y-74549519D02*
X61819774Y-74392376D01*
X61819774Y-74392376D02*
X61724536Y-74287614D01*
X61724536Y-74287614D02*
X61629298Y-74235233D01*
X61629298Y-74235233D02*
X61438822Y-74182852D01*
X61438822Y-74182852D02*
X61295965Y-74182852D01*
X61295965Y-74182852D02*
X61105489Y-74235233D01*
X61105489Y-74235233D02*
X61010251Y-74287614D01*
X61010251Y-74287614D02*
X60915013Y-74392376D01*
X60915013Y-74392376D02*
X60867393Y-74549519D01*
X60867393Y-74549519D02*
X60867393Y-74654281D01*
X60867393Y-74654281D02*
X60915013Y-74811424D01*
X60915013Y-74811424D02*
X60962632Y-74863805D01*
X60962632Y-74863805D02*
X61295965Y-74863805D01*
X61295965Y-74863805D02*
X61295965Y-74654281D01*
X60867393Y-75335233D02*
X61867393Y-75335233D01*
X61867393Y-75335233D02*
X61867393Y-75754281D01*
X61867393Y-75754281D02*
X61819774Y-75859043D01*
X61819774Y-75859043D02*
X61772155Y-75911424D01*
X61772155Y-75911424D02*
X61676917Y-75963805D01*
X61676917Y-75963805D02*
X61534060Y-75963805D01*
X61534060Y-75963805D02*
X61438822Y-75911424D01*
X61438822Y-75911424D02*
X61391203Y-75859043D01*
X61391203Y-75859043D02*
X61343584Y-75754281D01*
X61343584Y-75754281D02*
X61343584Y-75335233D01*
X60867393Y-76435233D02*
X61867393Y-76435233D01*
X61867393Y-77168567D02*
X61867393Y-77378091D01*
X61867393Y-77378091D02*
X61819774Y-77482853D01*
X61819774Y-77482853D02*
X61724536Y-77587615D01*
X61724536Y-77587615D02*
X61534060Y-77639996D01*
X61534060Y-77639996D02*
X61200727Y-77639996D01*
X61200727Y-77639996D02*
X61010251Y-77587615D01*
X61010251Y-77587615D02*
X60915013Y-77482853D01*
X60915013Y-77482853D02*
X60867393Y-77378091D01*
X60867393Y-77378091D02*
X60867393Y-77168567D01*
X60867393Y-77168567D02*
X60915013Y-77063805D01*
X60915013Y-77063805D02*
X61010251Y-76959043D01*
X61010251Y-76959043D02*
X61200727Y-76906662D01*
X61200727Y-76906662D02*
X61534060Y-76906662D01*
X61534060Y-76906662D02*
X61724536Y-76959043D01*
X61724536Y-76959043D02*
X61819774Y-77063805D01*
X61819774Y-77063805D02*
X61867393Y-77168567D01*
X61772155Y-78059043D02*
X61819774Y-78111424D01*
X61819774Y-78111424D02*
X61867393Y-78216186D01*
X61867393Y-78216186D02*
X61867393Y-78478091D01*
X61867393Y-78478091D02*
X61819774Y-78582853D01*
X61819774Y-78582853D02*
X61772155Y-78635234D01*
X61772155Y-78635234D02*
X61676917Y-78687615D01*
X61676917Y-78687615D02*
X61581679Y-78687615D01*
X61581679Y-78687615D02*
X61438822Y-78635234D01*
X61438822Y-78635234D02*
X60867393Y-78006662D01*
X60867393Y-78006662D02*
X60867393Y-78687615D01*
X61867393Y-79630472D02*
X61867393Y-79420948D01*
X61867393Y-79420948D02*
X61819774Y-79316186D01*
X61819774Y-79316186D02*
X61772155Y-79263805D01*
X61772155Y-79263805D02*
X61629298Y-79159043D01*
X61629298Y-79159043D02*
X61438822Y-79106662D01*
X61438822Y-79106662D02*
X61057870Y-79106662D01*
X61057870Y-79106662D02*
X60962632Y-79159043D01*
X60962632Y-79159043D02*
X60915013Y-79211424D01*
X60915013Y-79211424D02*
X60867393Y-79316186D01*
X60867393Y-79316186D02*
X60867393Y-79525710D01*
X60867393Y-79525710D02*
X60915013Y-79630472D01*
X60915013Y-79630472D02*
X60962632Y-79682853D01*
X60962632Y-79682853D02*
X61057870Y-79735234D01*
X61057870Y-79735234D02*
X61295965Y-79735234D01*
X61295965Y-79735234D02*
X61391203Y-79682853D01*
X61391203Y-79682853D02*
X61438822Y-79630472D01*
X61438822Y-79630472D02*
X61486441Y-79525710D01*
X61486441Y-79525710D02*
X61486441Y-79316186D01*
X61486441Y-79316186D02*
X61438822Y-79211424D01*
X61438822Y-79211424D02*
X61391203Y-79159043D01*
X61391203Y-79159043D02*
X61295965Y-79106662D01*
X61819774Y-92311424D02*
X61867393Y-92206662D01*
X61867393Y-92206662D02*
X61867393Y-92049519D01*
X61867393Y-92049519D02*
X61819774Y-91892376D01*
X61819774Y-91892376D02*
X61724536Y-91787614D01*
X61724536Y-91787614D02*
X61629298Y-91735233D01*
X61629298Y-91735233D02*
X61438822Y-91682852D01*
X61438822Y-91682852D02*
X61295965Y-91682852D01*
X61295965Y-91682852D02*
X61105489Y-91735233D01*
X61105489Y-91735233D02*
X61010251Y-91787614D01*
X61010251Y-91787614D02*
X60915013Y-91892376D01*
X60915013Y-91892376D02*
X60867393Y-92049519D01*
X60867393Y-92049519D02*
X60867393Y-92154281D01*
X60867393Y-92154281D02*
X60915013Y-92311424D01*
X60915013Y-92311424D02*
X60962632Y-92363805D01*
X60962632Y-92363805D02*
X61295965Y-92363805D01*
X61295965Y-92363805D02*
X61295965Y-92154281D01*
X60867393Y-92835233D02*
X61867393Y-92835233D01*
X61867393Y-92835233D02*
X61867393Y-93254281D01*
X61867393Y-93254281D02*
X61819774Y-93359043D01*
X61819774Y-93359043D02*
X61772155Y-93411424D01*
X61772155Y-93411424D02*
X61676917Y-93463805D01*
X61676917Y-93463805D02*
X61534060Y-93463805D01*
X61534060Y-93463805D02*
X61438822Y-93411424D01*
X61438822Y-93411424D02*
X61391203Y-93359043D01*
X61391203Y-93359043D02*
X61343584Y-93254281D01*
X61343584Y-93254281D02*
X61343584Y-92835233D01*
X60867393Y-93935233D02*
X61867393Y-93935233D01*
X61867393Y-94668567D02*
X61867393Y-94878091D01*
X61867393Y-94878091D02*
X61819774Y-94982853D01*
X61819774Y-94982853D02*
X61724536Y-95087615D01*
X61724536Y-95087615D02*
X61534060Y-95139996D01*
X61534060Y-95139996D02*
X61200727Y-95139996D01*
X61200727Y-95139996D02*
X61010251Y-95087615D01*
X61010251Y-95087615D02*
X60915013Y-94982853D01*
X60915013Y-94982853D02*
X60867393Y-94878091D01*
X60867393Y-94878091D02*
X60867393Y-94668567D01*
X60867393Y-94668567D02*
X60915013Y-94563805D01*
X60915013Y-94563805D02*
X61010251Y-94459043D01*
X61010251Y-94459043D02*
X61200727Y-94406662D01*
X61200727Y-94406662D02*
X61534060Y-94406662D01*
X61534060Y-94406662D02*
X61724536Y-94459043D01*
X61724536Y-94459043D02*
X61819774Y-94563805D01*
X61819774Y-94563805D02*
X61867393Y-94668567D01*
X60867393Y-96187615D02*
X60867393Y-95559043D01*
X60867393Y-95873329D02*
X61867393Y-95873329D01*
X61867393Y-95873329D02*
X61724536Y-95768567D01*
X61724536Y-95768567D02*
X61629298Y-95663805D01*
X61629298Y-95663805D02*
X61581679Y-95559043D01*
X61867393Y-96554281D02*
X61867393Y-97287615D01*
X61867393Y-97287615D02*
X60867393Y-96816186D01*
X64319774Y-74811424D02*
X64367393Y-74706662D01*
X64367393Y-74706662D02*
X64367393Y-74549519D01*
X64367393Y-74549519D02*
X64319774Y-74392376D01*
X64319774Y-74392376D02*
X64224536Y-74287614D01*
X64224536Y-74287614D02*
X64129298Y-74235233D01*
X64129298Y-74235233D02*
X63938822Y-74182852D01*
X63938822Y-74182852D02*
X63795965Y-74182852D01*
X63795965Y-74182852D02*
X63605489Y-74235233D01*
X63605489Y-74235233D02*
X63510251Y-74287614D01*
X63510251Y-74287614D02*
X63415013Y-74392376D01*
X63415013Y-74392376D02*
X63367393Y-74549519D01*
X63367393Y-74549519D02*
X63367393Y-74654281D01*
X63367393Y-74654281D02*
X63415013Y-74811424D01*
X63415013Y-74811424D02*
X63462632Y-74863805D01*
X63462632Y-74863805D02*
X63795965Y-74863805D01*
X63795965Y-74863805D02*
X63795965Y-74654281D01*
X63367393Y-75335233D02*
X64367393Y-75335233D01*
X64367393Y-75335233D02*
X64367393Y-75754281D01*
X64367393Y-75754281D02*
X64319774Y-75859043D01*
X64319774Y-75859043D02*
X64272155Y-75911424D01*
X64272155Y-75911424D02*
X64176917Y-75963805D01*
X64176917Y-75963805D02*
X64034060Y-75963805D01*
X64034060Y-75963805D02*
X63938822Y-75911424D01*
X63938822Y-75911424D02*
X63891203Y-75859043D01*
X63891203Y-75859043D02*
X63843584Y-75754281D01*
X63843584Y-75754281D02*
X63843584Y-75335233D01*
X63367393Y-76435233D02*
X64367393Y-76435233D01*
X64367393Y-77168567D02*
X64367393Y-77378091D01*
X64367393Y-77378091D02*
X64319774Y-77482853D01*
X64319774Y-77482853D02*
X64224536Y-77587615D01*
X64224536Y-77587615D02*
X64034060Y-77639996D01*
X64034060Y-77639996D02*
X63700727Y-77639996D01*
X63700727Y-77639996D02*
X63510251Y-77587615D01*
X63510251Y-77587615D02*
X63415013Y-77482853D01*
X63415013Y-77482853D02*
X63367393Y-77378091D01*
X63367393Y-77378091D02*
X63367393Y-77168567D01*
X63367393Y-77168567D02*
X63415013Y-77063805D01*
X63415013Y-77063805D02*
X63510251Y-76959043D01*
X63510251Y-76959043D02*
X63700727Y-76906662D01*
X63700727Y-76906662D02*
X64034060Y-76906662D01*
X64034060Y-76906662D02*
X64224536Y-76959043D01*
X64224536Y-76959043D02*
X64319774Y-77063805D01*
X64319774Y-77063805D02*
X64367393Y-77168567D01*
X64272155Y-78059043D02*
X64319774Y-78111424D01*
X64319774Y-78111424D02*
X64367393Y-78216186D01*
X64367393Y-78216186D02*
X64367393Y-78478091D01*
X64367393Y-78478091D02*
X64319774Y-78582853D01*
X64319774Y-78582853D02*
X64272155Y-78635234D01*
X64272155Y-78635234D02*
X64176917Y-78687615D01*
X64176917Y-78687615D02*
X64081679Y-78687615D01*
X64081679Y-78687615D02*
X63938822Y-78635234D01*
X63938822Y-78635234D02*
X63367393Y-78006662D01*
X63367393Y-78006662D02*
X63367393Y-78687615D01*
X64367393Y-79682853D02*
X64367393Y-79159043D01*
X64367393Y-79159043D02*
X63891203Y-79106662D01*
X63891203Y-79106662D02*
X63938822Y-79159043D01*
X63938822Y-79159043D02*
X63986441Y-79263805D01*
X63986441Y-79263805D02*
X63986441Y-79525710D01*
X63986441Y-79525710D02*
X63938822Y-79630472D01*
X63938822Y-79630472D02*
X63891203Y-79682853D01*
X63891203Y-79682853D02*
X63795965Y-79735234D01*
X63795965Y-79735234D02*
X63557870Y-79735234D01*
X63557870Y-79735234D02*
X63462632Y-79682853D01*
X63462632Y-79682853D02*
X63415013Y-79630472D01*
X63415013Y-79630472D02*
X63367393Y-79525710D01*
X63367393Y-79525710D02*
X63367393Y-79263805D01*
X63367393Y-79263805D02*
X63415013Y-79159043D01*
X63415013Y-79159043D02*
X63462632Y-79106662D01*
X64319774Y-93311424D02*
X64367393Y-93206662D01*
X64367393Y-93206662D02*
X64367393Y-93049519D01*
X64367393Y-93049519D02*
X64319774Y-92892376D01*
X64319774Y-92892376D02*
X64224536Y-92787614D01*
X64224536Y-92787614D02*
X64129298Y-92735233D01*
X64129298Y-92735233D02*
X63938822Y-92682852D01*
X63938822Y-92682852D02*
X63795965Y-92682852D01*
X63795965Y-92682852D02*
X63605489Y-92735233D01*
X63605489Y-92735233D02*
X63510251Y-92787614D01*
X63510251Y-92787614D02*
X63415013Y-92892376D01*
X63415013Y-92892376D02*
X63367393Y-93049519D01*
X63367393Y-93049519D02*
X63367393Y-93154281D01*
X63367393Y-93154281D02*
X63415013Y-93311424D01*
X63415013Y-93311424D02*
X63462632Y-93363805D01*
X63462632Y-93363805D02*
X63795965Y-93363805D01*
X63795965Y-93363805D02*
X63795965Y-93154281D01*
X63367393Y-93835233D02*
X64367393Y-93835233D01*
X64367393Y-93835233D02*
X64367393Y-94254281D01*
X64367393Y-94254281D02*
X64319774Y-94359043D01*
X64319774Y-94359043D02*
X64272155Y-94411424D01*
X64272155Y-94411424D02*
X64176917Y-94463805D01*
X64176917Y-94463805D02*
X64034060Y-94463805D01*
X64034060Y-94463805D02*
X63938822Y-94411424D01*
X63938822Y-94411424D02*
X63891203Y-94359043D01*
X63891203Y-94359043D02*
X63843584Y-94254281D01*
X63843584Y-94254281D02*
X63843584Y-93835233D01*
X63367393Y-94935233D02*
X64367393Y-94935233D01*
X64367393Y-95668567D02*
X64367393Y-95878091D01*
X64367393Y-95878091D02*
X64319774Y-95982853D01*
X64319774Y-95982853D02*
X64224536Y-96087615D01*
X64224536Y-96087615D02*
X64034060Y-96139996D01*
X64034060Y-96139996D02*
X63700727Y-96139996D01*
X63700727Y-96139996D02*
X63510251Y-96087615D01*
X63510251Y-96087615D02*
X63415013Y-95982853D01*
X63415013Y-95982853D02*
X63367393Y-95878091D01*
X63367393Y-95878091D02*
X63367393Y-95668567D01*
X63367393Y-95668567D02*
X63415013Y-95563805D01*
X63415013Y-95563805D02*
X63510251Y-95459043D01*
X63510251Y-95459043D02*
X63700727Y-95406662D01*
X63700727Y-95406662D02*
X64034060Y-95406662D01*
X64034060Y-95406662D02*
X64224536Y-95459043D01*
X64224536Y-95459043D02*
X64319774Y-95563805D01*
X64319774Y-95563805D02*
X64367393Y-95668567D01*
X64367393Y-97135234D02*
X64367393Y-96611424D01*
X64367393Y-96611424D02*
X63891203Y-96559043D01*
X63891203Y-96559043D02*
X63938822Y-96611424D01*
X63938822Y-96611424D02*
X63986441Y-96716186D01*
X63986441Y-96716186D02*
X63986441Y-96978091D01*
X63986441Y-96978091D02*
X63938822Y-97082853D01*
X63938822Y-97082853D02*
X63891203Y-97135234D01*
X63891203Y-97135234D02*
X63795965Y-97187615D01*
X63795965Y-97187615D02*
X63557870Y-97187615D01*
X63557870Y-97187615D02*
X63462632Y-97135234D01*
X63462632Y-97135234D02*
X63415013Y-97082853D01*
X63415013Y-97082853D02*
X63367393Y-96978091D01*
X63367393Y-96978091D02*
X63367393Y-96716186D01*
X63367393Y-96716186D02*
X63415013Y-96611424D01*
X63415013Y-96611424D02*
X63462632Y-96559043D01*
X66819774Y-74811424D02*
X66867393Y-74706662D01*
X66867393Y-74706662D02*
X66867393Y-74549519D01*
X66867393Y-74549519D02*
X66819774Y-74392376D01*
X66819774Y-74392376D02*
X66724536Y-74287614D01*
X66724536Y-74287614D02*
X66629298Y-74235233D01*
X66629298Y-74235233D02*
X66438822Y-74182852D01*
X66438822Y-74182852D02*
X66295965Y-74182852D01*
X66295965Y-74182852D02*
X66105489Y-74235233D01*
X66105489Y-74235233D02*
X66010251Y-74287614D01*
X66010251Y-74287614D02*
X65915013Y-74392376D01*
X65915013Y-74392376D02*
X65867393Y-74549519D01*
X65867393Y-74549519D02*
X65867393Y-74654281D01*
X65867393Y-74654281D02*
X65915013Y-74811424D01*
X65915013Y-74811424D02*
X65962632Y-74863805D01*
X65962632Y-74863805D02*
X66295965Y-74863805D01*
X66295965Y-74863805D02*
X66295965Y-74654281D01*
X65867393Y-75335233D02*
X66867393Y-75335233D01*
X66867393Y-75335233D02*
X66867393Y-75754281D01*
X66867393Y-75754281D02*
X66819774Y-75859043D01*
X66819774Y-75859043D02*
X66772155Y-75911424D01*
X66772155Y-75911424D02*
X66676917Y-75963805D01*
X66676917Y-75963805D02*
X66534060Y-75963805D01*
X66534060Y-75963805D02*
X66438822Y-75911424D01*
X66438822Y-75911424D02*
X66391203Y-75859043D01*
X66391203Y-75859043D02*
X66343584Y-75754281D01*
X66343584Y-75754281D02*
X66343584Y-75335233D01*
X65867393Y-76435233D02*
X66867393Y-76435233D01*
X66867393Y-77168567D02*
X66867393Y-77378091D01*
X66867393Y-77378091D02*
X66819774Y-77482853D01*
X66819774Y-77482853D02*
X66724536Y-77587615D01*
X66724536Y-77587615D02*
X66534060Y-77639996D01*
X66534060Y-77639996D02*
X66200727Y-77639996D01*
X66200727Y-77639996D02*
X66010251Y-77587615D01*
X66010251Y-77587615D02*
X65915013Y-77482853D01*
X65915013Y-77482853D02*
X65867393Y-77378091D01*
X65867393Y-77378091D02*
X65867393Y-77168567D01*
X65867393Y-77168567D02*
X65915013Y-77063805D01*
X65915013Y-77063805D02*
X66010251Y-76959043D01*
X66010251Y-76959043D02*
X66200727Y-76906662D01*
X66200727Y-76906662D02*
X66534060Y-76906662D01*
X66534060Y-76906662D02*
X66724536Y-76959043D01*
X66724536Y-76959043D02*
X66819774Y-77063805D01*
X66819774Y-77063805D02*
X66867393Y-77168567D01*
X66867393Y-78006662D02*
X66867393Y-78687615D01*
X66867393Y-78687615D02*
X66486441Y-78320948D01*
X66486441Y-78320948D02*
X66486441Y-78478091D01*
X66486441Y-78478091D02*
X66438822Y-78582853D01*
X66438822Y-78582853D02*
X66391203Y-78635234D01*
X66391203Y-78635234D02*
X66295965Y-78687615D01*
X66295965Y-78687615D02*
X66057870Y-78687615D01*
X66057870Y-78687615D02*
X65962632Y-78635234D01*
X65962632Y-78635234D02*
X65915013Y-78582853D01*
X65915013Y-78582853D02*
X65867393Y-78478091D01*
X65867393Y-78478091D02*
X65867393Y-78163805D01*
X65867393Y-78163805D02*
X65915013Y-78059043D01*
X65915013Y-78059043D02*
X65962632Y-78006662D01*
X66867393Y-79054281D02*
X66867393Y-79735234D01*
X66867393Y-79735234D02*
X66486441Y-79368567D01*
X66486441Y-79368567D02*
X66486441Y-79525710D01*
X66486441Y-79525710D02*
X66438822Y-79630472D01*
X66438822Y-79630472D02*
X66391203Y-79682853D01*
X66391203Y-79682853D02*
X66295965Y-79735234D01*
X66295965Y-79735234D02*
X66057870Y-79735234D01*
X66057870Y-79735234D02*
X65962632Y-79682853D01*
X65962632Y-79682853D02*
X65915013Y-79630472D01*
X65915013Y-79630472D02*
X65867393Y-79525710D01*
X65867393Y-79525710D02*
X65867393Y-79211424D01*
X65867393Y-79211424D02*
X65915013Y-79106662D01*
X65915013Y-79106662D02*
X65962632Y-79054281D01*
X66819774Y-92311424D02*
X66867393Y-92206662D01*
X66867393Y-92206662D02*
X66867393Y-92049519D01*
X66867393Y-92049519D02*
X66819774Y-91892376D01*
X66819774Y-91892376D02*
X66724536Y-91787614D01*
X66724536Y-91787614D02*
X66629298Y-91735233D01*
X66629298Y-91735233D02*
X66438822Y-91682852D01*
X66438822Y-91682852D02*
X66295965Y-91682852D01*
X66295965Y-91682852D02*
X66105489Y-91735233D01*
X66105489Y-91735233D02*
X66010251Y-91787614D01*
X66010251Y-91787614D02*
X65915013Y-91892376D01*
X65915013Y-91892376D02*
X65867393Y-92049519D01*
X65867393Y-92049519D02*
X65867393Y-92154281D01*
X65867393Y-92154281D02*
X65915013Y-92311424D01*
X65915013Y-92311424D02*
X65962632Y-92363805D01*
X65962632Y-92363805D02*
X66295965Y-92363805D01*
X66295965Y-92363805D02*
X66295965Y-92154281D01*
X65867393Y-92835233D02*
X66867393Y-92835233D01*
X66867393Y-92835233D02*
X66867393Y-93254281D01*
X66867393Y-93254281D02*
X66819774Y-93359043D01*
X66819774Y-93359043D02*
X66772155Y-93411424D01*
X66772155Y-93411424D02*
X66676917Y-93463805D01*
X66676917Y-93463805D02*
X66534060Y-93463805D01*
X66534060Y-93463805D02*
X66438822Y-93411424D01*
X66438822Y-93411424D02*
X66391203Y-93359043D01*
X66391203Y-93359043D02*
X66343584Y-93254281D01*
X66343584Y-93254281D02*
X66343584Y-92835233D01*
X65867393Y-93935233D02*
X66867393Y-93935233D01*
X66867393Y-94668567D02*
X66867393Y-94878091D01*
X66867393Y-94878091D02*
X66819774Y-94982853D01*
X66819774Y-94982853D02*
X66724536Y-95087615D01*
X66724536Y-95087615D02*
X66534060Y-95139996D01*
X66534060Y-95139996D02*
X66200727Y-95139996D01*
X66200727Y-95139996D02*
X66010251Y-95087615D01*
X66010251Y-95087615D02*
X65915013Y-94982853D01*
X65915013Y-94982853D02*
X65867393Y-94878091D01*
X65867393Y-94878091D02*
X65867393Y-94668567D01*
X65867393Y-94668567D02*
X65915013Y-94563805D01*
X65915013Y-94563805D02*
X66010251Y-94459043D01*
X66010251Y-94459043D02*
X66200727Y-94406662D01*
X66200727Y-94406662D02*
X66534060Y-94406662D01*
X66534060Y-94406662D02*
X66724536Y-94459043D01*
X66724536Y-94459043D02*
X66819774Y-94563805D01*
X66819774Y-94563805D02*
X66867393Y-94668567D01*
X65867393Y-96187615D02*
X65867393Y-95559043D01*
X65867393Y-95873329D02*
X66867393Y-95873329D01*
X66867393Y-95873329D02*
X66724536Y-95768567D01*
X66724536Y-95768567D02*
X66629298Y-95663805D01*
X66629298Y-95663805D02*
X66581679Y-95559043D01*
X66438822Y-96816186D02*
X66486441Y-96711424D01*
X66486441Y-96711424D02*
X66534060Y-96659043D01*
X66534060Y-96659043D02*
X66629298Y-96606662D01*
X66629298Y-96606662D02*
X66676917Y-96606662D01*
X66676917Y-96606662D02*
X66772155Y-96659043D01*
X66772155Y-96659043D02*
X66819774Y-96711424D01*
X66819774Y-96711424D02*
X66867393Y-96816186D01*
X66867393Y-96816186D02*
X66867393Y-97025710D01*
X66867393Y-97025710D02*
X66819774Y-97130472D01*
X66819774Y-97130472D02*
X66772155Y-97182853D01*
X66772155Y-97182853D02*
X66676917Y-97235234D01*
X66676917Y-97235234D02*
X66629298Y-97235234D01*
X66629298Y-97235234D02*
X66534060Y-97182853D01*
X66534060Y-97182853D02*
X66486441Y-97130472D01*
X66486441Y-97130472D02*
X66438822Y-97025710D01*
X66438822Y-97025710D02*
X66438822Y-96816186D01*
X66438822Y-96816186D02*
X66391203Y-96711424D01*
X66391203Y-96711424D02*
X66343584Y-96659043D01*
X66343584Y-96659043D02*
X66248346Y-96606662D01*
X66248346Y-96606662D02*
X66057870Y-96606662D01*
X66057870Y-96606662D02*
X65962632Y-96659043D01*
X65962632Y-96659043D02*
X65915013Y-96711424D01*
X65915013Y-96711424D02*
X65867393Y-96816186D01*
X65867393Y-96816186D02*
X65867393Y-97025710D01*
X65867393Y-97025710D02*
X65915013Y-97130472D01*
X65915013Y-97130472D02*
X65962632Y-97182853D01*
X65962632Y-97182853D02*
X66057870Y-97235234D01*
X66057870Y-97235234D02*
X66248346Y-97235234D01*
X66248346Y-97235234D02*
X66343584Y-97182853D01*
X66343584Y-97182853D02*
X66391203Y-97130472D01*
X66391203Y-97130472D02*
X66438822Y-97025710D01*
X69319774Y-74811424D02*
X69367393Y-74706662D01*
X69367393Y-74706662D02*
X69367393Y-74549519D01*
X69367393Y-74549519D02*
X69319774Y-74392376D01*
X69319774Y-74392376D02*
X69224536Y-74287614D01*
X69224536Y-74287614D02*
X69129298Y-74235233D01*
X69129298Y-74235233D02*
X68938822Y-74182852D01*
X68938822Y-74182852D02*
X68795965Y-74182852D01*
X68795965Y-74182852D02*
X68605489Y-74235233D01*
X68605489Y-74235233D02*
X68510251Y-74287614D01*
X68510251Y-74287614D02*
X68415013Y-74392376D01*
X68415013Y-74392376D02*
X68367393Y-74549519D01*
X68367393Y-74549519D02*
X68367393Y-74654281D01*
X68367393Y-74654281D02*
X68415013Y-74811424D01*
X68415013Y-74811424D02*
X68462632Y-74863805D01*
X68462632Y-74863805D02*
X68795965Y-74863805D01*
X68795965Y-74863805D02*
X68795965Y-74654281D01*
X68367393Y-75335233D02*
X69367393Y-75335233D01*
X69367393Y-75335233D02*
X69367393Y-75754281D01*
X69367393Y-75754281D02*
X69319774Y-75859043D01*
X69319774Y-75859043D02*
X69272155Y-75911424D01*
X69272155Y-75911424D02*
X69176917Y-75963805D01*
X69176917Y-75963805D02*
X69034060Y-75963805D01*
X69034060Y-75963805D02*
X68938822Y-75911424D01*
X68938822Y-75911424D02*
X68891203Y-75859043D01*
X68891203Y-75859043D02*
X68843584Y-75754281D01*
X68843584Y-75754281D02*
X68843584Y-75335233D01*
X68367393Y-76435233D02*
X69367393Y-76435233D01*
X69367393Y-77168567D02*
X69367393Y-77378091D01*
X69367393Y-77378091D02*
X69319774Y-77482853D01*
X69319774Y-77482853D02*
X69224536Y-77587615D01*
X69224536Y-77587615D02*
X69034060Y-77639996D01*
X69034060Y-77639996D02*
X68700727Y-77639996D01*
X68700727Y-77639996D02*
X68510251Y-77587615D01*
X68510251Y-77587615D02*
X68415013Y-77482853D01*
X68415013Y-77482853D02*
X68367393Y-77378091D01*
X68367393Y-77378091D02*
X68367393Y-77168567D01*
X68367393Y-77168567D02*
X68415013Y-77063805D01*
X68415013Y-77063805D02*
X68510251Y-76959043D01*
X68510251Y-76959043D02*
X68700727Y-76906662D01*
X68700727Y-76906662D02*
X69034060Y-76906662D01*
X69034060Y-76906662D02*
X69224536Y-76959043D01*
X69224536Y-76959043D02*
X69319774Y-77063805D01*
X69319774Y-77063805D02*
X69367393Y-77168567D01*
X69367393Y-78006662D02*
X69367393Y-78687615D01*
X69367393Y-78687615D02*
X68986441Y-78320948D01*
X68986441Y-78320948D02*
X68986441Y-78478091D01*
X68986441Y-78478091D02*
X68938822Y-78582853D01*
X68938822Y-78582853D02*
X68891203Y-78635234D01*
X68891203Y-78635234D02*
X68795965Y-78687615D01*
X68795965Y-78687615D02*
X68557870Y-78687615D01*
X68557870Y-78687615D02*
X68462632Y-78635234D01*
X68462632Y-78635234D02*
X68415013Y-78582853D01*
X68415013Y-78582853D02*
X68367393Y-78478091D01*
X68367393Y-78478091D02*
X68367393Y-78163805D01*
X68367393Y-78163805D02*
X68415013Y-78059043D01*
X68415013Y-78059043D02*
X68462632Y-78006662D01*
X69272155Y-79106662D02*
X69319774Y-79159043D01*
X69319774Y-79159043D02*
X69367393Y-79263805D01*
X69367393Y-79263805D02*
X69367393Y-79525710D01*
X69367393Y-79525710D02*
X69319774Y-79630472D01*
X69319774Y-79630472D02*
X69272155Y-79682853D01*
X69272155Y-79682853D02*
X69176917Y-79735234D01*
X69176917Y-79735234D02*
X69081679Y-79735234D01*
X69081679Y-79735234D02*
X68938822Y-79682853D01*
X68938822Y-79682853D02*
X68367393Y-79054281D01*
X68367393Y-79054281D02*
X68367393Y-79735234D01*
X69319774Y-92311424D02*
X69367393Y-92206662D01*
X69367393Y-92206662D02*
X69367393Y-92049519D01*
X69367393Y-92049519D02*
X69319774Y-91892376D01*
X69319774Y-91892376D02*
X69224536Y-91787614D01*
X69224536Y-91787614D02*
X69129298Y-91735233D01*
X69129298Y-91735233D02*
X68938822Y-91682852D01*
X68938822Y-91682852D02*
X68795965Y-91682852D01*
X68795965Y-91682852D02*
X68605489Y-91735233D01*
X68605489Y-91735233D02*
X68510251Y-91787614D01*
X68510251Y-91787614D02*
X68415013Y-91892376D01*
X68415013Y-91892376D02*
X68367393Y-92049519D01*
X68367393Y-92049519D02*
X68367393Y-92154281D01*
X68367393Y-92154281D02*
X68415013Y-92311424D01*
X68415013Y-92311424D02*
X68462632Y-92363805D01*
X68462632Y-92363805D02*
X68795965Y-92363805D01*
X68795965Y-92363805D02*
X68795965Y-92154281D01*
X68367393Y-92835233D02*
X69367393Y-92835233D01*
X69367393Y-92835233D02*
X69367393Y-93254281D01*
X69367393Y-93254281D02*
X69319774Y-93359043D01*
X69319774Y-93359043D02*
X69272155Y-93411424D01*
X69272155Y-93411424D02*
X69176917Y-93463805D01*
X69176917Y-93463805D02*
X69034060Y-93463805D01*
X69034060Y-93463805D02*
X68938822Y-93411424D01*
X68938822Y-93411424D02*
X68891203Y-93359043D01*
X68891203Y-93359043D02*
X68843584Y-93254281D01*
X68843584Y-93254281D02*
X68843584Y-92835233D01*
X68367393Y-93935233D02*
X69367393Y-93935233D01*
X69367393Y-94668567D02*
X69367393Y-94878091D01*
X69367393Y-94878091D02*
X69319774Y-94982853D01*
X69319774Y-94982853D02*
X69224536Y-95087615D01*
X69224536Y-95087615D02*
X69034060Y-95139996D01*
X69034060Y-95139996D02*
X68700727Y-95139996D01*
X68700727Y-95139996D02*
X68510251Y-95087615D01*
X68510251Y-95087615D02*
X68415013Y-94982853D01*
X68415013Y-94982853D02*
X68367393Y-94878091D01*
X68367393Y-94878091D02*
X68367393Y-94668567D01*
X68367393Y-94668567D02*
X68415013Y-94563805D01*
X68415013Y-94563805D02*
X68510251Y-94459043D01*
X68510251Y-94459043D02*
X68700727Y-94406662D01*
X68700727Y-94406662D02*
X69034060Y-94406662D01*
X69034060Y-94406662D02*
X69224536Y-94459043D01*
X69224536Y-94459043D02*
X69319774Y-94563805D01*
X69319774Y-94563805D02*
X69367393Y-94668567D01*
X68367393Y-96187615D02*
X68367393Y-95559043D01*
X68367393Y-95873329D02*
X69367393Y-95873329D01*
X69367393Y-95873329D02*
X69224536Y-95768567D01*
X69224536Y-95768567D02*
X69129298Y-95663805D01*
X69129298Y-95663805D02*
X69081679Y-95559043D01*
X68367393Y-96711424D02*
X68367393Y-96920948D01*
X68367393Y-96920948D02*
X68415013Y-97025710D01*
X68415013Y-97025710D02*
X68462632Y-97078091D01*
X68462632Y-97078091D02*
X68605489Y-97182853D01*
X68605489Y-97182853D02*
X68795965Y-97235234D01*
X68795965Y-97235234D02*
X69176917Y-97235234D01*
X69176917Y-97235234D02*
X69272155Y-97182853D01*
X69272155Y-97182853D02*
X69319774Y-97130472D01*
X69319774Y-97130472D02*
X69367393Y-97025710D01*
X69367393Y-97025710D02*
X69367393Y-96816186D01*
X69367393Y-96816186D02*
X69319774Y-96711424D01*
X69319774Y-96711424D02*
X69272155Y-96659043D01*
X69272155Y-96659043D02*
X69176917Y-96606662D01*
X69176917Y-96606662D02*
X68938822Y-96606662D01*
X68938822Y-96606662D02*
X68843584Y-96659043D01*
X68843584Y-96659043D02*
X68795965Y-96711424D01*
X68795965Y-96711424D02*
X68748346Y-96816186D01*
X68748346Y-96816186D02*
X68748346Y-97025710D01*
X68748346Y-97025710D02*
X68795965Y-97130472D01*
X68795965Y-97130472D02*
X68843584Y-97182853D01*
X68843584Y-97182853D02*
X68938822Y-97235234D01*
X71819774Y-74811424D02*
X71867393Y-74706662D01*
X71867393Y-74706662D02*
X71867393Y-74549519D01*
X71867393Y-74549519D02*
X71819774Y-74392376D01*
X71819774Y-74392376D02*
X71724536Y-74287614D01*
X71724536Y-74287614D02*
X71629298Y-74235233D01*
X71629298Y-74235233D02*
X71438822Y-74182852D01*
X71438822Y-74182852D02*
X71295965Y-74182852D01*
X71295965Y-74182852D02*
X71105489Y-74235233D01*
X71105489Y-74235233D02*
X71010251Y-74287614D01*
X71010251Y-74287614D02*
X70915013Y-74392376D01*
X70915013Y-74392376D02*
X70867393Y-74549519D01*
X70867393Y-74549519D02*
X70867393Y-74654281D01*
X70867393Y-74654281D02*
X70915013Y-74811424D01*
X70915013Y-74811424D02*
X70962632Y-74863805D01*
X70962632Y-74863805D02*
X71295965Y-74863805D01*
X71295965Y-74863805D02*
X71295965Y-74654281D01*
X70867393Y-75335233D02*
X71867393Y-75335233D01*
X71867393Y-75335233D02*
X71867393Y-75754281D01*
X71867393Y-75754281D02*
X71819774Y-75859043D01*
X71819774Y-75859043D02*
X71772155Y-75911424D01*
X71772155Y-75911424D02*
X71676917Y-75963805D01*
X71676917Y-75963805D02*
X71534060Y-75963805D01*
X71534060Y-75963805D02*
X71438822Y-75911424D01*
X71438822Y-75911424D02*
X71391203Y-75859043D01*
X71391203Y-75859043D02*
X71343584Y-75754281D01*
X71343584Y-75754281D02*
X71343584Y-75335233D01*
X70867393Y-76435233D02*
X71867393Y-76435233D01*
X71867393Y-77168567D02*
X71867393Y-77378091D01*
X71867393Y-77378091D02*
X71819774Y-77482853D01*
X71819774Y-77482853D02*
X71724536Y-77587615D01*
X71724536Y-77587615D02*
X71534060Y-77639996D01*
X71534060Y-77639996D02*
X71200727Y-77639996D01*
X71200727Y-77639996D02*
X71010251Y-77587615D01*
X71010251Y-77587615D02*
X70915013Y-77482853D01*
X70915013Y-77482853D02*
X70867393Y-77378091D01*
X70867393Y-77378091D02*
X70867393Y-77168567D01*
X70867393Y-77168567D02*
X70915013Y-77063805D01*
X70915013Y-77063805D02*
X71010251Y-76959043D01*
X71010251Y-76959043D02*
X71200727Y-76906662D01*
X71200727Y-76906662D02*
X71534060Y-76906662D01*
X71534060Y-76906662D02*
X71724536Y-76959043D01*
X71724536Y-76959043D02*
X71819774Y-77063805D01*
X71819774Y-77063805D02*
X71867393Y-77168567D01*
X71867393Y-78006662D02*
X71867393Y-78687615D01*
X71867393Y-78687615D02*
X71486441Y-78320948D01*
X71486441Y-78320948D02*
X71486441Y-78478091D01*
X71486441Y-78478091D02*
X71438822Y-78582853D01*
X71438822Y-78582853D02*
X71391203Y-78635234D01*
X71391203Y-78635234D02*
X71295965Y-78687615D01*
X71295965Y-78687615D02*
X71057870Y-78687615D01*
X71057870Y-78687615D02*
X70962632Y-78635234D01*
X70962632Y-78635234D02*
X70915013Y-78582853D01*
X70915013Y-78582853D02*
X70867393Y-78478091D01*
X70867393Y-78478091D02*
X70867393Y-78163805D01*
X70867393Y-78163805D02*
X70915013Y-78059043D01*
X70915013Y-78059043D02*
X70962632Y-78006662D01*
X71867393Y-79682853D02*
X71867393Y-79159043D01*
X71867393Y-79159043D02*
X71391203Y-79106662D01*
X71391203Y-79106662D02*
X71438822Y-79159043D01*
X71438822Y-79159043D02*
X71486441Y-79263805D01*
X71486441Y-79263805D02*
X71486441Y-79525710D01*
X71486441Y-79525710D02*
X71438822Y-79630472D01*
X71438822Y-79630472D02*
X71391203Y-79682853D01*
X71391203Y-79682853D02*
X71295965Y-79735234D01*
X71295965Y-79735234D02*
X71057870Y-79735234D01*
X71057870Y-79735234D02*
X70962632Y-79682853D01*
X70962632Y-79682853D02*
X70915013Y-79630472D01*
X70915013Y-79630472D02*
X70867393Y-79525710D01*
X70867393Y-79525710D02*
X70867393Y-79263805D01*
X70867393Y-79263805D02*
X70915013Y-79159043D01*
X70915013Y-79159043D02*
X70962632Y-79106662D01*
X71819774Y-92311424D02*
X71867393Y-92206662D01*
X71867393Y-92206662D02*
X71867393Y-92049519D01*
X71867393Y-92049519D02*
X71819774Y-91892376D01*
X71819774Y-91892376D02*
X71724536Y-91787614D01*
X71724536Y-91787614D02*
X71629298Y-91735233D01*
X71629298Y-91735233D02*
X71438822Y-91682852D01*
X71438822Y-91682852D02*
X71295965Y-91682852D01*
X71295965Y-91682852D02*
X71105489Y-91735233D01*
X71105489Y-91735233D02*
X71010251Y-91787614D01*
X71010251Y-91787614D02*
X70915013Y-91892376D01*
X70915013Y-91892376D02*
X70867393Y-92049519D01*
X70867393Y-92049519D02*
X70867393Y-92154281D01*
X70867393Y-92154281D02*
X70915013Y-92311424D01*
X70915013Y-92311424D02*
X70962632Y-92363805D01*
X70962632Y-92363805D02*
X71295965Y-92363805D01*
X71295965Y-92363805D02*
X71295965Y-92154281D01*
X70867393Y-92835233D02*
X71867393Y-92835233D01*
X71867393Y-92835233D02*
X71867393Y-93254281D01*
X71867393Y-93254281D02*
X71819774Y-93359043D01*
X71819774Y-93359043D02*
X71772155Y-93411424D01*
X71772155Y-93411424D02*
X71676917Y-93463805D01*
X71676917Y-93463805D02*
X71534060Y-93463805D01*
X71534060Y-93463805D02*
X71438822Y-93411424D01*
X71438822Y-93411424D02*
X71391203Y-93359043D01*
X71391203Y-93359043D02*
X71343584Y-93254281D01*
X71343584Y-93254281D02*
X71343584Y-92835233D01*
X70867393Y-93935233D02*
X71867393Y-93935233D01*
X71867393Y-94668567D02*
X71867393Y-94878091D01*
X71867393Y-94878091D02*
X71819774Y-94982853D01*
X71819774Y-94982853D02*
X71724536Y-95087615D01*
X71724536Y-95087615D02*
X71534060Y-95139996D01*
X71534060Y-95139996D02*
X71200727Y-95139996D01*
X71200727Y-95139996D02*
X71010251Y-95087615D01*
X71010251Y-95087615D02*
X70915013Y-94982853D01*
X70915013Y-94982853D02*
X70867393Y-94878091D01*
X70867393Y-94878091D02*
X70867393Y-94668567D01*
X70867393Y-94668567D02*
X70915013Y-94563805D01*
X70915013Y-94563805D02*
X71010251Y-94459043D01*
X71010251Y-94459043D02*
X71200727Y-94406662D01*
X71200727Y-94406662D02*
X71534060Y-94406662D01*
X71534060Y-94406662D02*
X71724536Y-94459043D01*
X71724536Y-94459043D02*
X71819774Y-94563805D01*
X71819774Y-94563805D02*
X71867393Y-94668567D01*
X71772155Y-95559043D02*
X71819774Y-95611424D01*
X71819774Y-95611424D02*
X71867393Y-95716186D01*
X71867393Y-95716186D02*
X71867393Y-95978091D01*
X71867393Y-95978091D02*
X71819774Y-96082853D01*
X71819774Y-96082853D02*
X71772155Y-96135234D01*
X71772155Y-96135234D02*
X71676917Y-96187615D01*
X71676917Y-96187615D02*
X71581679Y-96187615D01*
X71581679Y-96187615D02*
X71438822Y-96135234D01*
X71438822Y-96135234D02*
X70867393Y-95506662D01*
X70867393Y-95506662D02*
X70867393Y-96187615D01*
X70867393Y-97235234D02*
X70867393Y-96606662D01*
X70867393Y-96920948D02*
X71867393Y-96920948D01*
X71867393Y-96920948D02*
X71724536Y-96816186D01*
X71724536Y-96816186D02*
X71629298Y-96711424D01*
X71629298Y-96711424D02*
X71581679Y-96606662D01*
X74319774Y-74811424D02*
X74367393Y-74706662D01*
X74367393Y-74706662D02*
X74367393Y-74549519D01*
X74367393Y-74549519D02*
X74319774Y-74392376D01*
X74319774Y-74392376D02*
X74224536Y-74287614D01*
X74224536Y-74287614D02*
X74129298Y-74235233D01*
X74129298Y-74235233D02*
X73938822Y-74182852D01*
X73938822Y-74182852D02*
X73795965Y-74182852D01*
X73795965Y-74182852D02*
X73605489Y-74235233D01*
X73605489Y-74235233D02*
X73510251Y-74287614D01*
X73510251Y-74287614D02*
X73415013Y-74392376D01*
X73415013Y-74392376D02*
X73367393Y-74549519D01*
X73367393Y-74549519D02*
X73367393Y-74654281D01*
X73367393Y-74654281D02*
X73415013Y-74811424D01*
X73415013Y-74811424D02*
X73462632Y-74863805D01*
X73462632Y-74863805D02*
X73795965Y-74863805D01*
X73795965Y-74863805D02*
X73795965Y-74654281D01*
X73367393Y-75335233D02*
X74367393Y-75335233D01*
X74367393Y-75335233D02*
X74367393Y-75754281D01*
X74367393Y-75754281D02*
X74319774Y-75859043D01*
X74319774Y-75859043D02*
X74272155Y-75911424D01*
X74272155Y-75911424D02*
X74176917Y-75963805D01*
X74176917Y-75963805D02*
X74034060Y-75963805D01*
X74034060Y-75963805D02*
X73938822Y-75911424D01*
X73938822Y-75911424D02*
X73891203Y-75859043D01*
X73891203Y-75859043D02*
X73843584Y-75754281D01*
X73843584Y-75754281D02*
X73843584Y-75335233D01*
X73367393Y-76435233D02*
X74367393Y-76435233D01*
X74367393Y-77168567D02*
X74367393Y-77378091D01*
X74367393Y-77378091D02*
X74319774Y-77482853D01*
X74319774Y-77482853D02*
X74224536Y-77587615D01*
X74224536Y-77587615D02*
X74034060Y-77639996D01*
X74034060Y-77639996D02*
X73700727Y-77639996D01*
X73700727Y-77639996D02*
X73510251Y-77587615D01*
X73510251Y-77587615D02*
X73415013Y-77482853D01*
X73415013Y-77482853D02*
X73367393Y-77378091D01*
X73367393Y-77378091D02*
X73367393Y-77168567D01*
X73367393Y-77168567D02*
X73415013Y-77063805D01*
X73415013Y-77063805D02*
X73510251Y-76959043D01*
X73510251Y-76959043D02*
X73700727Y-76906662D01*
X73700727Y-76906662D02*
X74034060Y-76906662D01*
X74034060Y-76906662D02*
X74224536Y-76959043D01*
X74224536Y-76959043D02*
X74319774Y-77063805D01*
X74319774Y-77063805D02*
X74367393Y-77168567D01*
X74367393Y-78006662D02*
X74367393Y-78687615D01*
X74367393Y-78687615D02*
X73986441Y-78320948D01*
X73986441Y-78320948D02*
X73986441Y-78478091D01*
X73986441Y-78478091D02*
X73938822Y-78582853D01*
X73938822Y-78582853D02*
X73891203Y-78635234D01*
X73891203Y-78635234D02*
X73795965Y-78687615D01*
X73795965Y-78687615D02*
X73557870Y-78687615D01*
X73557870Y-78687615D02*
X73462632Y-78635234D01*
X73462632Y-78635234D02*
X73415013Y-78582853D01*
X73415013Y-78582853D02*
X73367393Y-78478091D01*
X73367393Y-78478091D02*
X73367393Y-78163805D01*
X73367393Y-78163805D02*
X73415013Y-78059043D01*
X73415013Y-78059043D02*
X73462632Y-78006662D01*
X74034060Y-79630472D02*
X73367393Y-79630472D01*
X74415013Y-79368567D02*
X73700727Y-79106662D01*
X73700727Y-79106662D02*
X73700727Y-79787615D01*
X74319774Y-93311424D02*
X74367393Y-93206662D01*
X74367393Y-93206662D02*
X74367393Y-93049519D01*
X74367393Y-93049519D02*
X74319774Y-92892376D01*
X74319774Y-92892376D02*
X74224536Y-92787614D01*
X74224536Y-92787614D02*
X74129298Y-92735233D01*
X74129298Y-92735233D02*
X73938822Y-92682852D01*
X73938822Y-92682852D02*
X73795965Y-92682852D01*
X73795965Y-92682852D02*
X73605489Y-92735233D01*
X73605489Y-92735233D02*
X73510251Y-92787614D01*
X73510251Y-92787614D02*
X73415013Y-92892376D01*
X73415013Y-92892376D02*
X73367393Y-93049519D01*
X73367393Y-93049519D02*
X73367393Y-93154281D01*
X73367393Y-93154281D02*
X73415013Y-93311424D01*
X73415013Y-93311424D02*
X73462632Y-93363805D01*
X73462632Y-93363805D02*
X73795965Y-93363805D01*
X73795965Y-93363805D02*
X73795965Y-93154281D01*
X73367393Y-93835233D02*
X74367393Y-93835233D01*
X74367393Y-93835233D02*
X74367393Y-94254281D01*
X74367393Y-94254281D02*
X74319774Y-94359043D01*
X74319774Y-94359043D02*
X74272155Y-94411424D01*
X74272155Y-94411424D02*
X74176917Y-94463805D01*
X74176917Y-94463805D02*
X74034060Y-94463805D01*
X74034060Y-94463805D02*
X73938822Y-94411424D01*
X73938822Y-94411424D02*
X73891203Y-94359043D01*
X73891203Y-94359043D02*
X73843584Y-94254281D01*
X73843584Y-94254281D02*
X73843584Y-93835233D01*
X73367393Y-94935233D02*
X74367393Y-94935233D01*
X74367393Y-95668567D02*
X74367393Y-95878091D01*
X74367393Y-95878091D02*
X74319774Y-95982853D01*
X74319774Y-95982853D02*
X74224536Y-96087615D01*
X74224536Y-96087615D02*
X74034060Y-96139996D01*
X74034060Y-96139996D02*
X73700727Y-96139996D01*
X73700727Y-96139996D02*
X73510251Y-96087615D01*
X73510251Y-96087615D02*
X73415013Y-95982853D01*
X73415013Y-95982853D02*
X73367393Y-95878091D01*
X73367393Y-95878091D02*
X73367393Y-95668567D01*
X73367393Y-95668567D02*
X73415013Y-95563805D01*
X73415013Y-95563805D02*
X73510251Y-95459043D01*
X73510251Y-95459043D02*
X73700727Y-95406662D01*
X73700727Y-95406662D02*
X74034060Y-95406662D01*
X74034060Y-95406662D02*
X74224536Y-95459043D01*
X74224536Y-95459043D02*
X74319774Y-95563805D01*
X74319774Y-95563805D02*
X74367393Y-95668567D01*
X74367393Y-96506662D02*
X74367393Y-97187615D01*
X74367393Y-97187615D02*
X73986441Y-96820948D01*
X73986441Y-96820948D02*
X73986441Y-96978091D01*
X73986441Y-96978091D02*
X73938822Y-97082853D01*
X73938822Y-97082853D02*
X73891203Y-97135234D01*
X73891203Y-97135234D02*
X73795965Y-97187615D01*
X73795965Y-97187615D02*
X73557870Y-97187615D01*
X73557870Y-97187615D02*
X73462632Y-97135234D01*
X73462632Y-97135234D02*
X73415013Y-97082853D01*
X73415013Y-97082853D02*
X73367393Y-96978091D01*
X73367393Y-96978091D02*
X73367393Y-96663805D01*
X73367393Y-96663805D02*
X73415013Y-96559043D01*
X73415013Y-96559043D02*
X73462632Y-96506662D01*
X76819774Y-74811424D02*
X76867393Y-74706662D01*
X76867393Y-74706662D02*
X76867393Y-74549519D01*
X76867393Y-74549519D02*
X76819774Y-74392376D01*
X76819774Y-74392376D02*
X76724536Y-74287614D01*
X76724536Y-74287614D02*
X76629298Y-74235233D01*
X76629298Y-74235233D02*
X76438822Y-74182852D01*
X76438822Y-74182852D02*
X76295965Y-74182852D01*
X76295965Y-74182852D02*
X76105489Y-74235233D01*
X76105489Y-74235233D02*
X76010251Y-74287614D01*
X76010251Y-74287614D02*
X75915013Y-74392376D01*
X75915013Y-74392376D02*
X75867393Y-74549519D01*
X75867393Y-74549519D02*
X75867393Y-74654281D01*
X75867393Y-74654281D02*
X75915013Y-74811424D01*
X75915013Y-74811424D02*
X75962632Y-74863805D01*
X75962632Y-74863805D02*
X76295965Y-74863805D01*
X76295965Y-74863805D02*
X76295965Y-74654281D01*
X75867393Y-75335233D02*
X76867393Y-75335233D01*
X76867393Y-75335233D02*
X76867393Y-75754281D01*
X76867393Y-75754281D02*
X76819774Y-75859043D01*
X76819774Y-75859043D02*
X76772155Y-75911424D01*
X76772155Y-75911424D02*
X76676917Y-75963805D01*
X76676917Y-75963805D02*
X76534060Y-75963805D01*
X76534060Y-75963805D02*
X76438822Y-75911424D01*
X76438822Y-75911424D02*
X76391203Y-75859043D01*
X76391203Y-75859043D02*
X76343584Y-75754281D01*
X76343584Y-75754281D02*
X76343584Y-75335233D01*
X75867393Y-76435233D02*
X76867393Y-76435233D01*
X76867393Y-77168567D02*
X76867393Y-77378091D01*
X76867393Y-77378091D02*
X76819774Y-77482853D01*
X76819774Y-77482853D02*
X76724536Y-77587615D01*
X76724536Y-77587615D02*
X76534060Y-77639996D01*
X76534060Y-77639996D02*
X76200727Y-77639996D01*
X76200727Y-77639996D02*
X76010251Y-77587615D01*
X76010251Y-77587615D02*
X75915013Y-77482853D01*
X75915013Y-77482853D02*
X75867393Y-77378091D01*
X75867393Y-77378091D02*
X75867393Y-77168567D01*
X75867393Y-77168567D02*
X75915013Y-77063805D01*
X75915013Y-77063805D02*
X76010251Y-76959043D01*
X76010251Y-76959043D02*
X76200727Y-76906662D01*
X76200727Y-76906662D02*
X76534060Y-76906662D01*
X76534060Y-76906662D02*
X76724536Y-76959043D01*
X76724536Y-76959043D02*
X76819774Y-77063805D01*
X76819774Y-77063805D02*
X76867393Y-77168567D01*
X76867393Y-78006662D02*
X76867393Y-78687615D01*
X76867393Y-78687615D02*
X76486441Y-78320948D01*
X76486441Y-78320948D02*
X76486441Y-78478091D01*
X76486441Y-78478091D02*
X76438822Y-78582853D01*
X76438822Y-78582853D02*
X76391203Y-78635234D01*
X76391203Y-78635234D02*
X76295965Y-78687615D01*
X76295965Y-78687615D02*
X76057870Y-78687615D01*
X76057870Y-78687615D02*
X75962632Y-78635234D01*
X75962632Y-78635234D02*
X75915013Y-78582853D01*
X75915013Y-78582853D02*
X75867393Y-78478091D01*
X75867393Y-78478091D02*
X75867393Y-78163805D01*
X75867393Y-78163805D02*
X75915013Y-78059043D01*
X75915013Y-78059043D02*
X75962632Y-78006662D01*
X75867393Y-79211424D02*
X75867393Y-79420948D01*
X75867393Y-79420948D02*
X75915013Y-79525710D01*
X75915013Y-79525710D02*
X75962632Y-79578091D01*
X75962632Y-79578091D02*
X76105489Y-79682853D01*
X76105489Y-79682853D02*
X76295965Y-79735234D01*
X76295965Y-79735234D02*
X76676917Y-79735234D01*
X76676917Y-79735234D02*
X76772155Y-79682853D01*
X76772155Y-79682853D02*
X76819774Y-79630472D01*
X76819774Y-79630472D02*
X76867393Y-79525710D01*
X76867393Y-79525710D02*
X76867393Y-79316186D01*
X76867393Y-79316186D02*
X76819774Y-79211424D01*
X76819774Y-79211424D02*
X76772155Y-79159043D01*
X76772155Y-79159043D02*
X76676917Y-79106662D01*
X76676917Y-79106662D02*
X76438822Y-79106662D01*
X76438822Y-79106662D02*
X76343584Y-79159043D01*
X76343584Y-79159043D02*
X76295965Y-79211424D01*
X76295965Y-79211424D02*
X76248346Y-79316186D01*
X76248346Y-79316186D02*
X76248346Y-79525710D01*
X76248346Y-79525710D02*
X76295965Y-79630472D01*
X76295965Y-79630472D02*
X76343584Y-79682853D01*
X76343584Y-79682853D02*
X76438822Y-79735234D01*
X77319774Y-93311424D02*
X77367393Y-93206662D01*
X77367393Y-93206662D02*
X77367393Y-93049519D01*
X77367393Y-93049519D02*
X77319774Y-92892376D01*
X77319774Y-92892376D02*
X77224536Y-92787614D01*
X77224536Y-92787614D02*
X77129298Y-92735233D01*
X77129298Y-92735233D02*
X76938822Y-92682852D01*
X76938822Y-92682852D02*
X76795965Y-92682852D01*
X76795965Y-92682852D02*
X76605489Y-92735233D01*
X76605489Y-92735233D02*
X76510251Y-92787614D01*
X76510251Y-92787614D02*
X76415013Y-92892376D01*
X76415013Y-92892376D02*
X76367393Y-93049519D01*
X76367393Y-93049519D02*
X76367393Y-93154281D01*
X76367393Y-93154281D02*
X76415013Y-93311424D01*
X76415013Y-93311424D02*
X76462632Y-93363805D01*
X76462632Y-93363805D02*
X76795965Y-93363805D01*
X76795965Y-93363805D02*
X76795965Y-93154281D01*
X76367393Y-93835233D02*
X77367393Y-93835233D01*
X77367393Y-93835233D02*
X77367393Y-94254281D01*
X77367393Y-94254281D02*
X77319774Y-94359043D01*
X77319774Y-94359043D02*
X77272155Y-94411424D01*
X77272155Y-94411424D02*
X77176917Y-94463805D01*
X77176917Y-94463805D02*
X77034060Y-94463805D01*
X77034060Y-94463805D02*
X76938822Y-94411424D01*
X76938822Y-94411424D02*
X76891203Y-94359043D01*
X76891203Y-94359043D02*
X76843584Y-94254281D01*
X76843584Y-94254281D02*
X76843584Y-93835233D01*
X76367393Y-94935233D02*
X77367393Y-94935233D01*
X77367393Y-95668567D02*
X77367393Y-95878091D01*
X77367393Y-95878091D02*
X77319774Y-95982853D01*
X77319774Y-95982853D02*
X77224536Y-96087615D01*
X77224536Y-96087615D02*
X77034060Y-96139996D01*
X77034060Y-96139996D02*
X76700727Y-96139996D01*
X76700727Y-96139996D02*
X76510251Y-96087615D01*
X76510251Y-96087615D02*
X76415013Y-95982853D01*
X76415013Y-95982853D02*
X76367393Y-95878091D01*
X76367393Y-95878091D02*
X76367393Y-95668567D01*
X76367393Y-95668567D02*
X76415013Y-95563805D01*
X76415013Y-95563805D02*
X76510251Y-95459043D01*
X76510251Y-95459043D02*
X76700727Y-95406662D01*
X76700727Y-95406662D02*
X77034060Y-95406662D01*
X77034060Y-95406662D02*
X77224536Y-95459043D01*
X77224536Y-95459043D02*
X77319774Y-95563805D01*
X77319774Y-95563805D02*
X77367393Y-95668567D01*
X76367393Y-97187615D02*
X76367393Y-96559043D01*
X76367393Y-96873329D02*
X77367393Y-96873329D01*
X77367393Y-96873329D02*
X77224536Y-96768567D01*
X77224536Y-96768567D02*
X77129298Y-96663805D01*
X77129298Y-96663805D02*
X77081679Y-96559043D01*
X79319774Y-74811424D02*
X79367393Y-74706662D01*
X79367393Y-74706662D02*
X79367393Y-74549519D01*
X79367393Y-74549519D02*
X79319774Y-74392376D01*
X79319774Y-74392376D02*
X79224536Y-74287614D01*
X79224536Y-74287614D02*
X79129298Y-74235233D01*
X79129298Y-74235233D02*
X78938822Y-74182852D01*
X78938822Y-74182852D02*
X78795965Y-74182852D01*
X78795965Y-74182852D02*
X78605489Y-74235233D01*
X78605489Y-74235233D02*
X78510251Y-74287614D01*
X78510251Y-74287614D02*
X78415013Y-74392376D01*
X78415013Y-74392376D02*
X78367393Y-74549519D01*
X78367393Y-74549519D02*
X78367393Y-74654281D01*
X78367393Y-74654281D02*
X78415013Y-74811424D01*
X78415013Y-74811424D02*
X78462632Y-74863805D01*
X78462632Y-74863805D02*
X78795965Y-74863805D01*
X78795965Y-74863805D02*
X78795965Y-74654281D01*
X78367393Y-75335233D02*
X79367393Y-75335233D01*
X79367393Y-75335233D02*
X79367393Y-75754281D01*
X79367393Y-75754281D02*
X79319774Y-75859043D01*
X79319774Y-75859043D02*
X79272155Y-75911424D01*
X79272155Y-75911424D02*
X79176917Y-75963805D01*
X79176917Y-75963805D02*
X79034060Y-75963805D01*
X79034060Y-75963805D02*
X78938822Y-75911424D01*
X78938822Y-75911424D02*
X78891203Y-75859043D01*
X78891203Y-75859043D02*
X78843584Y-75754281D01*
X78843584Y-75754281D02*
X78843584Y-75335233D01*
X78367393Y-76435233D02*
X79367393Y-76435233D01*
X79367393Y-77168567D02*
X79367393Y-77378091D01*
X79367393Y-77378091D02*
X79319774Y-77482853D01*
X79319774Y-77482853D02*
X79224536Y-77587615D01*
X79224536Y-77587615D02*
X79034060Y-77639996D01*
X79034060Y-77639996D02*
X78700727Y-77639996D01*
X78700727Y-77639996D02*
X78510251Y-77587615D01*
X78510251Y-77587615D02*
X78415013Y-77482853D01*
X78415013Y-77482853D02*
X78367393Y-77378091D01*
X78367393Y-77378091D02*
X78367393Y-77168567D01*
X78367393Y-77168567D02*
X78415013Y-77063805D01*
X78415013Y-77063805D02*
X78510251Y-76959043D01*
X78510251Y-76959043D02*
X78700727Y-76906662D01*
X78700727Y-76906662D02*
X79034060Y-76906662D01*
X79034060Y-76906662D02*
X79224536Y-76959043D01*
X79224536Y-76959043D02*
X79319774Y-77063805D01*
X79319774Y-77063805D02*
X79367393Y-77168567D01*
X79367393Y-78006662D02*
X79367393Y-78687615D01*
X79367393Y-78687615D02*
X78986441Y-78320948D01*
X78986441Y-78320948D02*
X78986441Y-78478091D01*
X78986441Y-78478091D02*
X78938822Y-78582853D01*
X78938822Y-78582853D02*
X78891203Y-78635234D01*
X78891203Y-78635234D02*
X78795965Y-78687615D01*
X78795965Y-78687615D02*
X78557870Y-78687615D01*
X78557870Y-78687615D02*
X78462632Y-78635234D01*
X78462632Y-78635234D02*
X78415013Y-78582853D01*
X78415013Y-78582853D02*
X78367393Y-78478091D01*
X78367393Y-78478091D02*
X78367393Y-78163805D01*
X78367393Y-78163805D02*
X78415013Y-78059043D01*
X78415013Y-78059043D02*
X78462632Y-78006662D01*
X79367393Y-79630472D02*
X79367393Y-79420948D01*
X79367393Y-79420948D02*
X79319774Y-79316186D01*
X79319774Y-79316186D02*
X79272155Y-79263805D01*
X79272155Y-79263805D02*
X79129298Y-79159043D01*
X79129298Y-79159043D02*
X78938822Y-79106662D01*
X78938822Y-79106662D02*
X78557870Y-79106662D01*
X78557870Y-79106662D02*
X78462632Y-79159043D01*
X78462632Y-79159043D02*
X78415013Y-79211424D01*
X78415013Y-79211424D02*
X78367393Y-79316186D01*
X78367393Y-79316186D02*
X78367393Y-79525710D01*
X78367393Y-79525710D02*
X78415013Y-79630472D01*
X78415013Y-79630472D02*
X78462632Y-79682853D01*
X78462632Y-79682853D02*
X78557870Y-79735234D01*
X78557870Y-79735234D02*
X78795965Y-79735234D01*
X78795965Y-79735234D02*
X78891203Y-79682853D01*
X78891203Y-79682853D02*
X78938822Y-79630472D01*
X78938822Y-79630472D02*
X78986441Y-79525710D01*
X78986441Y-79525710D02*
X78986441Y-79316186D01*
X78986441Y-79316186D02*
X78938822Y-79211424D01*
X78938822Y-79211424D02*
X78891203Y-79159043D01*
X78891203Y-79159043D02*
X78795965Y-79106662D01*
X79819774Y-92311424D02*
X79867393Y-92206662D01*
X79867393Y-92206662D02*
X79867393Y-92049519D01*
X79867393Y-92049519D02*
X79819774Y-91892376D01*
X79819774Y-91892376D02*
X79724536Y-91787614D01*
X79724536Y-91787614D02*
X79629298Y-91735233D01*
X79629298Y-91735233D02*
X79438822Y-91682852D01*
X79438822Y-91682852D02*
X79295965Y-91682852D01*
X79295965Y-91682852D02*
X79105489Y-91735233D01*
X79105489Y-91735233D02*
X79010251Y-91787614D01*
X79010251Y-91787614D02*
X78915013Y-91892376D01*
X78915013Y-91892376D02*
X78867393Y-92049519D01*
X78867393Y-92049519D02*
X78867393Y-92154281D01*
X78867393Y-92154281D02*
X78915013Y-92311424D01*
X78915013Y-92311424D02*
X78962632Y-92363805D01*
X78962632Y-92363805D02*
X79295965Y-92363805D01*
X79295965Y-92363805D02*
X79295965Y-92154281D01*
X78867393Y-92835233D02*
X79867393Y-92835233D01*
X79867393Y-92835233D02*
X79867393Y-93254281D01*
X79867393Y-93254281D02*
X79819774Y-93359043D01*
X79819774Y-93359043D02*
X79772155Y-93411424D01*
X79772155Y-93411424D02*
X79676917Y-93463805D01*
X79676917Y-93463805D02*
X79534060Y-93463805D01*
X79534060Y-93463805D02*
X79438822Y-93411424D01*
X79438822Y-93411424D02*
X79391203Y-93359043D01*
X79391203Y-93359043D02*
X79343584Y-93254281D01*
X79343584Y-93254281D02*
X79343584Y-92835233D01*
X78867393Y-93935233D02*
X79867393Y-93935233D01*
X79867393Y-94668567D02*
X79867393Y-94878091D01*
X79867393Y-94878091D02*
X79819774Y-94982853D01*
X79819774Y-94982853D02*
X79724536Y-95087615D01*
X79724536Y-95087615D02*
X79534060Y-95139996D01*
X79534060Y-95139996D02*
X79200727Y-95139996D01*
X79200727Y-95139996D02*
X79010251Y-95087615D01*
X79010251Y-95087615D02*
X78915013Y-94982853D01*
X78915013Y-94982853D02*
X78867393Y-94878091D01*
X78867393Y-94878091D02*
X78867393Y-94668567D01*
X78867393Y-94668567D02*
X78915013Y-94563805D01*
X78915013Y-94563805D02*
X79010251Y-94459043D01*
X79010251Y-94459043D02*
X79200727Y-94406662D01*
X79200727Y-94406662D02*
X79534060Y-94406662D01*
X79534060Y-94406662D02*
X79724536Y-94459043D01*
X79724536Y-94459043D02*
X79819774Y-94563805D01*
X79819774Y-94563805D02*
X79867393Y-94668567D01*
X79772155Y-95559043D02*
X79819774Y-95611424D01*
X79819774Y-95611424D02*
X79867393Y-95716186D01*
X79867393Y-95716186D02*
X79867393Y-95978091D01*
X79867393Y-95978091D02*
X79819774Y-96082853D01*
X79819774Y-96082853D02*
X79772155Y-96135234D01*
X79772155Y-96135234D02*
X79676917Y-96187615D01*
X79676917Y-96187615D02*
X79581679Y-96187615D01*
X79581679Y-96187615D02*
X79438822Y-96135234D01*
X79438822Y-96135234D02*
X78867393Y-95506662D01*
X78867393Y-95506662D02*
X78867393Y-96187615D01*
X79772155Y-96606662D02*
X79819774Y-96659043D01*
X79819774Y-96659043D02*
X79867393Y-96763805D01*
X79867393Y-96763805D02*
X79867393Y-97025710D01*
X79867393Y-97025710D02*
X79819774Y-97130472D01*
X79819774Y-97130472D02*
X79772155Y-97182853D01*
X79772155Y-97182853D02*
X79676917Y-97235234D01*
X79676917Y-97235234D02*
X79581679Y-97235234D01*
X79581679Y-97235234D02*
X79438822Y-97182853D01*
X79438822Y-97182853D02*
X78867393Y-96554281D01*
X78867393Y-96554281D02*
X78867393Y-97235234D01*
X81391203Y-74235233D02*
X81391203Y-74601900D01*
X80867393Y-74759043D02*
X80867393Y-74235233D01*
X80867393Y-74235233D02*
X81867393Y-74235233D01*
X81867393Y-74235233D02*
X81867393Y-74759043D01*
X80867393Y-75230471D02*
X81867393Y-75230471D01*
X81867393Y-75230471D02*
X80867393Y-75859043D01*
X80867393Y-75859043D02*
X81867393Y-75859043D01*
X82319774Y-92311424D02*
X82367393Y-92206662D01*
X82367393Y-92206662D02*
X82367393Y-92049519D01*
X82367393Y-92049519D02*
X82319774Y-91892376D01*
X82319774Y-91892376D02*
X82224536Y-91787614D01*
X82224536Y-91787614D02*
X82129298Y-91735233D01*
X82129298Y-91735233D02*
X81938822Y-91682852D01*
X81938822Y-91682852D02*
X81795965Y-91682852D01*
X81795965Y-91682852D02*
X81605489Y-91735233D01*
X81605489Y-91735233D02*
X81510251Y-91787614D01*
X81510251Y-91787614D02*
X81415013Y-91892376D01*
X81415013Y-91892376D02*
X81367393Y-92049519D01*
X81367393Y-92049519D02*
X81367393Y-92154281D01*
X81367393Y-92154281D02*
X81415013Y-92311424D01*
X81415013Y-92311424D02*
X81462632Y-92363805D01*
X81462632Y-92363805D02*
X81795965Y-92363805D01*
X81795965Y-92363805D02*
X81795965Y-92154281D01*
X81367393Y-92835233D02*
X82367393Y-92835233D01*
X82367393Y-92835233D02*
X82367393Y-93254281D01*
X82367393Y-93254281D02*
X82319774Y-93359043D01*
X82319774Y-93359043D02*
X82272155Y-93411424D01*
X82272155Y-93411424D02*
X82176917Y-93463805D01*
X82176917Y-93463805D02*
X82034060Y-93463805D01*
X82034060Y-93463805D02*
X81938822Y-93411424D01*
X81938822Y-93411424D02*
X81891203Y-93359043D01*
X81891203Y-93359043D02*
X81843584Y-93254281D01*
X81843584Y-93254281D02*
X81843584Y-92835233D01*
X81367393Y-93935233D02*
X82367393Y-93935233D01*
X82367393Y-94668567D02*
X82367393Y-94878091D01*
X82367393Y-94878091D02*
X82319774Y-94982853D01*
X82319774Y-94982853D02*
X82224536Y-95087615D01*
X82224536Y-95087615D02*
X82034060Y-95139996D01*
X82034060Y-95139996D02*
X81700727Y-95139996D01*
X81700727Y-95139996D02*
X81510251Y-95087615D01*
X81510251Y-95087615D02*
X81415013Y-94982853D01*
X81415013Y-94982853D02*
X81367393Y-94878091D01*
X81367393Y-94878091D02*
X81367393Y-94668567D01*
X81367393Y-94668567D02*
X81415013Y-94563805D01*
X81415013Y-94563805D02*
X81510251Y-94459043D01*
X81510251Y-94459043D02*
X81700727Y-94406662D01*
X81700727Y-94406662D02*
X82034060Y-94406662D01*
X82034060Y-94406662D02*
X82224536Y-94459043D01*
X82224536Y-94459043D02*
X82319774Y-94563805D01*
X82319774Y-94563805D02*
X82367393Y-94668567D01*
X82272155Y-95559043D02*
X82319774Y-95611424D01*
X82319774Y-95611424D02*
X82367393Y-95716186D01*
X82367393Y-95716186D02*
X82367393Y-95978091D01*
X82367393Y-95978091D02*
X82319774Y-96082853D01*
X82319774Y-96082853D02*
X82272155Y-96135234D01*
X82272155Y-96135234D02*
X82176917Y-96187615D01*
X82176917Y-96187615D02*
X82081679Y-96187615D01*
X82081679Y-96187615D02*
X81938822Y-96135234D01*
X81938822Y-96135234D02*
X81367393Y-95506662D01*
X81367393Y-95506662D02*
X81367393Y-96187615D01*
X82367393Y-96554281D02*
X82367393Y-97235234D01*
X82367393Y-97235234D02*
X81986441Y-96868567D01*
X81986441Y-96868567D02*
X81986441Y-97025710D01*
X81986441Y-97025710D02*
X81938822Y-97130472D01*
X81938822Y-97130472D02*
X81891203Y-97182853D01*
X81891203Y-97182853D02*
X81795965Y-97235234D01*
X81795965Y-97235234D02*
X81557870Y-97235234D01*
X81557870Y-97235234D02*
X81462632Y-97182853D01*
X81462632Y-97182853D02*
X81415013Y-97130472D01*
X81415013Y-97130472D02*
X81367393Y-97025710D01*
X81367393Y-97025710D02*
X81367393Y-96711424D01*
X81367393Y-96711424D02*
X81415013Y-96606662D01*
X81415013Y-96606662D02*
X81462632Y-96554281D01*
X113681904Y-86522580D02*
X113681904Y-85713057D01*
X113681904Y-85713057D02*
X113634285Y-85617819D01*
X113634285Y-85617819D02*
X113586666Y-85570200D01*
X113586666Y-85570200D02*
X113491428Y-85522580D01*
X113491428Y-85522580D02*
X113300952Y-85522580D01*
X113300952Y-85522580D02*
X113205714Y-85570200D01*
X113205714Y-85570200D02*
X113158095Y-85617819D01*
X113158095Y-85617819D02*
X113110476Y-85713057D01*
X113110476Y-85713057D02*
X113110476Y-86522580D01*
X112205714Y-86189247D02*
X112205714Y-85522580D01*
X112443809Y-86570200D02*
X112681904Y-85855914D01*
X112681904Y-85855914D02*
X112062857Y-85855914D01*
D10*
X63954819Y-54146666D02*
X63478628Y-54479999D01*
X63954819Y-54718094D02*
X62954819Y-54718094D01*
X62954819Y-54718094D02*
X62954819Y-54337142D01*
X62954819Y-54337142D02*
X63002438Y-54241904D01*
X63002438Y-54241904D02*
X63050057Y-54194285D01*
X63050057Y-54194285D02*
X63145295Y-54146666D01*
X63145295Y-54146666D02*
X63288152Y-54146666D01*
X63288152Y-54146666D02*
X63383390Y-54194285D01*
X63383390Y-54194285D02*
X63431009Y-54241904D01*
X63431009Y-54241904D02*
X63478628Y-54337142D01*
X63478628Y-54337142D02*
X63478628Y-54718094D01*
X63050057Y-53765713D02*
X63002438Y-53718094D01*
X63002438Y-53718094D02*
X62954819Y-53622856D01*
X62954819Y-53622856D02*
X62954819Y-53384761D01*
X62954819Y-53384761D02*
X63002438Y-53289523D01*
X63002438Y-53289523D02*
X63050057Y-53241904D01*
X63050057Y-53241904D02*
X63145295Y-53194285D01*
X63145295Y-53194285D02*
X63240533Y-53194285D01*
X63240533Y-53194285D02*
X63383390Y-53241904D01*
X63383390Y-53241904D02*
X63954819Y-53813332D01*
X63954819Y-53813332D02*
X63954819Y-53194285D01*
X69269523Y-113508152D02*
X69650475Y-113508152D01*
X69412380Y-114174819D02*
X69412380Y-113317676D01*
X69412380Y-113317676D02*
X69459999Y-113222438D01*
X69459999Y-113222438D02*
X69555237Y-113174819D01*
X69555237Y-113174819D02*
X69650475Y-113174819D01*
X70126666Y-114174819D02*
X70031428Y-114127200D01*
X70031428Y-114127200D02*
X69983809Y-114079580D01*
X69983809Y-114079580D02*
X69936190Y-113984342D01*
X69936190Y-113984342D02*
X69936190Y-113698628D01*
X69936190Y-113698628D02*
X69983809Y-113603390D01*
X69983809Y-113603390D02*
X70031428Y-113555771D01*
X70031428Y-113555771D02*
X70126666Y-113508152D01*
X70126666Y-113508152D02*
X70269523Y-113508152D01*
X70269523Y-113508152D02*
X70364761Y-113555771D01*
X70364761Y-113555771D02*
X70412380Y-113603390D01*
X70412380Y-113603390D02*
X70459999Y-113698628D01*
X70459999Y-113698628D02*
X70459999Y-113984342D01*
X70459999Y-113984342D02*
X70412380Y-114079580D01*
X70412380Y-114079580D02*
X70364761Y-114127200D01*
X70364761Y-114127200D02*
X70269523Y-114174819D01*
X70269523Y-114174819D02*
X70126666Y-114174819D01*
X71031428Y-114174819D02*
X70936190Y-114127200D01*
X70936190Y-114127200D02*
X70888571Y-114079580D01*
X70888571Y-114079580D02*
X70840952Y-113984342D01*
X70840952Y-113984342D02*
X70840952Y-113698628D01*
X70840952Y-113698628D02*
X70888571Y-113603390D01*
X70888571Y-113603390D02*
X70936190Y-113555771D01*
X70936190Y-113555771D02*
X71031428Y-113508152D01*
X71031428Y-113508152D02*
X71174285Y-113508152D01*
X71174285Y-113508152D02*
X71269523Y-113555771D01*
X71269523Y-113555771D02*
X71317142Y-113603390D01*
X71317142Y-113603390D02*
X71364761Y-113698628D01*
X71364761Y-113698628D02*
X71364761Y-113984342D01*
X71364761Y-113984342D02*
X71317142Y-114079580D01*
X71317142Y-114079580D02*
X71269523Y-114127200D01*
X71269523Y-114127200D02*
X71174285Y-114174819D01*
X71174285Y-114174819D02*
X71031428Y-114174819D01*
X71650476Y-113508152D02*
X72031428Y-113508152D01*
X71793333Y-113174819D02*
X71793333Y-114031961D01*
X71793333Y-114031961D02*
X71840952Y-114127200D01*
X71840952Y-114127200D02*
X71936190Y-114174819D01*
X71936190Y-114174819D02*
X72031428Y-114174819D01*
X72126667Y-114270057D02*
X72888571Y-114270057D01*
X73126667Y-114174819D02*
X73126667Y-113174819D01*
X73126667Y-113174819D02*
X73460000Y-113889104D01*
X73460000Y-113889104D02*
X73793333Y-113174819D01*
X73793333Y-113174819D02*
X73793333Y-114174819D01*
X74412381Y-114174819D02*
X74317143Y-114127200D01*
X74317143Y-114127200D02*
X74269524Y-114079580D01*
X74269524Y-114079580D02*
X74221905Y-113984342D01*
X74221905Y-113984342D02*
X74221905Y-113698628D01*
X74221905Y-113698628D02*
X74269524Y-113603390D01*
X74269524Y-113603390D02*
X74317143Y-113555771D01*
X74317143Y-113555771D02*
X74412381Y-113508152D01*
X74412381Y-113508152D02*
X74555238Y-113508152D01*
X74555238Y-113508152D02*
X74650476Y-113555771D01*
X74650476Y-113555771D02*
X74698095Y-113603390D01*
X74698095Y-113603390D02*
X74745714Y-113698628D01*
X74745714Y-113698628D02*
X74745714Y-113984342D01*
X74745714Y-113984342D02*
X74698095Y-114079580D01*
X74698095Y-114079580D02*
X74650476Y-114127200D01*
X74650476Y-114127200D02*
X74555238Y-114174819D01*
X74555238Y-114174819D02*
X74412381Y-114174819D01*
X75031429Y-113508152D02*
X75412381Y-113508152D01*
X75174286Y-113174819D02*
X75174286Y-114031961D01*
X75174286Y-114031961D02*
X75221905Y-114127200D01*
X75221905Y-114127200D02*
X75317143Y-114174819D01*
X75317143Y-114174819D02*
X75412381Y-114174819D01*
X75888572Y-114174819D02*
X75793334Y-114127200D01*
X75793334Y-114127200D02*
X75745715Y-114079580D01*
X75745715Y-114079580D02*
X75698096Y-113984342D01*
X75698096Y-113984342D02*
X75698096Y-113698628D01*
X75698096Y-113698628D02*
X75745715Y-113603390D01*
X75745715Y-113603390D02*
X75793334Y-113555771D01*
X75793334Y-113555771D02*
X75888572Y-113508152D01*
X75888572Y-113508152D02*
X76031429Y-113508152D01*
X76031429Y-113508152D02*
X76126667Y-113555771D01*
X76126667Y-113555771D02*
X76174286Y-113603390D01*
X76174286Y-113603390D02*
X76221905Y-113698628D01*
X76221905Y-113698628D02*
X76221905Y-113984342D01*
X76221905Y-113984342D02*
X76174286Y-114079580D01*
X76174286Y-114079580D02*
X76126667Y-114127200D01*
X76126667Y-114127200D02*
X76031429Y-114174819D01*
X76031429Y-114174819D02*
X75888572Y-114174819D01*
X76650477Y-114174819D02*
X76650477Y-113508152D01*
X76650477Y-113698628D02*
X76698096Y-113603390D01*
X76698096Y-113603390D02*
X76745715Y-113555771D01*
X76745715Y-113555771D02*
X76840953Y-113508152D01*
X76840953Y-113508152D02*
X76936191Y-113508152D01*
X77031430Y-114270057D02*
X77793334Y-114270057D01*
X77983811Y-113270057D02*
X78031430Y-113222438D01*
X78031430Y-113222438D02*
X78126668Y-113174819D01*
X78126668Y-113174819D02*
X78364763Y-113174819D01*
X78364763Y-113174819D02*
X78460001Y-113222438D01*
X78460001Y-113222438D02*
X78507620Y-113270057D01*
X78507620Y-113270057D02*
X78555239Y-113365295D01*
X78555239Y-113365295D02*
X78555239Y-113460533D01*
X78555239Y-113460533D02*
X78507620Y-113603390D01*
X78507620Y-113603390D02*
X77936192Y-114174819D01*
X77936192Y-114174819D02*
X78555239Y-114174819D01*
X91294819Y-67122857D02*
X90818628Y-67456190D01*
X91294819Y-67694285D02*
X90294819Y-67694285D01*
X90294819Y-67694285D02*
X90294819Y-67313333D01*
X90294819Y-67313333D02*
X90342438Y-67218095D01*
X90342438Y-67218095D02*
X90390057Y-67170476D01*
X90390057Y-67170476D02*
X90485295Y-67122857D01*
X90485295Y-67122857D02*
X90628152Y-67122857D01*
X90628152Y-67122857D02*
X90723390Y-67170476D01*
X90723390Y-67170476D02*
X90771009Y-67218095D01*
X90771009Y-67218095D02*
X90818628Y-67313333D01*
X90818628Y-67313333D02*
X90818628Y-67694285D01*
X91294819Y-66170476D02*
X91294819Y-66741904D01*
X91294819Y-66456190D02*
X90294819Y-66456190D01*
X90294819Y-66456190D02*
X90437676Y-66551428D01*
X90437676Y-66551428D02*
X90532914Y-66646666D01*
X90532914Y-66646666D02*
X90580533Y-66741904D01*
X90294819Y-65313333D02*
X90294819Y-65503809D01*
X90294819Y-65503809D02*
X90342438Y-65599047D01*
X90342438Y-65599047D02*
X90390057Y-65646666D01*
X90390057Y-65646666D02*
X90532914Y-65741904D01*
X90532914Y-65741904D02*
X90723390Y-65789523D01*
X90723390Y-65789523D02*
X91104342Y-65789523D01*
X91104342Y-65789523D02*
X91199580Y-65741904D01*
X91199580Y-65741904D02*
X91247200Y-65694285D01*
X91247200Y-65694285D02*
X91294819Y-65599047D01*
X91294819Y-65599047D02*
X91294819Y-65408571D01*
X91294819Y-65408571D02*
X91247200Y-65313333D01*
X91247200Y-65313333D02*
X91199580Y-65265714D01*
X91199580Y-65265714D02*
X91104342Y-65218095D01*
X91104342Y-65218095D02*
X90866247Y-65218095D01*
X90866247Y-65218095D02*
X90771009Y-65265714D01*
X90771009Y-65265714D02*
X90723390Y-65313333D01*
X90723390Y-65313333D02*
X90675771Y-65408571D01*
X90675771Y-65408571D02*
X90675771Y-65599047D01*
X90675771Y-65599047D02*
X90723390Y-65694285D01*
X90723390Y-65694285D02*
X90771009Y-65741904D01*
X90771009Y-65741904D02*
X90866247Y-65789523D01*
X95954819Y-101142857D02*
X95478628Y-101476190D01*
X95954819Y-101714285D02*
X94954819Y-101714285D01*
X94954819Y-101714285D02*
X94954819Y-101333333D01*
X94954819Y-101333333D02*
X95002438Y-101238095D01*
X95002438Y-101238095D02*
X95050057Y-101190476D01*
X95050057Y-101190476D02*
X95145295Y-101142857D01*
X95145295Y-101142857D02*
X95288152Y-101142857D01*
X95288152Y-101142857D02*
X95383390Y-101190476D01*
X95383390Y-101190476D02*
X95431009Y-101238095D01*
X95431009Y-101238095D02*
X95478628Y-101333333D01*
X95478628Y-101333333D02*
X95478628Y-101714285D01*
X95954819Y-100190476D02*
X95954819Y-100761904D01*
X95954819Y-100476190D02*
X94954819Y-100476190D01*
X94954819Y-100476190D02*
X95097676Y-100571428D01*
X95097676Y-100571428D02*
X95192914Y-100666666D01*
X95192914Y-100666666D02*
X95240533Y-100761904D01*
X94954819Y-99857142D02*
X94954819Y-99238095D01*
X94954819Y-99238095D02*
X95335771Y-99571428D01*
X95335771Y-99571428D02*
X95335771Y-99428571D01*
X95335771Y-99428571D02*
X95383390Y-99333333D01*
X95383390Y-99333333D02*
X95431009Y-99285714D01*
X95431009Y-99285714D02*
X95526247Y-99238095D01*
X95526247Y-99238095D02*
X95764342Y-99238095D01*
X95764342Y-99238095D02*
X95859580Y-99285714D01*
X95859580Y-99285714D02*
X95907200Y-99333333D01*
X95907200Y-99333333D02*
X95954819Y-99428571D01*
X95954819Y-99428571D02*
X95954819Y-99714285D01*
X95954819Y-99714285D02*
X95907200Y-99809523D01*
X95907200Y-99809523D02*
X95859580Y-99857142D01*
X69954819Y-53856666D02*
X69478628Y-54189999D01*
X69954819Y-54428094D02*
X68954819Y-54428094D01*
X68954819Y-54428094D02*
X68954819Y-54047142D01*
X68954819Y-54047142D02*
X69002438Y-53951904D01*
X69002438Y-53951904D02*
X69050057Y-53904285D01*
X69050057Y-53904285D02*
X69145295Y-53856666D01*
X69145295Y-53856666D02*
X69288152Y-53856666D01*
X69288152Y-53856666D02*
X69383390Y-53904285D01*
X69383390Y-53904285D02*
X69431009Y-53951904D01*
X69431009Y-53951904D02*
X69478628Y-54047142D01*
X69478628Y-54047142D02*
X69478628Y-54428094D01*
X69288152Y-52999523D02*
X69954819Y-52999523D01*
X68907200Y-53237618D02*
X69621485Y-53475713D01*
X69621485Y-53475713D02*
X69621485Y-52856666D01*
X77294819Y-53856666D02*
X76818628Y-54189999D01*
X77294819Y-54428094D02*
X76294819Y-54428094D01*
X76294819Y-54428094D02*
X76294819Y-54047142D01*
X76294819Y-54047142D02*
X76342438Y-53951904D01*
X76342438Y-53951904D02*
X76390057Y-53904285D01*
X76390057Y-53904285D02*
X76485295Y-53856666D01*
X76485295Y-53856666D02*
X76628152Y-53856666D01*
X76628152Y-53856666D02*
X76723390Y-53904285D01*
X76723390Y-53904285D02*
X76771009Y-53951904D01*
X76771009Y-53951904D02*
X76818628Y-54047142D01*
X76818628Y-54047142D02*
X76818628Y-54428094D01*
X77294819Y-52904285D02*
X77294819Y-53475713D01*
X77294819Y-53189999D02*
X76294819Y-53189999D01*
X76294819Y-53189999D02*
X76437676Y-53285237D01*
X76437676Y-53285237D02*
X76532914Y-53380475D01*
X76532914Y-53380475D02*
X76580533Y-53475713D01*
X59454819Y-109642857D02*
X58978628Y-109976190D01*
X59454819Y-110214285D02*
X58454819Y-110214285D01*
X58454819Y-110214285D02*
X58454819Y-109833333D01*
X58454819Y-109833333D02*
X58502438Y-109738095D01*
X58502438Y-109738095D02*
X58550057Y-109690476D01*
X58550057Y-109690476D02*
X58645295Y-109642857D01*
X58645295Y-109642857D02*
X58788152Y-109642857D01*
X58788152Y-109642857D02*
X58883390Y-109690476D01*
X58883390Y-109690476D02*
X58931009Y-109738095D01*
X58931009Y-109738095D02*
X58978628Y-109833333D01*
X58978628Y-109833333D02*
X58978628Y-110214285D01*
X59454819Y-108690476D02*
X59454819Y-109261904D01*
X59454819Y-108976190D02*
X58454819Y-108976190D01*
X58454819Y-108976190D02*
X58597676Y-109071428D01*
X58597676Y-109071428D02*
X58692914Y-109166666D01*
X58692914Y-109166666D02*
X58740533Y-109261904D01*
X58454819Y-108071428D02*
X58454819Y-107976190D01*
X58454819Y-107976190D02*
X58502438Y-107880952D01*
X58502438Y-107880952D02*
X58550057Y-107833333D01*
X58550057Y-107833333D02*
X58645295Y-107785714D01*
X58645295Y-107785714D02*
X58835771Y-107738095D01*
X58835771Y-107738095D02*
X59073866Y-107738095D01*
X59073866Y-107738095D02*
X59264342Y-107785714D01*
X59264342Y-107785714D02*
X59359580Y-107833333D01*
X59359580Y-107833333D02*
X59407200Y-107880952D01*
X59407200Y-107880952D02*
X59454819Y-107976190D01*
X59454819Y-107976190D02*
X59454819Y-108071428D01*
X59454819Y-108071428D02*
X59407200Y-108166666D01*
X59407200Y-108166666D02*
X59359580Y-108214285D01*
X59359580Y-108214285D02*
X59264342Y-108261904D01*
X59264342Y-108261904D02*
X59073866Y-108309523D01*
X59073866Y-108309523D02*
X58835771Y-108309523D01*
X58835771Y-108309523D02*
X58645295Y-108261904D01*
X58645295Y-108261904D02*
X58550057Y-108214285D01*
X58550057Y-108214285D02*
X58502438Y-108166666D01*
X58502438Y-108166666D02*
X58454819Y-108071428D01*
X62794819Y-54146666D02*
X62318628Y-54479999D01*
X62794819Y-54718094D02*
X61794819Y-54718094D01*
X61794819Y-54718094D02*
X61794819Y-54337142D01*
X61794819Y-54337142D02*
X61842438Y-54241904D01*
X61842438Y-54241904D02*
X61890057Y-54194285D01*
X61890057Y-54194285D02*
X61985295Y-54146666D01*
X61985295Y-54146666D02*
X62128152Y-54146666D01*
X62128152Y-54146666D02*
X62223390Y-54194285D01*
X62223390Y-54194285D02*
X62271009Y-54241904D01*
X62271009Y-54241904D02*
X62318628Y-54337142D01*
X62318628Y-54337142D02*
X62318628Y-54718094D01*
X61794819Y-53241904D02*
X61794819Y-53718094D01*
X61794819Y-53718094D02*
X62271009Y-53765713D01*
X62271009Y-53765713D02*
X62223390Y-53718094D01*
X62223390Y-53718094D02*
X62175771Y-53622856D01*
X62175771Y-53622856D02*
X62175771Y-53384761D01*
X62175771Y-53384761D02*
X62223390Y-53289523D01*
X62223390Y-53289523D02*
X62271009Y-53241904D01*
X62271009Y-53241904D02*
X62366247Y-53194285D01*
X62366247Y-53194285D02*
X62604342Y-53194285D01*
X62604342Y-53194285D02*
X62699580Y-53241904D01*
X62699580Y-53241904D02*
X62747200Y-53289523D01*
X62747200Y-53289523D02*
X62794819Y-53384761D01*
X62794819Y-53384761D02*
X62794819Y-53622856D01*
X62794819Y-53622856D02*
X62747200Y-53718094D01*
X62747200Y-53718094D02*
X62699580Y-53765713D01*
X48294819Y-109456666D02*
X47818628Y-109789999D01*
X48294819Y-110028094D02*
X47294819Y-110028094D01*
X47294819Y-110028094D02*
X47294819Y-109647142D01*
X47294819Y-109647142D02*
X47342438Y-109551904D01*
X47342438Y-109551904D02*
X47390057Y-109504285D01*
X47390057Y-109504285D02*
X47485295Y-109456666D01*
X47485295Y-109456666D02*
X47628152Y-109456666D01*
X47628152Y-109456666D02*
X47723390Y-109504285D01*
X47723390Y-109504285D02*
X47771009Y-109551904D01*
X47771009Y-109551904D02*
X47818628Y-109647142D01*
X47818628Y-109647142D02*
X47818628Y-110028094D01*
X48294819Y-108980475D02*
X48294819Y-108789999D01*
X48294819Y-108789999D02*
X48247200Y-108694761D01*
X48247200Y-108694761D02*
X48199580Y-108647142D01*
X48199580Y-108647142D02*
X48056723Y-108551904D01*
X48056723Y-108551904D02*
X47866247Y-108504285D01*
X47866247Y-108504285D02*
X47485295Y-108504285D01*
X47485295Y-108504285D02*
X47390057Y-108551904D01*
X47390057Y-108551904D02*
X47342438Y-108599523D01*
X47342438Y-108599523D02*
X47294819Y-108694761D01*
X47294819Y-108694761D02*
X47294819Y-108885237D01*
X47294819Y-108885237D02*
X47342438Y-108980475D01*
X47342438Y-108980475D02*
X47390057Y-109028094D01*
X47390057Y-109028094D02*
X47485295Y-109075713D01*
X47485295Y-109075713D02*
X47723390Y-109075713D01*
X47723390Y-109075713D02*
X47818628Y-109028094D01*
X47818628Y-109028094D02*
X47866247Y-108980475D01*
X47866247Y-108980475D02*
X47913866Y-108885237D01*
X47913866Y-108885237D02*
X47913866Y-108694761D01*
X47913866Y-108694761D02*
X47866247Y-108599523D01*
X47866247Y-108599523D02*
X47818628Y-108551904D01*
X47818628Y-108551904D02*
X47723390Y-108504285D01*
X51928571Y-36454819D02*
X51928571Y-35454819D01*
X52357142Y-36454819D02*
X52357142Y-35931009D01*
X52357142Y-35931009D02*
X52309523Y-35835771D01*
X52309523Y-35835771D02*
X52214285Y-35788152D01*
X52214285Y-35788152D02*
X52071428Y-35788152D01*
X52071428Y-35788152D02*
X51976190Y-35835771D01*
X51976190Y-35835771D02*
X51928571Y-35883390D01*
X52976190Y-36454819D02*
X52880952Y-36407200D01*
X52880952Y-36407200D02*
X52833333Y-36359580D01*
X52833333Y-36359580D02*
X52785714Y-36264342D01*
X52785714Y-36264342D02*
X52785714Y-35978628D01*
X52785714Y-35978628D02*
X52833333Y-35883390D01*
X52833333Y-35883390D02*
X52880952Y-35835771D01*
X52880952Y-35835771D02*
X52976190Y-35788152D01*
X52976190Y-35788152D02*
X53119047Y-35788152D01*
X53119047Y-35788152D02*
X53214285Y-35835771D01*
X53214285Y-35835771D02*
X53261904Y-35883390D01*
X53261904Y-35883390D02*
X53309523Y-35978628D01*
X53309523Y-35978628D02*
X53309523Y-36264342D01*
X53309523Y-36264342D02*
X53261904Y-36359580D01*
X53261904Y-36359580D02*
X53214285Y-36407200D01*
X53214285Y-36407200D02*
X53119047Y-36454819D01*
X53119047Y-36454819D02*
X52976190Y-36454819D01*
X53738095Y-36454819D02*
X53738095Y-35788152D01*
X53738095Y-35883390D02*
X53785714Y-35835771D01*
X53785714Y-35835771D02*
X53880952Y-35788152D01*
X53880952Y-35788152D02*
X54023809Y-35788152D01*
X54023809Y-35788152D02*
X54119047Y-35835771D01*
X54119047Y-35835771D02*
X54166666Y-35931009D01*
X54166666Y-35931009D02*
X54166666Y-36454819D01*
X54166666Y-35931009D02*
X54214285Y-35835771D01*
X54214285Y-35835771D02*
X54309523Y-35788152D01*
X54309523Y-35788152D02*
X54452380Y-35788152D01*
X54452380Y-35788152D02*
X54547619Y-35835771D01*
X54547619Y-35835771D02*
X54595238Y-35931009D01*
X54595238Y-35931009D02*
X54595238Y-36454819D01*
X55452380Y-36407200D02*
X55357142Y-36454819D01*
X55357142Y-36454819D02*
X55166666Y-36454819D01*
X55166666Y-36454819D02*
X55071428Y-36407200D01*
X55071428Y-36407200D02*
X55023809Y-36311961D01*
X55023809Y-36311961D02*
X55023809Y-35931009D01*
X55023809Y-35931009D02*
X55071428Y-35835771D01*
X55071428Y-35835771D02*
X55166666Y-35788152D01*
X55166666Y-35788152D02*
X55357142Y-35788152D01*
X55357142Y-35788152D02*
X55452380Y-35835771D01*
X55452380Y-35835771D02*
X55499999Y-35931009D01*
X55499999Y-35931009D02*
X55499999Y-36026247D01*
X55499999Y-36026247D02*
X55023809Y-36121485D01*
X55690476Y-36550057D02*
X56452380Y-36550057D01*
X56642857Y-36407200D02*
X56738095Y-36454819D01*
X56738095Y-36454819D02*
X56928571Y-36454819D01*
X56928571Y-36454819D02*
X57023809Y-36407200D01*
X57023809Y-36407200D02*
X57071428Y-36311961D01*
X57071428Y-36311961D02*
X57071428Y-36264342D01*
X57071428Y-36264342D02*
X57023809Y-36169104D01*
X57023809Y-36169104D02*
X56928571Y-36121485D01*
X56928571Y-36121485D02*
X56785714Y-36121485D01*
X56785714Y-36121485D02*
X56690476Y-36073866D01*
X56690476Y-36073866D02*
X56642857Y-35978628D01*
X56642857Y-35978628D02*
X56642857Y-35931009D01*
X56642857Y-35931009D02*
X56690476Y-35835771D01*
X56690476Y-35835771D02*
X56785714Y-35788152D01*
X56785714Y-35788152D02*
X56928571Y-35788152D01*
X56928571Y-35788152D02*
X57023809Y-35835771D01*
X57880952Y-36407200D02*
X57785714Y-36454819D01*
X57785714Y-36454819D02*
X57595238Y-36454819D01*
X57595238Y-36454819D02*
X57500000Y-36407200D01*
X57500000Y-36407200D02*
X57452381Y-36311961D01*
X57452381Y-36311961D02*
X57452381Y-35931009D01*
X57452381Y-35931009D02*
X57500000Y-35835771D01*
X57500000Y-35835771D02*
X57595238Y-35788152D01*
X57595238Y-35788152D02*
X57785714Y-35788152D01*
X57785714Y-35788152D02*
X57880952Y-35835771D01*
X57880952Y-35835771D02*
X57928571Y-35931009D01*
X57928571Y-35931009D02*
X57928571Y-36026247D01*
X57928571Y-36026247D02*
X57452381Y-36121485D01*
X58357143Y-35788152D02*
X58357143Y-36454819D01*
X58357143Y-35883390D02*
X58404762Y-35835771D01*
X58404762Y-35835771D02*
X58500000Y-35788152D01*
X58500000Y-35788152D02*
X58642857Y-35788152D01*
X58642857Y-35788152D02*
X58738095Y-35835771D01*
X58738095Y-35835771D02*
X58785714Y-35931009D01*
X58785714Y-35931009D02*
X58785714Y-36454819D01*
X59214286Y-36407200D02*
X59309524Y-36454819D01*
X59309524Y-36454819D02*
X59500000Y-36454819D01*
X59500000Y-36454819D02*
X59595238Y-36407200D01*
X59595238Y-36407200D02*
X59642857Y-36311961D01*
X59642857Y-36311961D02*
X59642857Y-36264342D01*
X59642857Y-36264342D02*
X59595238Y-36169104D01*
X59595238Y-36169104D02*
X59500000Y-36121485D01*
X59500000Y-36121485D02*
X59357143Y-36121485D01*
X59357143Y-36121485D02*
X59261905Y-36073866D01*
X59261905Y-36073866D02*
X59214286Y-35978628D01*
X59214286Y-35978628D02*
X59214286Y-35931009D01*
X59214286Y-35931009D02*
X59261905Y-35835771D01*
X59261905Y-35835771D02*
X59357143Y-35788152D01*
X59357143Y-35788152D02*
X59500000Y-35788152D01*
X59500000Y-35788152D02*
X59595238Y-35835771D01*
X60214286Y-36454819D02*
X60119048Y-36407200D01*
X60119048Y-36407200D02*
X60071429Y-36359580D01*
X60071429Y-36359580D02*
X60023810Y-36264342D01*
X60023810Y-36264342D02*
X60023810Y-35978628D01*
X60023810Y-35978628D02*
X60071429Y-35883390D01*
X60071429Y-35883390D02*
X60119048Y-35835771D01*
X60119048Y-35835771D02*
X60214286Y-35788152D01*
X60214286Y-35788152D02*
X60357143Y-35788152D01*
X60357143Y-35788152D02*
X60452381Y-35835771D01*
X60452381Y-35835771D02*
X60500000Y-35883390D01*
X60500000Y-35883390D02*
X60547619Y-35978628D01*
X60547619Y-35978628D02*
X60547619Y-36264342D01*
X60547619Y-36264342D02*
X60500000Y-36359580D01*
X60500000Y-36359580D02*
X60452381Y-36407200D01*
X60452381Y-36407200D02*
X60357143Y-36454819D01*
X60357143Y-36454819D02*
X60214286Y-36454819D01*
X60976191Y-36454819D02*
X60976191Y-35788152D01*
X60976191Y-35978628D02*
X61023810Y-35883390D01*
X61023810Y-35883390D02*
X61071429Y-35835771D01*
X61071429Y-35835771D02*
X61166667Y-35788152D01*
X61166667Y-35788152D02*
X61261905Y-35788152D01*
X62119048Y-36454819D02*
X61547620Y-36454819D01*
X61833334Y-36454819D02*
X61833334Y-35454819D01*
X61833334Y-35454819D02*
X61738096Y-35597676D01*
X61738096Y-35597676D02*
X61642858Y-35692914D01*
X61642858Y-35692914D02*
X61547620Y-35740533D01*
X49689523Y-113488152D02*
X50070475Y-113488152D01*
X49832380Y-114154819D02*
X49832380Y-113297676D01*
X49832380Y-113297676D02*
X49879999Y-113202438D01*
X49879999Y-113202438D02*
X49975237Y-113154819D01*
X49975237Y-113154819D02*
X50070475Y-113154819D01*
X50546666Y-114154819D02*
X50451428Y-114107200D01*
X50451428Y-114107200D02*
X50403809Y-114059580D01*
X50403809Y-114059580D02*
X50356190Y-113964342D01*
X50356190Y-113964342D02*
X50356190Y-113678628D01*
X50356190Y-113678628D02*
X50403809Y-113583390D01*
X50403809Y-113583390D02*
X50451428Y-113535771D01*
X50451428Y-113535771D02*
X50546666Y-113488152D01*
X50546666Y-113488152D02*
X50689523Y-113488152D01*
X50689523Y-113488152D02*
X50784761Y-113535771D01*
X50784761Y-113535771D02*
X50832380Y-113583390D01*
X50832380Y-113583390D02*
X50879999Y-113678628D01*
X50879999Y-113678628D02*
X50879999Y-113964342D01*
X50879999Y-113964342D02*
X50832380Y-114059580D01*
X50832380Y-114059580D02*
X50784761Y-114107200D01*
X50784761Y-114107200D02*
X50689523Y-114154819D01*
X50689523Y-114154819D02*
X50546666Y-114154819D01*
X51451428Y-114154819D02*
X51356190Y-114107200D01*
X51356190Y-114107200D02*
X51308571Y-114059580D01*
X51308571Y-114059580D02*
X51260952Y-113964342D01*
X51260952Y-113964342D02*
X51260952Y-113678628D01*
X51260952Y-113678628D02*
X51308571Y-113583390D01*
X51308571Y-113583390D02*
X51356190Y-113535771D01*
X51356190Y-113535771D02*
X51451428Y-113488152D01*
X51451428Y-113488152D02*
X51594285Y-113488152D01*
X51594285Y-113488152D02*
X51689523Y-113535771D01*
X51689523Y-113535771D02*
X51737142Y-113583390D01*
X51737142Y-113583390D02*
X51784761Y-113678628D01*
X51784761Y-113678628D02*
X51784761Y-113964342D01*
X51784761Y-113964342D02*
X51737142Y-114059580D01*
X51737142Y-114059580D02*
X51689523Y-114107200D01*
X51689523Y-114107200D02*
X51594285Y-114154819D01*
X51594285Y-114154819D02*
X51451428Y-114154819D01*
X52070476Y-113488152D02*
X52451428Y-113488152D01*
X52213333Y-113154819D02*
X52213333Y-114011961D01*
X52213333Y-114011961D02*
X52260952Y-114107200D01*
X52260952Y-114107200D02*
X52356190Y-114154819D01*
X52356190Y-114154819D02*
X52451428Y-114154819D01*
X52546667Y-114250057D02*
X53308571Y-114250057D01*
X53546667Y-114154819D02*
X53546667Y-113154819D01*
X53546667Y-113154819D02*
X53880000Y-113869104D01*
X53880000Y-113869104D02*
X54213333Y-113154819D01*
X54213333Y-113154819D02*
X54213333Y-114154819D01*
X54832381Y-114154819D02*
X54737143Y-114107200D01*
X54737143Y-114107200D02*
X54689524Y-114059580D01*
X54689524Y-114059580D02*
X54641905Y-113964342D01*
X54641905Y-113964342D02*
X54641905Y-113678628D01*
X54641905Y-113678628D02*
X54689524Y-113583390D01*
X54689524Y-113583390D02*
X54737143Y-113535771D01*
X54737143Y-113535771D02*
X54832381Y-113488152D01*
X54832381Y-113488152D02*
X54975238Y-113488152D01*
X54975238Y-113488152D02*
X55070476Y-113535771D01*
X55070476Y-113535771D02*
X55118095Y-113583390D01*
X55118095Y-113583390D02*
X55165714Y-113678628D01*
X55165714Y-113678628D02*
X55165714Y-113964342D01*
X55165714Y-113964342D02*
X55118095Y-114059580D01*
X55118095Y-114059580D02*
X55070476Y-114107200D01*
X55070476Y-114107200D02*
X54975238Y-114154819D01*
X54975238Y-114154819D02*
X54832381Y-114154819D01*
X55451429Y-113488152D02*
X55832381Y-113488152D01*
X55594286Y-113154819D02*
X55594286Y-114011961D01*
X55594286Y-114011961D02*
X55641905Y-114107200D01*
X55641905Y-114107200D02*
X55737143Y-114154819D01*
X55737143Y-114154819D02*
X55832381Y-114154819D01*
X56308572Y-114154819D02*
X56213334Y-114107200D01*
X56213334Y-114107200D02*
X56165715Y-114059580D01*
X56165715Y-114059580D02*
X56118096Y-113964342D01*
X56118096Y-113964342D02*
X56118096Y-113678628D01*
X56118096Y-113678628D02*
X56165715Y-113583390D01*
X56165715Y-113583390D02*
X56213334Y-113535771D01*
X56213334Y-113535771D02*
X56308572Y-113488152D01*
X56308572Y-113488152D02*
X56451429Y-113488152D01*
X56451429Y-113488152D02*
X56546667Y-113535771D01*
X56546667Y-113535771D02*
X56594286Y-113583390D01*
X56594286Y-113583390D02*
X56641905Y-113678628D01*
X56641905Y-113678628D02*
X56641905Y-113964342D01*
X56641905Y-113964342D02*
X56594286Y-114059580D01*
X56594286Y-114059580D02*
X56546667Y-114107200D01*
X56546667Y-114107200D02*
X56451429Y-114154819D01*
X56451429Y-114154819D02*
X56308572Y-114154819D01*
X57070477Y-114154819D02*
X57070477Y-113488152D01*
X57070477Y-113678628D02*
X57118096Y-113583390D01*
X57118096Y-113583390D02*
X57165715Y-113535771D01*
X57165715Y-113535771D02*
X57260953Y-113488152D01*
X57260953Y-113488152D02*
X57356191Y-113488152D01*
X57451430Y-114250057D02*
X58213334Y-114250057D01*
X58975239Y-114154819D02*
X58403811Y-114154819D01*
X58689525Y-114154819D02*
X58689525Y-113154819D01*
X58689525Y-113154819D02*
X58594287Y-113297676D01*
X58594287Y-113297676D02*
X58499049Y-113392914D01*
X58499049Y-113392914D02*
X58403811Y-113440533D01*
X41547619Y-63454819D02*
X41547619Y-62454819D01*
X41547619Y-62454819D02*
X41928571Y-62454819D01*
X41928571Y-62454819D02*
X42023809Y-62502438D01*
X42023809Y-62502438D02*
X42071428Y-62550057D01*
X42071428Y-62550057D02*
X42119047Y-62645295D01*
X42119047Y-62645295D02*
X42119047Y-62788152D01*
X42119047Y-62788152D02*
X42071428Y-62883390D01*
X42071428Y-62883390D02*
X42023809Y-62931009D01*
X42023809Y-62931009D02*
X41928571Y-62978628D01*
X41928571Y-62978628D02*
X41547619Y-62978628D01*
X42690476Y-63454819D02*
X42595238Y-63407200D01*
X42595238Y-63407200D02*
X42547619Y-63359580D01*
X42547619Y-63359580D02*
X42500000Y-63264342D01*
X42500000Y-63264342D02*
X42500000Y-62978628D01*
X42500000Y-62978628D02*
X42547619Y-62883390D01*
X42547619Y-62883390D02*
X42595238Y-62835771D01*
X42595238Y-62835771D02*
X42690476Y-62788152D01*
X42690476Y-62788152D02*
X42833333Y-62788152D01*
X42833333Y-62788152D02*
X42928571Y-62835771D01*
X42928571Y-62835771D02*
X42976190Y-62883390D01*
X42976190Y-62883390D02*
X43023809Y-62978628D01*
X43023809Y-62978628D02*
X43023809Y-63264342D01*
X43023809Y-63264342D02*
X42976190Y-63359580D01*
X42976190Y-63359580D02*
X42928571Y-63407200D01*
X42928571Y-63407200D02*
X42833333Y-63454819D01*
X42833333Y-63454819D02*
X42690476Y-63454819D01*
X43357143Y-62788152D02*
X43547619Y-63454819D01*
X43547619Y-63454819D02*
X43738095Y-62978628D01*
X43738095Y-62978628D02*
X43928571Y-63454819D01*
X43928571Y-63454819D02*
X44119047Y-62788152D01*
X44880952Y-63407200D02*
X44785714Y-63454819D01*
X44785714Y-63454819D02*
X44595238Y-63454819D01*
X44595238Y-63454819D02*
X44500000Y-63407200D01*
X44500000Y-63407200D02*
X44452381Y-63311961D01*
X44452381Y-63311961D02*
X44452381Y-62931009D01*
X44452381Y-62931009D02*
X44500000Y-62835771D01*
X44500000Y-62835771D02*
X44595238Y-62788152D01*
X44595238Y-62788152D02*
X44785714Y-62788152D01*
X44785714Y-62788152D02*
X44880952Y-62835771D01*
X44880952Y-62835771D02*
X44928571Y-62931009D01*
X44928571Y-62931009D02*
X44928571Y-63026247D01*
X44928571Y-63026247D02*
X44452381Y-63121485D01*
X45357143Y-63454819D02*
X45357143Y-62788152D01*
X45357143Y-62978628D02*
X45404762Y-62883390D01*
X45404762Y-62883390D02*
X45452381Y-62835771D01*
X45452381Y-62835771D02*
X45547619Y-62788152D01*
X45547619Y-62788152D02*
X45642857Y-62788152D01*
X46500000Y-63454819D02*
X45928572Y-63454819D01*
X46214286Y-63454819D02*
X46214286Y-62454819D01*
X46214286Y-62454819D02*
X46119048Y-62597676D01*
X46119048Y-62597676D02*
X46023810Y-62692914D01*
X46023810Y-62692914D02*
X45928572Y-62740533D01*
X82794819Y-53856666D02*
X82318628Y-54189999D01*
X82794819Y-54428094D02*
X81794819Y-54428094D01*
X81794819Y-54428094D02*
X81794819Y-54047142D01*
X81794819Y-54047142D02*
X81842438Y-53951904D01*
X81842438Y-53951904D02*
X81890057Y-53904285D01*
X81890057Y-53904285D02*
X81985295Y-53856666D01*
X81985295Y-53856666D02*
X82128152Y-53856666D01*
X82128152Y-53856666D02*
X82223390Y-53904285D01*
X82223390Y-53904285D02*
X82271009Y-53951904D01*
X82271009Y-53951904D02*
X82318628Y-54047142D01*
X82318628Y-54047142D02*
X82318628Y-54428094D01*
X81794819Y-53523332D02*
X81794819Y-52904285D01*
X81794819Y-52904285D02*
X82175771Y-53237618D01*
X82175771Y-53237618D02*
X82175771Y-53094761D01*
X82175771Y-53094761D02*
X82223390Y-52999523D01*
X82223390Y-52999523D02*
X82271009Y-52951904D01*
X82271009Y-52951904D02*
X82366247Y-52904285D01*
X82366247Y-52904285D02*
X82604342Y-52904285D01*
X82604342Y-52904285D02*
X82699580Y-52951904D01*
X82699580Y-52951904D02*
X82747200Y-52999523D01*
X82747200Y-52999523D02*
X82794819Y-53094761D01*
X82794819Y-53094761D02*
X82794819Y-53380475D01*
X82794819Y-53380475D02*
X82747200Y-53475713D01*
X82747200Y-53475713D02*
X82699580Y-53523332D01*
X44333333Y-61354819D02*
X44000000Y-60878628D01*
X43761905Y-61354819D02*
X43761905Y-60354819D01*
X43761905Y-60354819D02*
X44142857Y-60354819D01*
X44142857Y-60354819D02*
X44238095Y-60402438D01*
X44238095Y-60402438D02*
X44285714Y-60450057D01*
X44285714Y-60450057D02*
X44333333Y-60545295D01*
X44333333Y-60545295D02*
X44333333Y-60688152D01*
X44333333Y-60688152D02*
X44285714Y-60783390D01*
X44285714Y-60783390D02*
X44238095Y-60831009D01*
X44238095Y-60831009D02*
X44142857Y-60878628D01*
X44142857Y-60878628D02*
X43761905Y-60878628D01*
X44904762Y-60783390D02*
X44809524Y-60735771D01*
X44809524Y-60735771D02*
X44761905Y-60688152D01*
X44761905Y-60688152D02*
X44714286Y-60592914D01*
X44714286Y-60592914D02*
X44714286Y-60545295D01*
X44714286Y-60545295D02*
X44761905Y-60450057D01*
X44761905Y-60450057D02*
X44809524Y-60402438D01*
X44809524Y-60402438D02*
X44904762Y-60354819D01*
X44904762Y-60354819D02*
X45095238Y-60354819D01*
X45095238Y-60354819D02*
X45190476Y-60402438D01*
X45190476Y-60402438D02*
X45238095Y-60450057D01*
X45238095Y-60450057D02*
X45285714Y-60545295D01*
X45285714Y-60545295D02*
X45285714Y-60592914D01*
X45285714Y-60592914D02*
X45238095Y-60688152D01*
X45238095Y-60688152D02*
X45190476Y-60735771D01*
X45190476Y-60735771D02*
X45095238Y-60783390D01*
X45095238Y-60783390D02*
X44904762Y-60783390D01*
X44904762Y-60783390D02*
X44809524Y-60831009D01*
X44809524Y-60831009D02*
X44761905Y-60878628D01*
X44761905Y-60878628D02*
X44714286Y-60973866D01*
X44714286Y-60973866D02*
X44714286Y-61164342D01*
X44714286Y-61164342D02*
X44761905Y-61259580D01*
X44761905Y-61259580D02*
X44809524Y-61307200D01*
X44809524Y-61307200D02*
X44904762Y-61354819D01*
X44904762Y-61354819D02*
X45095238Y-61354819D01*
X45095238Y-61354819D02*
X45190476Y-61307200D01*
X45190476Y-61307200D02*
X45238095Y-61259580D01*
X45238095Y-61259580D02*
X45285714Y-61164342D01*
X45285714Y-61164342D02*
X45285714Y-60973866D01*
X45285714Y-60973866D02*
X45238095Y-60878628D01*
X45238095Y-60878628D02*
X45190476Y-60831009D01*
X45190476Y-60831009D02*
X45095238Y-60783390D01*
D12*
X113441191Y-122523479D02*
X113864524Y-123158479D01*
X113864524Y-122523479D02*
X113441191Y-123158479D01*
X114106429Y-123158479D02*
X114106429Y-122523479D01*
X114378572Y-122977050D02*
X114680953Y-122977050D01*
X114318096Y-123158479D02*
X114529762Y-122523479D01*
X114529762Y-122523479D02*
X114741429Y-123158479D01*
X115074048Y-122523479D02*
X115195001Y-122523479D01*
X115195001Y-122523479D02*
X115255477Y-122553717D01*
X115255477Y-122553717D02*
X115315953Y-122614193D01*
X115315953Y-122614193D02*
X115346191Y-122735145D01*
X115346191Y-122735145D02*
X115346191Y-122946812D01*
X115346191Y-122946812D02*
X115315953Y-123067764D01*
X115315953Y-123067764D02*
X115255477Y-123128241D01*
X115255477Y-123128241D02*
X115195001Y-123158479D01*
X115195001Y-123158479D02*
X115074048Y-123158479D01*
X115074048Y-123158479D02*
X115013572Y-123128241D01*
X115013572Y-123128241D02*
X114953096Y-123067764D01*
X114953096Y-123067764D02*
X114922858Y-122946812D01*
X114922858Y-122946812D02*
X114922858Y-122735145D01*
X114922858Y-122735145D02*
X114953096Y-122614193D01*
X114953096Y-122614193D02*
X115013572Y-122553717D01*
X115013572Y-122553717D02*
X115074048Y-122523479D01*
X115618334Y-122916574D02*
X116102144Y-122916574D01*
X116404524Y-122825860D02*
X116616191Y-122825860D01*
X116706905Y-123158479D02*
X116404524Y-123158479D01*
X116404524Y-123158479D02*
X116404524Y-122523479D01*
X116404524Y-122523479D02*
X116706905Y-122523479D01*
X116948810Y-123128241D02*
X117039524Y-123158479D01*
X117039524Y-123158479D02*
X117190715Y-123158479D01*
X117190715Y-123158479D02*
X117251191Y-123128241D01*
X117251191Y-123128241D02*
X117281429Y-123098002D01*
X117281429Y-123098002D02*
X117311667Y-123037526D01*
X117311667Y-123037526D02*
X117311667Y-122977050D01*
X117311667Y-122977050D02*
X117281429Y-122916574D01*
X117281429Y-122916574D02*
X117251191Y-122886336D01*
X117251191Y-122886336D02*
X117190715Y-122856098D01*
X117190715Y-122856098D02*
X117069762Y-122825860D01*
X117069762Y-122825860D02*
X117009286Y-122795621D01*
X117009286Y-122795621D02*
X116979048Y-122765383D01*
X116979048Y-122765383D02*
X116948810Y-122704907D01*
X116948810Y-122704907D02*
X116948810Y-122644431D01*
X116948810Y-122644431D02*
X116979048Y-122583955D01*
X116979048Y-122583955D02*
X117009286Y-122553717D01*
X117009286Y-122553717D02*
X117069762Y-122523479D01*
X117069762Y-122523479D02*
X117220953Y-122523479D01*
X117220953Y-122523479D02*
X117311667Y-122553717D01*
X117583810Y-123158479D02*
X117583810Y-122523479D01*
X117583810Y-122523479D02*
X117825715Y-122523479D01*
X117825715Y-122523479D02*
X117886191Y-122553717D01*
X117886191Y-122553717D02*
X117916429Y-122583955D01*
X117916429Y-122583955D02*
X117946667Y-122644431D01*
X117946667Y-122644431D02*
X117946667Y-122735145D01*
X117946667Y-122735145D02*
X117916429Y-122795621D01*
X117916429Y-122795621D02*
X117886191Y-122825860D01*
X117886191Y-122825860D02*
X117825715Y-122856098D01*
X117825715Y-122856098D02*
X117583810Y-122856098D01*
X118158334Y-122523479D02*
X118551429Y-122523479D01*
X118551429Y-122523479D02*
X118339762Y-122765383D01*
X118339762Y-122765383D02*
X118430477Y-122765383D01*
X118430477Y-122765383D02*
X118490953Y-122795621D01*
X118490953Y-122795621D02*
X118521191Y-122825860D01*
X118521191Y-122825860D02*
X118551429Y-122886336D01*
X118551429Y-122886336D02*
X118551429Y-123037526D01*
X118551429Y-123037526D02*
X118521191Y-123098002D01*
X118521191Y-123098002D02*
X118490953Y-123128241D01*
X118490953Y-123128241D02*
X118430477Y-123158479D01*
X118430477Y-123158479D02*
X118249048Y-123158479D01*
X118249048Y-123158479D02*
X118188572Y-123128241D01*
X118188572Y-123128241D02*
X118158334Y-123098002D01*
X118793334Y-122583955D02*
X118823572Y-122553717D01*
X118823572Y-122553717D02*
X118884048Y-122523479D01*
X118884048Y-122523479D02*
X119035239Y-122523479D01*
X119035239Y-122523479D02*
X119095715Y-122553717D01*
X119095715Y-122553717D02*
X119125953Y-122583955D01*
X119125953Y-122583955D02*
X119156191Y-122644431D01*
X119156191Y-122644431D02*
X119156191Y-122704907D01*
X119156191Y-122704907D02*
X119125953Y-122795621D01*
X119125953Y-122795621D02*
X118763096Y-123158479D01*
X118763096Y-123158479D02*
X119156191Y-123158479D01*
X119428334Y-122916574D02*
X119912144Y-122916574D01*
X120577381Y-123098002D02*
X120547143Y-123128241D01*
X120547143Y-123128241D02*
X120456429Y-123158479D01*
X120456429Y-123158479D02*
X120395953Y-123158479D01*
X120395953Y-123158479D02*
X120305238Y-123128241D01*
X120305238Y-123128241D02*
X120244762Y-123067764D01*
X120244762Y-123067764D02*
X120214524Y-123007288D01*
X120214524Y-123007288D02*
X120184286Y-122886336D01*
X120184286Y-122886336D02*
X120184286Y-122795621D01*
X120184286Y-122795621D02*
X120214524Y-122674669D01*
X120214524Y-122674669D02*
X120244762Y-122614193D01*
X120244762Y-122614193D02*
X120305238Y-122553717D01*
X120305238Y-122553717D02*
X120395953Y-122523479D01*
X120395953Y-122523479D02*
X120456429Y-122523479D01*
X120456429Y-122523479D02*
X120547143Y-122553717D01*
X120547143Y-122553717D02*
X120577381Y-122583955D01*
X121121667Y-122523479D02*
X121000714Y-122523479D01*
X121000714Y-122523479D02*
X120940238Y-122553717D01*
X120940238Y-122553717D02*
X120910000Y-122583955D01*
X120910000Y-122583955D02*
X120849524Y-122674669D01*
X120849524Y-122674669D02*
X120819286Y-122795621D01*
X120819286Y-122795621D02*
X120819286Y-123037526D01*
X120819286Y-123037526D02*
X120849524Y-123098002D01*
X120849524Y-123098002D02*
X120879762Y-123128241D01*
X120879762Y-123128241D02*
X120940238Y-123158479D01*
X120940238Y-123158479D02*
X121061191Y-123158479D01*
X121061191Y-123158479D02*
X121121667Y-123128241D01*
X121121667Y-123128241D02*
X121151905Y-123098002D01*
X121151905Y-123098002D02*
X121182143Y-123037526D01*
X121182143Y-123037526D02*
X121182143Y-122886336D01*
X121182143Y-122886336D02*
X121151905Y-122825860D01*
X121151905Y-122825860D02*
X121121667Y-122795621D01*
X121121667Y-122795621D02*
X121061191Y-122765383D01*
X121061191Y-122765383D02*
X120940238Y-122765383D01*
X120940238Y-122765383D02*
X120879762Y-122795621D01*
X120879762Y-122795621D02*
X120849524Y-122825860D01*
X120849524Y-122825860D02*
X120819286Y-122886336D01*
X121454286Y-122916574D02*
X121938096Y-122916574D01*
X122210238Y-123128241D02*
X122300952Y-123158479D01*
X122300952Y-123158479D02*
X122452143Y-123158479D01*
X122452143Y-123158479D02*
X122512619Y-123128241D01*
X122512619Y-123128241D02*
X122542857Y-123098002D01*
X122542857Y-123098002D02*
X122573095Y-123037526D01*
X122573095Y-123037526D02*
X122573095Y-122977050D01*
X122573095Y-122977050D02*
X122542857Y-122916574D01*
X122542857Y-122916574D02*
X122512619Y-122886336D01*
X122512619Y-122886336D02*
X122452143Y-122856098D01*
X122452143Y-122856098D02*
X122331190Y-122825860D01*
X122331190Y-122825860D02*
X122270714Y-122795621D01*
X122270714Y-122795621D02*
X122240476Y-122765383D01*
X122240476Y-122765383D02*
X122210238Y-122704907D01*
X122210238Y-122704907D02*
X122210238Y-122644431D01*
X122210238Y-122644431D02*
X122240476Y-122583955D01*
X122240476Y-122583955D02*
X122270714Y-122553717D01*
X122270714Y-122553717D02*
X122331190Y-122523479D01*
X122331190Y-122523479D02*
X122482381Y-122523479D01*
X122482381Y-122523479D02*
X122573095Y-122553717D01*
X122845238Y-123158479D02*
X122845238Y-122523479D01*
X122845238Y-122523479D02*
X123056905Y-122977050D01*
X123056905Y-122977050D02*
X123268571Y-122523479D01*
X123268571Y-122523479D02*
X123268571Y-123158479D01*
X123570952Y-123158479D02*
X123570952Y-122523479D01*
X123570952Y-122523479D02*
X123722142Y-122523479D01*
X123722142Y-122523479D02*
X123812857Y-122553717D01*
X123812857Y-122553717D02*
X123873333Y-122614193D01*
X123873333Y-122614193D02*
X123903571Y-122674669D01*
X123903571Y-122674669D02*
X123933809Y-122795621D01*
X123933809Y-122795621D02*
X123933809Y-122886336D01*
X123933809Y-122886336D02*
X123903571Y-123007288D01*
X123903571Y-123007288D02*
X123873333Y-123067764D01*
X123873333Y-123067764D02*
X123812857Y-123128241D01*
X123812857Y-123128241D02*
X123722142Y-123158479D01*
X123722142Y-123158479D02*
X123570952Y-123158479D01*
X124538571Y-123158479D02*
X124175714Y-123158479D01*
X124357142Y-123158479D02*
X124357142Y-122523479D01*
X124357142Y-122523479D02*
X124296666Y-122614193D01*
X124296666Y-122614193D02*
X124236190Y-122674669D01*
X124236190Y-122674669D02*
X124175714Y-122704907D01*
%TO.C,Encoder_motor1*%
D13*
X71700000Y-38260000D02*
X82600000Y-38260000D01*
X71700000Y-39980000D02*
X82600000Y-39980000D01*
X71700000Y-43080000D02*
X82600000Y-43080000D01*
X71700000Y-44080000D02*
X82600000Y-44080000D01*
X71700000Y-45000000D02*
X71700000Y-38260000D01*
X73040000Y-45000000D02*
X71700000Y-45000000D01*
X82600000Y-38260000D02*
X82600000Y-45000000D01*
X82600000Y-45000000D02*
X73640000Y-45000000D01*
X73340000Y-45000000D02*
X73780000Y-45610000D01*
X72900000Y-45610000D01*
X73340000Y-45000000D01*
G36*
X73780000Y-45610000D02*
G01*
X72900000Y-45610000D01*
X73340000Y-45000000D01*
X73780000Y-45610000D01*
G37*
%TO.C,REF\u002A\u002A*%
X83780000Y-106260000D02*
X89600000Y-106260000D01*
X83780000Y-107980000D02*
X89600000Y-107980000D01*
X83780000Y-111080000D02*
X89600000Y-111080000D01*
X83780000Y-112080000D02*
X89600000Y-112080000D01*
X83780000Y-113000000D02*
X83780000Y-106260000D01*
X85120000Y-113000000D02*
X83780000Y-113000000D01*
X89600000Y-106260000D02*
X89600000Y-113000000D01*
X89600000Y-113000000D02*
X85720000Y-113000000D01*
X85420000Y-113000000D02*
X85860000Y-113610000D01*
X84980000Y-113610000D01*
X85420000Y-113000000D01*
G36*
X85860000Y-113610000D02*
G01*
X84980000Y-113610000D01*
X85420000Y-113000000D01*
X85860000Y-113610000D01*
G37*
%TO.C,R4*%
X84920000Y-50820000D02*
X84920000Y-51770000D01*
X84920000Y-56560000D02*
X84920000Y-55610000D01*
X84000000Y-51770000D02*
X85840000Y-51770000D01*
X85840000Y-55610000D01*
X84000000Y-55610000D01*
X84000000Y-51770000D01*
%TO.C,R12*%
X67000000Y-106630000D02*
X67000000Y-107580000D01*
X67000000Y-112370000D02*
X67000000Y-111420000D01*
X66080000Y-107580000D02*
X67920000Y-107580000D01*
X67920000Y-111420000D01*
X66080000Y-111420000D01*
X66080000Y-107580000D01*
%TO.C,Cytron_MD10C1*%
X41230000Y-38260000D02*
X49590000Y-38260000D01*
X41230000Y-39980000D02*
X49590000Y-39980000D01*
X41230000Y-43080000D02*
X49590000Y-43080000D01*
X41230000Y-44080000D02*
X49590000Y-44080000D01*
X41230000Y-45000000D02*
X41230000Y-38260000D01*
X42570000Y-45000000D02*
X41230000Y-45000000D01*
X49590000Y-38260000D02*
X49590000Y-45000000D01*
X49590000Y-45000000D02*
X43170000Y-45000000D01*
X42870000Y-45000000D02*
X43310000Y-45610000D01*
X42430000Y-45610000D01*
X42870000Y-45000000D01*
G36*
X43310000Y-45610000D02*
G01*
X42430000Y-45610000D01*
X42870000Y-45000000D01*
X43310000Y-45610000D01*
G37*
%TO.C,R7*%
X46550000Y-50480000D02*
X47500000Y-50480000D01*
X52290000Y-50480000D02*
X51340000Y-50480000D01*
X47500000Y-49560000D02*
X51340000Y-49560000D01*
X51340000Y-51400000D01*
X47500000Y-51400000D01*
X47500000Y-49560000D01*
%TO.C,R14*%
X95920000Y-85110000D02*
X95920000Y-86060000D01*
X95920000Y-90850000D02*
X95920000Y-89900000D01*
X95000000Y-86060000D02*
X96840000Y-86060000D01*
X96840000Y-89900000D01*
X95000000Y-89900000D01*
X95000000Y-86060000D01*
%TO.C,U3*%
D11*
X99620000Y-37460000D02*
X99620000Y-73560000D01*
X99620000Y-73560000D02*
X127520000Y-73560000D01*
X127520000Y-37460000D02*
X99620000Y-37460000D01*
X127520000Y-73560000D02*
X127520000Y-37460000D01*
%TO.C,R11*%
D13*
X80000000Y-106630000D02*
X80000000Y-107580000D01*
X80000000Y-112370000D02*
X80000000Y-111420000D01*
X79080000Y-107580000D02*
X80920000Y-107580000D01*
X80920000Y-111420000D01*
X79080000Y-111420000D01*
X79080000Y-107580000D01*
%TO.C,R15*%
X94920000Y-58610000D02*
X94920000Y-59560000D01*
X94920000Y-64350000D02*
X94920000Y-63400000D01*
X94000000Y-59560000D02*
X95840000Y-59560000D01*
X95840000Y-63400000D01*
X94000000Y-63400000D01*
X94000000Y-59560000D01*
%TO.C,U1*%
D11*
X37125634Y-82097540D02*
X41379813Y-82097540D01*
X41379813Y-89717540D01*
X37125634Y-89717540D01*
X37125634Y-82097540D01*
D14*
X38139813Y-71577540D02*
X89639813Y-71577540D01*
X89639813Y-99877540D01*
X38139813Y-99877540D01*
X38139813Y-71577540D01*
%TO.C,R2*%
D13*
X65420000Y-51110000D02*
X65420000Y-52060000D01*
X65420000Y-56850000D02*
X65420000Y-55900000D01*
X64500000Y-52060000D02*
X66340000Y-52060000D01*
X66340000Y-55900000D01*
X64500000Y-55900000D01*
X64500000Y-52060000D01*
%TO.C,foot_Motor_2*%
X69780000Y-105980000D02*
X76200000Y-105980000D01*
X69780000Y-112720000D02*
X69780000Y-105980000D01*
X76800000Y-105980000D02*
X78140000Y-105980000D01*
X78140000Y-105980000D02*
X78140000Y-112720000D01*
X78140000Y-106900000D02*
X69780000Y-106900000D01*
X78140000Y-107900000D02*
X69780000Y-107900000D01*
X78140000Y-111000000D02*
X69780000Y-111000000D01*
X78140000Y-112720000D02*
X69780000Y-112720000D01*
X76500000Y-105980000D02*
X76060000Y-105370000D01*
X76940000Y-105370000D01*
X76500000Y-105980000D01*
G36*
X76500000Y-105980000D02*
G01*
X76060000Y-105370000D01*
X76940000Y-105370000D01*
X76500000Y-105980000D01*
G37*
%TO.C,R16*%
X88920000Y-63610000D02*
X88920000Y-64560000D01*
X88920000Y-69350000D02*
X88920000Y-68400000D01*
X88000000Y-64560000D02*
X89840000Y-64560000D01*
X89840000Y-68400000D01*
X88000000Y-68400000D01*
X88000000Y-64560000D01*
%TO.C,R13*%
X93500000Y-97610000D02*
X93500000Y-98560000D01*
X93500000Y-103350000D02*
X93500000Y-102400000D01*
X92580000Y-98560000D02*
X94420000Y-98560000D01*
X94420000Y-102400000D01*
X92580000Y-102400000D01*
X92580000Y-98560000D01*
%TO.C,R4*%
X71420000Y-50820000D02*
X71420000Y-51770000D01*
X71420000Y-56560000D02*
X71420000Y-55610000D01*
X70500000Y-51770000D02*
X72340000Y-51770000D01*
X72340000Y-55610000D01*
X70500000Y-55610000D01*
X70500000Y-51770000D01*
%TO.C,R1*%
X74920000Y-50820000D02*
X74920000Y-51770000D01*
X74920000Y-56560000D02*
X74920000Y-55610000D01*
X74000000Y-51770000D02*
X75840000Y-51770000D01*
X75840000Y-55610000D01*
X74000000Y-55610000D01*
X74000000Y-51770000D01*
%TO.C,R10*%
X60920000Y-106420000D02*
X60920000Y-107370000D01*
X60920000Y-112160000D02*
X60920000Y-111210000D01*
X60000000Y-107370000D02*
X61840000Y-107370000D01*
X61840000Y-111210000D01*
X60000000Y-111210000D01*
X60000000Y-107370000D01*
%TO.C,R5*%
X60420000Y-51110000D02*
X60420000Y-52060000D01*
X60420000Y-56850000D02*
X60420000Y-55900000D01*
X59500000Y-52060000D02*
X61340000Y-52060000D01*
X61340000Y-55900000D01*
X59500000Y-55900000D01*
X59500000Y-52060000D01*
%TO.C,R9*%
X45920000Y-106420000D02*
X45920000Y-107370000D01*
X45920000Y-112160000D02*
X45920000Y-111210000D01*
X45000000Y-107370000D02*
X46840000Y-107370000D01*
X46840000Y-111210000D01*
X45000000Y-111210000D01*
X45000000Y-107370000D01*
%TO.C,home_sensor1*%
X58700000Y-38260000D02*
X67060000Y-38260000D01*
X58700000Y-39980000D02*
X67060000Y-39980000D01*
X58700000Y-43080000D02*
X67060000Y-43080000D01*
X58700000Y-44080000D02*
X67060000Y-44080000D01*
X58700000Y-45000000D02*
X58700000Y-38260000D01*
X60040000Y-45000000D02*
X58700000Y-45000000D01*
X67060000Y-38260000D02*
X67060000Y-45000000D01*
X67060000Y-45000000D02*
X60640000Y-45000000D01*
X60340000Y-45000000D02*
X60780000Y-45610000D01*
X59900000Y-45610000D01*
X60340000Y-45000000D01*
G36*
X60780000Y-45610000D02*
G01*
X59900000Y-45610000D01*
X60340000Y-45000000D01*
X60780000Y-45610000D01*
G37*
%TO.C,foot_Motor_1*%
X50200000Y-105960000D02*
X56620000Y-105960000D01*
X50200000Y-112700000D02*
X50200000Y-105960000D01*
X57220000Y-105960000D02*
X58560000Y-105960000D01*
X58560000Y-105960000D02*
X58560000Y-112700000D01*
X58560000Y-106880000D02*
X50200000Y-106880000D01*
X58560000Y-107880000D02*
X50200000Y-107880000D01*
X58560000Y-110980000D02*
X50200000Y-110980000D01*
X58560000Y-112700000D02*
X50200000Y-112700000D01*
X56920000Y-105960000D02*
X56480000Y-105350000D01*
X57360000Y-105350000D01*
X56920000Y-105960000D01*
G36*
X56920000Y-105960000D02*
G01*
X56480000Y-105350000D01*
X57360000Y-105350000D01*
X56920000Y-105960000D01*
G37*
%TO.C,Power1*%
X34005000Y-61977500D02*
X39825000Y-61977500D01*
X34005000Y-63697500D02*
X39825000Y-63697500D01*
X34005000Y-66797500D02*
X39825000Y-66797500D01*
X34005000Y-67797500D02*
X39825000Y-67797500D01*
X34005000Y-68717500D02*
X34005000Y-61977500D01*
X35345000Y-68717500D02*
X34005000Y-68717500D01*
X39825000Y-61977500D02*
X39825000Y-68717500D01*
X39825000Y-68717500D02*
X35945000Y-68717500D01*
X35645000Y-68717500D02*
X36085000Y-69327500D01*
X35205000Y-69327500D01*
X35645000Y-68717500D01*
G36*
X36085000Y-69327500D02*
G01*
X35205000Y-69327500D01*
X35645000Y-68717500D01*
X36085000Y-69327500D01*
G37*
%TO.C,R3*%
X80420000Y-50820000D02*
X80420000Y-51770000D01*
X80420000Y-56560000D02*
X80420000Y-55610000D01*
X79500000Y-51770000D02*
X81340000Y-51770000D01*
X81340000Y-55610000D01*
X79500000Y-55610000D01*
X79500000Y-51770000D01*
%TO.C,R8*%
X41630000Y-58980000D02*
X42580000Y-58980000D01*
X47370000Y-58980000D02*
X46420000Y-58980000D01*
X42580000Y-58060000D02*
X46420000Y-58060000D01*
X46420000Y-59900000D01*
X42580000Y-59900000D01*
X42580000Y-58060000D01*
%TO.C,XIAO-ESP32-C6-SMD1*%
D15*
X106829000Y-116611272D02*
X106829000Y-108616000D01*
X107329000Y-108116000D02*
X108339000Y-108116000D01*
D11*
X108339000Y-105635000D02*
X108339000Y-119605000D01*
D15*
X108339000Y-105635000D02*
X108339000Y-119605000D01*
X108339000Y-117115000D02*
X107328728Y-117111272D01*
X127389000Y-103730000D02*
X110244000Y-103730000D01*
X127389000Y-121510000D02*
X110244000Y-121510000D01*
X129294000Y-119605000D02*
X129294000Y-105635000D01*
X106829000Y-108616000D02*
G75*
G02*
X107329000Y-108116000I500000J0D01*
G01*
X107328728Y-117111272D02*
G75*
G02*
X106829028Y-116611272I272J499972D01*
G01*
X108339000Y-105635000D02*
G75*
G02*
X110244000Y-103730000I1905000J0D01*
G01*
X110244000Y-121510000D02*
G75*
G02*
X108339000Y-119605000I0J1905000D01*
G01*
X127389000Y-103730000D02*
G75*
G02*
X129294000Y-105635000I-1J-1905001D01*
G01*
X129294000Y-119605000D02*
G75*
G02*
X127389000Y-121510000I-1905001J1D01*
G01*
D16*
X108832000Y-121570000D02*
G75*
G02*
X108328000Y-121570000I-252000J0D01*
G01*
X108328000Y-121570000D02*
G75*
G02*
X108832000Y-121570000I252000J0D01*
G01*
X109712000Y-120427000D02*
G75*
G02*
X109208000Y-120427000I-252000J0D01*
G01*
X109208000Y-120427000D02*
G75*
G02*
X109712000Y-120427000I252000J0D01*
G01*
%TD*%
M02*
