%TF.GenerationSoftware,KiCad,Pcbnew,10.0.5*%
%TF.CreationDate,2026-08-14T23:15:36-07:00*%
%TF.ProjectId,chopper_body_v2,63686f70-7065-4725-9f62-6f64795f7632,rev?*%
%TF.SameCoordinates,Original*%
%TF.FileFunction,Copper,L2,Bot*%
%TF.FilePolarity,Positive*%
%FSLAX46Y46*%
G04 Gerber Fmt 4.6, Leading zero omitted, Abs format (unit mm)*
G04 Created by KiCad (PCBNEW 10.0.5) date 2026-08-14 23:15:36*
%MOMM*%
%LPD*%
G01*
G04 APERTURE LIST*
G04 Aperture macros list*
%AMRoundRect*
0 Rectangle with rounded corners*
0 $1 Rounding radius*
0 $2 $3 $4 $5 $6 $7 $8 $9 X,Y pos of 4 corners*
0 Add a 4 corners polygon primitive as box body*
4,1,4,$2,$3,$4,$5,$6,$7,$8,$9,$2,$3,0*
0 Add four circle primitives for the rounded corners*
1,1,$1+$1,$2,$3*
1,1,$1+$1,$4,$5*
1,1,$1+$1,$6,$7*
1,1,$1+$1,$8,$9*
0 Add four rect primitives between the rounded corners*
20,1,$1+$1,$2,$3,$4,$5,0*
20,1,$1+$1,$4,$5,$6,$7,0*
20,1,$1+$1,$6,$7,$8,$9,0*
20,1,$1+$1,$8,$9,$2,$3,0*%
G04 Aperture macros list end*
%TA.AperFunction,ComponentPad*%
%ADD10C,1.900000*%
%TD*%
%TA.AperFunction,ComponentPad*%
%ADD11R,1.900000X1.900000*%
%TD*%
%TA.AperFunction,ComponentPad*%
%ADD12RoundRect,0.250000X-0.750000X-0.750000X0.750000X-0.750000X0.750000X0.750000X-0.750000X0.750000X0*%
%TD*%
%TA.AperFunction,ComponentPad*%
%ADD13C,2.000000*%
%TD*%
G04 APERTURE END LIST*
D10*
%TO.P,Encoder_motor1,1,Pin_1_1*%
%TO.N,encoder_a_signal*%
X73340000Y-41480000D03*
%TO.P,Encoder_motor1,2,Pin_2_2*%
%TO.N,encoder_b_signal*%
X75880000Y-41480000D03*
%TO.P,Encoder_motor1,3,Pin_3_3*%
%TO.N,+5V*%
X78420000Y-41480000D03*
D11*
%TO.P,Encoder_motor1,4,Pin_4_4*%
%TO.N,GND*%
X80960000Y-41480000D03*
%TD*%
D12*
%TO.P,REF\u002A\u002A,1*%
%TO.N,GND*%
X85420000Y-109480000D03*
D13*
%TO.P,REF\u002A\u002A,2*%
%TO.N,relay_signal*%
X87960000Y-109480000D03*
%TD*%
D10*
%TO.P,R4,1*%
%TO.N,encoder_b_resistor*%
X84920000Y-57500000D03*
D11*
%TO.P,R4,2*%
%TO.N,GND*%
X84920000Y-49880000D03*
%TD*%
D10*
%TO.P,R12,1*%
%TO.N,AN1*%
X67000000Y-105690000D03*
D11*
%TO.P,R12,2*%
%TO.N,GND*%
X67000000Y-113310000D03*
%TD*%
D10*
%TO.P,Cytron_MD10C1,1,Pin_1_1*%
%TO.N,MD10_DIR*%
X42870000Y-41480000D03*
%TO.P,Cytron_MD10C1,2,Pin_2_2*%
%TO.N,MD10PWM*%
X45410000Y-41480000D03*
D11*
%TO.P,Cytron_MD10C1,3,Pin_3_3*%
%TO.N,GND*%
X47950000Y-41480000D03*
%TD*%
D10*
%TO.P,R7,1*%
%TO.N,MD10PWM*%
X45610000Y-50480000D03*
D11*
%TO.P,R7,2*%
%TO.N,GND*%
X53230000Y-50480000D03*
%TD*%
D10*
%TO.P,R14,1*%
%TO.N,audio_tx_resistor*%
X95920000Y-91790000D03*
D11*
%TO.P,R14,2*%
%TO.N,GND*%
X95920000Y-84170000D03*
%TD*%
D10*
%TO.P,U3,0,0_0*%
%TO.N,N/C*%
X120920000Y-38980000D03*
%TO.P,U3,1,1_1*%
X120920000Y-41520000D03*
%TO.P,U3,2,2_2*%
X120920000Y-44060000D03*
%TO.P,U3,3,3_3*%
X120920000Y-46600000D03*
%TO.P,U3,4,4_4*%
X120920000Y-49140000D03*
%TO.P,U3,5,5_5*%
X120920000Y-51680000D03*
%TO.P,U3,5V,5V_5V*%
X120920000Y-54220000D03*
%TO.P,U3,6,6_6*%
X120920000Y-56760000D03*
%TO.P,U3,7,7_7*%
X120920000Y-59300000D03*
%TO.P,U3,8,8_8*%
X120920000Y-61840000D03*
%TO.P,U3,9,9_9*%
X120920000Y-64380000D03*
%TO.P,U3,10,10_10*%
X120920000Y-66920000D03*
%TO.P,U3,11,11_11*%
X120920000Y-69460000D03*
%TO.P,U3,ERR,ERR_ERR*%
X101140000Y-60860000D03*
%TO.P,U3,GND0,GND0_GND0*%
X126000000Y-38980000D03*
%TO.P,U3,GND1,GND1_GND1*%
X126000000Y-41560000D03*
%TO.P,U3,GND2,GND2_GND2*%
X126000000Y-44060000D03*
%TO.P,U3,GND3,GND3_GND3*%
X126000000Y-46600000D03*
%TO.P,U3,GND4,GND4_GND4*%
X126000000Y-49140000D03*
%TO.P,U3,GND5,GND5_GND5*%
X126000000Y-51680000D03*
%TO.P,U3,GND5V,GND5V_GND5V*%
X126000000Y-54220000D03*
%TO.P,U3,GND6,GND6_GND6*%
X126000000Y-56760000D03*
%TO.P,U3,GND7,GND7_GND7*%
X126000000Y-59300000D03*
%TO.P,U3,GND8,GND8_GND8*%
X126000000Y-61840000D03*
%TO.P,U3,GND9,GND9_GND9*%
X126000000Y-64380000D03*
%TO.P,U3,GND10,GND10_GND10*%
X126000000Y-66920000D03*
%TO.P,U3,GND11,GND11_GND11*%
X126000000Y-69460000D03*
D11*
%TO.P,U3,GNDBoard,GNDBoard_GNDBoard*%
%TO.N,GND*%
X101140000Y-48160000D03*
%TO.P,U3,GNDIn,GNDIn_GNDIn*%
X126000000Y-72000000D03*
D10*
%TO.P,U3,RST,RST_RST*%
%TO.N,N/C*%
X101140000Y-58320000D03*
%TO.P,U3,Rx,Rx_Rx*%
%TO.N,pololu_rx*%
X101140000Y-53240000D03*
%TO.P,U3,TXIn,TXIn_TXIn*%
%TO.N,N/C*%
X101140000Y-63400000D03*
%TO.P,U3,Tx,Tx_Tx*%
%TO.N,pololu_tx*%
X101140000Y-55780000D03*
%TO.P,U3,V0,V0_V0*%
%TO.N,N/C*%
X123460000Y-38980000D03*
%TO.P,U3,V1,V1_V1*%
X123520000Y-41560000D03*
%TO.P,U3,V2,V2_V2*%
X123520000Y-44060000D03*
%TO.P,U3,V3,V3_V3*%
X123520000Y-46560000D03*
%TO.P,U3,V4,V4_V4*%
X123520000Y-49060000D03*
%TO.P,U3,V5,V5_V5*%
X123520000Y-51560000D03*
%TO.P,U3,V5In,V5In_V5In*%
%TO.N,+5V*%
X123460000Y-72000000D03*
%TO.P,U3,V5V,V5V_V5V*%
%TO.N,N/C*%
X123460000Y-54220000D03*
%TO.P,U3,V6,V6_V6*%
X123460000Y-56760000D03*
%TO.P,U3,V7,V7_V7*%
X123460000Y-59300000D03*
%TO.P,U3,V8,V8_V8*%
X123460000Y-61840000D03*
%TO.P,U3,V9,V9_V9*%
X123460000Y-64380000D03*
%TO.P,U3,V10,V10_V10*%
X123460000Y-66920000D03*
%TO.P,U3,V11,V11_V11*%
X123460000Y-69460000D03*
%TO.P,U3,VSRV,VSRV_VSRV*%
%TO.N,vin_pololu*%
X118380000Y-72000000D03*
%TO.P,U3,VinBoard,VinBoard_VinBoard*%
%TO.N,N/C*%
X101140000Y-50700000D03*
%TO.P,U3,vin,vin_vin*%
%TO.N,vin_pololu*%
X120920000Y-72000000D03*
%TD*%
%TO.P,R11,1*%
%TO.N,AN2*%
X80000000Y-105690000D03*
D11*
%TO.P,R11,2*%
%TO.N,GND*%
X80000000Y-113310000D03*
%TD*%
D10*
%TO.P,R15,1*%
%TO.N,pololu_tx*%
X94920000Y-57670000D03*
%TO.P,R15,2*%
%TO.N,pololu_tx_resistor*%
X94920000Y-65290000D03*
%TD*%
%TO.P,U1,1,VIN_1*%
%TO.N,+5V*%
X46220000Y-72980000D03*
D11*
%TO.P,U1,2,GND_2*%
%TO.N,GND*%
X48760000Y-72980000D03*
D10*
%TO.P,U1,3,GPIO13_3*%
%TO.N,N/C*%
X51300000Y-72980000D03*
%TO.P,U1,4,GPIO12_4*%
X53840000Y-72980000D03*
%TO.P,U1,5,GPIO14_5*%
%TO.N,MD10_DIR*%
X56380000Y-72980000D03*
%TO.P,U1,6,GPIO27_6*%
%TO.N,MD10PWM*%
X58920000Y-72980000D03*
%TO.P,U1,7,GPIO26_7*%
%TO.N,home_sensor_resistant*%
X61460000Y-72980000D03*
%TO.P,U1,8,GPIO25_8*%
%TO.N,encoder_a_resistor*%
X64000000Y-72980000D03*
%TO.P,U1,9,GPIO33_9*%
%TO.N,encoder_b_resistor*%
X66540000Y-72980000D03*
%TO.P,U1,10,GPIO32_10*%
%TO.N,pololu_rx*%
X69080000Y-72980000D03*
%TO.P,U1,11,GPIO35_11*%
%TO.N,pololu_tx_resistor*%
X71620000Y-72980000D03*
%TO.P,U1,12,GPIO34_12*%
%TO.N,N/C*%
X74160000Y-72980000D03*
%TO.P,U1,13,GPIO39_13*%
X76700000Y-72980000D03*
%TO.P,U1,14,GPIO36_14*%
X79240000Y-72980000D03*
%TO.P,U1,15,EN_15*%
X81780000Y-72980000D03*
%TO.P,U1,16,3.3v_16*%
X46220000Y-98380000D03*
D11*
%TO.P,U1,17,GND_17*%
%TO.N,GND*%
X48760000Y-98380000D03*
D10*
%TO.P,U1,18,GPIO15_18*%
%TO.N,unconnected-(U1-GPIO15-Pad18)*%
X51300000Y-98380000D03*
%TO.P,U1,19,GPIO2_19*%
%TO.N,unconnected-(U1-GPIO2-Pad19)*%
X53840000Y-98380000D03*
%TO.P,U1,20,GPIO4_20*%
%TO.N,IN1*%
X56380000Y-98380000D03*
%TO.P,U1,21,GPIO16_21*%
%TO.N,IN2*%
X58920000Y-98380000D03*
%TO.P,U1,22,GPIO17_22*%
%TO.N,AN1*%
X61460000Y-98380000D03*
%TO.P,U1,23,GPIO5_23*%
%TO.N,AN2*%
X64000000Y-98380000D03*
%TO.P,U1,24,GPIO18_24*%
%TO.N,audio_tx_resistor*%
X66540000Y-98380000D03*
%TO.P,U1,25,GPIO19_25*%
%TO.N,audio_rx*%
X69080000Y-98380000D03*
%TO.P,U1,26,GPIO21_26*%
%TO.N,relay_signal*%
X71620000Y-98380000D03*
%TO.P,U1,27,GPIO3_27*%
%TO.N,N/C*%
X74160000Y-98380000D03*
%TO.P,U1,28,GPIO1_28*%
X76700000Y-98380000D03*
%TO.P,U1,29,GPIO22_29*%
X79240000Y-98380000D03*
%TO.P,U1,30,GPIO23_30*%
X81780000Y-98380000D03*
%TD*%
%TO.P,U4,5V*%
%TO.N,+5V*%
X102620000Y-89100000D03*
D11*
%TO.P,U4,GND*%
%TO.N,GND*%
X102620000Y-86560000D03*
D10*
%TO.P,U4,RX*%
%TO.N,audio_rx*%
X102620000Y-94180000D03*
%TO.P,U4,TX*%
%TO.N,audio_tx*%
X102620000Y-91640000D03*
%TD*%
%TO.P,R2,1*%
%TO.N,home_sensor_resistant*%
X65420000Y-57790000D03*
D11*
%TO.P,R2,2*%
%TO.N,GND*%
X65420000Y-50170000D03*
%TD*%
D10*
%TO.P,foot_Motor_2,1,Pin_1_1*%
%TO.N,AN2*%
X76500000Y-109500000D03*
%TO.P,foot_Motor_2,2,Pin_2_2*%
%TO.N,AN1*%
X73960000Y-109500000D03*
D11*
%TO.P,foot_Motor_2,3,Pin_3_3*%
%TO.N,GND*%
X71420000Y-109500000D03*
%TD*%
D10*
%TO.P,R16,1*%
%TO.N,pololu_tx_resistor*%
X88920000Y-62670000D03*
D11*
%TO.P,R16,2*%
%TO.N,GND*%
X88920000Y-70290000D03*
%TD*%
D10*
%TO.P,R13,1*%
%TO.N,audio_tx*%
X93500000Y-104290000D03*
%TO.P,R13,2*%
%TO.N,audio_tx_resistor*%
X93500000Y-96670000D03*
%TD*%
%TO.P,R4,1*%
%TO.N,encoder_a_resistor*%
X71420000Y-57500000D03*
D11*
%TO.P,R4,2*%
%TO.N,GND*%
X71420000Y-49880000D03*
%TD*%
D10*
%TO.P,R1,1*%
%TO.N,encoder_a_signal*%
X74920000Y-49880000D03*
%TO.P,R1,2*%
%TO.N,encoder_a_resistor*%
X74920000Y-57500000D03*
%TD*%
%TO.P,R10,1*%
%TO.N,IN2*%
X60920000Y-105480000D03*
D11*
%TO.P,R10,2*%
%TO.N,GND*%
X60920000Y-113100000D03*
%TD*%
D10*
%TO.P,R5,1*%
%TO.N,home_sensor_signal*%
X60420000Y-50170000D03*
%TO.P,R5,2*%
%TO.N,home_sensor_resistant*%
X60420000Y-57790000D03*
%TD*%
%TO.P,R9,1*%
%TO.N,IN1*%
X45920000Y-105480000D03*
D11*
%TO.P,R9,2*%
%TO.N,GND*%
X45920000Y-113100000D03*
%TD*%
D10*
%TO.P,home_sensor1,1,Pin_1_1*%
%TO.N,home_sensor_signal*%
X60340000Y-41480000D03*
%TO.P,home_sensor1,2,Pin_2_2*%
%TO.N,+5V*%
X62880000Y-41480000D03*
D11*
%TO.P,home_sensor1,3,Pin_3_3*%
%TO.N,GND*%
X65420000Y-41480000D03*
%TD*%
D10*
%TO.P,foot_Motor_1,1,Pin_1_1*%
%TO.N,IN2*%
X56920000Y-109480000D03*
%TO.P,foot_Motor_1,2,Pin_2_2*%
%TO.N,IN1*%
X54380000Y-109480000D03*
D11*
%TO.P,foot_Motor_1,3,Pin_3_3*%
%TO.N,GND*%
X51840000Y-109480000D03*
%TD*%
D10*
%TO.P,Power1,1,Pin_1_1*%
%TO.N,+5V*%
X35645000Y-65197500D03*
D11*
%TO.P,Power1,2,Pin_2_2*%
%TO.N,GND*%
X38185000Y-65197500D03*
%TD*%
D10*
%TO.P,R3,1*%
%TO.N,encoder_b_signal*%
X80420000Y-49880000D03*
%TO.P,R3,2*%
%TO.N,encoder_b_resistor*%
X80420000Y-57500000D03*
%TD*%
%TO.P,R8,1*%
%TO.N,MD10_DIR*%
X48310000Y-58980000D03*
D11*
%TO.P,R8,2*%
%TO.N,GND*%
X40690000Y-58980000D03*
%TD*%
D10*
%TO.P,XIAO-ESP32-C6-SMD1,1,D0_1*%
%TO.N,N/C*%
X111260000Y-120240000D03*
%TO.P,XIAO-ESP32-C6-SMD1,2,D1_2*%
X113800000Y-120240000D03*
%TO.P,XIAO-ESP32-C6-SMD1,3,D2_3*%
X116340000Y-120240000D03*
%TO.P,XIAO-ESP32-C6-SMD1,4,D3_4*%
X118880000Y-120240000D03*
%TO.P,XIAO-ESP32-C6-SMD1,5,D4_5*%
X121420000Y-120240000D03*
%TO.P,XIAO-ESP32-C6-SMD1,6,D5_6*%
X123960000Y-120240000D03*
%TO.P,XIAO-ESP32-C6-SMD1,7,D6_7*%
X126500000Y-120240000D03*
%TO.P,XIAO-ESP32-C6-SMD1,8,D7_8*%
X126500000Y-105000000D03*
%TO.P,XIAO-ESP32-C6-SMD1,9,D8_9*%
X123960000Y-105000000D03*
%TO.P,XIAO-ESP32-C6-SMD1,10,D9_10*%
X121420000Y-105000000D03*
%TO.P,XIAO-ESP32-C6-SMD1,11,D10_11*%
X118880000Y-105000000D03*
%TO.P,XIAO-ESP32-C6-SMD1,12,3V3_OUT_12*%
X116340000Y-105000000D03*
D11*
%TO.P,XIAO-ESP32-C6-SMD1,13,GND_13*%
%TO.N,GND*%
X113800000Y-105000000D03*
D10*
%TO.P,XIAO-ESP32-C6-SMD1,14,VBUS_14*%
%TO.N,+5V*%
X111260000Y-105000000D03*
%TD*%
M02*
