%TF.GenerationSoftware,KiCad,Pcbnew,10.0.5*%
%TF.CreationDate,2026-08-14T23:15:36-07:00*%
%TF.ProjectId,chopper_body_v2,63686f70-7065-4725-9f62-6f64795f7632,rev?*%
%TF.SameCoordinates,Original*%
%TF.FileFunction,Soldermask,Bot*%
%TF.FilePolarity,Negative*%
%FSLAX46Y46*%
G04 Gerber Fmt 4.6, Leading zero omitted, Abs format (unit mm)*
G04 Created by KiCad (PCBNEW 10.0.5) date 2026-08-14 23:15:36*
%MOMM*%
%LPD*%
G01*
G04 APERTURE LIST*
G04 Aperture macros list*
%AMRoundRect*
0 Rectangle with rounded corners*
0 $1 Rounding radius*
0 $2 $3 $4 $5 $6 $7 $8 $9 X,Y pos of 4 corners*
0 Add a 4 corners polygon primitive as box body*
4,1,4,$2,$3,$4,$5,$6,$7,$8,$9,$2,$3,0*
0 Add four circle primitives for the rounded corners*
1,1,$1+$1,$2,$3*
1,1,$1+$1,$4,$5*
1,1,$1+$1,$6,$7*
1,1,$1+$1,$8,$9*
0 Add four rect primitives between the rounded corners*
20,1,$1+$1,$2,$3,$4,$5,0*
20,1,$1+$1,$4,$5,$6,$7,0*
20,1,$1+$1,$6,$7,$8,$9,0*
20,1,$1+$1,$8,$9,$2,$3,0*%
G04 Aperture macros list end*
%ADD10C,1.900000*%
%ADD11R,1.900000X1.900000*%
%ADD12RoundRect,0.250000X-0.750000X-0.750000X0.750000X-0.750000X0.750000X0.750000X-0.750000X0.750000X0*%
%ADD13C,2.000000*%
G04 APERTURE END LIST*
D10*
%TO.C,Encoder_motor1*%
X73340000Y-41480000D03*
X75880000Y-41480000D03*
X78420000Y-41480000D03*
D11*
X80960000Y-41480000D03*
%TD*%
D12*
%TO.C,REF\u002A\u002A*%
X85420000Y-109480000D03*
D13*
X87960000Y-109480000D03*
%TD*%
D10*
%TO.C,R4*%
X84920000Y-57500000D03*
D11*
X84920000Y-49880000D03*
%TD*%
D10*
%TO.C,R12*%
X67000000Y-105690000D03*
D11*
X67000000Y-113310000D03*
%TD*%
D10*
%TO.C,Cytron_MD10C1*%
X42870000Y-41480000D03*
X45410000Y-41480000D03*
D11*
X47950000Y-41480000D03*
%TD*%
D10*
%TO.C,R7*%
X45610000Y-50480000D03*
D11*
X53230000Y-50480000D03*
%TD*%
D10*
%TO.C,R14*%
X95920000Y-91790000D03*
D11*
X95920000Y-84170000D03*
%TD*%
D10*
%TO.C,U3*%
X120920000Y-38980000D03*
X120920000Y-41520000D03*
X120920000Y-44060000D03*
X120920000Y-46600000D03*
X120920000Y-49140000D03*
X120920000Y-51680000D03*
X120920000Y-54220000D03*
X120920000Y-56760000D03*
X120920000Y-59300000D03*
X120920000Y-61840000D03*
X120920000Y-64380000D03*
X120920000Y-66920000D03*
X120920000Y-69460000D03*
X101140000Y-60860000D03*
X126000000Y-38980000D03*
X126000000Y-41560000D03*
X126000000Y-44060000D03*
X126000000Y-46600000D03*
X126000000Y-49140000D03*
X126000000Y-51680000D03*
X126000000Y-54220000D03*
X126000000Y-56760000D03*
X126000000Y-59300000D03*
X126000000Y-61840000D03*
X126000000Y-64380000D03*
X126000000Y-66920000D03*
X126000000Y-69460000D03*
D11*
X101140000Y-48160000D03*
X126000000Y-72000000D03*
D10*
X101140000Y-58320000D03*
X101140000Y-53240000D03*
X101140000Y-63400000D03*
X101140000Y-55780000D03*
X123460000Y-38980000D03*
X123520000Y-41560000D03*
X123520000Y-44060000D03*
X123520000Y-46560000D03*
X123520000Y-49060000D03*
X123520000Y-51560000D03*
X123460000Y-72000000D03*
X123460000Y-54220000D03*
X123460000Y-56760000D03*
X123460000Y-59300000D03*
X123460000Y-61840000D03*
X123460000Y-64380000D03*
X123460000Y-66920000D03*
X123460000Y-69460000D03*
X118380000Y-72000000D03*
X101140000Y-50700000D03*
X120920000Y-72000000D03*
%TD*%
%TO.C,R11*%
X80000000Y-105690000D03*
D11*
X80000000Y-113310000D03*
%TD*%
D10*
%TO.C,R15*%
X94920000Y-57670000D03*
X94920000Y-65290000D03*
%TD*%
%TO.C,U1*%
X46220000Y-72980000D03*
D11*
X48760000Y-72980000D03*
D10*
X51300000Y-72980000D03*
X53840000Y-72980000D03*
X56380000Y-72980000D03*
X58920000Y-72980000D03*
X61460000Y-72980000D03*
X64000000Y-72980000D03*
X66540000Y-72980000D03*
X69080000Y-72980000D03*
X71620000Y-72980000D03*
X74160000Y-72980000D03*
X76700000Y-72980000D03*
X79240000Y-72980000D03*
X81780000Y-72980000D03*
X46220000Y-98380000D03*
D11*
X48760000Y-98380000D03*
D10*
X51300000Y-98380000D03*
X53840000Y-98380000D03*
X56380000Y-98380000D03*
X58920000Y-98380000D03*
X61460000Y-98380000D03*
X64000000Y-98380000D03*
X66540000Y-98380000D03*
X69080000Y-98380000D03*
X71620000Y-98380000D03*
X74160000Y-98380000D03*
X76700000Y-98380000D03*
X79240000Y-98380000D03*
X81780000Y-98380000D03*
%TD*%
%TO.C,U4*%
X102620000Y-89100000D03*
D11*
X102620000Y-86560000D03*
D10*
X102620000Y-94180000D03*
X102620000Y-91640000D03*
%TD*%
%TO.C,R2*%
X65420000Y-57790000D03*
D11*
X65420000Y-50170000D03*
%TD*%
D10*
%TO.C,foot_Motor_2*%
X76500000Y-109500000D03*
X73960000Y-109500000D03*
D11*
X71420000Y-109500000D03*
%TD*%
D10*
%TO.C,R16*%
X88920000Y-62670000D03*
D11*
X88920000Y-70290000D03*
%TD*%
D10*
%TO.C,R13*%
X93500000Y-104290000D03*
X93500000Y-96670000D03*
%TD*%
%TO.C,R4*%
X71420000Y-57500000D03*
D11*
X71420000Y-49880000D03*
%TD*%
D10*
%TO.C,R1*%
X74920000Y-49880000D03*
X74920000Y-57500000D03*
%TD*%
%TO.C,R10*%
X60920000Y-105480000D03*
D11*
X60920000Y-113100000D03*
%TD*%
D10*
%TO.C,R5*%
X60420000Y-50170000D03*
X60420000Y-57790000D03*
%TD*%
%TO.C,R9*%
X45920000Y-105480000D03*
D11*
X45920000Y-113100000D03*
%TD*%
D10*
%TO.C,home_sensor1*%
X60340000Y-41480000D03*
X62880000Y-41480000D03*
D11*
X65420000Y-41480000D03*
%TD*%
D10*
%TO.C,foot_Motor_1*%
X56920000Y-109480000D03*
X54380000Y-109480000D03*
D11*
X51840000Y-109480000D03*
%TD*%
D10*
%TO.C,Power1*%
X35645000Y-65197500D03*
D11*
X38185000Y-65197500D03*
%TD*%
D10*
%TO.C,R3*%
X80420000Y-49880000D03*
X80420000Y-57500000D03*
%TD*%
%TO.C,R8*%
X48310000Y-58980000D03*
D11*
X40690000Y-58980000D03*
%TD*%
D10*
%TO.C,XIAO-ESP32-C6-SMD1*%
X111260000Y-120240000D03*
X113800000Y-120240000D03*
X116340000Y-120240000D03*
X118880000Y-120240000D03*
X121420000Y-120240000D03*
X123960000Y-120240000D03*
X126500000Y-120240000D03*
X126500000Y-105000000D03*
X123960000Y-105000000D03*
X121420000Y-105000000D03*
X118880000Y-105000000D03*
X116340000Y-105000000D03*
D11*
X113800000Y-105000000D03*
D10*
X111260000Y-105000000D03*
%TD*%
M02*
