%TF.GenerationSoftware,KiCad,Pcbnew,10.0.5*%
%TF.CreationDate,2026-08-14T23:15:36-07:00*%
%TF.ProjectId,chopper_body_v2,63686f70-7065-4725-9f62-6f64795f7632,rev?*%
%TF.SameCoordinates,Original*%
%TF.FileFunction,AssemblyDrawing,Top*%
%FSLAX46Y46*%
G04 Gerber Fmt 4.6, Leading zero omitted, Abs format (unit mm)*
G04 Created by KiCad (PCBNEW 10.0.5) date 2026-08-14 23:15:36*
%MOMM*%
%LPD*%
G01*
G04 APERTURE LIST*
%ADD10C,0.108000*%
%ADD11C,0.150000*%
%ADD12C,0.100000*%
%ADD13C,0.200000*%
%ADD14C,0.504000*%
G04 APERTURE END LIST*
D10*
X87800000Y-52307469D02*
X87560000Y-51964612D01*
X87388571Y-52307469D02*
X87388571Y-51587469D01*
X87388571Y-51587469D02*
X87662857Y-51587469D01*
X87662857Y-51587469D02*
X87731428Y-51621755D01*
X87731428Y-51621755D02*
X87765714Y-51656041D01*
X87765714Y-51656041D02*
X87800000Y-51724612D01*
X87800000Y-51724612D02*
X87800000Y-51827469D01*
X87800000Y-51827469D02*
X87765714Y-51896041D01*
X87765714Y-51896041D02*
X87731428Y-51930326D01*
X87731428Y-51930326D02*
X87662857Y-51964612D01*
X87662857Y-51964612D02*
X87388571Y-51964612D01*
X88211428Y-51896041D02*
X88142857Y-51861755D01*
X88142857Y-51861755D02*
X88108571Y-51827469D01*
X88108571Y-51827469D02*
X88074285Y-51758898D01*
X88074285Y-51758898D02*
X88074285Y-51724612D01*
X88074285Y-51724612D02*
X88108571Y-51656041D01*
X88108571Y-51656041D02*
X88142857Y-51621755D01*
X88142857Y-51621755D02*
X88211428Y-51587469D01*
X88211428Y-51587469D02*
X88348571Y-51587469D01*
X88348571Y-51587469D02*
X88417143Y-51621755D01*
X88417143Y-51621755D02*
X88451428Y-51656041D01*
X88451428Y-51656041D02*
X88485714Y-51724612D01*
X88485714Y-51724612D02*
X88485714Y-51758898D01*
X88485714Y-51758898D02*
X88451428Y-51827469D01*
X88451428Y-51827469D02*
X88417143Y-51861755D01*
X88417143Y-51861755D02*
X88348571Y-51896041D01*
X88348571Y-51896041D02*
X88211428Y-51896041D01*
X88211428Y-51896041D02*
X88142857Y-51930326D01*
X88142857Y-51930326D02*
X88108571Y-51964612D01*
X88108571Y-51964612D02*
X88074285Y-52033184D01*
X88074285Y-52033184D02*
X88074285Y-52170326D01*
X88074285Y-52170326D02*
X88108571Y-52238898D01*
X88108571Y-52238898D02*
X88142857Y-52273184D01*
X88142857Y-52273184D02*
X88211428Y-52307469D01*
X88211428Y-52307469D02*
X88348571Y-52307469D01*
X88348571Y-52307469D02*
X88417143Y-52273184D01*
X88417143Y-52273184D02*
X88451428Y-52238898D01*
X88451428Y-52238898D02*
X88485714Y-52170326D01*
X88485714Y-52170326D02*
X88485714Y-52033184D01*
X88485714Y-52033184D02*
X88451428Y-51964612D01*
X88451428Y-51964612D02*
X88417143Y-51930326D01*
X88417143Y-51930326D02*
X88348571Y-51896041D01*
D11*
X64864284Y-46454819D02*
X64864284Y-45788152D01*
X64864284Y-45883390D02*
X64911903Y-45835771D01*
X64911903Y-45835771D02*
X65007141Y-45788152D01*
X65007141Y-45788152D02*
X65149998Y-45788152D01*
X65149998Y-45788152D02*
X65245236Y-45835771D01*
X65245236Y-45835771D02*
X65292855Y-45931009D01*
X65292855Y-45931009D02*
X65292855Y-46454819D01*
X65292855Y-45931009D02*
X65340474Y-45835771D01*
X65340474Y-45835771D02*
X65435712Y-45788152D01*
X65435712Y-45788152D02*
X65578569Y-45788152D01*
X65578569Y-45788152D02*
X65673808Y-45835771D01*
X65673808Y-45835771D02*
X65721427Y-45931009D01*
X65721427Y-45931009D02*
X65721427Y-46454819D01*
X66340474Y-46454819D02*
X66245236Y-46407200D01*
X66245236Y-46407200D02*
X66197617Y-46359580D01*
X66197617Y-46359580D02*
X66149998Y-46264342D01*
X66149998Y-46264342D02*
X66149998Y-45978628D01*
X66149998Y-45978628D02*
X66197617Y-45883390D01*
X66197617Y-45883390D02*
X66245236Y-45835771D01*
X66245236Y-45835771D02*
X66340474Y-45788152D01*
X66340474Y-45788152D02*
X66483331Y-45788152D01*
X66483331Y-45788152D02*
X66578569Y-45835771D01*
X66578569Y-45835771D02*
X66626188Y-45883390D01*
X66626188Y-45883390D02*
X66673807Y-45978628D01*
X66673807Y-45978628D02*
X66673807Y-46264342D01*
X66673807Y-46264342D02*
X66626188Y-46359580D01*
X66626188Y-46359580D02*
X66578569Y-46407200D01*
X66578569Y-46407200D02*
X66483331Y-46454819D01*
X66483331Y-46454819D02*
X66340474Y-46454819D01*
X66959522Y-45788152D02*
X67340474Y-45788152D01*
X67102379Y-45454819D02*
X67102379Y-46311961D01*
X67102379Y-46311961D02*
X67149998Y-46407200D01*
X67149998Y-46407200D02*
X67245236Y-46454819D01*
X67245236Y-46454819D02*
X67340474Y-46454819D01*
X67816665Y-46454819D02*
X67721427Y-46407200D01*
X67721427Y-46407200D02*
X67673808Y-46359580D01*
X67673808Y-46359580D02*
X67626189Y-46264342D01*
X67626189Y-46264342D02*
X67626189Y-45978628D01*
X67626189Y-45978628D02*
X67673808Y-45883390D01*
X67673808Y-45883390D02*
X67721427Y-45835771D01*
X67721427Y-45835771D02*
X67816665Y-45788152D01*
X67816665Y-45788152D02*
X67959522Y-45788152D01*
X67959522Y-45788152D02*
X68054760Y-45835771D01*
X68054760Y-45835771D02*
X68102379Y-45883390D01*
X68102379Y-45883390D02*
X68149998Y-45978628D01*
X68149998Y-45978628D02*
X68149998Y-46264342D01*
X68149998Y-46264342D02*
X68102379Y-46359580D01*
X68102379Y-46359580D02*
X68054760Y-46407200D01*
X68054760Y-46407200D02*
X67959522Y-46454819D01*
X67959522Y-46454819D02*
X67816665Y-46454819D01*
X68578570Y-46454819D02*
X68578570Y-45788152D01*
X68578570Y-45978628D02*
X68626189Y-45883390D01*
X68626189Y-45883390D02*
X68673808Y-45835771D01*
X68673808Y-45835771D02*
X68769046Y-45788152D01*
X68769046Y-45788152D02*
X68864284Y-45788152D01*
X68959523Y-46550057D02*
X69721427Y-46550057D01*
X69959523Y-46454819D02*
X69959523Y-45454819D01*
X70388094Y-46454819D02*
X70388094Y-45931009D01*
X70388094Y-45931009D02*
X70340475Y-45835771D01*
X70340475Y-45835771D02*
X70245237Y-45788152D01*
X70245237Y-45788152D02*
X70102380Y-45788152D01*
X70102380Y-45788152D02*
X70007142Y-45835771D01*
X70007142Y-45835771D02*
X69959523Y-45883390D01*
X71245237Y-46407200D02*
X71149999Y-46454819D01*
X71149999Y-46454819D02*
X70959523Y-46454819D01*
X70959523Y-46454819D02*
X70864285Y-46407200D01*
X70864285Y-46407200D02*
X70816666Y-46311961D01*
X70816666Y-46311961D02*
X70816666Y-45931009D01*
X70816666Y-45931009D02*
X70864285Y-45835771D01*
X70864285Y-45835771D02*
X70959523Y-45788152D01*
X70959523Y-45788152D02*
X71149999Y-45788152D01*
X71149999Y-45788152D02*
X71245237Y-45835771D01*
X71245237Y-45835771D02*
X71292856Y-45931009D01*
X71292856Y-45931009D02*
X71292856Y-46026247D01*
X71292856Y-46026247D02*
X70816666Y-46121485D01*
X72149999Y-46454819D02*
X72149999Y-45931009D01*
X72149999Y-45931009D02*
X72102380Y-45835771D01*
X72102380Y-45835771D02*
X72007142Y-45788152D01*
X72007142Y-45788152D02*
X71816666Y-45788152D01*
X71816666Y-45788152D02*
X71721428Y-45835771D01*
X72149999Y-46407200D02*
X72054761Y-46454819D01*
X72054761Y-46454819D02*
X71816666Y-46454819D01*
X71816666Y-46454819D02*
X71721428Y-46407200D01*
X71721428Y-46407200D02*
X71673809Y-46311961D01*
X71673809Y-46311961D02*
X71673809Y-46216723D01*
X71673809Y-46216723D02*
X71721428Y-46121485D01*
X71721428Y-46121485D02*
X71816666Y-46073866D01*
X71816666Y-46073866D02*
X72054761Y-46073866D01*
X72054761Y-46073866D02*
X72149999Y-46026247D01*
X73054761Y-46454819D02*
X73054761Y-45454819D01*
X73054761Y-46407200D02*
X72959523Y-46454819D01*
X72959523Y-46454819D02*
X72769047Y-46454819D01*
X72769047Y-46454819D02*
X72673809Y-46407200D01*
X72673809Y-46407200D02*
X72626190Y-46359580D01*
X72626190Y-46359580D02*
X72578571Y-46264342D01*
X72578571Y-46264342D02*
X72578571Y-45978628D01*
X72578571Y-45978628D02*
X72626190Y-45883390D01*
X72626190Y-45883390D02*
X72673809Y-45835771D01*
X72673809Y-45835771D02*
X72769047Y-45788152D01*
X72769047Y-45788152D02*
X72959523Y-45788152D01*
X72959523Y-45788152D02*
X73054761Y-45835771D01*
X73292857Y-46550057D02*
X74054761Y-46550057D01*
X74673809Y-46407200D02*
X74578571Y-46454819D01*
X74578571Y-46454819D02*
X74388095Y-46454819D01*
X74388095Y-46454819D02*
X74292857Y-46407200D01*
X74292857Y-46407200D02*
X74245238Y-46311961D01*
X74245238Y-46311961D02*
X74245238Y-45931009D01*
X74245238Y-45931009D02*
X74292857Y-45835771D01*
X74292857Y-45835771D02*
X74388095Y-45788152D01*
X74388095Y-45788152D02*
X74578571Y-45788152D01*
X74578571Y-45788152D02*
X74673809Y-45835771D01*
X74673809Y-45835771D02*
X74721428Y-45931009D01*
X74721428Y-45931009D02*
X74721428Y-46026247D01*
X74721428Y-46026247D02*
X74245238Y-46121485D01*
X75150000Y-45788152D02*
X75150000Y-46454819D01*
X75150000Y-45883390D02*
X75197619Y-45835771D01*
X75197619Y-45835771D02*
X75292857Y-45788152D01*
X75292857Y-45788152D02*
X75435714Y-45788152D01*
X75435714Y-45788152D02*
X75530952Y-45835771D01*
X75530952Y-45835771D02*
X75578571Y-45931009D01*
X75578571Y-45931009D02*
X75578571Y-46454819D01*
X76483333Y-46407200D02*
X76388095Y-46454819D01*
X76388095Y-46454819D02*
X76197619Y-46454819D01*
X76197619Y-46454819D02*
X76102381Y-46407200D01*
X76102381Y-46407200D02*
X76054762Y-46359580D01*
X76054762Y-46359580D02*
X76007143Y-46264342D01*
X76007143Y-46264342D02*
X76007143Y-45978628D01*
X76007143Y-45978628D02*
X76054762Y-45883390D01*
X76054762Y-45883390D02*
X76102381Y-45835771D01*
X76102381Y-45835771D02*
X76197619Y-45788152D01*
X76197619Y-45788152D02*
X76388095Y-45788152D01*
X76388095Y-45788152D02*
X76483333Y-45835771D01*
X76673810Y-46550057D02*
X77435714Y-46550057D01*
X78102381Y-46454819D02*
X78102381Y-45931009D01*
X78102381Y-45931009D02*
X78054762Y-45835771D01*
X78054762Y-45835771D02*
X77959524Y-45788152D01*
X77959524Y-45788152D02*
X77769048Y-45788152D01*
X77769048Y-45788152D02*
X77673810Y-45835771D01*
X78102381Y-46407200D02*
X78007143Y-46454819D01*
X78007143Y-46454819D02*
X77769048Y-46454819D01*
X77769048Y-46454819D02*
X77673810Y-46407200D01*
X77673810Y-46407200D02*
X77626191Y-46311961D01*
X77626191Y-46311961D02*
X77626191Y-46216723D01*
X77626191Y-46216723D02*
X77673810Y-46121485D01*
X77673810Y-46121485D02*
X77769048Y-46073866D01*
X77769048Y-46073866D02*
X78007143Y-46073866D01*
X78007143Y-46073866D02*
X78102381Y-46026247D01*
X78340477Y-46550057D02*
X79102381Y-46550057D01*
X79721429Y-46407200D02*
X79626191Y-46454819D01*
X79626191Y-46454819D02*
X79435715Y-46454819D01*
X79435715Y-46454819D02*
X79340477Y-46407200D01*
X79340477Y-46407200D02*
X79292858Y-46311961D01*
X79292858Y-46311961D02*
X79292858Y-45931009D01*
X79292858Y-45931009D02*
X79340477Y-45835771D01*
X79340477Y-45835771D02*
X79435715Y-45788152D01*
X79435715Y-45788152D02*
X79626191Y-45788152D01*
X79626191Y-45788152D02*
X79721429Y-45835771D01*
X79721429Y-45835771D02*
X79769048Y-45931009D01*
X79769048Y-45931009D02*
X79769048Y-46026247D01*
X79769048Y-46026247D02*
X79292858Y-46121485D01*
X80197620Y-45788152D02*
X80197620Y-46454819D01*
X80197620Y-45883390D02*
X80245239Y-45835771D01*
X80245239Y-45835771D02*
X80340477Y-45788152D01*
X80340477Y-45788152D02*
X80483334Y-45788152D01*
X80483334Y-45788152D02*
X80578572Y-45835771D01*
X80578572Y-45835771D02*
X80626191Y-45931009D01*
X80626191Y-45931009D02*
X80626191Y-46454819D01*
X81530953Y-46407200D02*
X81435715Y-46454819D01*
X81435715Y-46454819D02*
X81245239Y-46454819D01*
X81245239Y-46454819D02*
X81150001Y-46407200D01*
X81150001Y-46407200D02*
X81102382Y-46359580D01*
X81102382Y-46359580D02*
X81054763Y-46264342D01*
X81054763Y-46264342D02*
X81054763Y-45978628D01*
X81054763Y-45978628D02*
X81102382Y-45883390D01*
X81102382Y-45883390D02*
X81150001Y-45835771D01*
X81150001Y-45835771D02*
X81245239Y-45788152D01*
X81245239Y-45788152D02*
X81435715Y-45788152D01*
X81435715Y-45788152D02*
X81530953Y-45835771D01*
X81721430Y-46550057D02*
X82483334Y-46550057D01*
X82721430Y-46454819D02*
X82721430Y-45454819D01*
X82721430Y-45835771D02*
X82816668Y-45788152D01*
X82816668Y-45788152D02*
X83007144Y-45788152D01*
X83007144Y-45788152D02*
X83102382Y-45835771D01*
X83102382Y-45835771D02*
X83150001Y-45883390D01*
X83150001Y-45883390D02*
X83197620Y-45978628D01*
X83197620Y-45978628D02*
X83197620Y-46264342D01*
X83197620Y-46264342D02*
X83150001Y-46359580D01*
X83150001Y-46359580D02*
X83102382Y-46407200D01*
X83102382Y-46407200D02*
X83007144Y-46454819D01*
X83007144Y-46454819D02*
X82816668Y-46454819D01*
X82816668Y-46454819D02*
X82721430Y-46407200D01*
X83388097Y-46550057D02*
X84150001Y-46550057D01*
X84864287Y-45454819D02*
X84388097Y-45454819D01*
X84388097Y-45454819D02*
X84340478Y-45931009D01*
X84340478Y-45931009D02*
X84388097Y-45883390D01*
X84388097Y-45883390D02*
X84483335Y-45835771D01*
X84483335Y-45835771D02*
X84721430Y-45835771D01*
X84721430Y-45835771D02*
X84816668Y-45883390D01*
X84816668Y-45883390D02*
X84864287Y-45931009D01*
X84864287Y-45931009D02*
X84911906Y-46026247D01*
X84911906Y-46026247D02*
X84911906Y-46264342D01*
X84911906Y-46264342D02*
X84864287Y-46359580D01*
X84864287Y-46359580D02*
X84816668Y-46407200D01*
X84816668Y-46407200D02*
X84721430Y-46454819D01*
X84721430Y-46454819D02*
X84483335Y-46454819D01*
X84483335Y-46454819D02*
X84388097Y-46407200D01*
X84388097Y-46407200D02*
X84340478Y-46359580D01*
X85245240Y-45788152D02*
X85483335Y-46454819D01*
X85483335Y-46454819D02*
X85721430Y-45788152D01*
X85864288Y-46550057D02*
X86626192Y-46550057D01*
X87388097Y-45502438D02*
X87292859Y-45454819D01*
X87292859Y-45454819D02*
X87150002Y-45454819D01*
X87150002Y-45454819D02*
X87007145Y-45502438D01*
X87007145Y-45502438D02*
X86911907Y-45597676D01*
X86911907Y-45597676D02*
X86864288Y-45692914D01*
X86864288Y-45692914D02*
X86816669Y-45883390D01*
X86816669Y-45883390D02*
X86816669Y-46026247D01*
X86816669Y-46026247D02*
X86864288Y-46216723D01*
X86864288Y-46216723D02*
X86911907Y-46311961D01*
X86911907Y-46311961D02*
X87007145Y-46407200D01*
X87007145Y-46407200D02*
X87150002Y-46454819D01*
X87150002Y-46454819D02*
X87245240Y-46454819D01*
X87245240Y-46454819D02*
X87388097Y-46407200D01*
X87388097Y-46407200D02*
X87435716Y-46359580D01*
X87435716Y-46359580D02*
X87435716Y-46026247D01*
X87435716Y-46026247D02*
X87245240Y-46026247D01*
X87864288Y-46454819D02*
X87864288Y-45454819D01*
X87864288Y-45454819D02*
X88435716Y-46454819D01*
X88435716Y-46454819D02*
X88435716Y-45454819D01*
X88911907Y-46454819D02*
X88911907Y-45454819D01*
X88911907Y-45454819D02*
X89150002Y-45454819D01*
X89150002Y-45454819D02*
X89292859Y-45502438D01*
X89292859Y-45502438D02*
X89388097Y-45597676D01*
X89388097Y-45597676D02*
X89435716Y-45692914D01*
X89435716Y-45692914D02*
X89483335Y-45883390D01*
X89483335Y-45883390D02*
X89483335Y-46026247D01*
X89483335Y-46026247D02*
X89435716Y-46216723D01*
X89435716Y-46216723D02*
X89388097Y-46311961D01*
X89388097Y-46311961D02*
X89292859Y-46407200D01*
X89292859Y-46407200D02*
X89150002Y-46454819D01*
X89150002Y-46454819D02*
X88911907Y-46454819D01*
X71388094Y-43561009D02*
X71721427Y-43561009D01*
X71864284Y-44084819D02*
X71388094Y-44084819D01*
X71388094Y-44084819D02*
X71388094Y-43084819D01*
X71388094Y-43084819D02*
X71864284Y-43084819D01*
X72292856Y-43418152D02*
X72292856Y-44084819D01*
X72292856Y-43513390D02*
X72340475Y-43465771D01*
X72340475Y-43465771D02*
X72435713Y-43418152D01*
X72435713Y-43418152D02*
X72578570Y-43418152D01*
X72578570Y-43418152D02*
X72673808Y-43465771D01*
X72673808Y-43465771D02*
X72721427Y-43561009D01*
X72721427Y-43561009D02*
X72721427Y-44084819D01*
X73626189Y-44037200D02*
X73530951Y-44084819D01*
X73530951Y-44084819D02*
X73340475Y-44084819D01*
X73340475Y-44084819D02*
X73245237Y-44037200D01*
X73245237Y-44037200D02*
X73197618Y-43989580D01*
X73197618Y-43989580D02*
X73149999Y-43894342D01*
X73149999Y-43894342D02*
X73149999Y-43608628D01*
X73149999Y-43608628D02*
X73197618Y-43513390D01*
X73197618Y-43513390D02*
X73245237Y-43465771D01*
X73245237Y-43465771D02*
X73340475Y-43418152D01*
X73340475Y-43418152D02*
X73530951Y-43418152D01*
X73530951Y-43418152D02*
X73626189Y-43465771D01*
X74197618Y-44084819D02*
X74102380Y-44037200D01*
X74102380Y-44037200D02*
X74054761Y-43989580D01*
X74054761Y-43989580D02*
X74007142Y-43894342D01*
X74007142Y-43894342D02*
X74007142Y-43608628D01*
X74007142Y-43608628D02*
X74054761Y-43513390D01*
X74054761Y-43513390D02*
X74102380Y-43465771D01*
X74102380Y-43465771D02*
X74197618Y-43418152D01*
X74197618Y-43418152D02*
X74340475Y-43418152D01*
X74340475Y-43418152D02*
X74435713Y-43465771D01*
X74435713Y-43465771D02*
X74483332Y-43513390D01*
X74483332Y-43513390D02*
X74530951Y-43608628D01*
X74530951Y-43608628D02*
X74530951Y-43894342D01*
X74530951Y-43894342D02*
X74483332Y-43989580D01*
X74483332Y-43989580D02*
X74435713Y-44037200D01*
X74435713Y-44037200D02*
X74340475Y-44084819D01*
X74340475Y-44084819D02*
X74197618Y-44084819D01*
X75388094Y-44084819D02*
X75388094Y-43084819D01*
X75388094Y-44037200D02*
X75292856Y-44084819D01*
X75292856Y-44084819D02*
X75102380Y-44084819D01*
X75102380Y-44084819D02*
X75007142Y-44037200D01*
X75007142Y-44037200D02*
X74959523Y-43989580D01*
X74959523Y-43989580D02*
X74911904Y-43894342D01*
X74911904Y-43894342D02*
X74911904Y-43608628D01*
X74911904Y-43608628D02*
X74959523Y-43513390D01*
X74959523Y-43513390D02*
X75007142Y-43465771D01*
X75007142Y-43465771D02*
X75102380Y-43418152D01*
X75102380Y-43418152D02*
X75292856Y-43418152D01*
X75292856Y-43418152D02*
X75388094Y-43465771D01*
X76245237Y-44037200D02*
X76149999Y-44084819D01*
X76149999Y-44084819D02*
X75959523Y-44084819D01*
X75959523Y-44084819D02*
X75864285Y-44037200D01*
X75864285Y-44037200D02*
X75816666Y-43941961D01*
X75816666Y-43941961D02*
X75816666Y-43561009D01*
X75816666Y-43561009D02*
X75864285Y-43465771D01*
X75864285Y-43465771D02*
X75959523Y-43418152D01*
X75959523Y-43418152D02*
X76149999Y-43418152D01*
X76149999Y-43418152D02*
X76245237Y-43465771D01*
X76245237Y-43465771D02*
X76292856Y-43561009D01*
X76292856Y-43561009D02*
X76292856Y-43656247D01*
X76292856Y-43656247D02*
X75816666Y-43751485D01*
X76721428Y-44084819D02*
X76721428Y-43418152D01*
X76721428Y-43608628D02*
X76769047Y-43513390D01*
X76769047Y-43513390D02*
X76816666Y-43465771D01*
X76816666Y-43465771D02*
X76911904Y-43418152D01*
X76911904Y-43418152D02*
X77007142Y-43418152D01*
X77102381Y-44180057D02*
X77864285Y-44180057D01*
X78102381Y-44084819D02*
X78102381Y-43418152D01*
X78102381Y-43513390D02*
X78150000Y-43465771D01*
X78150000Y-43465771D02*
X78245238Y-43418152D01*
X78245238Y-43418152D02*
X78388095Y-43418152D01*
X78388095Y-43418152D02*
X78483333Y-43465771D01*
X78483333Y-43465771D02*
X78530952Y-43561009D01*
X78530952Y-43561009D02*
X78530952Y-44084819D01*
X78530952Y-43561009D02*
X78578571Y-43465771D01*
X78578571Y-43465771D02*
X78673809Y-43418152D01*
X78673809Y-43418152D02*
X78816666Y-43418152D01*
X78816666Y-43418152D02*
X78911905Y-43465771D01*
X78911905Y-43465771D02*
X78959524Y-43561009D01*
X78959524Y-43561009D02*
X78959524Y-44084819D01*
X79578571Y-44084819D02*
X79483333Y-44037200D01*
X79483333Y-44037200D02*
X79435714Y-43989580D01*
X79435714Y-43989580D02*
X79388095Y-43894342D01*
X79388095Y-43894342D02*
X79388095Y-43608628D01*
X79388095Y-43608628D02*
X79435714Y-43513390D01*
X79435714Y-43513390D02*
X79483333Y-43465771D01*
X79483333Y-43465771D02*
X79578571Y-43418152D01*
X79578571Y-43418152D02*
X79721428Y-43418152D01*
X79721428Y-43418152D02*
X79816666Y-43465771D01*
X79816666Y-43465771D02*
X79864285Y-43513390D01*
X79864285Y-43513390D02*
X79911904Y-43608628D01*
X79911904Y-43608628D02*
X79911904Y-43894342D01*
X79911904Y-43894342D02*
X79864285Y-43989580D01*
X79864285Y-43989580D02*
X79816666Y-44037200D01*
X79816666Y-44037200D02*
X79721428Y-44084819D01*
X79721428Y-44084819D02*
X79578571Y-44084819D01*
X80197619Y-43418152D02*
X80578571Y-43418152D01*
X80340476Y-43084819D02*
X80340476Y-43941961D01*
X80340476Y-43941961D02*
X80388095Y-44037200D01*
X80388095Y-44037200D02*
X80483333Y-44084819D01*
X80483333Y-44084819D02*
X80578571Y-44084819D01*
X81054762Y-44084819D02*
X80959524Y-44037200D01*
X80959524Y-44037200D02*
X80911905Y-43989580D01*
X80911905Y-43989580D02*
X80864286Y-43894342D01*
X80864286Y-43894342D02*
X80864286Y-43608628D01*
X80864286Y-43608628D02*
X80911905Y-43513390D01*
X80911905Y-43513390D02*
X80959524Y-43465771D01*
X80959524Y-43465771D02*
X81054762Y-43418152D01*
X81054762Y-43418152D02*
X81197619Y-43418152D01*
X81197619Y-43418152D02*
X81292857Y-43465771D01*
X81292857Y-43465771D02*
X81340476Y-43513390D01*
X81340476Y-43513390D02*
X81388095Y-43608628D01*
X81388095Y-43608628D02*
X81388095Y-43894342D01*
X81388095Y-43894342D02*
X81340476Y-43989580D01*
X81340476Y-43989580D02*
X81292857Y-44037200D01*
X81292857Y-44037200D02*
X81197619Y-44084819D01*
X81197619Y-44084819D02*
X81054762Y-44084819D01*
X81816667Y-44084819D02*
X81816667Y-43418152D01*
X81816667Y-43608628D02*
X81864286Y-43513390D01*
X81864286Y-43513390D02*
X81911905Y-43465771D01*
X81911905Y-43465771D02*
X82007143Y-43418152D01*
X82007143Y-43418152D02*
X82102381Y-43418152D01*
X82959524Y-44084819D02*
X82388096Y-44084819D01*
X82673810Y-44084819D02*
X82673810Y-43084819D01*
X82673810Y-43084819D02*
X82578572Y-43227676D01*
X82578572Y-43227676D02*
X82483334Y-43322914D01*
X82483334Y-43322914D02*
X82388096Y-43370533D01*
X88285713Y-115454819D02*
X87952380Y-114978628D01*
X87714285Y-115454819D02*
X87714285Y-114454819D01*
X87714285Y-114454819D02*
X88095237Y-114454819D01*
X88095237Y-114454819D02*
X88190475Y-114502438D01*
X88190475Y-114502438D02*
X88238094Y-114550057D01*
X88238094Y-114550057D02*
X88285713Y-114645295D01*
X88285713Y-114645295D02*
X88285713Y-114788152D01*
X88285713Y-114788152D02*
X88238094Y-114883390D01*
X88238094Y-114883390D02*
X88190475Y-114931009D01*
X88190475Y-114931009D02*
X88095237Y-114978628D01*
X88095237Y-114978628D02*
X87714285Y-114978628D01*
X89095237Y-115407200D02*
X88999999Y-115454819D01*
X88999999Y-115454819D02*
X88809523Y-115454819D01*
X88809523Y-115454819D02*
X88714285Y-115407200D01*
X88714285Y-115407200D02*
X88666666Y-115311961D01*
X88666666Y-115311961D02*
X88666666Y-114931009D01*
X88666666Y-114931009D02*
X88714285Y-114835771D01*
X88714285Y-114835771D02*
X88809523Y-114788152D01*
X88809523Y-114788152D02*
X88999999Y-114788152D01*
X88999999Y-114788152D02*
X89095237Y-114835771D01*
X89095237Y-114835771D02*
X89142856Y-114931009D01*
X89142856Y-114931009D02*
X89142856Y-115026247D01*
X89142856Y-115026247D02*
X88666666Y-115121485D01*
X89714285Y-115454819D02*
X89619047Y-115407200D01*
X89619047Y-115407200D02*
X89571428Y-115311961D01*
X89571428Y-115311961D02*
X89571428Y-114454819D01*
X90523809Y-115454819D02*
X90523809Y-114931009D01*
X90523809Y-114931009D02*
X90476190Y-114835771D01*
X90476190Y-114835771D02*
X90380952Y-114788152D01*
X90380952Y-114788152D02*
X90190476Y-114788152D01*
X90190476Y-114788152D02*
X90095238Y-114835771D01*
X90523809Y-115407200D02*
X90428571Y-115454819D01*
X90428571Y-115454819D02*
X90190476Y-115454819D01*
X90190476Y-115454819D02*
X90095238Y-115407200D01*
X90095238Y-115407200D02*
X90047619Y-115311961D01*
X90047619Y-115311961D02*
X90047619Y-115216723D01*
X90047619Y-115216723D02*
X90095238Y-115121485D01*
X90095238Y-115121485D02*
X90190476Y-115073866D01*
X90190476Y-115073866D02*
X90428571Y-115073866D01*
X90428571Y-115073866D02*
X90523809Y-115026247D01*
X90904762Y-114788152D02*
X91142857Y-115454819D01*
X91380952Y-114788152D02*
X91142857Y-115454819D01*
X91142857Y-115454819D02*
X91047619Y-115692914D01*
X91047619Y-115692914D02*
X91000000Y-115740533D01*
X91000000Y-115740533D02*
X90904762Y-115788152D01*
X85356666Y-112084819D02*
X85023333Y-111608628D01*
X84785238Y-112084819D02*
X84785238Y-111084819D01*
X84785238Y-111084819D02*
X85166190Y-111084819D01*
X85166190Y-111084819D02*
X85261428Y-111132438D01*
X85261428Y-111132438D02*
X85309047Y-111180057D01*
X85309047Y-111180057D02*
X85356666Y-111275295D01*
X85356666Y-111275295D02*
X85356666Y-111418152D01*
X85356666Y-111418152D02*
X85309047Y-111513390D01*
X85309047Y-111513390D02*
X85261428Y-111561009D01*
X85261428Y-111561009D02*
X85166190Y-111608628D01*
X85166190Y-111608628D02*
X84785238Y-111608628D01*
X85785238Y-111561009D02*
X86118571Y-111561009D01*
X86261428Y-112084819D02*
X85785238Y-112084819D01*
X85785238Y-112084819D02*
X85785238Y-111084819D01*
X85785238Y-111084819D02*
X86261428Y-111084819D01*
X87023333Y-111561009D02*
X86690000Y-111561009D01*
X86690000Y-112084819D02*
X86690000Y-111084819D01*
X86690000Y-111084819D02*
X87166190Y-111084819D01*
X87690000Y-111084819D02*
X87690000Y-111322914D01*
X87451905Y-111227676D02*
X87690000Y-111322914D01*
X87690000Y-111322914D02*
X87928095Y-111227676D01*
X87547143Y-111513390D02*
X87690000Y-111322914D01*
X87690000Y-111322914D02*
X87832857Y-111513390D01*
X88451905Y-111084819D02*
X88451905Y-111322914D01*
X88213810Y-111227676D02*
X88451905Y-111322914D01*
X88451905Y-111322914D02*
X88690000Y-111227676D01*
X88309048Y-111513390D02*
X88451905Y-111322914D01*
X88451905Y-111322914D02*
X88594762Y-111513390D01*
X86550057Y-50761904D02*
X86502438Y-50714285D01*
X86502438Y-50714285D02*
X86454819Y-50619047D01*
X86454819Y-50619047D02*
X86454819Y-50380952D01*
X86454819Y-50380952D02*
X86502438Y-50285714D01*
X86502438Y-50285714D02*
X86550057Y-50238095D01*
X86550057Y-50238095D02*
X86645295Y-50190476D01*
X86645295Y-50190476D02*
X86740533Y-50190476D01*
X86740533Y-50190476D02*
X86883390Y-50238095D01*
X86883390Y-50238095D02*
X87454819Y-50809523D01*
X87454819Y-50809523D02*
X87454819Y-50190476D01*
X86454819Y-49571428D02*
X86454819Y-49476190D01*
X86454819Y-49476190D02*
X86502438Y-49380952D01*
X86502438Y-49380952D02*
X86550057Y-49333333D01*
X86550057Y-49333333D02*
X86645295Y-49285714D01*
X86645295Y-49285714D02*
X86835771Y-49238095D01*
X86835771Y-49238095D02*
X87073866Y-49238095D01*
X87073866Y-49238095D02*
X87264342Y-49285714D01*
X87264342Y-49285714D02*
X87359580Y-49333333D01*
X87359580Y-49333333D02*
X87407200Y-49380952D01*
X87407200Y-49380952D02*
X87454819Y-49476190D01*
X87454819Y-49476190D02*
X87454819Y-49571428D01*
X87454819Y-49571428D02*
X87407200Y-49666666D01*
X87407200Y-49666666D02*
X87359580Y-49714285D01*
X87359580Y-49714285D02*
X87264342Y-49761904D01*
X87264342Y-49761904D02*
X87073866Y-49809523D01*
X87073866Y-49809523D02*
X86835771Y-49809523D01*
X86835771Y-49809523D02*
X86645295Y-49761904D01*
X86645295Y-49761904D02*
X86550057Y-49714285D01*
X86550057Y-49714285D02*
X86502438Y-49666666D01*
X86502438Y-49666666D02*
X86454819Y-49571428D01*
X87454819Y-48809523D02*
X86454819Y-48809523D01*
X87454819Y-48238095D02*
X86883390Y-48666666D01*
X86454819Y-48238095D02*
X87026247Y-48809523D01*
D10*
X85247469Y-53809999D02*
X84904612Y-54049999D01*
X85247469Y-54221428D02*
X84527469Y-54221428D01*
X84527469Y-54221428D02*
X84527469Y-53947142D01*
X84527469Y-53947142D02*
X84561755Y-53878571D01*
X84561755Y-53878571D02*
X84596041Y-53844285D01*
X84596041Y-53844285D02*
X84664612Y-53809999D01*
X84664612Y-53809999D02*
X84767469Y-53809999D01*
X84767469Y-53809999D02*
X84836041Y-53844285D01*
X84836041Y-53844285D02*
X84870326Y-53878571D01*
X84870326Y-53878571D02*
X84904612Y-53947142D01*
X84904612Y-53947142D02*
X84904612Y-54221428D01*
X84767469Y-53192857D02*
X85247469Y-53192857D01*
X84493184Y-53364285D02*
X85007469Y-53535714D01*
X85007469Y-53535714D02*
X85007469Y-53089999D01*
D11*
X65534819Y-110190476D02*
X65534819Y-110761904D01*
X65534819Y-110476190D02*
X64534819Y-110476190D01*
X64534819Y-110476190D02*
X64677676Y-110571428D01*
X64677676Y-110571428D02*
X64772914Y-110666666D01*
X64772914Y-110666666D02*
X64820533Y-110761904D01*
X64534819Y-109571428D02*
X64534819Y-109476190D01*
X64534819Y-109476190D02*
X64582438Y-109380952D01*
X64582438Y-109380952D02*
X64630057Y-109333333D01*
X64630057Y-109333333D02*
X64725295Y-109285714D01*
X64725295Y-109285714D02*
X64915771Y-109238095D01*
X64915771Y-109238095D02*
X65153866Y-109238095D01*
X65153866Y-109238095D02*
X65344342Y-109285714D01*
X65344342Y-109285714D02*
X65439580Y-109333333D01*
X65439580Y-109333333D02*
X65487200Y-109380952D01*
X65487200Y-109380952D02*
X65534819Y-109476190D01*
X65534819Y-109476190D02*
X65534819Y-109571428D01*
X65534819Y-109571428D02*
X65487200Y-109666666D01*
X65487200Y-109666666D02*
X65439580Y-109714285D01*
X65439580Y-109714285D02*
X65344342Y-109761904D01*
X65344342Y-109761904D02*
X65153866Y-109809523D01*
X65153866Y-109809523D02*
X64915771Y-109809523D01*
X64915771Y-109809523D02*
X64725295Y-109761904D01*
X64725295Y-109761904D02*
X64630057Y-109714285D01*
X64630057Y-109714285D02*
X64582438Y-109666666D01*
X64582438Y-109666666D02*
X64534819Y-109571428D01*
X65534819Y-108809523D02*
X64534819Y-108809523D01*
X65534819Y-108238095D02*
X64963390Y-108666666D01*
X64534819Y-108238095D02*
X65106247Y-108809523D01*
D10*
X67327469Y-109962856D02*
X66984612Y-110202856D01*
X67327469Y-110374285D02*
X66607469Y-110374285D01*
X66607469Y-110374285D02*
X66607469Y-110099999D01*
X66607469Y-110099999D02*
X66641755Y-110031428D01*
X66641755Y-110031428D02*
X66676041Y-109997142D01*
X66676041Y-109997142D02*
X66744612Y-109962856D01*
X66744612Y-109962856D02*
X66847469Y-109962856D01*
X66847469Y-109962856D02*
X66916041Y-109997142D01*
X66916041Y-109997142D02*
X66950326Y-110031428D01*
X66950326Y-110031428D02*
X66984612Y-110099999D01*
X66984612Y-110099999D02*
X66984612Y-110374285D01*
X67327469Y-109277142D02*
X67327469Y-109688571D01*
X67327469Y-109482856D02*
X66607469Y-109482856D01*
X66607469Y-109482856D02*
X66710326Y-109551428D01*
X66710326Y-109551428D02*
X66778898Y-109619999D01*
X66778898Y-109619999D02*
X66813184Y-109688571D01*
X66676041Y-109002857D02*
X66641755Y-108968571D01*
X66641755Y-108968571D02*
X66607469Y-108900000D01*
X66607469Y-108900000D02*
X66607469Y-108728571D01*
X66607469Y-108728571D02*
X66641755Y-108660000D01*
X66641755Y-108660000D02*
X66676041Y-108625714D01*
X66676041Y-108625714D02*
X66744612Y-108591428D01*
X66744612Y-108591428D02*
X66813184Y-108591428D01*
X66813184Y-108591428D02*
X66916041Y-108625714D01*
X66916041Y-108625714D02*
X67327469Y-109037142D01*
X67327469Y-109037142D02*
X67327469Y-108591428D01*
D11*
X40481429Y-46454819D02*
X40481429Y-45454819D01*
X40481429Y-45454819D02*
X40719524Y-45454819D01*
X40719524Y-45454819D02*
X40862381Y-45502438D01*
X40862381Y-45502438D02*
X40957619Y-45597676D01*
X40957619Y-45597676D02*
X41005238Y-45692914D01*
X41005238Y-45692914D02*
X41052857Y-45883390D01*
X41052857Y-45883390D02*
X41052857Y-46026247D01*
X41052857Y-46026247D02*
X41005238Y-46216723D01*
X41005238Y-46216723D02*
X40957619Y-46311961D01*
X40957619Y-46311961D02*
X40862381Y-46407200D01*
X40862381Y-46407200D02*
X40719524Y-46454819D01*
X40719524Y-46454819D02*
X40481429Y-46454819D01*
X41481429Y-46454819D02*
X41481429Y-45454819D01*
X42529047Y-46454819D02*
X42195714Y-45978628D01*
X41957619Y-46454819D02*
X41957619Y-45454819D01*
X41957619Y-45454819D02*
X42338571Y-45454819D01*
X42338571Y-45454819D02*
X42433809Y-45502438D01*
X42433809Y-45502438D02*
X42481428Y-45550057D01*
X42481428Y-45550057D02*
X42529047Y-45645295D01*
X42529047Y-45645295D02*
X42529047Y-45788152D01*
X42529047Y-45788152D02*
X42481428Y-45883390D01*
X42481428Y-45883390D02*
X42433809Y-45931009D01*
X42433809Y-45931009D02*
X42338571Y-45978628D01*
X42338571Y-45978628D02*
X41957619Y-45978628D01*
X42719524Y-46550057D02*
X43481428Y-46550057D01*
X43719524Y-46454819D02*
X43719524Y-45454819D01*
X43719524Y-45454819D02*
X44100476Y-45454819D01*
X44100476Y-45454819D02*
X44195714Y-45502438D01*
X44195714Y-45502438D02*
X44243333Y-45550057D01*
X44243333Y-45550057D02*
X44290952Y-45645295D01*
X44290952Y-45645295D02*
X44290952Y-45788152D01*
X44290952Y-45788152D02*
X44243333Y-45883390D01*
X44243333Y-45883390D02*
X44195714Y-45931009D01*
X44195714Y-45931009D02*
X44100476Y-45978628D01*
X44100476Y-45978628D02*
X43719524Y-45978628D01*
X44624286Y-45454819D02*
X44862381Y-46454819D01*
X44862381Y-46454819D02*
X45052857Y-45740533D01*
X45052857Y-45740533D02*
X45243333Y-46454819D01*
X45243333Y-46454819D02*
X45481429Y-45454819D01*
X45862381Y-46454819D02*
X45862381Y-45454819D01*
X45862381Y-45454819D02*
X46195714Y-46169104D01*
X46195714Y-46169104D02*
X46529047Y-45454819D01*
X46529047Y-45454819D02*
X46529047Y-46454819D01*
X46767143Y-46550057D02*
X47529047Y-46550057D01*
X48290952Y-45502438D02*
X48195714Y-45454819D01*
X48195714Y-45454819D02*
X48052857Y-45454819D01*
X48052857Y-45454819D02*
X47910000Y-45502438D01*
X47910000Y-45502438D02*
X47814762Y-45597676D01*
X47814762Y-45597676D02*
X47767143Y-45692914D01*
X47767143Y-45692914D02*
X47719524Y-45883390D01*
X47719524Y-45883390D02*
X47719524Y-46026247D01*
X47719524Y-46026247D02*
X47767143Y-46216723D01*
X47767143Y-46216723D02*
X47814762Y-46311961D01*
X47814762Y-46311961D02*
X47910000Y-46407200D01*
X47910000Y-46407200D02*
X48052857Y-46454819D01*
X48052857Y-46454819D02*
X48148095Y-46454819D01*
X48148095Y-46454819D02*
X48290952Y-46407200D01*
X48290952Y-46407200D02*
X48338571Y-46359580D01*
X48338571Y-46359580D02*
X48338571Y-46026247D01*
X48338571Y-46026247D02*
X48148095Y-46026247D01*
X48767143Y-46454819D02*
X48767143Y-45454819D01*
X48767143Y-45454819D02*
X49338571Y-46454819D01*
X49338571Y-46454819D02*
X49338571Y-45454819D01*
X49814762Y-46454819D02*
X49814762Y-45454819D01*
X49814762Y-45454819D02*
X50052857Y-45454819D01*
X50052857Y-45454819D02*
X50195714Y-45502438D01*
X50195714Y-45502438D02*
X50290952Y-45597676D01*
X50290952Y-45597676D02*
X50338571Y-45692914D01*
X50338571Y-45692914D02*
X50386190Y-45883390D01*
X50386190Y-45883390D02*
X50386190Y-46026247D01*
X50386190Y-46026247D02*
X50338571Y-46216723D01*
X50338571Y-46216723D02*
X50290952Y-46311961D01*
X50290952Y-46311961D02*
X50195714Y-46407200D01*
X50195714Y-46407200D02*
X50052857Y-46454819D01*
X50052857Y-46454819D02*
X49814762Y-46454819D01*
X40457618Y-43989580D02*
X40409999Y-44037200D01*
X40409999Y-44037200D02*
X40267142Y-44084819D01*
X40267142Y-44084819D02*
X40171904Y-44084819D01*
X40171904Y-44084819D02*
X40029047Y-44037200D01*
X40029047Y-44037200D02*
X39933809Y-43941961D01*
X39933809Y-43941961D02*
X39886190Y-43846723D01*
X39886190Y-43846723D02*
X39838571Y-43656247D01*
X39838571Y-43656247D02*
X39838571Y-43513390D01*
X39838571Y-43513390D02*
X39886190Y-43322914D01*
X39886190Y-43322914D02*
X39933809Y-43227676D01*
X39933809Y-43227676D02*
X40029047Y-43132438D01*
X40029047Y-43132438D02*
X40171904Y-43084819D01*
X40171904Y-43084819D02*
X40267142Y-43084819D01*
X40267142Y-43084819D02*
X40409999Y-43132438D01*
X40409999Y-43132438D02*
X40457618Y-43180057D01*
X40790952Y-43418152D02*
X41029047Y-44084819D01*
X41267142Y-43418152D02*
X41029047Y-44084819D01*
X41029047Y-44084819D02*
X40933809Y-44322914D01*
X40933809Y-44322914D02*
X40886190Y-44370533D01*
X40886190Y-44370533D02*
X40790952Y-44418152D01*
X41505238Y-43418152D02*
X41886190Y-43418152D01*
X41648095Y-43084819D02*
X41648095Y-43941961D01*
X41648095Y-43941961D02*
X41695714Y-44037200D01*
X41695714Y-44037200D02*
X41790952Y-44084819D01*
X41790952Y-44084819D02*
X41886190Y-44084819D01*
X42219524Y-44084819D02*
X42219524Y-43418152D01*
X42219524Y-43608628D02*
X42267143Y-43513390D01*
X42267143Y-43513390D02*
X42314762Y-43465771D01*
X42314762Y-43465771D02*
X42410000Y-43418152D01*
X42410000Y-43418152D02*
X42505238Y-43418152D01*
X42981429Y-44084819D02*
X42886191Y-44037200D01*
X42886191Y-44037200D02*
X42838572Y-43989580D01*
X42838572Y-43989580D02*
X42790953Y-43894342D01*
X42790953Y-43894342D02*
X42790953Y-43608628D01*
X42790953Y-43608628D02*
X42838572Y-43513390D01*
X42838572Y-43513390D02*
X42886191Y-43465771D01*
X42886191Y-43465771D02*
X42981429Y-43418152D01*
X42981429Y-43418152D02*
X43124286Y-43418152D01*
X43124286Y-43418152D02*
X43219524Y-43465771D01*
X43219524Y-43465771D02*
X43267143Y-43513390D01*
X43267143Y-43513390D02*
X43314762Y-43608628D01*
X43314762Y-43608628D02*
X43314762Y-43894342D01*
X43314762Y-43894342D02*
X43267143Y-43989580D01*
X43267143Y-43989580D02*
X43219524Y-44037200D01*
X43219524Y-44037200D02*
X43124286Y-44084819D01*
X43124286Y-44084819D02*
X42981429Y-44084819D01*
X43743334Y-43418152D02*
X43743334Y-44084819D01*
X43743334Y-43513390D02*
X43790953Y-43465771D01*
X43790953Y-43465771D02*
X43886191Y-43418152D01*
X43886191Y-43418152D02*
X44029048Y-43418152D01*
X44029048Y-43418152D02*
X44124286Y-43465771D01*
X44124286Y-43465771D02*
X44171905Y-43561009D01*
X44171905Y-43561009D02*
X44171905Y-44084819D01*
X44410001Y-44180057D02*
X45171905Y-44180057D01*
X45410001Y-44084819D02*
X45410001Y-43084819D01*
X45410001Y-43084819D02*
X45743334Y-43799104D01*
X45743334Y-43799104D02*
X46076667Y-43084819D01*
X46076667Y-43084819D02*
X46076667Y-44084819D01*
X46552858Y-44084819D02*
X46552858Y-43084819D01*
X46552858Y-43084819D02*
X46790953Y-43084819D01*
X46790953Y-43084819D02*
X46933810Y-43132438D01*
X46933810Y-43132438D02*
X47029048Y-43227676D01*
X47029048Y-43227676D02*
X47076667Y-43322914D01*
X47076667Y-43322914D02*
X47124286Y-43513390D01*
X47124286Y-43513390D02*
X47124286Y-43656247D01*
X47124286Y-43656247D02*
X47076667Y-43846723D01*
X47076667Y-43846723D02*
X47029048Y-43941961D01*
X47029048Y-43941961D02*
X46933810Y-44037200D01*
X46933810Y-44037200D02*
X46790953Y-44084819D01*
X46790953Y-44084819D02*
X46552858Y-44084819D01*
X48076667Y-44084819D02*
X47505239Y-44084819D01*
X47790953Y-44084819D02*
X47790953Y-43084819D01*
X47790953Y-43084819D02*
X47695715Y-43227676D01*
X47695715Y-43227676D02*
X47600477Y-43322914D01*
X47600477Y-43322914D02*
X47505239Y-43370533D01*
X48695715Y-43084819D02*
X48790953Y-43084819D01*
X48790953Y-43084819D02*
X48886191Y-43132438D01*
X48886191Y-43132438D02*
X48933810Y-43180057D01*
X48933810Y-43180057D02*
X48981429Y-43275295D01*
X48981429Y-43275295D02*
X49029048Y-43465771D01*
X49029048Y-43465771D02*
X49029048Y-43703866D01*
X49029048Y-43703866D02*
X48981429Y-43894342D01*
X48981429Y-43894342D02*
X48933810Y-43989580D01*
X48933810Y-43989580D02*
X48886191Y-44037200D01*
X48886191Y-44037200D02*
X48790953Y-44084819D01*
X48790953Y-44084819D02*
X48695715Y-44084819D01*
X48695715Y-44084819D02*
X48600477Y-44037200D01*
X48600477Y-44037200D02*
X48552858Y-43989580D01*
X48552858Y-43989580D02*
X48505239Y-43894342D01*
X48505239Y-43894342D02*
X48457620Y-43703866D01*
X48457620Y-43703866D02*
X48457620Y-43465771D01*
X48457620Y-43465771D02*
X48505239Y-43275295D01*
X48505239Y-43275295D02*
X48552858Y-43180057D01*
X48552858Y-43180057D02*
X48600477Y-43132438D01*
X48600477Y-43132438D02*
X48695715Y-43084819D01*
X50029048Y-43989580D02*
X49981429Y-44037200D01*
X49981429Y-44037200D02*
X49838572Y-44084819D01*
X49838572Y-44084819D02*
X49743334Y-44084819D01*
X49743334Y-44084819D02*
X49600477Y-44037200D01*
X49600477Y-44037200D02*
X49505239Y-43941961D01*
X49505239Y-43941961D02*
X49457620Y-43846723D01*
X49457620Y-43846723D02*
X49410001Y-43656247D01*
X49410001Y-43656247D02*
X49410001Y-43513390D01*
X49410001Y-43513390D02*
X49457620Y-43322914D01*
X49457620Y-43322914D02*
X49505239Y-43227676D01*
X49505239Y-43227676D02*
X49600477Y-43132438D01*
X49600477Y-43132438D02*
X49743334Y-43084819D01*
X49743334Y-43084819D02*
X49838572Y-43084819D01*
X49838572Y-43084819D02*
X49981429Y-43132438D01*
X49981429Y-43132438D02*
X50029048Y-43180057D01*
X50981429Y-44084819D02*
X50410001Y-44084819D01*
X50695715Y-44084819D02*
X50695715Y-43084819D01*
X50695715Y-43084819D02*
X50600477Y-43227676D01*
X50600477Y-43227676D02*
X50505239Y-43322914D01*
X50505239Y-43322914D02*
X50410001Y-43370533D01*
X48729523Y-52854819D02*
X48158095Y-52854819D01*
X48443809Y-52854819D02*
X48443809Y-51854819D01*
X48443809Y-51854819D02*
X48348571Y-51997676D01*
X48348571Y-51997676D02*
X48253333Y-52092914D01*
X48253333Y-52092914D02*
X48158095Y-52140533D01*
X49348571Y-51854819D02*
X49443809Y-51854819D01*
X49443809Y-51854819D02*
X49539047Y-51902438D01*
X49539047Y-51902438D02*
X49586666Y-51950057D01*
X49586666Y-51950057D02*
X49634285Y-52045295D01*
X49634285Y-52045295D02*
X49681904Y-52235771D01*
X49681904Y-52235771D02*
X49681904Y-52473866D01*
X49681904Y-52473866D02*
X49634285Y-52664342D01*
X49634285Y-52664342D02*
X49586666Y-52759580D01*
X49586666Y-52759580D02*
X49539047Y-52807200D01*
X49539047Y-52807200D02*
X49443809Y-52854819D01*
X49443809Y-52854819D02*
X49348571Y-52854819D01*
X49348571Y-52854819D02*
X49253333Y-52807200D01*
X49253333Y-52807200D02*
X49205714Y-52759580D01*
X49205714Y-52759580D02*
X49158095Y-52664342D01*
X49158095Y-52664342D02*
X49110476Y-52473866D01*
X49110476Y-52473866D02*
X49110476Y-52235771D01*
X49110476Y-52235771D02*
X49158095Y-52045295D01*
X49158095Y-52045295D02*
X49205714Y-51950057D01*
X49205714Y-51950057D02*
X49253333Y-51902438D01*
X49253333Y-51902438D02*
X49348571Y-51854819D01*
X50110476Y-52854819D02*
X50110476Y-51854819D01*
X50681904Y-52854819D02*
X50253333Y-52283390D01*
X50681904Y-51854819D02*
X50110476Y-52426247D01*
D10*
X49300000Y-50807469D02*
X49060000Y-50464612D01*
X48888571Y-50807469D02*
X48888571Y-50087469D01*
X48888571Y-50087469D02*
X49162857Y-50087469D01*
X49162857Y-50087469D02*
X49231428Y-50121755D01*
X49231428Y-50121755D02*
X49265714Y-50156041D01*
X49265714Y-50156041D02*
X49300000Y-50224612D01*
X49300000Y-50224612D02*
X49300000Y-50327469D01*
X49300000Y-50327469D02*
X49265714Y-50396041D01*
X49265714Y-50396041D02*
X49231428Y-50430326D01*
X49231428Y-50430326D02*
X49162857Y-50464612D01*
X49162857Y-50464612D02*
X48888571Y-50464612D01*
X49540000Y-50087469D02*
X50020000Y-50087469D01*
X50020000Y-50087469D02*
X49711428Y-50807469D01*
D11*
X97550057Y-86285713D02*
X97502438Y-86238094D01*
X97502438Y-86238094D02*
X97454819Y-86142856D01*
X97454819Y-86142856D02*
X97454819Y-85904761D01*
X97454819Y-85904761D02*
X97502438Y-85809523D01*
X97502438Y-85809523D02*
X97550057Y-85761904D01*
X97550057Y-85761904D02*
X97645295Y-85714285D01*
X97645295Y-85714285D02*
X97740533Y-85714285D01*
X97740533Y-85714285D02*
X97883390Y-85761904D01*
X97883390Y-85761904D02*
X98454819Y-86333332D01*
X98454819Y-86333332D02*
X98454819Y-85714285D01*
X98454819Y-85285713D02*
X97454819Y-85285713D01*
X98454819Y-84714285D02*
X97883390Y-85142856D01*
X97454819Y-84714285D02*
X98026247Y-85285713D01*
D10*
X96247469Y-88442856D02*
X95904612Y-88682856D01*
X96247469Y-88854285D02*
X95527469Y-88854285D01*
X95527469Y-88854285D02*
X95527469Y-88579999D01*
X95527469Y-88579999D02*
X95561755Y-88511428D01*
X95561755Y-88511428D02*
X95596041Y-88477142D01*
X95596041Y-88477142D02*
X95664612Y-88442856D01*
X95664612Y-88442856D02*
X95767469Y-88442856D01*
X95767469Y-88442856D02*
X95836041Y-88477142D01*
X95836041Y-88477142D02*
X95870326Y-88511428D01*
X95870326Y-88511428D02*
X95904612Y-88579999D01*
X95904612Y-88579999D02*
X95904612Y-88854285D01*
X96247469Y-87757142D02*
X96247469Y-88168571D01*
X96247469Y-87962856D02*
X95527469Y-87962856D01*
X95527469Y-87962856D02*
X95630326Y-88031428D01*
X95630326Y-88031428D02*
X95698898Y-88099999D01*
X95698898Y-88099999D02*
X95733184Y-88168571D01*
X95767469Y-87140000D02*
X96247469Y-87140000D01*
X95493184Y-87311428D02*
X96007469Y-87482857D01*
X96007469Y-87482857D02*
X96007469Y-87037142D01*
D11*
X111258095Y-54133866D02*
X111305714Y-54086247D01*
X111305714Y-54086247D02*
X111400952Y-54038628D01*
X111400952Y-54038628D02*
X111591428Y-54133866D01*
X111591428Y-54133866D02*
X111686666Y-54086247D01*
X111686666Y-54086247D02*
X111734285Y-54038628D01*
X110758095Y-52014819D02*
X110758095Y-52824342D01*
X110758095Y-52824342D02*
X110805714Y-52919580D01*
X110805714Y-52919580D02*
X110853333Y-52967200D01*
X110853333Y-52967200D02*
X110948571Y-53014819D01*
X110948571Y-53014819D02*
X111139047Y-53014819D01*
X111139047Y-53014819D02*
X111234285Y-52967200D01*
X111234285Y-52967200D02*
X111281904Y-52919580D01*
X111281904Y-52919580D02*
X111329523Y-52824342D01*
X111329523Y-52824342D02*
X111329523Y-52014819D01*
X111710476Y-52014819D02*
X112329523Y-52014819D01*
X112329523Y-52014819D02*
X111996190Y-52395771D01*
X111996190Y-52395771D02*
X112139047Y-52395771D01*
X112139047Y-52395771D02*
X112234285Y-52443390D01*
X112234285Y-52443390D02*
X112281904Y-52491009D01*
X112281904Y-52491009D02*
X112329523Y-52586247D01*
X112329523Y-52586247D02*
X112329523Y-52824342D01*
X112329523Y-52824342D02*
X112281904Y-52919580D01*
X112281904Y-52919580D02*
X112234285Y-52967200D01*
X112234285Y-52967200D02*
X112139047Y-53014819D01*
X112139047Y-53014819D02*
X111853333Y-53014819D01*
X111853333Y-53014819D02*
X111758095Y-52967200D01*
X111758095Y-52967200D02*
X111710476Y-52919580D01*
X82454819Y-110190476D02*
X82454819Y-110761904D01*
X82454819Y-110476190D02*
X81454819Y-110476190D01*
X81454819Y-110476190D02*
X81597676Y-110571428D01*
X81597676Y-110571428D02*
X81692914Y-110666666D01*
X81692914Y-110666666D02*
X81740533Y-110761904D01*
X81454819Y-109571428D02*
X81454819Y-109476190D01*
X81454819Y-109476190D02*
X81502438Y-109380952D01*
X81502438Y-109380952D02*
X81550057Y-109333333D01*
X81550057Y-109333333D02*
X81645295Y-109285714D01*
X81645295Y-109285714D02*
X81835771Y-109238095D01*
X81835771Y-109238095D02*
X82073866Y-109238095D01*
X82073866Y-109238095D02*
X82264342Y-109285714D01*
X82264342Y-109285714D02*
X82359580Y-109333333D01*
X82359580Y-109333333D02*
X82407200Y-109380952D01*
X82407200Y-109380952D02*
X82454819Y-109476190D01*
X82454819Y-109476190D02*
X82454819Y-109571428D01*
X82454819Y-109571428D02*
X82407200Y-109666666D01*
X82407200Y-109666666D02*
X82359580Y-109714285D01*
X82359580Y-109714285D02*
X82264342Y-109761904D01*
X82264342Y-109761904D02*
X82073866Y-109809523D01*
X82073866Y-109809523D02*
X81835771Y-109809523D01*
X81835771Y-109809523D02*
X81645295Y-109761904D01*
X81645295Y-109761904D02*
X81550057Y-109714285D01*
X81550057Y-109714285D02*
X81502438Y-109666666D01*
X81502438Y-109666666D02*
X81454819Y-109571428D01*
X82454819Y-108809523D02*
X81454819Y-108809523D01*
X82454819Y-108238095D02*
X81883390Y-108666666D01*
X81454819Y-108238095D02*
X82026247Y-108809523D01*
D10*
X80327469Y-109962856D02*
X79984612Y-110202856D01*
X80327469Y-110374285D02*
X79607469Y-110374285D01*
X79607469Y-110374285D02*
X79607469Y-110099999D01*
X79607469Y-110099999D02*
X79641755Y-110031428D01*
X79641755Y-110031428D02*
X79676041Y-109997142D01*
X79676041Y-109997142D02*
X79744612Y-109962856D01*
X79744612Y-109962856D02*
X79847469Y-109962856D01*
X79847469Y-109962856D02*
X79916041Y-109997142D01*
X79916041Y-109997142D02*
X79950326Y-110031428D01*
X79950326Y-110031428D02*
X79984612Y-110099999D01*
X79984612Y-110099999D02*
X79984612Y-110374285D01*
X80327469Y-109277142D02*
X80327469Y-109688571D01*
X80327469Y-109482856D02*
X79607469Y-109482856D01*
X79607469Y-109482856D02*
X79710326Y-109551428D01*
X79710326Y-109551428D02*
X79778898Y-109619999D01*
X79778898Y-109619999D02*
X79813184Y-109688571D01*
X80327469Y-108591428D02*
X80327469Y-109002857D01*
X80327469Y-108797142D02*
X79607469Y-108797142D01*
X79607469Y-108797142D02*
X79710326Y-108865714D01*
X79710326Y-108865714D02*
X79778898Y-108934285D01*
X79778898Y-108934285D02*
X79813184Y-109002857D01*
D11*
X93454819Y-61694285D02*
X93454819Y-62265713D01*
X93454819Y-61979999D02*
X92454819Y-61979999D01*
X92454819Y-61979999D02*
X92597676Y-62075237D01*
X92597676Y-62075237D02*
X92692914Y-62170475D01*
X92692914Y-62170475D02*
X92740533Y-62265713D01*
X93454819Y-61265713D02*
X92454819Y-61265713D01*
X93454819Y-60694285D02*
X92883390Y-61122856D01*
X92454819Y-60694285D02*
X93026247Y-61265713D01*
D10*
X94457143Y-61807469D02*
X94217143Y-61464612D01*
X94045714Y-61807469D02*
X94045714Y-61087469D01*
X94045714Y-61087469D02*
X94320000Y-61087469D01*
X94320000Y-61087469D02*
X94388571Y-61121755D01*
X94388571Y-61121755D02*
X94422857Y-61156041D01*
X94422857Y-61156041D02*
X94457143Y-61224612D01*
X94457143Y-61224612D02*
X94457143Y-61327469D01*
X94457143Y-61327469D02*
X94422857Y-61396041D01*
X94422857Y-61396041D02*
X94388571Y-61430326D01*
X94388571Y-61430326D02*
X94320000Y-61464612D01*
X94320000Y-61464612D02*
X94045714Y-61464612D01*
X95142857Y-61807469D02*
X94731428Y-61807469D01*
X94937143Y-61807469D02*
X94937143Y-61087469D01*
X94937143Y-61087469D02*
X94868571Y-61190326D01*
X94868571Y-61190326D02*
X94800000Y-61258898D01*
X94800000Y-61258898D02*
X94731428Y-61293184D01*
X95794285Y-61087469D02*
X95451428Y-61087469D01*
X95451428Y-61087469D02*
X95417142Y-61430326D01*
X95417142Y-61430326D02*
X95451428Y-61396041D01*
X95451428Y-61396041D02*
X95520000Y-61361755D01*
X95520000Y-61361755D02*
X95691428Y-61361755D01*
X95691428Y-61361755D02*
X95760000Y-61396041D01*
X95760000Y-61396041D02*
X95794285Y-61430326D01*
X95794285Y-61430326D02*
X95828571Y-61498898D01*
X95828571Y-61498898D02*
X95828571Y-61670326D01*
X95828571Y-61670326D02*
X95794285Y-61738898D01*
X95794285Y-61738898D02*
X95760000Y-61773184D01*
X95760000Y-61773184D02*
X95691428Y-61807469D01*
X95691428Y-61807469D02*
X95520000Y-61807469D01*
X95520000Y-61807469D02*
X95451428Y-61773184D01*
X95451428Y-61773184D02*
X95417142Y-61738898D01*
D11*
X64896904Y-84606133D02*
X64849285Y-84653752D01*
X64849285Y-84653752D02*
X64754047Y-84701371D01*
X64754047Y-84701371D02*
X64563571Y-84606133D01*
X64563571Y-84606133D02*
X64468333Y-84653752D01*
X64468333Y-84653752D02*
X64420714Y-84701371D01*
X60261904Y-86545180D02*
X60261904Y-85735657D01*
X60261904Y-85735657D02*
X60214285Y-85640419D01*
X60214285Y-85640419D02*
X60166666Y-85592800D01*
X60166666Y-85592800D02*
X60071428Y-85545180D01*
X60071428Y-85545180D02*
X59880952Y-85545180D01*
X59880952Y-85545180D02*
X59785714Y-85592800D01*
X59785714Y-85592800D02*
X59738095Y-85640419D01*
X59738095Y-85640419D02*
X59690476Y-85735657D01*
X59690476Y-85735657D02*
X59690476Y-86545180D01*
X58690476Y-85545180D02*
X59261904Y-85545180D01*
X58976190Y-85545180D02*
X58976190Y-86545180D01*
X58976190Y-86545180D02*
X59071428Y-86402323D01*
X59071428Y-86402323D02*
X59166666Y-86307085D01*
X59166666Y-86307085D02*
X59261904Y-86259466D01*
X113181904Y-84406133D02*
X113134285Y-84453752D01*
X113134285Y-84453752D02*
X113039047Y-84501371D01*
X113039047Y-84501371D02*
X112848571Y-84406133D01*
X112848571Y-84406133D02*
X112753333Y-84453752D01*
X112753333Y-84453752D02*
X112705714Y-84501371D01*
X113681904Y-83525180D02*
X113681904Y-82715657D01*
X113681904Y-82715657D02*
X113634285Y-82620419D01*
X113634285Y-82620419D02*
X113586666Y-82572800D01*
X113586666Y-82572800D02*
X113491428Y-82525180D01*
X113491428Y-82525180D02*
X113300952Y-82525180D01*
X113300952Y-82525180D02*
X113205714Y-82572800D01*
X113205714Y-82572800D02*
X113158095Y-82620419D01*
X113158095Y-82620419D02*
X113110476Y-82715657D01*
X113110476Y-82715657D02*
X113110476Y-83525180D01*
X112205714Y-83191847D02*
X112205714Y-82525180D01*
X112443809Y-83572800D02*
X112681904Y-82858514D01*
X112681904Y-82858514D02*
X112062857Y-82858514D01*
X67050057Y-57761904D02*
X67002438Y-57714285D01*
X67002438Y-57714285D02*
X66954819Y-57619047D01*
X66954819Y-57619047D02*
X66954819Y-57380952D01*
X66954819Y-57380952D02*
X67002438Y-57285714D01*
X67002438Y-57285714D02*
X67050057Y-57238095D01*
X67050057Y-57238095D02*
X67145295Y-57190476D01*
X67145295Y-57190476D02*
X67240533Y-57190476D01*
X67240533Y-57190476D02*
X67383390Y-57238095D01*
X67383390Y-57238095D02*
X67954819Y-57809523D01*
X67954819Y-57809523D02*
X67954819Y-57190476D01*
X66954819Y-56571428D02*
X66954819Y-56476190D01*
X66954819Y-56476190D02*
X67002438Y-56380952D01*
X67002438Y-56380952D02*
X67050057Y-56333333D01*
X67050057Y-56333333D02*
X67145295Y-56285714D01*
X67145295Y-56285714D02*
X67335771Y-56238095D01*
X67335771Y-56238095D02*
X67573866Y-56238095D01*
X67573866Y-56238095D02*
X67764342Y-56285714D01*
X67764342Y-56285714D02*
X67859580Y-56333333D01*
X67859580Y-56333333D02*
X67907200Y-56380952D01*
X67907200Y-56380952D02*
X67954819Y-56476190D01*
X67954819Y-56476190D02*
X67954819Y-56571428D01*
X67954819Y-56571428D02*
X67907200Y-56666666D01*
X67907200Y-56666666D02*
X67859580Y-56714285D01*
X67859580Y-56714285D02*
X67764342Y-56761904D01*
X67764342Y-56761904D02*
X67573866Y-56809523D01*
X67573866Y-56809523D02*
X67335771Y-56809523D01*
X67335771Y-56809523D02*
X67145295Y-56761904D01*
X67145295Y-56761904D02*
X67050057Y-56714285D01*
X67050057Y-56714285D02*
X67002438Y-56666666D01*
X67002438Y-56666666D02*
X66954819Y-56571428D01*
X67954819Y-55809523D02*
X66954819Y-55809523D01*
X67954819Y-55238095D02*
X67383390Y-55666666D01*
X66954819Y-55238095D02*
X67526247Y-55809523D01*
D10*
X65747469Y-54099999D02*
X65404612Y-54339999D01*
X65747469Y-54511428D02*
X65027469Y-54511428D01*
X65027469Y-54511428D02*
X65027469Y-54237142D01*
X65027469Y-54237142D02*
X65061755Y-54168571D01*
X65061755Y-54168571D02*
X65096041Y-54134285D01*
X65096041Y-54134285D02*
X65164612Y-54099999D01*
X65164612Y-54099999D02*
X65267469Y-54099999D01*
X65267469Y-54099999D02*
X65336041Y-54134285D01*
X65336041Y-54134285D02*
X65370326Y-54168571D01*
X65370326Y-54168571D02*
X65404612Y-54237142D01*
X65404612Y-54237142D02*
X65404612Y-54511428D01*
X65096041Y-53825714D02*
X65061755Y-53791428D01*
X65061755Y-53791428D02*
X65027469Y-53722857D01*
X65027469Y-53722857D02*
X65027469Y-53551428D01*
X65027469Y-53551428D02*
X65061755Y-53482857D01*
X65061755Y-53482857D02*
X65096041Y-53448571D01*
X65096041Y-53448571D02*
X65164612Y-53414285D01*
X65164612Y-53414285D02*
X65233184Y-53414285D01*
X65233184Y-53414285D02*
X65336041Y-53448571D01*
X65336041Y-53448571D02*
X65747469Y-53859999D01*
X65747469Y-53859999D02*
X65747469Y-53414285D01*
D11*
X69198095Y-105149104D02*
X69674285Y-105149104D01*
X69102857Y-105434819D02*
X69436190Y-104434819D01*
X69436190Y-104434819D02*
X69769523Y-105434819D01*
X70102857Y-105434819D02*
X70102857Y-104434819D01*
X70102857Y-104434819D02*
X70674285Y-105434819D01*
X70674285Y-105434819D02*
X70674285Y-104434819D01*
X71674285Y-105434819D02*
X71102857Y-105434819D01*
X71388571Y-105434819D02*
X71388571Y-104434819D01*
X71388571Y-104434819D02*
X71293333Y-104577676D01*
X71293333Y-104577676D02*
X71198095Y-104672914D01*
X71198095Y-104672914D02*
X71102857Y-104720533D01*
X71864762Y-105530057D02*
X72626666Y-105530057D01*
X72864762Y-105434819D02*
X72864762Y-104434819D01*
X73340952Y-105434819D02*
X73340952Y-104434819D01*
X73340952Y-104434819D02*
X73912380Y-105434819D01*
X73912380Y-105434819D02*
X73912380Y-104434819D01*
X74912380Y-105434819D02*
X74340952Y-105434819D01*
X74626666Y-105434819D02*
X74626666Y-104434819D01*
X74626666Y-104434819D02*
X74531428Y-104577676D01*
X74531428Y-104577676D02*
X74436190Y-104672914D01*
X74436190Y-104672914D02*
X74340952Y-104720533D01*
X75102857Y-105530057D02*
X75864761Y-105530057D01*
X76626666Y-104482438D02*
X76531428Y-104434819D01*
X76531428Y-104434819D02*
X76388571Y-104434819D01*
X76388571Y-104434819D02*
X76245714Y-104482438D01*
X76245714Y-104482438D02*
X76150476Y-104577676D01*
X76150476Y-104577676D02*
X76102857Y-104672914D01*
X76102857Y-104672914D02*
X76055238Y-104863390D01*
X76055238Y-104863390D02*
X76055238Y-105006247D01*
X76055238Y-105006247D02*
X76102857Y-105196723D01*
X76102857Y-105196723D02*
X76150476Y-105291961D01*
X76150476Y-105291961D02*
X76245714Y-105387200D01*
X76245714Y-105387200D02*
X76388571Y-105434819D01*
X76388571Y-105434819D02*
X76483809Y-105434819D01*
X76483809Y-105434819D02*
X76626666Y-105387200D01*
X76626666Y-105387200D02*
X76674285Y-105339580D01*
X76674285Y-105339580D02*
X76674285Y-105006247D01*
X76674285Y-105006247D02*
X76483809Y-105006247D01*
X77102857Y-105434819D02*
X77102857Y-104434819D01*
X77102857Y-104434819D02*
X77674285Y-105434819D01*
X77674285Y-105434819D02*
X77674285Y-104434819D01*
X78150476Y-105434819D02*
X78150476Y-104434819D01*
X78150476Y-104434819D02*
X78388571Y-104434819D01*
X78388571Y-104434819D02*
X78531428Y-104482438D01*
X78531428Y-104482438D02*
X78626666Y-104577676D01*
X78626666Y-104577676D02*
X78674285Y-104672914D01*
X78674285Y-104672914D02*
X78721904Y-104863390D01*
X78721904Y-104863390D02*
X78721904Y-105006247D01*
X78721904Y-105006247D02*
X78674285Y-105196723D01*
X78674285Y-105196723D02*
X78626666Y-105291961D01*
X78626666Y-105291961D02*
X78531428Y-105387200D01*
X78531428Y-105387200D02*
X78388571Y-105434819D01*
X78388571Y-105434819D02*
X78150476Y-105434819D01*
X69269523Y-107138152D02*
X69650475Y-107138152D01*
X69412380Y-107804819D02*
X69412380Y-106947676D01*
X69412380Y-106947676D02*
X69459999Y-106852438D01*
X69459999Y-106852438D02*
X69555237Y-106804819D01*
X69555237Y-106804819D02*
X69650475Y-106804819D01*
X70126666Y-107804819D02*
X70031428Y-107757200D01*
X70031428Y-107757200D02*
X69983809Y-107709580D01*
X69983809Y-107709580D02*
X69936190Y-107614342D01*
X69936190Y-107614342D02*
X69936190Y-107328628D01*
X69936190Y-107328628D02*
X69983809Y-107233390D01*
X69983809Y-107233390D02*
X70031428Y-107185771D01*
X70031428Y-107185771D02*
X70126666Y-107138152D01*
X70126666Y-107138152D02*
X70269523Y-107138152D01*
X70269523Y-107138152D02*
X70364761Y-107185771D01*
X70364761Y-107185771D02*
X70412380Y-107233390D01*
X70412380Y-107233390D02*
X70459999Y-107328628D01*
X70459999Y-107328628D02*
X70459999Y-107614342D01*
X70459999Y-107614342D02*
X70412380Y-107709580D01*
X70412380Y-107709580D02*
X70364761Y-107757200D01*
X70364761Y-107757200D02*
X70269523Y-107804819D01*
X70269523Y-107804819D02*
X70126666Y-107804819D01*
X71031428Y-107804819D02*
X70936190Y-107757200D01*
X70936190Y-107757200D02*
X70888571Y-107709580D01*
X70888571Y-107709580D02*
X70840952Y-107614342D01*
X70840952Y-107614342D02*
X70840952Y-107328628D01*
X70840952Y-107328628D02*
X70888571Y-107233390D01*
X70888571Y-107233390D02*
X70936190Y-107185771D01*
X70936190Y-107185771D02*
X71031428Y-107138152D01*
X71031428Y-107138152D02*
X71174285Y-107138152D01*
X71174285Y-107138152D02*
X71269523Y-107185771D01*
X71269523Y-107185771D02*
X71317142Y-107233390D01*
X71317142Y-107233390D02*
X71364761Y-107328628D01*
X71364761Y-107328628D02*
X71364761Y-107614342D01*
X71364761Y-107614342D02*
X71317142Y-107709580D01*
X71317142Y-107709580D02*
X71269523Y-107757200D01*
X71269523Y-107757200D02*
X71174285Y-107804819D01*
X71174285Y-107804819D02*
X71031428Y-107804819D01*
X71650476Y-107138152D02*
X72031428Y-107138152D01*
X71793333Y-106804819D02*
X71793333Y-107661961D01*
X71793333Y-107661961D02*
X71840952Y-107757200D01*
X71840952Y-107757200D02*
X71936190Y-107804819D01*
X71936190Y-107804819D02*
X72031428Y-107804819D01*
X72126667Y-107900057D02*
X72888571Y-107900057D01*
X73126667Y-107804819D02*
X73126667Y-106804819D01*
X73126667Y-106804819D02*
X73460000Y-107519104D01*
X73460000Y-107519104D02*
X73793333Y-106804819D01*
X73793333Y-106804819D02*
X73793333Y-107804819D01*
X74412381Y-107804819D02*
X74317143Y-107757200D01*
X74317143Y-107757200D02*
X74269524Y-107709580D01*
X74269524Y-107709580D02*
X74221905Y-107614342D01*
X74221905Y-107614342D02*
X74221905Y-107328628D01*
X74221905Y-107328628D02*
X74269524Y-107233390D01*
X74269524Y-107233390D02*
X74317143Y-107185771D01*
X74317143Y-107185771D02*
X74412381Y-107138152D01*
X74412381Y-107138152D02*
X74555238Y-107138152D01*
X74555238Y-107138152D02*
X74650476Y-107185771D01*
X74650476Y-107185771D02*
X74698095Y-107233390D01*
X74698095Y-107233390D02*
X74745714Y-107328628D01*
X74745714Y-107328628D02*
X74745714Y-107614342D01*
X74745714Y-107614342D02*
X74698095Y-107709580D01*
X74698095Y-107709580D02*
X74650476Y-107757200D01*
X74650476Y-107757200D02*
X74555238Y-107804819D01*
X74555238Y-107804819D02*
X74412381Y-107804819D01*
X75031429Y-107138152D02*
X75412381Y-107138152D01*
X75174286Y-106804819D02*
X75174286Y-107661961D01*
X75174286Y-107661961D02*
X75221905Y-107757200D01*
X75221905Y-107757200D02*
X75317143Y-107804819D01*
X75317143Y-107804819D02*
X75412381Y-107804819D01*
X75888572Y-107804819D02*
X75793334Y-107757200D01*
X75793334Y-107757200D02*
X75745715Y-107709580D01*
X75745715Y-107709580D02*
X75698096Y-107614342D01*
X75698096Y-107614342D02*
X75698096Y-107328628D01*
X75698096Y-107328628D02*
X75745715Y-107233390D01*
X75745715Y-107233390D02*
X75793334Y-107185771D01*
X75793334Y-107185771D02*
X75888572Y-107138152D01*
X75888572Y-107138152D02*
X76031429Y-107138152D01*
X76031429Y-107138152D02*
X76126667Y-107185771D01*
X76126667Y-107185771D02*
X76174286Y-107233390D01*
X76174286Y-107233390D02*
X76221905Y-107328628D01*
X76221905Y-107328628D02*
X76221905Y-107614342D01*
X76221905Y-107614342D02*
X76174286Y-107709580D01*
X76174286Y-107709580D02*
X76126667Y-107757200D01*
X76126667Y-107757200D02*
X76031429Y-107804819D01*
X76031429Y-107804819D02*
X75888572Y-107804819D01*
X76650477Y-107804819D02*
X76650477Y-107138152D01*
X76650477Y-107328628D02*
X76698096Y-107233390D01*
X76698096Y-107233390D02*
X76745715Y-107185771D01*
X76745715Y-107185771D02*
X76840953Y-107138152D01*
X76840953Y-107138152D02*
X76936191Y-107138152D01*
X77031430Y-107900057D02*
X77793334Y-107900057D01*
X77983811Y-106900057D02*
X78031430Y-106852438D01*
X78031430Y-106852438D02*
X78126668Y-106804819D01*
X78126668Y-106804819D02*
X78364763Y-106804819D01*
X78364763Y-106804819D02*
X78460001Y-106852438D01*
X78460001Y-106852438D02*
X78507620Y-106900057D01*
X78507620Y-106900057D02*
X78555239Y-106995295D01*
X78555239Y-106995295D02*
X78555239Y-107090533D01*
X78555239Y-107090533D02*
X78507620Y-107233390D01*
X78507620Y-107233390D02*
X77936192Y-107804819D01*
X77936192Y-107804819D02*
X78555239Y-107804819D01*
X86550057Y-67265713D02*
X86502438Y-67218094D01*
X86502438Y-67218094D02*
X86454819Y-67122856D01*
X86454819Y-67122856D02*
X86454819Y-66884761D01*
X86454819Y-66884761D02*
X86502438Y-66789523D01*
X86502438Y-66789523D02*
X86550057Y-66741904D01*
X86550057Y-66741904D02*
X86645295Y-66694285D01*
X86645295Y-66694285D02*
X86740533Y-66694285D01*
X86740533Y-66694285D02*
X86883390Y-66741904D01*
X86883390Y-66741904D02*
X87454819Y-67313332D01*
X87454819Y-67313332D02*
X87454819Y-66694285D01*
X87454819Y-66265713D02*
X86454819Y-66265713D01*
X87454819Y-65694285D02*
X86883390Y-66122856D01*
X86454819Y-65694285D02*
X87026247Y-66265713D01*
D10*
X89247469Y-66942856D02*
X88904612Y-67182856D01*
X89247469Y-67354285D02*
X88527469Y-67354285D01*
X88527469Y-67354285D02*
X88527469Y-67079999D01*
X88527469Y-67079999D02*
X88561755Y-67011428D01*
X88561755Y-67011428D02*
X88596041Y-66977142D01*
X88596041Y-66977142D02*
X88664612Y-66942856D01*
X88664612Y-66942856D02*
X88767469Y-66942856D01*
X88767469Y-66942856D02*
X88836041Y-66977142D01*
X88836041Y-66977142D02*
X88870326Y-67011428D01*
X88870326Y-67011428D02*
X88904612Y-67079999D01*
X88904612Y-67079999D02*
X88904612Y-67354285D01*
X89247469Y-66257142D02*
X89247469Y-66668571D01*
X89247469Y-66462856D02*
X88527469Y-66462856D01*
X88527469Y-66462856D02*
X88630326Y-66531428D01*
X88630326Y-66531428D02*
X88698898Y-66599999D01*
X88698898Y-66599999D02*
X88733184Y-66668571D01*
X88527469Y-65640000D02*
X88527469Y-65777142D01*
X88527469Y-65777142D02*
X88561755Y-65845714D01*
X88561755Y-65845714D02*
X88596041Y-65880000D01*
X88596041Y-65880000D02*
X88698898Y-65948571D01*
X88698898Y-65948571D02*
X88836041Y-65982857D01*
X88836041Y-65982857D02*
X89110326Y-65982857D01*
X89110326Y-65982857D02*
X89178898Y-65948571D01*
X89178898Y-65948571D02*
X89213184Y-65914285D01*
X89213184Y-65914285D02*
X89247469Y-65845714D01*
X89247469Y-65845714D02*
X89247469Y-65708571D01*
X89247469Y-65708571D02*
X89213184Y-65640000D01*
X89213184Y-65640000D02*
X89178898Y-65605714D01*
X89178898Y-65605714D02*
X89110326Y-65571428D01*
X89110326Y-65571428D02*
X88938898Y-65571428D01*
X88938898Y-65571428D02*
X88870326Y-65605714D01*
X88870326Y-65605714D02*
X88836041Y-65640000D01*
X88836041Y-65640000D02*
X88801755Y-65708571D01*
X88801755Y-65708571D02*
X88801755Y-65845714D01*
X88801755Y-65845714D02*
X88836041Y-65914285D01*
X88836041Y-65914285D02*
X88870326Y-65948571D01*
X88870326Y-65948571D02*
X88938898Y-65982857D01*
D11*
X91954819Y-100694285D02*
X91954819Y-101265713D01*
X91954819Y-100979999D02*
X90954819Y-100979999D01*
X90954819Y-100979999D02*
X91097676Y-101075237D01*
X91097676Y-101075237D02*
X91192914Y-101170475D01*
X91192914Y-101170475D02*
X91240533Y-101265713D01*
X91954819Y-100265713D02*
X90954819Y-100265713D01*
X91954819Y-99694285D02*
X91383390Y-100122856D01*
X90954819Y-99694285D02*
X91526247Y-100265713D01*
D10*
X93827469Y-100942856D02*
X93484612Y-101182856D01*
X93827469Y-101354285D02*
X93107469Y-101354285D01*
X93107469Y-101354285D02*
X93107469Y-101079999D01*
X93107469Y-101079999D02*
X93141755Y-101011428D01*
X93141755Y-101011428D02*
X93176041Y-100977142D01*
X93176041Y-100977142D02*
X93244612Y-100942856D01*
X93244612Y-100942856D02*
X93347469Y-100942856D01*
X93347469Y-100942856D02*
X93416041Y-100977142D01*
X93416041Y-100977142D02*
X93450326Y-101011428D01*
X93450326Y-101011428D02*
X93484612Y-101079999D01*
X93484612Y-101079999D02*
X93484612Y-101354285D01*
X93827469Y-100257142D02*
X93827469Y-100668571D01*
X93827469Y-100462856D02*
X93107469Y-100462856D01*
X93107469Y-100462856D02*
X93210326Y-100531428D01*
X93210326Y-100531428D02*
X93278898Y-100599999D01*
X93278898Y-100599999D02*
X93313184Y-100668571D01*
X93107469Y-100017142D02*
X93107469Y-99571428D01*
X93107469Y-99571428D02*
X93381755Y-99811428D01*
X93381755Y-99811428D02*
X93381755Y-99708571D01*
X93381755Y-99708571D02*
X93416041Y-99640000D01*
X93416041Y-99640000D02*
X93450326Y-99605714D01*
X93450326Y-99605714D02*
X93518898Y-99571428D01*
X93518898Y-99571428D02*
X93690326Y-99571428D01*
X93690326Y-99571428D02*
X93758898Y-99605714D01*
X93758898Y-99605714D02*
X93793184Y-99640000D01*
X93793184Y-99640000D02*
X93827469Y-99708571D01*
X93827469Y-99708571D02*
X93827469Y-99914285D01*
X93827469Y-99914285D02*
X93793184Y-99982857D01*
X93793184Y-99982857D02*
X93758898Y-100017142D01*
D11*
X76550057Y-51261904D02*
X76502438Y-51214285D01*
X76502438Y-51214285D02*
X76454819Y-51119047D01*
X76454819Y-51119047D02*
X76454819Y-50880952D01*
X76454819Y-50880952D02*
X76502438Y-50785714D01*
X76502438Y-50785714D02*
X76550057Y-50738095D01*
X76550057Y-50738095D02*
X76645295Y-50690476D01*
X76645295Y-50690476D02*
X76740533Y-50690476D01*
X76740533Y-50690476D02*
X76883390Y-50738095D01*
X76883390Y-50738095D02*
X77454819Y-51309523D01*
X77454819Y-51309523D02*
X77454819Y-50690476D01*
X76454819Y-50071428D02*
X76454819Y-49976190D01*
X76454819Y-49976190D02*
X76502438Y-49880952D01*
X76502438Y-49880952D02*
X76550057Y-49833333D01*
X76550057Y-49833333D02*
X76645295Y-49785714D01*
X76645295Y-49785714D02*
X76835771Y-49738095D01*
X76835771Y-49738095D02*
X77073866Y-49738095D01*
X77073866Y-49738095D02*
X77264342Y-49785714D01*
X77264342Y-49785714D02*
X77359580Y-49833333D01*
X77359580Y-49833333D02*
X77407200Y-49880952D01*
X77407200Y-49880952D02*
X77454819Y-49976190D01*
X77454819Y-49976190D02*
X77454819Y-50071428D01*
X77454819Y-50071428D02*
X77407200Y-50166666D01*
X77407200Y-50166666D02*
X77359580Y-50214285D01*
X77359580Y-50214285D02*
X77264342Y-50261904D01*
X77264342Y-50261904D02*
X77073866Y-50309523D01*
X77073866Y-50309523D02*
X76835771Y-50309523D01*
X76835771Y-50309523D02*
X76645295Y-50261904D01*
X76645295Y-50261904D02*
X76550057Y-50214285D01*
X76550057Y-50214285D02*
X76502438Y-50166666D01*
X76502438Y-50166666D02*
X76454819Y-50071428D01*
X77454819Y-49309523D02*
X76454819Y-49309523D01*
X77454819Y-48738095D02*
X76883390Y-49166666D01*
X76454819Y-48738095D02*
X77026247Y-49309523D01*
D10*
X71747469Y-53809999D02*
X71404612Y-54049999D01*
X71747469Y-54221428D02*
X71027469Y-54221428D01*
X71027469Y-54221428D02*
X71027469Y-53947142D01*
X71027469Y-53947142D02*
X71061755Y-53878571D01*
X71061755Y-53878571D02*
X71096041Y-53844285D01*
X71096041Y-53844285D02*
X71164612Y-53809999D01*
X71164612Y-53809999D02*
X71267469Y-53809999D01*
X71267469Y-53809999D02*
X71336041Y-53844285D01*
X71336041Y-53844285D02*
X71370326Y-53878571D01*
X71370326Y-53878571D02*
X71404612Y-53947142D01*
X71404612Y-53947142D02*
X71404612Y-54221428D01*
X71267469Y-53192857D02*
X71747469Y-53192857D01*
X70993184Y-53364285D02*
X71507469Y-53535714D01*
X71507469Y-53535714D02*
X71507469Y-53089999D01*
D11*
X70809523Y-48454819D02*
X70238095Y-48454819D01*
X70523809Y-48454819D02*
X70523809Y-47454819D01*
X70523809Y-47454819D02*
X70428571Y-47597676D01*
X70428571Y-47597676D02*
X70333333Y-47692914D01*
X70333333Y-47692914D02*
X70238095Y-47740533D01*
X71428571Y-47454819D02*
X71523809Y-47454819D01*
X71523809Y-47454819D02*
X71619047Y-47502438D01*
X71619047Y-47502438D02*
X71666666Y-47550057D01*
X71666666Y-47550057D02*
X71714285Y-47645295D01*
X71714285Y-47645295D02*
X71761904Y-47835771D01*
X71761904Y-47835771D02*
X71761904Y-48073866D01*
X71761904Y-48073866D02*
X71714285Y-48264342D01*
X71714285Y-48264342D02*
X71666666Y-48359580D01*
X71666666Y-48359580D02*
X71619047Y-48407200D01*
X71619047Y-48407200D02*
X71523809Y-48454819D01*
X71523809Y-48454819D02*
X71428571Y-48454819D01*
X71428571Y-48454819D02*
X71333333Y-48407200D01*
X71333333Y-48407200D02*
X71285714Y-48359580D01*
X71285714Y-48359580D02*
X71238095Y-48264342D01*
X71238095Y-48264342D02*
X71190476Y-48073866D01*
X71190476Y-48073866D02*
X71190476Y-47835771D01*
X71190476Y-47835771D02*
X71238095Y-47645295D01*
X71238095Y-47645295D02*
X71285714Y-47550057D01*
X71285714Y-47550057D02*
X71333333Y-47502438D01*
X71333333Y-47502438D02*
X71428571Y-47454819D01*
X72190476Y-48454819D02*
X72190476Y-47454819D01*
X72761904Y-48454819D02*
X72333333Y-47883390D01*
X72761904Y-47454819D02*
X72190476Y-48026247D01*
D10*
X75247469Y-53809999D02*
X74904612Y-54049999D01*
X75247469Y-54221428D02*
X74527469Y-54221428D01*
X74527469Y-54221428D02*
X74527469Y-53947142D01*
X74527469Y-53947142D02*
X74561755Y-53878571D01*
X74561755Y-53878571D02*
X74596041Y-53844285D01*
X74596041Y-53844285D02*
X74664612Y-53809999D01*
X74664612Y-53809999D02*
X74767469Y-53809999D01*
X74767469Y-53809999D02*
X74836041Y-53844285D01*
X74836041Y-53844285D02*
X74870326Y-53878571D01*
X74870326Y-53878571D02*
X74904612Y-53947142D01*
X74904612Y-53947142D02*
X74904612Y-54221428D01*
X75247469Y-53124285D02*
X75247469Y-53535714D01*
X75247469Y-53329999D02*
X74527469Y-53329999D01*
X74527469Y-53329999D02*
X74630326Y-53398571D01*
X74630326Y-53398571D02*
X74698898Y-53467142D01*
X74698898Y-53467142D02*
X74733184Y-53535714D01*
D11*
X63454819Y-109690476D02*
X63454819Y-110261904D01*
X63454819Y-109976190D02*
X62454819Y-109976190D01*
X62454819Y-109976190D02*
X62597676Y-110071428D01*
X62597676Y-110071428D02*
X62692914Y-110166666D01*
X62692914Y-110166666D02*
X62740533Y-110261904D01*
X62454819Y-109071428D02*
X62454819Y-108976190D01*
X62454819Y-108976190D02*
X62502438Y-108880952D01*
X62502438Y-108880952D02*
X62550057Y-108833333D01*
X62550057Y-108833333D02*
X62645295Y-108785714D01*
X62645295Y-108785714D02*
X62835771Y-108738095D01*
X62835771Y-108738095D02*
X63073866Y-108738095D01*
X63073866Y-108738095D02*
X63264342Y-108785714D01*
X63264342Y-108785714D02*
X63359580Y-108833333D01*
X63359580Y-108833333D02*
X63407200Y-108880952D01*
X63407200Y-108880952D02*
X63454819Y-108976190D01*
X63454819Y-108976190D02*
X63454819Y-109071428D01*
X63454819Y-109071428D02*
X63407200Y-109166666D01*
X63407200Y-109166666D02*
X63359580Y-109214285D01*
X63359580Y-109214285D02*
X63264342Y-109261904D01*
X63264342Y-109261904D02*
X63073866Y-109309523D01*
X63073866Y-109309523D02*
X62835771Y-109309523D01*
X62835771Y-109309523D02*
X62645295Y-109261904D01*
X62645295Y-109261904D02*
X62550057Y-109214285D01*
X62550057Y-109214285D02*
X62502438Y-109166666D01*
X62502438Y-109166666D02*
X62454819Y-109071428D01*
X63454819Y-108309523D02*
X62454819Y-108309523D01*
X63454819Y-107738095D02*
X62883390Y-108166666D01*
X62454819Y-107738095D02*
X63026247Y-108309523D01*
D10*
X61247469Y-109752856D02*
X60904612Y-109992856D01*
X61247469Y-110164285D02*
X60527469Y-110164285D01*
X60527469Y-110164285D02*
X60527469Y-109889999D01*
X60527469Y-109889999D02*
X60561755Y-109821428D01*
X60561755Y-109821428D02*
X60596041Y-109787142D01*
X60596041Y-109787142D02*
X60664612Y-109752856D01*
X60664612Y-109752856D02*
X60767469Y-109752856D01*
X60767469Y-109752856D02*
X60836041Y-109787142D01*
X60836041Y-109787142D02*
X60870326Y-109821428D01*
X60870326Y-109821428D02*
X60904612Y-109889999D01*
X60904612Y-109889999D02*
X60904612Y-110164285D01*
X61247469Y-109067142D02*
X61247469Y-109478571D01*
X61247469Y-109272856D02*
X60527469Y-109272856D01*
X60527469Y-109272856D02*
X60630326Y-109341428D01*
X60630326Y-109341428D02*
X60698898Y-109409999D01*
X60698898Y-109409999D02*
X60733184Y-109478571D01*
X60527469Y-108621428D02*
X60527469Y-108552857D01*
X60527469Y-108552857D02*
X60561755Y-108484285D01*
X60561755Y-108484285D02*
X60596041Y-108450000D01*
X60596041Y-108450000D02*
X60664612Y-108415714D01*
X60664612Y-108415714D02*
X60801755Y-108381428D01*
X60801755Y-108381428D02*
X60973184Y-108381428D01*
X60973184Y-108381428D02*
X61110326Y-108415714D01*
X61110326Y-108415714D02*
X61178898Y-108450000D01*
X61178898Y-108450000D02*
X61213184Y-108484285D01*
X61213184Y-108484285D02*
X61247469Y-108552857D01*
X61247469Y-108552857D02*
X61247469Y-108621428D01*
X61247469Y-108621428D02*
X61213184Y-108690000D01*
X61213184Y-108690000D02*
X61178898Y-108724285D01*
X61178898Y-108724285D02*
X61110326Y-108758571D01*
X61110326Y-108758571D02*
X60973184Y-108792857D01*
X60973184Y-108792857D02*
X60801755Y-108792857D01*
X60801755Y-108792857D02*
X60664612Y-108758571D01*
X60664612Y-108758571D02*
X60596041Y-108724285D01*
X60596041Y-108724285D02*
X60561755Y-108690000D01*
X60561755Y-108690000D02*
X60527469Y-108621428D01*
D11*
X58954819Y-57190476D02*
X58954819Y-57761904D01*
X58954819Y-57476190D02*
X57954819Y-57476190D01*
X57954819Y-57476190D02*
X58097676Y-57571428D01*
X58097676Y-57571428D02*
X58192914Y-57666666D01*
X58192914Y-57666666D02*
X58240533Y-57761904D01*
X57954819Y-56571428D02*
X57954819Y-56476190D01*
X57954819Y-56476190D02*
X58002438Y-56380952D01*
X58002438Y-56380952D02*
X58050057Y-56333333D01*
X58050057Y-56333333D02*
X58145295Y-56285714D01*
X58145295Y-56285714D02*
X58335771Y-56238095D01*
X58335771Y-56238095D02*
X58573866Y-56238095D01*
X58573866Y-56238095D02*
X58764342Y-56285714D01*
X58764342Y-56285714D02*
X58859580Y-56333333D01*
X58859580Y-56333333D02*
X58907200Y-56380952D01*
X58907200Y-56380952D02*
X58954819Y-56476190D01*
X58954819Y-56476190D02*
X58954819Y-56571428D01*
X58954819Y-56571428D02*
X58907200Y-56666666D01*
X58907200Y-56666666D02*
X58859580Y-56714285D01*
X58859580Y-56714285D02*
X58764342Y-56761904D01*
X58764342Y-56761904D02*
X58573866Y-56809523D01*
X58573866Y-56809523D02*
X58335771Y-56809523D01*
X58335771Y-56809523D02*
X58145295Y-56761904D01*
X58145295Y-56761904D02*
X58050057Y-56714285D01*
X58050057Y-56714285D02*
X58002438Y-56666666D01*
X58002438Y-56666666D02*
X57954819Y-56571428D01*
X58954819Y-55809523D02*
X57954819Y-55809523D01*
X58954819Y-55238095D02*
X58383390Y-55666666D01*
X57954819Y-55238095D02*
X58526247Y-55809523D01*
D10*
X60747469Y-54099999D02*
X60404612Y-54339999D01*
X60747469Y-54511428D02*
X60027469Y-54511428D01*
X60027469Y-54511428D02*
X60027469Y-54237142D01*
X60027469Y-54237142D02*
X60061755Y-54168571D01*
X60061755Y-54168571D02*
X60096041Y-54134285D01*
X60096041Y-54134285D02*
X60164612Y-54099999D01*
X60164612Y-54099999D02*
X60267469Y-54099999D01*
X60267469Y-54099999D02*
X60336041Y-54134285D01*
X60336041Y-54134285D02*
X60370326Y-54168571D01*
X60370326Y-54168571D02*
X60404612Y-54237142D01*
X60404612Y-54237142D02*
X60404612Y-54511428D01*
X60027469Y-53448571D02*
X60027469Y-53791428D01*
X60027469Y-53791428D02*
X60370326Y-53825714D01*
X60370326Y-53825714D02*
X60336041Y-53791428D01*
X60336041Y-53791428D02*
X60301755Y-53722857D01*
X60301755Y-53722857D02*
X60301755Y-53551428D01*
X60301755Y-53551428D02*
X60336041Y-53482857D01*
X60336041Y-53482857D02*
X60370326Y-53448571D01*
X60370326Y-53448571D02*
X60438898Y-53414285D01*
X60438898Y-53414285D02*
X60610326Y-53414285D01*
X60610326Y-53414285D02*
X60678898Y-53448571D01*
X60678898Y-53448571D02*
X60713184Y-53482857D01*
X60713184Y-53482857D02*
X60747469Y-53551428D01*
X60747469Y-53551428D02*
X60747469Y-53722857D01*
X60747469Y-53722857D02*
X60713184Y-53791428D01*
X60713184Y-53791428D02*
X60678898Y-53825714D01*
D11*
X44454819Y-109980476D02*
X44454819Y-110551904D01*
X44454819Y-110266190D02*
X43454819Y-110266190D01*
X43454819Y-110266190D02*
X43597676Y-110361428D01*
X43597676Y-110361428D02*
X43692914Y-110456666D01*
X43692914Y-110456666D02*
X43740533Y-110551904D01*
X43454819Y-109361428D02*
X43454819Y-109266190D01*
X43454819Y-109266190D02*
X43502438Y-109170952D01*
X43502438Y-109170952D02*
X43550057Y-109123333D01*
X43550057Y-109123333D02*
X43645295Y-109075714D01*
X43645295Y-109075714D02*
X43835771Y-109028095D01*
X43835771Y-109028095D02*
X44073866Y-109028095D01*
X44073866Y-109028095D02*
X44264342Y-109075714D01*
X44264342Y-109075714D02*
X44359580Y-109123333D01*
X44359580Y-109123333D02*
X44407200Y-109170952D01*
X44407200Y-109170952D02*
X44454819Y-109266190D01*
X44454819Y-109266190D02*
X44454819Y-109361428D01*
X44454819Y-109361428D02*
X44407200Y-109456666D01*
X44407200Y-109456666D02*
X44359580Y-109504285D01*
X44359580Y-109504285D02*
X44264342Y-109551904D01*
X44264342Y-109551904D02*
X44073866Y-109599523D01*
X44073866Y-109599523D02*
X43835771Y-109599523D01*
X43835771Y-109599523D02*
X43645295Y-109551904D01*
X43645295Y-109551904D02*
X43550057Y-109504285D01*
X43550057Y-109504285D02*
X43502438Y-109456666D01*
X43502438Y-109456666D02*
X43454819Y-109361428D01*
X44454819Y-108599523D02*
X43454819Y-108599523D01*
X44454819Y-108028095D02*
X43883390Y-108456666D01*
X43454819Y-108028095D02*
X44026247Y-108599523D01*
D10*
X46247469Y-109409999D02*
X45904612Y-109649999D01*
X46247469Y-109821428D02*
X45527469Y-109821428D01*
X45527469Y-109821428D02*
X45527469Y-109547142D01*
X45527469Y-109547142D02*
X45561755Y-109478571D01*
X45561755Y-109478571D02*
X45596041Y-109444285D01*
X45596041Y-109444285D02*
X45664612Y-109409999D01*
X45664612Y-109409999D02*
X45767469Y-109409999D01*
X45767469Y-109409999D02*
X45836041Y-109444285D01*
X45836041Y-109444285D02*
X45870326Y-109478571D01*
X45870326Y-109478571D02*
X45904612Y-109547142D01*
X45904612Y-109547142D02*
X45904612Y-109821428D01*
X46247469Y-109067142D02*
X46247469Y-108929999D01*
X46247469Y-108929999D02*
X46213184Y-108861428D01*
X46213184Y-108861428D02*
X46178898Y-108827142D01*
X46178898Y-108827142D02*
X46076041Y-108758571D01*
X46076041Y-108758571D02*
X45938898Y-108724285D01*
X45938898Y-108724285D02*
X45664612Y-108724285D01*
X45664612Y-108724285D02*
X45596041Y-108758571D01*
X45596041Y-108758571D02*
X45561755Y-108792857D01*
X45561755Y-108792857D02*
X45527469Y-108861428D01*
X45527469Y-108861428D02*
X45527469Y-108998571D01*
X45527469Y-108998571D02*
X45561755Y-109067142D01*
X45561755Y-109067142D02*
X45596041Y-109101428D01*
X45596041Y-109101428D02*
X45664612Y-109135714D01*
X45664612Y-109135714D02*
X45836041Y-109135714D01*
X45836041Y-109135714D02*
X45904612Y-109101428D01*
X45904612Y-109101428D02*
X45938898Y-109067142D01*
X45938898Y-109067142D02*
X45973184Y-108998571D01*
X45973184Y-108998571D02*
X45973184Y-108861428D01*
X45973184Y-108861428D02*
X45938898Y-108792857D01*
X45938898Y-108792857D02*
X45904612Y-108758571D01*
X45904612Y-108758571D02*
X45836041Y-108724285D01*
D11*
X57475237Y-46407200D02*
X57570475Y-46454819D01*
X57570475Y-46454819D02*
X57760951Y-46454819D01*
X57760951Y-46454819D02*
X57856189Y-46407200D01*
X57856189Y-46407200D02*
X57903808Y-46311961D01*
X57903808Y-46311961D02*
X57903808Y-46264342D01*
X57903808Y-46264342D02*
X57856189Y-46169104D01*
X57856189Y-46169104D02*
X57760951Y-46121485D01*
X57760951Y-46121485D02*
X57618094Y-46121485D01*
X57618094Y-46121485D02*
X57522856Y-46073866D01*
X57522856Y-46073866D02*
X57475237Y-45978628D01*
X57475237Y-45978628D02*
X57475237Y-45931009D01*
X57475237Y-45931009D02*
X57522856Y-45835771D01*
X57522856Y-45835771D02*
X57618094Y-45788152D01*
X57618094Y-45788152D02*
X57760951Y-45788152D01*
X57760951Y-45788152D02*
X57856189Y-45835771D01*
X58713332Y-46407200D02*
X58618094Y-46454819D01*
X58618094Y-46454819D02*
X58427618Y-46454819D01*
X58427618Y-46454819D02*
X58332380Y-46407200D01*
X58332380Y-46407200D02*
X58284761Y-46311961D01*
X58284761Y-46311961D02*
X58284761Y-45931009D01*
X58284761Y-45931009D02*
X58332380Y-45835771D01*
X58332380Y-45835771D02*
X58427618Y-45788152D01*
X58427618Y-45788152D02*
X58618094Y-45788152D01*
X58618094Y-45788152D02*
X58713332Y-45835771D01*
X58713332Y-45835771D02*
X58760951Y-45931009D01*
X58760951Y-45931009D02*
X58760951Y-46026247D01*
X58760951Y-46026247D02*
X58284761Y-46121485D01*
X59189523Y-45788152D02*
X59189523Y-46454819D01*
X59189523Y-45883390D02*
X59237142Y-45835771D01*
X59237142Y-45835771D02*
X59332380Y-45788152D01*
X59332380Y-45788152D02*
X59475237Y-45788152D01*
X59475237Y-45788152D02*
X59570475Y-45835771D01*
X59570475Y-45835771D02*
X59618094Y-45931009D01*
X59618094Y-45931009D02*
X59618094Y-46454819D01*
X60046666Y-46407200D02*
X60141904Y-46454819D01*
X60141904Y-46454819D02*
X60332380Y-46454819D01*
X60332380Y-46454819D02*
X60427618Y-46407200D01*
X60427618Y-46407200D02*
X60475237Y-46311961D01*
X60475237Y-46311961D02*
X60475237Y-46264342D01*
X60475237Y-46264342D02*
X60427618Y-46169104D01*
X60427618Y-46169104D02*
X60332380Y-46121485D01*
X60332380Y-46121485D02*
X60189523Y-46121485D01*
X60189523Y-46121485D02*
X60094285Y-46073866D01*
X60094285Y-46073866D02*
X60046666Y-45978628D01*
X60046666Y-45978628D02*
X60046666Y-45931009D01*
X60046666Y-45931009D02*
X60094285Y-45835771D01*
X60094285Y-45835771D02*
X60189523Y-45788152D01*
X60189523Y-45788152D02*
X60332380Y-45788152D01*
X60332380Y-45788152D02*
X60427618Y-45835771D01*
X61046666Y-46454819D02*
X60951428Y-46407200D01*
X60951428Y-46407200D02*
X60903809Y-46359580D01*
X60903809Y-46359580D02*
X60856190Y-46264342D01*
X60856190Y-46264342D02*
X60856190Y-45978628D01*
X60856190Y-45978628D02*
X60903809Y-45883390D01*
X60903809Y-45883390D02*
X60951428Y-45835771D01*
X60951428Y-45835771D02*
X61046666Y-45788152D01*
X61046666Y-45788152D02*
X61189523Y-45788152D01*
X61189523Y-45788152D02*
X61284761Y-45835771D01*
X61284761Y-45835771D02*
X61332380Y-45883390D01*
X61332380Y-45883390D02*
X61379999Y-45978628D01*
X61379999Y-45978628D02*
X61379999Y-46264342D01*
X61379999Y-46264342D02*
X61332380Y-46359580D01*
X61332380Y-46359580D02*
X61284761Y-46407200D01*
X61284761Y-46407200D02*
X61189523Y-46454819D01*
X61189523Y-46454819D02*
X61046666Y-46454819D01*
X61808571Y-46454819D02*
X61808571Y-45788152D01*
X61808571Y-45978628D02*
X61856190Y-45883390D01*
X61856190Y-45883390D02*
X61903809Y-45835771D01*
X61903809Y-45835771D02*
X61999047Y-45788152D01*
X61999047Y-45788152D02*
X62094285Y-45788152D01*
X62189524Y-46550057D02*
X62951428Y-46550057D01*
X63665714Y-45454819D02*
X63189524Y-45454819D01*
X63189524Y-45454819D02*
X63141905Y-45931009D01*
X63141905Y-45931009D02*
X63189524Y-45883390D01*
X63189524Y-45883390D02*
X63284762Y-45835771D01*
X63284762Y-45835771D02*
X63522857Y-45835771D01*
X63522857Y-45835771D02*
X63618095Y-45883390D01*
X63618095Y-45883390D02*
X63665714Y-45931009D01*
X63665714Y-45931009D02*
X63713333Y-46026247D01*
X63713333Y-46026247D02*
X63713333Y-46264342D01*
X63713333Y-46264342D02*
X63665714Y-46359580D01*
X63665714Y-46359580D02*
X63618095Y-46407200D01*
X63618095Y-46407200D02*
X63522857Y-46454819D01*
X63522857Y-46454819D02*
X63284762Y-46454819D01*
X63284762Y-46454819D02*
X63189524Y-46407200D01*
X63189524Y-46407200D02*
X63141905Y-46359580D01*
X64046667Y-45788152D02*
X64284762Y-46454819D01*
X64284762Y-46454819D02*
X64522857Y-45788152D01*
X64665715Y-46550057D02*
X65427619Y-46550057D01*
X66189524Y-45502438D02*
X66094286Y-45454819D01*
X66094286Y-45454819D02*
X65951429Y-45454819D01*
X65951429Y-45454819D02*
X65808572Y-45502438D01*
X65808572Y-45502438D02*
X65713334Y-45597676D01*
X65713334Y-45597676D02*
X65665715Y-45692914D01*
X65665715Y-45692914D02*
X65618096Y-45883390D01*
X65618096Y-45883390D02*
X65618096Y-46026247D01*
X65618096Y-46026247D02*
X65665715Y-46216723D01*
X65665715Y-46216723D02*
X65713334Y-46311961D01*
X65713334Y-46311961D02*
X65808572Y-46407200D01*
X65808572Y-46407200D02*
X65951429Y-46454819D01*
X65951429Y-46454819D02*
X66046667Y-46454819D01*
X66046667Y-46454819D02*
X66189524Y-46407200D01*
X66189524Y-46407200D02*
X66237143Y-46359580D01*
X66237143Y-46359580D02*
X66237143Y-46026247D01*
X66237143Y-46026247D02*
X66046667Y-46026247D01*
X66665715Y-46454819D02*
X66665715Y-45454819D01*
X66665715Y-45454819D02*
X67237143Y-46454819D01*
X67237143Y-46454819D02*
X67237143Y-45454819D01*
X67713334Y-46454819D02*
X67713334Y-45454819D01*
X67713334Y-45454819D02*
X67951429Y-45454819D01*
X67951429Y-45454819D02*
X68094286Y-45502438D01*
X68094286Y-45502438D02*
X68189524Y-45597676D01*
X68189524Y-45597676D02*
X68237143Y-45692914D01*
X68237143Y-45692914D02*
X68284762Y-45883390D01*
X68284762Y-45883390D02*
X68284762Y-46026247D01*
X68284762Y-46026247D02*
X68237143Y-46216723D01*
X68237143Y-46216723D02*
X68189524Y-46311961D01*
X68189524Y-46311961D02*
X68094286Y-46407200D01*
X68094286Y-46407200D02*
X67951429Y-46454819D01*
X67951429Y-46454819D02*
X67713334Y-46454819D01*
X57808571Y-44084819D02*
X57808571Y-43084819D01*
X58237142Y-44084819D02*
X58237142Y-43561009D01*
X58237142Y-43561009D02*
X58189523Y-43465771D01*
X58189523Y-43465771D02*
X58094285Y-43418152D01*
X58094285Y-43418152D02*
X57951428Y-43418152D01*
X57951428Y-43418152D02*
X57856190Y-43465771D01*
X57856190Y-43465771D02*
X57808571Y-43513390D01*
X58856190Y-44084819D02*
X58760952Y-44037200D01*
X58760952Y-44037200D02*
X58713333Y-43989580D01*
X58713333Y-43989580D02*
X58665714Y-43894342D01*
X58665714Y-43894342D02*
X58665714Y-43608628D01*
X58665714Y-43608628D02*
X58713333Y-43513390D01*
X58713333Y-43513390D02*
X58760952Y-43465771D01*
X58760952Y-43465771D02*
X58856190Y-43418152D01*
X58856190Y-43418152D02*
X58999047Y-43418152D01*
X58999047Y-43418152D02*
X59094285Y-43465771D01*
X59094285Y-43465771D02*
X59141904Y-43513390D01*
X59141904Y-43513390D02*
X59189523Y-43608628D01*
X59189523Y-43608628D02*
X59189523Y-43894342D01*
X59189523Y-43894342D02*
X59141904Y-43989580D01*
X59141904Y-43989580D02*
X59094285Y-44037200D01*
X59094285Y-44037200D02*
X58999047Y-44084819D01*
X58999047Y-44084819D02*
X58856190Y-44084819D01*
X59618095Y-44084819D02*
X59618095Y-43418152D01*
X59618095Y-43513390D02*
X59665714Y-43465771D01*
X59665714Y-43465771D02*
X59760952Y-43418152D01*
X59760952Y-43418152D02*
X59903809Y-43418152D01*
X59903809Y-43418152D02*
X59999047Y-43465771D01*
X59999047Y-43465771D02*
X60046666Y-43561009D01*
X60046666Y-43561009D02*
X60046666Y-44084819D01*
X60046666Y-43561009D02*
X60094285Y-43465771D01*
X60094285Y-43465771D02*
X60189523Y-43418152D01*
X60189523Y-43418152D02*
X60332380Y-43418152D01*
X60332380Y-43418152D02*
X60427619Y-43465771D01*
X60427619Y-43465771D02*
X60475238Y-43561009D01*
X60475238Y-43561009D02*
X60475238Y-44084819D01*
X61332380Y-44037200D02*
X61237142Y-44084819D01*
X61237142Y-44084819D02*
X61046666Y-44084819D01*
X61046666Y-44084819D02*
X60951428Y-44037200D01*
X60951428Y-44037200D02*
X60903809Y-43941961D01*
X60903809Y-43941961D02*
X60903809Y-43561009D01*
X60903809Y-43561009D02*
X60951428Y-43465771D01*
X60951428Y-43465771D02*
X61046666Y-43418152D01*
X61046666Y-43418152D02*
X61237142Y-43418152D01*
X61237142Y-43418152D02*
X61332380Y-43465771D01*
X61332380Y-43465771D02*
X61379999Y-43561009D01*
X61379999Y-43561009D02*
X61379999Y-43656247D01*
X61379999Y-43656247D02*
X60903809Y-43751485D01*
X61570476Y-44180057D02*
X62332380Y-44180057D01*
X62522857Y-44037200D02*
X62618095Y-44084819D01*
X62618095Y-44084819D02*
X62808571Y-44084819D01*
X62808571Y-44084819D02*
X62903809Y-44037200D01*
X62903809Y-44037200D02*
X62951428Y-43941961D01*
X62951428Y-43941961D02*
X62951428Y-43894342D01*
X62951428Y-43894342D02*
X62903809Y-43799104D01*
X62903809Y-43799104D02*
X62808571Y-43751485D01*
X62808571Y-43751485D02*
X62665714Y-43751485D01*
X62665714Y-43751485D02*
X62570476Y-43703866D01*
X62570476Y-43703866D02*
X62522857Y-43608628D01*
X62522857Y-43608628D02*
X62522857Y-43561009D01*
X62522857Y-43561009D02*
X62570476Y-43465771D01*
X62570476Y-43465771D02*
X62665714Y-43418152D01*
X62665714Y-43418152D02*
X62808571Y-43418152D01*
X62808571Y-43418152D02*
X62903809Y-43465771D01*
X63760952Y-44037200D02*
X63665714Y-44084819D01*
X63665714Y-44084819D02*
X63475238Y-44084819D01*
X63475238Y-44084819D02*
X63380000Y-44037200D01*
X63380000Y-44037200D02*
X63332381Y-43941961D01*
X63332381Y-43941961D02*
X63332381Y-43561009D01*
X63332381Y-43561009D02*
X63380000Y-43465771D01*
X63380000Y-43465771D02*
X63475238Y-43418152D01*
X63475238Y-43418152D02*
X63665714Y-43418152D01*
X63665714Y-43418152D02*
X63760952Y-43465771D01*
X63760952Y-43465771D02*
X63808571Y-43561009D01*
X63808571Y-43561009D02*
X63808571Y-43656247D01*
X63808571Y-43656247D02*
X63332381Y-43751485D01*
X64237143Y-43418152D02*
X64237143Y-44084819D01*
X64237143Y-43513390D02*
X64284762Y-43465771D01*
X64284762Y-43465771D02*
X64380000Y-43418152D01*
X64380000Y-43418152D02*
X64522857Y-43418152D01*
X64522857Y-43418152D02*
X64618095Y-43465771D01*
X64618095Y-43465771D02*
X64665714Y-43561009D01*
X64665714Y-43561009D02*
X64665714Y-44084819D01*
X65094286Y-44037200D02*
X65189524Y-44084819D01*
X65189524Y-44084819D02*
X65380000Y-44084819D01*
X65380000Y-44084819D02*
X65475238Y-44037200D01*
X65475238Y-44037200D02*
X65522857Y-43941961D01*
X65522857Y-43941961D02*
X65522857Y-43894342D01*
X65522857Y-43894342D02*
X65475238Y-43799104D01*
X65475238Y-43799104D02*
X65380000Y-43751485D01*
X65380000Y-43751485D02*
X65237143Y-43751485D01*
X65237143Y-43751485D02*
X65141905Y-43703866D01*
X65141905Y-43703866D02*
X65094286Y-43608628D01*
X65094286Y-43608628D02*
X65094286Y-43561009D01*
X65094286Y-43561009D02*
X65141905Y-43465771D01*
X65141905Y-43465771D02*
X65237143Y-43418152D01*
X65237143Y-43418152D02*
X65380000Y-43418152D01*
X65380000Y-43418152D02*
X65475238Y-43465771D01*
X66094286Y-44084819D02*
X65999048Y-44037200D01*
X65999048Y-44037200D02*
X65951429Y-43989580D01*
X65951429Y-43989580D02*
X65903810Y-43894342D01*
X65903810Y-43894342D02*
X65903810Y-43608628D01*
X65903810Y-43608628D02*
X65951429Y-43513390D01*
X65951429Y-43513390D02*
X65999048Y-43465771D01*
X65999048Y-43465771D02*
X66094286Y-43418152D01*
X66094286Y-43418152D02*
X66237143Y-43418152D01*
X66237143Y-43418152D02*
X66332381Y-43465771D01*
X66332381Y-43465771D02*
X66380000Y-43513390D01*
X66380000Y-43513390D02*
X66427619Y-43608628D01*
X66427619Y-43608628D02*
X66427619Y-43894342D01*
X66427619Y-43894342D02*
X66380000Y-43989580D01*
X66380000Y-43989580D02*
X66332381Y-44037200D01*
X66332381Y-44037200D02*
X66237143Y-44084819D01*
X66237143Y-44084819D02*
X66094286Y-44084819D01*
X66856191Y-44084819D02*
X66856191Y-43418152D01*
X66856191Y-43608628D02*
X66903810Y-43513390D01*
X66903810Y-43513390D02*
X66951429Y-43465771D01*
X66951429Y-43465771D02*
X67046667Y-43418152D01*
X67046667Y-43418152D02*
X67141905Y-43418152D01*
X67999048Y-44084819D02*
X67427620Y-44084819D01*
X67713334Y-44084819D02*
X67713334Y-43084819D01*
X67713334Y-43084819D02*
X67618096Y-43227676D01*
X67618096Y-43227676D02*
X67522858Y-43322914D01*
X67522858Y-43322914D02*
X67427620Y-43370533D01*
X49856191Y-105414819D02*
X49856191Y-104414819D01*
X50332381Y-105414819D02*
X50332381Y-104414819D01*
X50332381Y-104414819D02*
X50903809Y-105414819D01*
X50903809Y-105414819D02*
X50903809Y-104414819D01*
X51903809Y-105414819D02*
X51332381Y-105414819D01*
X51618095Y-105414819D02*
X51618095Y-104414819D01*
X51618095Y-104414819D02*
X51522857Y-104557676D01*
X51522857Y-104557676D02*
X51427619Y-104652914D01*
X51427619Y-104652914D02*
X51332381Y-104700533D01*
X52094286Y-105510057D02*
X52856190Y-105510057D01*
X53094286Y-105414819D02*
X53094286Y-104414819D01*
X53570476Y-105414819D02*
X53570476Y-104414819D01*
X53570476Y-104414819D02*
X54141904Y-105414819D01*
X54141904Y-105414819D02*
X54141904Y-104414819D01*
X54570476Y-104510057D02*
X54618095Y-104462438D01*
X54618095Y-104462438D02*
X54713333Y-104414819D01*
X54713333Y-104414819D02*
X54951428Y-104414819D01*
X54951428Y-104414819D02*
X55046666Y-104462438D01*
X55046666Y-104462438D02*
X55094285Y-104510057D01*
X55094285Y-104510057D02*
X55141904Y-104605295D01*
X55141904Y-104605295D02*
X55141904Y-104700533D01*
X55141904Y-104700533D02*
X55094285Y-104843390D01*
X55094285Y-104843390D02*
X54522857Y-105414819D01*
X54522857Y-105414819D02*
X55141904Y-105414819D01*
X55332381Y-105510057D02*
X56094285Y-105510057D01*
X56856190Y-104462438D02*
X56760952Y-104414819D01*
X56760952Y-104414819D02*
X56618095Y-104414819D01*
X56618095Y-104414819D02*
X56475238Y-104462438D01*
X56475238Y-104462438D02*
X56380000Y-104557676D01*
X56380000Y-104557676D02*
X56332381Y-104652914D01*
X56332381Y-104652914D02*
X56284762Y-104843390D01*
X56284762Y-104843390D02*
X56284762Y-104986247D01*
X56284762Y-104986247D02*
X56332381Y-105176723D01*
X56332381Y-105176723D02*
X56380000Y-105271961D01*
X56380000Y-105271961D02*
X56475238Y-105367200D01*
X56475238Y-105367200D02*
X56618095Y-105414819D01*
X56618095Y-105414819D02*
X56713333Y-105414819D01*
X56713333Y-105414819D02*
X56856190Y-105367200D01*
X56856190Y-105367200D02*
X56903809Y-105319580D01*
X56903809Y-105319580D02*
X56903809Y-104986247D01*
X56903809Y-104986247D02*
X56713333Y-104986247D01*
X57332381Y-105414819D02*
X57332381Y-104414819D01*
X57332381Y-104414819D02*
X57903809Y-105414819D01*
X57903809Y-105414819D02*
X57903809Y-104414819D01*
X58380000Y-105414819D02*
X58380000Y-104414819D01*
X58380000Y-104414819D02*
X58618095Y-104414819D01*
X58618095Y-104414819D02*
X58760952Y-104462438D01*
X58760952Y-104462438D02*
X58856190Y-104557676D01*
X58856190Y-104557676D02*
X58903809Y-104652914D01*
X58903809Y-104652914D02*
X58951428Y-104843390D01*
X58951428Y-104843390D02*
X58951428Y-104986247D01*
X58951428Y-104986247D02*
X58903809Y-105176723D01*
X58903809Y-105176723D02*
X58856190Y-105271961D01*
X58856190Y-105271961D02*
X58760952Y-105367200D01*
X58760952Y-105367200D02*
X58618095Y-105414819D01*
X58618095Y-105414819D02*
X58380000Y-105414819D01*
X49689523Y-107118152D02*
X50070475Y-107118152D01*
X49832380Y-107784819D02*
X49832380Y-106927676D01*
X49832380Y-106927676D02*
X49879999Y-106832438D01*
X49879999Y-106832438D02*
X49975237Y-106784819D01*
X49975237Y-106784819D02*
X50070475Y-106784819D01*
X50546666Y-107784819D02*
X50451428Y-107737200D01*
X50451428Y-107737200D02*
X50403809Y-107689580D01*
X50403809Y-107689580D02*
X50356190Y-107594342D01*
X50356190Y-107594342D02*
X50356190Y-107308628D01*
X50356190Y-107308628D02*
X50403809Y-107213390D01*
X50403809Y-107213390D02*
X50451428Y-107165771D01*
X50451428Y-107165771D02*
X50546666Y-107118152D01*
X50546666Y-107118152D02*
X50689523Y-107118152D01*
X50689523Y-107118152D02*
X50784761Y-107165771D01*
X50784761Y-107165771D02*
X50832380Y-107213390D01*
X50832380Y-107213390D02*
X50879999Y-107308628D01*
X50879999Y-107308628D02*
X50879999Y-107594342D01*
X50879999Y-107594342D02*
X50832380Y-107689580D01*
X50832380Y-107689580D02*
X50784761Y-107737200D01*
X50784761Y-107737200D02*
X50689523Y-107784819D01*
X50689523Y-107784819D02*
X50546666Y-107784819D01*
X51451428Y-107784819D02*
X51356190Y-107737200D01*
X51356190Y-107737200D02*
X51308571Y-107689580D01*
X51308571Y-107689580D02*
X51260952Y-107594342D01*
X51260952Y-107594342D02*
X51260952Y-107308628D01*
X51260952Y-107308628D02*
X51308571Y-107213390D01*
X51308571Y-107213390D02*
X51356190Y-107165771D01*
X51356190Y-107165771D02*
X51451428Y-107118152D01*
X51451428Y-107118152D02*
X51594285Y-107118152D01*
X51594285Y-107118152D02*
X51689523Y-107165771D01*
X51689523Y-107165771D02*
X51737142Y-107213390D01*
X51737142Y-107213390D02*
X51784761Y-107308628D01*
X51784761Y-107308628D02*
X51784761Y-107594342D01*
X51784761Y-107594342D02*
X51737142Y-107689580D01*
X51737142Y-107689580D02*
X51689523Y-107737200D01*
X51689523Y-107737200D02*
X51594285Y-107784819D01*
X51594285Y-107784819D02*
X51451428Y-107784819D01*
X52070476Y-107118152D02*
X52451428Y-107118152D01*
X52213333Y-106784819D02*
X52213333Y-107641961D01*
X52213333Y-107641961D02*
X52260952Y-107737200D01*
X52260952Y-107737200D02*
X52356190Y-107784819D01*
X52356190Y-107784819D02*
X52451428Y-107784819D01*
X52546667Y-107880057D02*
X53308571Y-107880057D01*
X53546667Y-107784819D02*
X53546667Y-106784819D01*
X53546667Y-106784819D02*
X53880000Y-107499104D01*
X53880000Y-107499104D02*
X54213333Y-106784819D01*
X54213333Y-106784819D02*
X54213333Y-107784819D01*
X54832381Y-107784819D02*
X54737143Y-107737200D01*
X54737143Y-107737200D02*
X54689524Y-107689580D01*
X54689524Y-107689580D02*
X54641905Y-107594342D01*
X54641905Y-107594342D02*
X54641905Y-107308628D01*
X54641905Y-107308628D02*
X54689524Y-107213390D01*
X54689524Y-107213390D02*
X54737143Y-107165771D01*
X54737143Y-107165771D02*
X54832381Y-107118152D01*
X54832381Y-107118152D02*
X54975238Y-107118152D01*
X54975238Y-107118152D02*
X55070476Y-107165771D01*
X55070476Y-107165771D02*
X55118095Y-107213390D01*
X55118095Y-107213390D02*
X55165714Y-107308628D01*
X55165714Y-107308628D02*
X55165714Y-107594342D01*
X55165714Y-107594342D02*
X55118095Y-107689580D01*
X55118095Y-107689580D02*
X55070476Y-107737200D01*
X55070476Y-107737200D02*
X54975238Y-107784819D01*
X54975238Y-107784819D02*
X54832381Y-107784819D01*
X55451429Y-107118152D02*
X55832381Y-107118152D01*
X55594286Y-106784819D02*
X55594286Y-107641961D01*
X55594286Y-107641961D02*
X55641905Y-107737200D01*
X55641905Y-107737200D02*
X55737143Y-107784819D01*
X55737143Y-107784819D02*
X55832381Y-107784819D01*
X56308572Y-107784819D02*
X56213334Y-107737200D01*
X56213334Y-107737200D02*
X56165715Y-107689580D01*
X56165715Y-107689580D02*
X56118096Y-107594342D01*
X56118096Y-107594342D02*
X56118096Y-107308628D01*
X56118096Y-107308628D02*
X56165715Y-107213390D01*
X56165715Y-107213390D02*
X56213334Y-107165771D01*
X56213334Y-107165771D02*
X56308572Y-107118152D01*
X56308572Y-107118152D02*
X56451429Y-107118152D01*
X56451429Y-107118152D02*
X56546667Y-107165771D01*
X56546667Y-107165771D02*
X56594286Y-107213390D01*
X56594286Y-107213390D02*
X56641905Y-107308628D01*
X56641905Y-107308628D02*
X56641905Y-107594342D01*
X56641905Y-107594342D02*
X56594286Y-107689580D01*
X56594286Y-107689580D02*
X56546667Y-107737200D01*
X56546667Y-107737200D02*
X56451429Y-107784819D01*
X56451429Y-107784819D02*
X56308572Y-107784819D01*
X57070477Y-107784819D02*
X57070477Y-107118152D01*
X57070477Y-107308628D02*
X57118096Y-107213390D01*
X57118096Y-107213390D02*
X57165715Y-107165771D01*
X57165715Y-107165771D02*
X57260953Y-107118152D01*
X57260953Y-107118152D02*
X57356191Y-107118152D01*
X57451430Y-107880057D02*
X58213334Y-107880057D01*
X58975239Y-107784819D02*
X58403811Y-107784819D01*
X58689525Y-107784819D02*
X58689525Y-106784819D01*
X58689525Y-106784819D02*
X58594287Y-106927676D01*
X58594287Y-106927676D02*
X58499049Y-107022914D01*
X58499049Y-107022914D02*
X58403811Y-107070533D01*
X34867380Y-69172319D02*
X34391190Y-69172319D01*
X34391190Y-69172319D02*
X34343571Y-69648509D01*
X34343571Y-69648509D02*
X34391190Y-69600890D01*
X34391190Y-69600890D02*
X34486428Y-69553271D01*
X34486428Y-69553271D02*
X34724523Y-69553271D01*
X34724523Y-69553271D02*
X34819761Y-69600890D01*
X34819761Y-69600890D02*
X34867380Y-69648509D01*
X34867380Y-69648509D02*
X34914999Y-69743747D01*
X34914999Y-69743747D02*
X34914999Y-69981842D01*
X34914999Y-69981842D02*
X34867380Y-70077080D01*
X34867380Y-70077080D02*
X34819761Y-70124700D01*
X34819761Y-70124700D02*
X34724523Y-70172319D01*
X34724523Y-70172319D02*
X34486428Y-70172319D01*
X34486428Y-70172319D02*
X34391190Y-70124700D01*
X34391190Y-70124700D02*
X34343571Y-70077080D01*
X35248333Y-69505652D02*
X35486428Y-70172319D01*
X35486428Y-70172319D02*
X35724523Y-69505652D01*
X35867381Y-70267557D02*
X36629285Y-70267557D01*
X37391190Y-69219938D02*
X37295952Y-69172319D01*
X37295952Y-69172319D02*
X37153095Y-69172319D01*
X37153095Y-69172319D02*
X37010238Y-69219938D01*
X37010238Y-69219938D02*
X36915000Y-69315176D01*
X36915000Y-69315176D02*
X36867381Y-69410414D01*
X36867381Y-69410414D02*
X36819762Y-69600890D01*
X36819762Y-69600890D02*
X36819762Y-69743747D01*
X36819762Y-69743747D02*
X36867381Y-69934223D01*
X36867381Y-69934223D02*
X36915000Y-70029461D01*
X36915000Y-70029461D02*
X37010238Y-70124700D01*
X37010238Y-70124700D02*
X37153095Y-70172319D01*
X37153095Y-70172319D02*
X37248333Y-70172319D01*
X37248333Y-70172319D02*
X37391190Y-70124700D01*
X37391190Y-70124700D02*
X37438809Y-70077080D01*
X37438809Y-70077080D02*
X37438809Y-69743747D01*
X37438809Y-69743747D02*
X37248333Y-69743747D01*
X37867381Y-70172319D02*
X37867381Y-69172319D01*
X37867381Y-69172319D02*
X38438809Y-70172319D01*
X38438809Y-70172319D02*
X38438809Y-69172319D01*
X38915000Y-70172319D02*
X38915000Y-69172319D01*
X38915000Y-69172319D02*
X39153095Y-69172319D01*
X39153095Y-69172319D02*
X39295952Y-69219938D01*
X39295952Y-69219938D02*
X39391190Y-69315176D01*
X39391190Y-69315176D02*
X39438809Y-69410414D01*
X39438809Y-69410414D02*
X39486428Y-69600890D01*
X39486428Y-69600890D02*
X39486428Y-69743747D01*
X39486428Y-69743747D02*
X39438809Y-69934223D01*
X39438809Y-69934223D02*
X39391190Y-70029461D01*
X39391190Y-70029461D02*
X39295952Y-70124700D01*
X39295952Y-70124700D02*
X39153095Y-70172319D01*
X39153095Y-70172319D02*
X38915000Y-70172319D01*
X34462619Y-67802319D02*
X34462619Y-66802319D01*
X34462619Y-66802319D02*
X34843571Y-66802319D01*
X34843571Y-66802319D02*
X34938809Y-66849938D01*
X34938809Y-66849938D02*
X34986428Y-66897557D01*
X34986428Y-66897557D02*
X35034047Y-66992795D01*
X35034047Y-66992795D02*
X35034047Y-67135652D01*
X35034047Y-67135652D02*
X34986428Y-67230890D01*
X34986428Y-67230890D02*
X34938809Y-67278509D01*
X34938809Y-67278509D02*
X34843571Y-67326128D01*
X34843571Y-67326128D02*
X34462619Y-67326128D01*
X35605476Y-67802319D02*
X35510238Y-67754700D01*
X35510238Y-67754700D02*
X35462619Y-67707080D01*
X35462619Y-67707080D02*
X35415000Y-67611842D01*
X35415000Y-67611842D02*
X35415000Y-67326128D01*
X35415000Y-67326128D02*
X35462619Y-67230890D01*
X35462619Y-67230890D02*
X35510238Y-67183271D01*
X35510238Y-67183271D02*
X35605476Y-67135652D01*
X35605476Y-67135652D02*
X35748333Y-67135652D01*
X35748333Y-67135652D02*
X35843571Y-67183271D01*
X35843571Y-67183271D02*
X35891190Y-67230890D01*
X35891190Y-67230890D02*
X35938809Y-67326128D01*
X35938809Y-67326128D02*
X35938809Y-67611842D01*
X35938809Y-67611842D02*
X35891190Y-67707080D01*
X35891190Y-67707080D02*
X35843571Y-67754700D01*
X35843571Y-67754700D02*
X35748333Y-67802319D01*
X35748333Y-67802319D02*
X35605476Y-67802319D01*
X36272143Y-67135652D02*
X36462619Y-67802319D01*
X36462619Y-67802319D02*
X36653095Y-67326128D01*
X36653095Y-67326128D02*
X36843571Y-67802319D01*
X36843571Y-67802319D02*
X37034047Y-67135652D01*
X37795952Y-67754700D02*
X37700714Y-67802319D01*
X37700714Y-67802319D02*
X37510238Y-67802319D01*
X37510238Y-67802319D02*
X37415000Y-67754700D01*
X37415000Y-67754700D02*
X37367381Y-67659461D01*
X37367381Y-67659461D02*
X37367381Y-67278509D01*
X37367381Y-67278509D02*
X37415000Y-67183271D01*
X37415000Y-67183271D02*
X37510238Y-67135652D01*
X37510238Y-67135652D02*
X37700714Y-67135652D01*
X37700714Y-67135652D02*
X37795952Y-67183271D01*
X37795952Y-67183271D02*
X37843571Y-67278509D01*
X37843571Y-67278509D02*
X37843571Y-67373747D01*
X37843571Y-67373747D02*
X37367381Y-67468985D01*
X38272143Y-67802319D02*
X38272143Y-67135652D01*
X38272143Y-67326128D02*
X38319762Y-67230890D01*
X38319762Y-67230890D02*
X38367381Y-67183271D01*
X38367381Y-67183271D02*
X38462619Y-67135652D01*
X38462619Y-67135652D02*
X38557857Y-67135652D01*
X39415000Y-67802319D02*
X38843572Y-67802319D01*
X39129286Y-67802319D02*
X39129286Y-66802319D01*
X39129286Y-66802319D02*
X39034048Y-66945176D01*
X39034048Y-66945176D02*
X38938810Y-67040414D01*
X38938810Y-67040414D02*
X38843572Y-67088033D01*
X78954819Y-50690476D02*
X78954819Y-51261904D01*
X78954819Y-50976190D02*
X77954819Y-50976190D01*
X77954819Y-50976190D02*
X78097676Y-51071428D01*
X78097676Y-51071428D02*
X78192914Y-51166666D01*
X78192914Y-51166666D02*
X78240533Y-51261904D01*
X77954819Y-50071428D02*
X77954819Y-49976190D01*
X77954819Y-49976190D02*
X78002438Y-49880952D01*
X78002438Y-49880952D02*
X78050057Y-49833333D01*
X78050057Y-49833333D02*
X78145295Y-49785714D01*
X78145295Y-49785714D02*
X78335771Y-49738095D01*
X78335771Y-49738095D02*
X78573866Y-49738095D01*
X78573866Y-49738095D02*
X78764342Y-49785714D01*
X78764342Y-49785714D02*
X78859580Y-49833333D01*
X78859580Y-49833333D02*
X78907200Y-49880952D01*
X78907200Y-49880952D02*
X78954819Y-49976190D01*
X78954819Y-49976190D02*
X78954819Y-50071428D01*
X78954819Y-50071428D02*
X78907200Y-50166666D01*
X78907200Y-50166666D02*
X78859580Y-50214285D01*
X78859580Y-50214285D02*
X78764342Y-50261904D01*
X78764342Y-50261904D02*
X78573866Y-50309523D01*
X78573866Y-50309523D02*
X78335771Y-50309523D01*
X78335771Y-50309523D02*
X78145295Y-50261904D01*
X78145295Y-50261904D02*
X78050057Y-50214285D01*
X78050057Y-50214285D02*
X78002438Y-50166666D01*
X78002438Y-50166666D02*
X77954819Y-50071428D01*
X78954819Y-49309523D02*
X77954819Y-49309523D01*
X78954819Y-48738095D02*
X78383390Y-49166666D01*
X77954819Y-48738095D02*
X78526247Y-49309523D01*
D10*
X80747469Y-53809999D02*
X80404612Y-54049999D01*
X80747469Y-54221428D02*
X80027469Y-54221428D01*
X80027469Y-54221428D02*
X80027469Y-53947142D01*
X80027469Y-53947142D02*
X80061755Y-53878571D01*
X80061755Y-53878571D02*
X80096041Y-53844285D01*
X80096041Y-53844285D02*
X80164612Y-53809999D01*
X80164612Y-53809999D02*
X80267469Y-53809999D01*
X80267469Y-53809999D02*
X80336041Y-53844285D01*
X80336041Y-53844285D02*
X80370326Y-53878571D01*
X80370326Y-53878571D02*
X80404612Y-53947142D01*
X80404612Y-53947142D02*
X80404612Y-54221428D01*
X80027469Y-53569999D02*
X80027469Y-53124285D01*
X80027469Y-53124285D02*
X80301755Y-53364285D01*
X80301755Y-53364285D02*
X80301755Y-53261428D01*
X80301755Y-53261428D02*
X80336041Y-53192857D01*
X80336041Y-53192857D02*
X80370326Y-53158571D01*
X80370326Y-53158571D02*
X80438898Y-53124285D01*
X80438898Y-53124285D02*
X80610326Y-53124285D01*
X80610326Y-53124285D02*
X80678898Y-53158571D01*
X80678898Y-53158571D02*
X80713184Y-53192857D01*
X80713184Y-53192857D02*
X80747469Y-53261428D01*
X80747469Y-53261428D02*
X80747469Y-53467142D01*
X80747469Y-53467142D02*
X80713184Y-53535714D01*
X80713184Y-53535714D02*
X80678898Y-53569999D01*
D11*
X43809523Y-57514819D02*
X43238095Y-57514819D01*
X43523809Y-57514819D02*
X43523809Y-56514819D01*
X43523809Y-56514819D02*
X43428571Y-56657676D01*
X43428571Y-56657676D02*
X43333333Y-56752914D01*
X43333333Y-56752914D02*
X43238095Y-56800533D01*
X44428571Y-56514819D02*
X44523809Y-56514819D01*
X44523809Y-56514819D02*
X44619047Y-56562438D01*
X44619047Y-56562438D02*
X44666666Y-56610057D01*
X44666666Y-56610057D02*
X44714285Y-56705295D01*
X44714285Y-56705295D02*
X44761904Y-56895771D01*
X44761904Y-56895771D02*
X44761904Y-57133866D01*
X44761904Y-57133866D02*
X44714285Y-57324342D01*
X44714285Y-57324342D02*
X44666666Y-57419580D01*
X44666666Y-57419580D02*
X44619047Y-57467200D01*
X44619047Y-57467200D02*
X44523809Y-57514819D01*
X44523809Y-57514819D02*
X44428571Y-57514819D01*
X44428571Y-57514819D02*
X44333333Y-57467200D01*
X44333333Y-57467200D02*
X44285714Y-57419580D01*
X44285714Y-57419580D02*
X44238095Y-57324342D01*
X44238095Y-57324342D02*
X44190476Y-57133866D01*
X44190476Y-57133866D02*
X44190476Y-56895771D01*
X44190476Y-56895771D02*
X44238095Y-56705295D01*
X44238095Y-56705295D02*
X44285714Y-56610057D01*
X44285714Y-56610057D02*
X44333333Y-56562438D01*
X44333333Y-56562438D02*
X44428571Y-56514819D01*
X45190476Y-57514819D02*
X45190476Y-56514819D01*
X45761904Y-57514819D02*
X45333333Y-56943390D01*
X45761904Y-56514819D02*
X45190476Y-57086247D01*
D10*
X44380000Y-59307469D02*
X44140000Y-58964612D01*
X43968571Y-59307469D02*
X43968571Y-58587469D01*
X43968571Y-58587469D02*
X44242857Y-58587469D01*
X44242857Y-58587469D02*
X44311428Y-58621755D01*
X44311428Y-58621755D02*
X44345714Y-58656041D01*
X44345714Y-58656041D02*
X44380000Y-58724612D01*
X44380000Y-58724612D02*
X44380000Y-58827469D01*
X44380000Y-58827469D02*
X44345714Y-58896041D01*
X44345714Y-58896041D02*
X44311428Y-58930326D01*
X44311428Y-58930326D02*
X44242857Y-58964612D01*
X44242857Y-58964612D02*
X43968571Y-58964612D01*
X44791428Y-58896041D02*
X44722857Y-58861755D01*
X44722857Y-58861755D02*
X44688571Y-58827469D01*
X44688571Y-58827469D02*
X44654285Y-58758898D01*
X44654285Y-58758898D02*
X44654285Y-58724612D01*
X44654285Y-58724612D02*
X44688571Y-58656041D01*
X44688571Y-58656041D02*
X44722857Y-58621755D01*
X44722857Y-58621755D02*
X44791428Y-58587469D01*
X44791428Y-58587469D02*
X44928571Y-58587469D01*
X44928571Y-58587469D02*
X44997143Y-58621755D01*
X44997143Y-58621755D02*
X45031428Y-58656041D01*
X45031428Y-58656041D02*
X45065714Y-58724612D01*
X45065714Y-58724612D02*
X45065714Y-58758898D01*
X45065714Y-58758898D02*
X45031428Y-58827469D01*
X45031428Y-58827469D02*
X44997143Y-58861755D01*
X44997143Y-58861755D02*
X44928571Y-58896041D01*
X44928571Y-58896041D02*
X44791428Y-58896041D01*
X44791428Y-58896041D02*
X44722857Y-58930326D01*
X44722857Y-58930326D02*
X44688571Y-58964612D01*
X44688571Y-58964612D02*
X44654285Y-59033184D01*
X44654285Y-59033184D02*
X44654285Y-59170326D01*
X44654285Y-59170326D02*
X44688571Y-59238898D01*
X44688571Y-59238898D02*
X44722857Y-59273184D01*
X44722857Y-59273184D02*
X44791428Y-59307469D01*
X44791428Y-59307469D02*
X44928571Y-59307469D01*
X44928571Y-59307469D02*
X44997143Y-59273184D01*
X44997143Y-59273184D02*
X45031428Y-59238898D01*
X45031428Y-59238898D02*
X45065714Y-59170326D01*
X45065714Y-59170326D02*
X45065714Y-59033184D01*
X45065714Y-59033184D02*
X45031428Y-58964612D01*
X45031428Y-58964612D02*
X44997143Y-58930326D01*
X44997143Y-58930326D02*
X44928571Y-58896041D01*
%TO.C,Encoder_motor1*%
D12*
X71820000Y-38380000D02*
X82480000Y-38380000D01*
X71820000Y-39980000D02*
X82480000Y-39980000D01*
X71820000Y-43080000D02*
X82480000Y-43080000D01*
X71820000Y-44080000D02*
X71820000Y-38380000D01*
X71820000Y-44080000D02*
X82480000Y-44080000D01*
X72620000Y-44880000D02*
X71820000Y-44080000D01*
X73976000Y-40722000D02*
X72582000Y-42116000D01*
X74098000Y-40844000D02*
X72704000Y-42238000D01*
X76516000Y-40722000D02*
X75122000Y-42116000D01*
X76638000Y-40844000D02*
X75244000Y-42238000D01*
X79056000Y-40722000D02*
X77662000Y-42116000D01*
X79178000Y-40844000D02*
X77784000Y-42238000D01*
X81596000Y-40722000D02*
X80202000Y-42116000D01*
X81718000Y-40844000D02*
X80324000Y-42238000D01*
X82480000Y-38380000D02*
X82480000Y-44880000D01*
X82480000Y-44880000D02*
X72620000Y-44880000D01*
X74340000Y-41480000D02*
G75*
G02*
X72340000Y-41480000I-1000000J0D01*
G01*
X72340000Y-41480000D02*
G75*
G02*
X74340000Y-41480000I1000000J0D01*
G01*
X76880000Y-41480000D02*
G75*
G02*
X74880000Y-41480000I-1000000J0D01*
G01*
X74880000Y-41480000D02*
G75*
G02*
X76880000Y-41480000I1000000J0D01*
G01*
X79420000Y-41480000D02*
G75*
G02*
X77420000Y-41480000I-1000000J0D01*
G01*
X77420000Y-41480000D02*
G75*
G02*
X79420000Y-41480000I1000000J0D01*
G01*
X81960000Y-41480000D02*
G75*
G02*
X79960000Y-41480000I-1000000J0D01*
G01*
X79960000Y-41480000D02*
G75*
G02*
X81960000Y-41480000I1000000J0D01*
G01*
%TO.C,REF\u002A\u002A*%
X83900000Y-106380000D02*
X89480000Y-106380000D01*
X83900000Y-107980000D02*
X89480000Y-107980000D01*
X83900000Y-111080000D02*
X89480000Y-111080000D01*
X83900000Y-112080000D02*
X83900000Y-106380000D01*
X83900000Y-112080000D02*
X89480000Y-112080000D01*
X84700000Y-112880000D02*
X83900000Y-112080000D01*
X86056000Y-108722000D02*
X84662000Y-110116000D01*
X86178000Y-108844000D02*
X84784000Y-110238000D01*
X88596000Y-108722000D02*
X87202000Y-110116000D01*
X88718000Y-108844000D02*
X87324000Y-110238000D01*
X89480000Y-106380000D02*
X89480000Y-112880000D01*
X89480000Y-112880000D02*
X84700000Y-112880000D01*
X86420000Y-109480000D02*
G75*
G02*
X84420000Y-109480000I-1000000J0D01*
G01*
X84420000Y-109480000D02*
G75*
G02*
X86420000Y-109480000I1000000J0D01*
G01*
X88960000Y-109480000D02*
G75*
G02*
X86960000Y-109480000I-1000000J0D01*
G01*
X86960000Y-109480000D02*
G75*
G02*
X88960000Y-109480000I1000000J0D01*
G01*
%TO.C,R4*%
X84920000Y-49880000D02*
X84920000Y-51890000D01*
X84920000Y-57500000D02*
X84920000Y-55490000D01*
X84120000Y-51890000D02*
X85720000Y-51890000D01*
X85720000Y-55490000D01*
X84120000Y-55490000D01*
X84120000Y-51890000D01*
%TO.C,R12*%
X67000000Y-105690000D02*
X67000000Y-107700000D01*
X67000000Y-113310000D02*
X67000000Y-111300000D01*
X66200000Y-107700000D02*
X67800000Y-107700000D01*
X67800000Y-111300000D01*
X66200000Y-111300000D01*
X66200000Y-107700000D01*
%TO.C,Cytron_MD10C1*%
X41350000Y-38380000D02*
X49470000Y-38380000D01*
X41350000Y-39980000D02*
X49470000Y-39980000D01*
X41350000Y-43080000D02*
X49470000Y-43080000D01*
X41350000Y-44080000D02*
X41350000Y-38380000D01*
X41350000Y-44080000D02*
X49470000Y-44080000D01*
X42150000Y-44880000D02*
X41350000Y-44080000D01*
X43506000Y-40722000D02*
X42112000Y-42116000D01*
X43628000Y-40844000D02*
X42234000Y-42238000D01*
X46046000Y-40722000D02*
X44652000Y-42116000D01*
X46168000Y-40844000D02*
X44774000Y-42238000D01*
X48586000Y-40722000D02*
X47192000Y-42116000D01*
X48708000Y-40844000D02*
X47314000Y-42238000D01*
X49470000Y-38380000D02*
X49470000Y-44880000D01*
X49470000Y-44880000D02*
X42150000Y-44880000D01*
X43870000Y-41480000D02*
G75*
G02*
X41870000Y-41480000I-1000000J0D01*
G01*
X41870000Y-41480000D02*
G75*
G02*
X43870000Y-41480000I1000000J0D01*
G01*
X46410000Y-41480000D02*
G75*
G02*
X44410000Y-41480000I-1000000J0D01*
G01*
X44410000Y-41480000D02*
G75*
G02*
X46410000Y-41480000I1000000J0D01*
G01*
X48950000Y-41480000D02*
G75*
G02*
X46950000Y-41480000I-1000000J0D01*
G01*
X46950000Y-41480000D02*
G75*
G02*
X48950000Y-41480000I1000000J0D01*
G01*
%TO.C,R7*%
X45610000Y-50480000D02*
X47620000Y-50480000D01*
X53230000Y-50480000D02*
X51220000Y-50480000D01*
X47620000Y-49680000D02*
X51220000Y-49680000D01*
X51220000Y-51280000D01*
X47620000Y-51280000D01*
X47620000Y-49680000D01*
%TO.C,R14*%
X95920000Y-84170000D02*
X95920000Y-86180000D01*
X95920000Y-91790000D02*
X95920000Y-89780000D01*
X95120000Y-86180000D02*
X96720000Y-86180000D01*
X96720000Y-89780000D01*
X95120000Y-89780000D01*
X95120000Y-86180000D01*
%TO.C,U3*%
X101650000Y-48160000D02*
G75*
G02*
X100630000Y-48160000I-510000J0D01*
G01*
X100630000Y-48160000D02*
G75*
G02*
X101650000Y-48160000I510000J0D01*
G01*
X101650000Y-50700000D02*
G75*
G02*
X100630000Y-50700000I-510000J0D01*
G01*
X100630000Y-50700000D02*
G75*
G02*
X101650000Y-50700000I510000J0D01*
G01*
X101650000Y-53240000D02*
G75*
G02*
X100630000Y-53240000I-510000J0D01*
G01*
X100630000Y-53240000D02*
G75*
G02*
X101650000Y-53240000I510000J0D01*
G01*
X101650000Y-55780000D02*
G75*
G02*
X100630000Y-55780000I-510000J0D01*
G01*
X100630000Y-55780000D02*
G75*
G02*
X101650000Y-55780000I510000J0D01*
G01*
X101650000Y-58320000D02*
G75*
G02*
X100630000Y-58320000I-510000J0D01*
G01*
X100630000Y-58320000D02*
G75*
G02*
X101650000Y-58320000I510000J0D01*
G01*
X101650000Y-60860000D02*
G75*
G02*
X100630000Y-60860000I-510000J0D01*
G01*
X100630000Y-60860000D02*
G75*
G02*
X101650000Y-60860000I510000J0D01*
G01*
X101650000Y-63400000D02*
G75*
G02*
X100630000Y-63400000I-510000J0D01*
G01*
X100630000Y-63400000D02*
G75*
G02*
X101650000Y-63400000I510000J0D01*
G01*
X103520000Y-71060000D02*
G75*
G02*
X100720000Y-71060000I-1400000J0D01*
G01*
X100720000Y-71060000D02*
G75*
G02*
X103520000Y-71060000I1400000J0D01*
G01*
X115910000Y-40460000D02*
G75*
G02*
X113730000Y-40460000I-1090000J0D01*
G01*
X113730000Y-40460000D02*
G75*
G02*
X115910000Y-40460000I1090000J0D01*
G01*
X118890000Y-72000000D02*
G75*
G02*
X117870000Y-72000000I-510000J0D01*
G01*
X117870000Y-72000000D02*
G75*
G02*
X118890000Y-72000000I510000J0D01*
G01*
X121430000Y-38980000D02*
G75*
G02*
X120410000Y-38980000I-510000J0D01*
G01*
X120410000Y-38980000D02*
G75*
G02*
X121430000Y-38980000I510000J0D01*
G01*
X121430000Y-41520000D02*
G75*
G02*
X120410000Y-41520000I-510000J0D01*
G01*
X120410000Y-41520000D02*
G75*
G02*
X121430000Y-41520000I510000J0D01*
G01*
X121430000Y-44060000D02*
G75*
G02*
X120410000Y-44060000I-510000J0D01*
G01*
X120410000Y-44060000D02*
G75*
G02*
X121430000Y-44060000I510000J0D01*
G01*
X121430000Y-46600000D02*
G75*
G02*
X120410000Y-46600000I-510000J0D01*
G01*
X120410000Y-46600000D02*
G75*
G02*
X121430000Y-46600000I510000J0D01*
G01*
X121430000Y-49140000D02*
G75*
G02*
X120410000Y-49140000I-510000J0D01*
G01*
X120410000Y-49140000D02*
G75*
G02*
X121430000Y-49140000I510000J0D01*
G01*
X121430000Y-51680000D02*
G75*
G02*
X120410000Y-51680000I-510000J0D01*
G01*
X120410000Y-51680000D02*
G75*
G02*
X121430000Y-51680000I510000J0D01*
G01*
X121430000Y-54220000D02*
G75*
G02*
X120410000Y-54220000I-510000J0D01*
G01*
X120410000Y-54220000D02*
G75*
G02*
X121430000Y-54220000I510000J0D01*
G01*
X121430000Y-56760000D02*
G75*
G02*
X120410000Y-56760000I-510000J0D01*
G01*
X120410000Y-56760000D02*
G75*
G02*
X121430000Y-56760000I510000J0D01*
G01*
X121430000Y-59300000D02*
G75*
G02*
X120410000Y-59300000I-510000J0D01*
G01*
X120410000Y-59300000D02*
G75*
G02*
X121430000Y-59300000I510000J0D01*
G01*
X121430000Y-61840000D02*
G75*
G02*
X120410000Y-61840000I-510000J0D01*
G01*
X120410000Y-61840000D02*
G75*
G02*
X121430000Y-61840000I510000J0D01*
G01*
X121430000Y-64380000D02*
G75*
G02*
X120410000Y-64380000I-510000J0D01*
G01*
X120410000Y-64380000D02*
G75*
G02*
X121430000Y-64380000I510000J0D01*
G01*
X121430000Y-66920000D02*
G75*
G02*
X120410000Y-66920000I-510000J0D01*
G01*
X120410000Y-66920000D02*
G75*
G02*
X121430000Y-66920000I510000J0D01*
G01*
X121430000Y-69460000D02*
G75*
G02*
X120410000Y-69460000I-510000J0D01*
G01*
X120410000Y-69460000D02*
G75*
G02*
X121430000Y-69460000I510000J0D01*
G01*
X121430000Y-72000000D02*
G75*
G02*
X120410000Y-72000000I-510000J0D01*
G01*
X120410000Y-72000000D02*
G75*
G02*
X121430000Y-72000000I510000J0D01*
G01*
X123970000Y-38980000D02*
G75*
G02*
X122950000Y-38980000I-510000J0D01*
G01*
X122950000Y-38980000D02*
G75*
G02*
X123970000Y-38980000I510000J0D01*
G01*
X123970000Y-41520000D02*
G75*
G02*
X122950000Y-41520000I-510000J0D01*
G01*
X122950000Y-41520000D02*
G75*
G02*
X123970000Y-41520000I510000J0D01*
G01*
X123970000Y-44060000D02*
G75*
G02*
X122950000Y-44060000I-510000J0D01*
G01*
X122950000Y-44060000D02*
G75*
G02*
X123970000Y-44060000I510000J0D01*
G01*
X123970000Y-46600000D02*
G75*
G02*
X122950000Y-46600000I-510000J0D01*
G01*
X122950000Y-46600000D02*
G75*
G02*
X123970000Y-46600000I510000J0D01*
G01*
X123970000Y-49140000D02*
G75*
G02*
X122950000Y-49140000I-510000J0D01*
G01*
X122950000Y-49140000D02*
G75*
G02*
X123970000Y-49140000I510000J0D01*
G01*
X123970000Y-51680000D02*
G75*
G02*
X122950000Y-51680000I-510000J0D01*
G01*
X122950000Y-51680000D02*
G75*
G02*
X123970000Y-51680000I510000J0D01*
G01*
X123970000Y-54220000D02*
G75*
G02*
X122950000Y-54220000I-510000J0D01*
G01*
X122950000Y-54220000D02*
G75*
G02*
X123970000Y-54220000I510000J0D01*
G01*
X123970000Y-56760000D02*
G75*
G02*
X122950000Y-56760000I-510000J0D01*
G01*
X122950000Y-56760000D02*
G75*
G02*
X123970000Y-56760000I510000J0D01*
G01*
X123970000Y-59300000D02*
G75*
G02*
X122950000Y-59300000I-510000J0D01*
G01*
X122950000Y-59300000D02*
G75*
G02*
X123970000Y-59300000I510000J0D01*
G01*
X123970000Y-61840000D02*
G75*
G02*
X122950000Y-61840000I-510000J0D01*
G01*
X122950000Y-61840000D02*
G75*
G02*
X123970000Y-61840000I510000J0D01*
G01*
X123970000Y-64380000D02*
G75*
G02*
X122950000Y-64380000I-510000J0D01*
G01*
X122950000Y-64380000D02*
G75*
G02*
X123970000Y-64380000I510000J0D01*
G01*
X123970000Y-66920000D02*
G75*
G02*
X122950000Y-66920000I-510000J0D01*
G01*
X122950000Y-66920000D02*
G75*
G02*
X123970000Y-66920000I510000J0D01*
G01*
X123970000Y-69460000D02*
G75*
G02*
X122950000Y-69460000I-510000J0D01*
G01*
X122950000Y-69460000D02*
G75*
G02*
X123970000Y-69460000I510000J0D01*
G01*
X123970000Y-72000000D02*
G75*
G02*
X122950000Y-72000000I-510000J0D01*
G01*
X122950000Y-72000000D02*
G75*
G02*
X123970000Y-72000000I510000J0D01*
G01*
X126510000Y-38980000D02*
G75*
G02*
X125490000Y-38980000I-510000J0D01*
G01*
X125490000Y-38980000D02*
G75*
G02*
X126510000Y-38980000I510000J0D01*
G01*
X126510000Y-41520000D02*
G75*
G02*
X125490000Y-41520000I-510000J0D01*
G01*
X125490000Y-41520000D02*
G75*
G02*
X126510000Y-41520000I510000J0D01*
G01*
X126510000Y-44060000D02*
G75*
G02*
X125490000Y-44060000I-510000J0D01*
G01*
X125490000Y-44060000D02*
G75*
G02*
X126510000Y-44060000I510000J0D01*
G01*
X126510000Y-46600000D02*
G75*
G02*
X125490000Y-46600000I-510000J0D01*
G01*
X125490000Y-46600000D02*
G75*
G02*
X126510000Y-46600000I510000J0D01*
G01*
X126510000Y-49140000D02*
G75*
G02*
X125490000Y-49140000I-510000J0D01*
G01*
X125490000Y-49140000D02*
G75*
G02*
X126510000Y-49140000I510000J0D01*
G01*
X126510000Y-51680000D02*
G75*
G02*
X125490000Y-51680000I-510000J0D01*
G01*
X125490000Y-51680000D02*
G75*
G02*
X126510000Y-51680000I510000J0D01*
G01*
X126510000Y-54220000D02*
G75*
G02*
X125490000Y-54220000I-510000J0D01*
G01*
X125490000Y-54220000D02*
G75*
G02*
X126510000Y-54220000I510000J0D01*
G01*
X126510000Y-56760000D02*
G75*
G02*
X125490000Y-56760000I-510000J0D01*
G01*
X125490000Y-56760000D02*
G75*
G02*
X126510000Y-56760000I510000J0D01*
G01*
X126510000Y-59300000D02*
G75*
G02*
X125490000Y-59300000I-510000J0D01*
G01*
X125490000Y-59300000D02*
G75*
G02*
X126510000Y-59300000I510000J0D01*
G01*
X126510000Y-61840000D02*
G75*
G02*
X125490000Y-61840000I-510000J0D01*
G01*
X125490000Y-61840000D02*
G75*
G02*
X126510000Y-61840000I510000J0D01*
G01*
X126510000Y-64380000D02*
G75*
G02*
X125490000Y-64380000I-510000J0D01*
G01*
X125490000Y-64380000D02*
G75*
G02*
X126510000Y-64380000I510000J0D01*
G01*
X126510000Y-66920000D02*
G75*
G02*
X125490000Y-66920000I-510000J0D01*
G01*
X125490000Y-66920000D02*
G75*
G02*
X126510000Y-66920000I510000J0D01*
G01*
X126510000Y-69460000D02*
G75*
G02*
X125490000Y-69460000I-510000J0D01*
G01*
X125490000Y-69460000D02*
G75*
G02*
X126510000Y-69460000I510000J0D01*
G01*
X126510000Y-72000000D02*
G75*
G02*
X125490000Y-72000000I-510000J0D01*
G01*
X125490000Y-72000000D02*
G75*
G02*
X126510000Y-72000000I510000J0D01*
G01*
%TO.C,R11*%
X80000000Y-105690000D02*
X80000000Y-107700000D01*
X80000000Y-113310000D02*
X80000000Y-111300000D01*
X79200000Y-107700000D02*
X80800000Y-107700000D01*
X80800000Y-111300000D01*
X79200000Y-111300000D01*
X79200000Y-107700000D01*
%TO.C,R15*%
X94920000Y-57670000D02*
X94920000Y-59680000D01*
X94920000Y-65290000D02*
X94920000Y-63280000D01*
X94120000Y-59680000D02*
X95720000Y-59680000D01*
X95720000Y-63280000D01*
X94120000Y-63280000D01*
X94120000Y-59680000D01*
%TO.C,U4*%
D13*
X102705469Y-79120000D02*
G75*
G02*
X100414531Y-79120000I-1145469J0D01*
G01*
X100414531Y-79120000D02*
G75*
G02*
X102705469Y-79120000I1145469J0D01*
G01*
X102705469Y-99840000D02*
G75*
G02*
X100414531Y-99840000I-1145469J0D01*
G01*
X100414531Y-99840000D02*
G75*
G02*
X102705469Y-99840000I1145469J0D01*
G01*
X141718225Y-79120000D02*
G75*
G02*
X139241775Y-79120000I-1238225J0D01*
G01*
X139241775Y-79120000D02*
G75*
G02*
X141718225Y-79120000I1238225J0D01*
G01*
X141582769Y-99840000D02*
G75*
G02*
X139377231Y-99840000I-1102769J0D01*
G01*
X139377231Y-99840000D02*
G75*
G02*
X141582769Y-99840000I1102769J0D01*
G01*
%TO.C,R2*%
D12*
X65420000Y-50170000D02*
X65420000Y-52180000D01*
X65420000Y-57790000D02*
X65420000Y-55780000D01*
X64620000Y-52180000D02*
X66220000Y-52180000D01*
X66220000Y-55780000D01*
X64620000Y-55780000D01*
X64620000Y-52180000D01*
%TO.C,foot_Motor_2*%
X69900000Y-106100000D02*
X77220000Y-106100000D01*
X69900000Y-112600000D02*
X69900000Y-106100000D01*
X70662000Y-110136000D02*
X72056000Y-108742000D01*
X70784000Y-110258000D02*
X72178000Y-108864000D01*
X73202000Y-110136000D02*
X74596000Y-108742000D01*
X73324000Y-110258000D02*
X74718000Y-108864000D01*
X75742000Y-110136000D02*
X77136000Y-108742000D01*
X75864000Y-110258000D02*
X77258000Y-108864000D01*
X77220000Y-106100000D02*
X78020000Y-106900000D01*
X78020000Y-106900000D02*
X69900000Y-106900000D01*
X78020000Y-106900000D02*
X78020000Y-112600000D01*
X78020000Y-107900000D02*
X69900000Y-107900000D01*
X78020000Y-111000000D02*
X69900000Y-111000000D01*
X78020000Y-112600000D02*
X69900000Y-112600000D01*
X72420000Y-109500000D02*
G75*
G02*
X70420000Y-109500000I-1000000J0D01*
G01*
X70420000Y-109500000D02*
G75*
G02*
X72420000Y-109500000I1000000J0D01*
G01*
X74960000Y-109500000D02*
G75*
G02*
X72960000Y-109500000I-1000000J0D01*
G01*
X72960000Y-109500000D02*
G75*
G02*
X74960000Y-109500000I1000000J0D01*
G01*
X77500000Y-109500000D02*
G75*
G02*
X75500000Y-109500000I-1000000J0D01*
G01*
X75500000Y-109500000D02*
G75*
G02*
X77500000Y-109500000I1000000J0D01*
G01*
%TO.C,R16*%
X88920000Y-62670000D02*
X88920000Y-64680000D01*
X88920000Y-70290000D02*
X88920000Y-68280000D01*
X88120000Y-64680000D02*
X89720000Y-64680000D01*
X89720000Y-68280000D01*
X88120000Y-68280000D01*
X88120000Y-64680000D01*
%TO.C,R13*%
X93500000Y-96670000D02*
X93500000Y-98680000D01*
X93500000Y-104290000D02*
X93500000Y-102280000D01*
X92700000Y-98680000D02*
X94300000Y-98680000D01*
X94300000Y-102280000D01*
X92700000Y-102280000D01*
X92700000Y-98680000D01*
%TO.C,R4*%
X71420000Y-49880000D02*
X71420000Y-51890000D01*
X71420000Y-57500000D02*
X71420000Y-55490000D01*
X70620000Y-51890000D02*
X72220000Y-51890000D01*
X72220000Y-55490000D01*
X70620000Y-55490000D01*
X70620000Y-51890000D01*
%TO.C,R1*%
X74920000Y-49880000D02*
X74920000Y-51890000D01*
X74920000Y-57500000D02*
X74920000Y-55490000D01*
X74120000Y-51890000D02*
X75720000Y-51890000D01*
X75720000Y-55490000D01*
X74120000Y-55490000D01*
X74120000Y-51890000D01*
%TO.C,R10*%
X60920000Y-105480000D02*
X60920000Y-107490000D01*
X60920000Y-113100000D02*
X60920000Y-111090000D01*
X60120000Y-107490000D02*
X61720000Y-107490000D01*
X61720000Y-111090000D01*
X60120000Y-111090000D01*
X60120000Y-107490000D01*
%TO.C,R5*%
X60420000Y-50170000D02*
X60420000Y-52180000D01*
X60420000Y-57790000D02*
X60420000Y-55780000D01*
X59620000Y-52180000D02*
X61220000Y-52180000D01*
X61220000Y-55780000D01*
X59620000Y-55780000D01*
X59620000Y-52180000D01*
%TO.C,R9*%
X45920000Y-105480000D02*
X45920000Y-107490000D01*
X45920000Y-113100000D02*
X45920000Y-111090000D01*
X45120000Y-107490000D02*
X46720000Y-107490000D01*
X46720000Y-111090000D01*
X45120000Y-111090000D01*
X45120000Y-107490000D01*
%TO.C,home_sensor1*%
X58820000Y-38380000D02*
X66940000Y-38380000D01*
X58820000Y-39980000D02*
X66940000Y-39980000D01*
X58820000Y-43080000D02*
X66940000Y-43080000D01*
X58820000Y-44080000D02*
X58820000Y-38380000D01*
X58820000Y-44080000D02*
X66940000Y-44080000D01*
X59620000Y-44880000D02*
X58820000Y-44080000D01*
X60976000Y-40722000D02*
X59582000Y-42116000D01*
X61098000Y-40844000D02*
X59704000Y-42238000D01*
X63516000Y-40722000D02*
X62122000Y-42116000D01*
X63638000Y-40844000D02*
X62244000Y-42238000D01*
X66056000Y-40722000D02*
X64662000Y-42116000D01*
X66178000Y-40844000D02*
X64784000Y-42238000D01*
X66940000Y-38380000D02*
X66940000Y-44880000D01*
X66940000Y-44880000D02*
X59620000Y-44880000D01*
X61340000Y-41480000D02*
G75*
G02*
X59340000Y-41480000I-1000000J0D01*
G01*
X59340000Y-41480000D02*
G75*
G02*
X61340000Y-41480000I1000000J0D01*
G01*
X63880000Y-41480000D02*
G75*
G02*
X61880000Y-41480000I-1000000J0D01*
G01*
X61880000Y-41480000D02*
G75*
G02*
X63880000Y-41480000I1000000J0D01*
G01*
X66420000Y-41480000D02*
G75*
G02*
X64420000Y-41480000I-1000000J0D01*
G01*
X64420000Y-41480000D02*
G75*
G02*
X66420000Y-41480000I1000000J0D01*
G01*
%TO.C,foot_Motor_1*%
X50320000Y-106080000D02*
X57640000Y-106080000D01*
X50320000Y-112580000D02*
X50320000Y-106080000D01*
X51082000Y-110116000D02*
X52476000Y-108722000D01*
X51204000Y-110238000D02*
X52598000Y-108844000D01*
X53622000Y-110116000D02*
X55016000Y-108722000D01*
X53744000Y-110238000D02*
X55138000Y-108844000D01*
X56162000Y-110116000D02*
X57556000Y-108722000D01*
X56284000Y-110238000D02*
X57678000Y-108844000D01*
X57640000Y-106080000D02*
X58440000Y-106880000D01*
X58440000Y-106880000D02*
X50320000Y-106880000D01*
X58440000Y-106880000D02*
X58440000Y-112580000D01*
X58440000Y-107880000D02*
X50320000Y-107880000D01*
X58440000Y-110980000D02*
X50320000Y-110980000D01*
X58440000Y-112580000D02*
X50320000Y-112580000D01*
X52840000Y-109480000D02*
G75*
G02*
X50840000Y-109480000I-1000000J0D01*
G01*
X50840000Y-109480000D02*
G75*
G02*
X52840000Y-109480000I1000000J0D01*
G01*
X55380000Y-109480000D02*
G75*
G02*
X53380000Y-109480000I-1000000J0D01*
G01*
X53380000Y-109480000D02*
G75*
G02*
X55380000Y-109480000I1000000J0D01*
G01*
X57920000Y-109480000D02*
G75*
G02*
X55920000Y-109480000I-1000000J0D01*
G01*
X55920000Y-109480000D02*
G75*
G02*
X57920000Y-109480000I1000000J0D01*
G01*
%TO.C,Power1*%
X34125000Y-62097500D02*
X39705000Y-62097500D01*
X34125000Y-63697500D02*
X39705000Y-63697500D01*
X34125000Y-66797500D02*
X39705000Y-66797500D01*
X34125000Y-67797500D02*
X34125000Y-62097500D01*
X34125000Y-67797500D02*
X39705000Y-67797500D01*
X34925000Y-68597500D02*
X34125000Y-67797500D01*
X36281000Y-64439500D02*
X34887000Y-65833500D01*
X36403000Y-64561500D02*
X35009000Y-65955500D01*
X38821000Y-64439500D02*
X37427000Y-65833500D01*
X38943000Y-64561500D02*
X37549000Y-65955500D01*
X39705000Y-62097500D02*
X39705000Y-68597500D01*
X39705000Y-68597500D02*
X34925000Y-68597500D01*
X36645000Y-65197500D02*
G75*
G02*
X34645000Y-65197500I-1000000J0D01*
G01*
X34645000Y-65197500D02*
G75*
G02*
X36645000Y-65197500I1000000J0D01*
G01*
X39185000Y-65197500D02*
G75*
G02*
X37185000Y-65197500I-1000000J0D01*
G01*
X37185000Y-65197500D02*
G75*
G02*
X39185000Y-65197500I1000000J0D01*
G01*
%TO.C,R3*%
X80420000Y-49880000D02*
X80420000Y-51890000D01*
X80420000Y-57500000D02*
X80420000Y-55490000D01*
X79620000Y-51890000D02*
X81220000Y-51890000D01*
X81220000Y-55490000D01*
X79620000Y-55490000D01*
X79620000Y-51890000D01*
%TO.C,R8*%
X40690000Y-58980000D02*
X42700000Y-58980000D01*
X48310000Y-58980000D02*
X46300000Y-58980000D01*
X42700000Y-58180000D02*
X46300000Y-58180000D01*
X46300000Y-59780000D01*
X42700000Y-59780000D01*
X42700000Y-58180000D01*
%TO.C,XIAO-ESP32-C6-SMD1*%
X108330000Y-103720000D02*
X129305000Y-103720000D01*
X129305000Y-121520000D01*
X108330000Y-121520000D01*
X108330000Y-103720000D01*
D14*
X109706000Y-120424000D02*
G75*
G02*
X109202000Y-120424000I-252000J0D01*
G01*
X109202000Y-120424000D02*
G75*
G02*
X109706000Y-120424000I252000J0D01*
G01*
%TD*%
M02*
