%TF.GenerationSoftware,KiCad,Pcbnew,10.0.5*%
%TF.CreationDate,2026-08-09T22:17:37-07:00*%
%TF.ProjectId,chopper_body_v2,63686f70-7065-4725-9f62-6f64795f7632,rev?*%
%TF.SameCoordinates,Original*%
%TF.FileFunction,AssemblyDrawing,Top*%
%FSLAX46Y46*%
G04 Gerber Fmt 4.6, Leading zero omitted, Abs format (unit mm)*
G04 Created by KiCad (PCBNEW 10.0.5) date 2026-08-09 22:17:37*
%MOMM*%
%LPD*%
G01*
G04 APERTURE LIST*
%ADD10C,0.150000*%
%ADD11C,0.108000*%
%ADD12C,0.100000*%
%ADD13C,0.504000*%
%ADD14C,0.200000*%
G04 APERTURE END LIST*
D10*
X94534819Y-50214285D02*
X94534819Y-50785713D01*
X94534819Y-50499999D02*
X93534819Y-50499999D01*
X93534819Y-50499999D02*
X93677676Y-50595237D01*
X93677676Y-50595237D02*
X93772914Y-50690475D01*
X93772914Y-50690475D02*
X93820533Y-50785713D01*
X94534819Y-49785713D02*
X93534819Y-49785713D01*
X94534819Y-49214285D02*
X93963390Y-49642856D01*
X93534819Y-49214285D02*
X94106247Y-49785713D01*
D11*
X95537143Y-50327469D02*
X95297143Y-49984612D01*
X95125714Y-50327469D02*
X95125714Y-49607469D01*
X95125714Y-49607469D02*
X95400000Y-49607469D01*
X95400000Y-49607469D02*
X95468571Y-49641755D01*
X95468571Y-49641755D02*
X95502857Y-49676041D01*
X95502857Y-49676041D02*
X95537143Y-49744612D01*
X95537143Y-49744612D02*
X95537143Y-49847469D01*
X95537143Y-49847469D02*
X95502857Y-49916041D01*
X95502857Y-49916041D02*
X95468571Y-49950326D01*
X95468571Y-49950326D02*
X95400000Y-49984612D01*
X95400000Y-49984612D02*
X95125714Y-49984612D01*
X96222857Y-50327469D02*
X95811428Y-50327469D01*
X96017143Y-50327469D02*
X96017143Y-49607469D01*
X96017143Y-49607469D02*
X95948571Y-49710326D01*
X95948571Y-49710326D02*
X95880000Y-49778898D01*
X95880000Y-49778898D02*
X95811428Y-49813184D01*
X96874285Y-49607469D02*
X96531428Y-49607469D01*
X96531428Y-49607469D02*
X96497142Y-49950326D01*
X96497142Y-49950326D02*
X96531428Y-49916041D01*
X96531428Y-49916041D02*
X96600000Y-49881755D01*
X96600000Y-49881755D02*
X96771428Y-49881755D01*
X96771428Y-49881755D02*
X96840000Y-49916041D01*
X96840000Y-49916041D02*
X96874285Y-49950326D01*
X96874285Y-49950326D02*
X96908571Y-50018898D01*
X96908571Y-50018898D02*
X96908571Y-50190326D01*
X96908571Y-50190326D02*
X96874285Y-50258898D01*
X96874285Y-50258898D02*
X96840000Y-50293184D01*
X96840000Y-50293184D02*
X96771428Y-50327469D01*
X96771428Y-50327469D02*
X96600000Y-50327469D01*
X96600000Y-50327469D02*
X96531428Y-50293184D01*
X96531428Y-50293184D02*
X96497142Y-50258898D01*
D10*
X37444284Y-31664819D02*
X37444284Y-30998152D01*
X37444284Y-31093390D02*
X37491903Y-31045771D01*
X37491903Y-31045771D02*
X37587141Y-30998152D01*
X37587141Y-30998152D02*
X37729998Y-30998152D01*
X37729998Y-30998152D02*
X37825236Y-31045771D01*
X37825236Y-31045771D02*
X37872855Y-31141009D01*
X37872855Y-31141009D02*
X37872855Y-31664819D01*
X37872855Y-31141009D02*
X37920474Y-31045771D01*
X37920474Y-31045771D02*
X38015712Y-30998152D01*
X38015712Y-30998152D02*
X38158569Y-30998152D01*
X38158569Y-30998152D02*
X38253808Y-31045771D01*
X38253808Y-31045771D02*
X38301427Y-31141009D01*
X38301427Y-31141009D02*
X38301427Y-31664819D01*
X38920474Y-31664819D02*
X38825236Y-31617200D01*
X38825236Y-31617200D02*
X38777617Y-31569580D01*
X38777617Y-31569580D02*
X38729998Y-31474342D01*
X38729998Y-31474342D02*
X38729998Y-31188628D01*
X38729998Y-31188628D02*
X38777617Y-31093390D01*
X38777617Y-31093390D02*
X38825236Y-31045771D01*
X38825236Y-31045771D02*
X38920474Y-30998152D01*
X38920474Y-30998152D02*
X39063331Y-30998152D01*
X39063331Y-30998152D02*
X39158569Y-31045771D01*
X39158569Y-31045771D02*
X39206188Y-31093390D01*
X39206188Y-31093390D02*
X39253807Y-31188628D01*
X39253807Y-31188628D02*
X39253807Y-31474342D01*
X39253807Y-31474342D02*
X39206188Y-31569580D01*
X39206188Y-31569580D02*
X39158569Y-31617200D01*
X39158569Y-31617200D02*
X39063331Y-31664819D01*
X39063331Y-31664819D02*
X38920474Y-31664819D01*
X39539522Y-30998152D02*
X39920474Y-30998152D01*
X39682379Y-30664819D02*
X39682379Y-31521961D01*
X39682379Y-31521961D02*
X39729998Y-31617200D01*
X39729998Y-31617200D02*
X39825236Y-31664819D01*
X39825236Y-31664819D02*
X39920474Y-31664819D01*
X40396665Y-31664819D02*
X40301427Y-31617200D01*
X40301427Y-31617200D02*
X40253808Y-31569580D01*
X40253808Y-31569580D02*
X40206189Y-31474342D01*
X40206189Y-31474342D02*
X40206189Y-31188628D01*
X40206189Y-31188628D02*
X40253808Y-31093390D01*
X40253808Y-31093390D02*
X40301427Y-31045771D01*
X40301427Y-31045771D02*
X40396665Y-30998152D01*
X40396665Y-30998152D02*
X40539522Y-30998152D01*
X40539522Y-30998152D02*
X40634760Y-31045771D01*
X40634760Y-31045771D02*
X40682379Y-31093390D01*
X40682379Y-31093390D02*
X40729998Y-31188628D01*
X40729998Y-31188628D02*
X40729998Y-31474342D01*
X40729998Y-31474342D02*
X40682379Y-31569580D01*
X40682379Y-31569580D02*
X40634760Y-31617200D01*
X40634760Y-31617200D02*
X40539522Y-31664819D01*
X40539522Y-31664819D02*
X40396665Y-31664819D01*
X41158570Y-31664819D02*
X41158570Y-30998152D01*
X41158570Y-31188628D02*
X41206189Y-31093390D01*
X41206189Y-31093390D02*
X41253808Y-31045771D01*
X41253808Y-31045771D02*
X41349046Y-30998152D01*
X41349046Y-30998152D02*
X41444284Y-30998152D01*
X41539523Y-31760057D02*
X42301427Y-31760057D01*
X42539523Y-31664819D02*
X42539523Y-30664819D01*
X42968094Y-31664819D02*
X42968094Y-31141009D01*
X42968094Y-31141009D02*
X42920475Y-31045771D01*
X42920475Y-31045771D02*
X42825237Y-30998152D01*
X42825237Y-30998152D02*
X42682380Y-30998152D01*
X42682380Y-30998152D02*
X42587142Y-31045771D01*
X42587142Y-31045771D02*
X42539523Y-31093390D01*
X43825237Y-31617200D02*
X43729999Y-31664819D01*
X43729999Y-31664819D02*
X43539523Y-31664819D01*
X43539523Y-31664819D02*
X43444285Y-31617200D01*
X43444285Y-31617200D02*
X43396666Y-31521961D01*
X43396666Y-31521961D02*
X43396666Y-31141009D01*
X43396666Y-31141009D02*
X43444285Y-31045771D01*
X43444285Y-31045771D02*
X43539523Y-30998152D01*
X43539523Y-30998152D02*
X43729999Y-30998152D01*
X43729999Y-30998152D02*
X43825237Y-31045771D01*
X43825237Y-31045771D02*
X43872856Y-31141009D01*
X43872856Y-31141009D02*
X43872856Y-31236247D01*
X43872856Y-31236247D02*
X43396666Y-31331485D01*
X44729999Y-31664819D02*
X44729999Y-31141009D01*
X44729999Y-31141009D02*
X44682380Y-31045771D01*
X44682380Y-31045771D02*
X44587142Y-30998152D01*
X44587142Y-30998152D02*
X44396666Y-30998152D01*
X44396666Y-30998152D02*
X44301428Y-31045771D01*
X44729999Y-31617200D02*
X44634761Y-31664819D01*
X44634761Y-31664819D02*
X44396666Y-31664819D01*
X44396666Y-31664819D02*
X44301428Y-31617200D01*
X44301428Y-31617200D02*
X44253809Y-31521961D01*
X44253809Y-31521961D02*
X44253809Y-31426723D01*
X44253809Y-31426723D02*
X44301428Y-31331485D01*
X44301428Y-31331485D02*
X44396666Y-31283866D01*
X44396666Y-31283866D02*
X44634761Y-31283866D01*
X44634761Y-31283866D02*
X44729999Y-31236247D01*
X45634761Y-31664819D02*
X45634761Y-30664819D01*
X45634761Y-31617200D02*
X45539523Y-31664819D01*
X45539523Y-31664819D02*
X45349047Y-31664819D01*
X45349047Y-31664819D02*
X45253809Y-31617200D01*
X45253809Y-31617200D02*
X45206190Y-31569580D01*
X45206190Y-31569580D02*
X45158571Y-31474342D01*
X45158571Y-31474342D02*
X45158571Y-31188628D01*
X45158571Y-31188628D02*
X45206190Y-31093390D01*
X45206190Y-31093390D02*
X45253809Y-31045771D01*
X45253809Y-31045771D02*
X45349047Y-30998152D01*
X45349047Y-30998152D02*
X45539523Y-30998152D01*
X45539523Y-30998152D02*
X45634761Y-31045771D01*
X45872857Y-31760057D02*
X46634761Y-31760057D01*
X47253809Y-31617200D02*
X47158571Y-31664819D01*
X47158571Y-31664819D02*
X46968095Y-31664819D01*
X46968095Y-31664819D02*
X46872857Y-31617200D01*
X46872857Y-31617200D02*
X46825238Y-31521961D01*
X46825238Y-31521961D02*
X46825238Y-31141009D01*
X46825238Y-31141009D02*
X46872857Y-31045771D01*
X46872857Y-31045771D02*
X46968095Y-30998152D01*
X46968095Y-30998152D02*
X47158571Y-30998152D01*
X47158571Y-30998152D02*
X47253809Y-31045771D01*
X47253809Y-31045771D02*
X47301428Y-31141009D01*
X47301428Y-31141009D02*
X47301428Y-31236247D01*
X47301428Y-31236247D02*
X46825238Y-31331485D01*
X47730000Y-30998152D02*
X47730000Y-31664819D01*
X47730000Y-31093390D02*
X47777619Y-31045771D01*
X47777619Y-31045771D02*
X47872857Y-30998152D01*
X47872857Y-30998152D02*
X48015714Y-30998152D01*
X48015714Y-30998152D02*
X48110952Y-31045771D01*
X48110952Y-31045771D02*
X48158571Y-31141009D01*
X48158571Y-31141009D02*
X48158571Y-31664819D01*
X49063333Y-31617200D02*
X48968095Y-31664819D01*
X48968095Y-31664819D02*
X48777619Y-31664819D01*
X48777619Y-31664819D02*
X48682381Y-31617200D01*
X48682381Y-31617200D02*
X48634762Y-31569580D01*
X48634762Y-31569580D02*
X48587143Y-31474342D01*
X48587143Y-31474342D02*
X48587143Y-31188628D01*
X48587143Y-31188628D02*
X48634762Y-31093390D01*
X48634762Y-31093390D02*
X48682381Y-31045771D01*
X48682381Y-31045771D02*
X48777619Y-30998152D01*
X48777619Y-30998152D02*
X48968095Y-30998152D01*
X48968095Y-30998152D02*
X49063333Y-31045771D01*
X49253810Y-31760057D02*
X50015714Y-31760057D01*
X50682381Y-31664819D02*
X50682381Y-31141009D01*
X50682381Y-31141009D02*
X50634762Y-31045771D01*
X50634762Y-31045771D02*
X50539524Y-30998152D01*
X50539524Y-30998152D02*
X50349048Y-30998152D01*
X50349048Y-30998152D02*
X50253810Y-31045771D01*
X50682381Y-31617200D02*
X50587143Y-31664819D01*
X50587143Y-31664819D02*
X50349048Y-31664819D01*
X50349048Y-31664819D02*
X50253810Y-31617200D01*
X50253810Y-31617200D02*
X50206191Y-31521961D01*
X50206191Y-31521961D02*
X50206191Y-31426723D01*
X50206191Y-31426723D02*
X50253810Y-31331485D01*
X50253810Y-31331485D02*
X50349048Y-31283866D01*
X50349048Y-31283866D02*
X50587143Y-31283866D01*
X50587143Y-31283866D02*
X50682381Y-31236247D01*
X50920477Y-31760057D02*
X51682381Y-31760057D01*
X52301429Y-31617200D02*
X52206191Y-31664819D01*
X52206191Y-31664819D02*
X52015715Y-31664819D01*
X52015715Y-31664819D02*
X51920477Y-31617200D01*
X51920477Y-31617200D02*
X51872858Y-31521961D01*
X51872858Y-31521961D02*
X51872858Y-31141009D01*
X51872858Y-31141009D02*
X51920477Y-31045771D01*
X51920477Y-31045771D02*
X52015715Y-30998152D01*
X52015715Y-30998152D02*
X52206191Y-30998152D01*
X52206191Y-30998152D02*
X52301429Y-31045771D01*
X52301429Y-31045771D02*
X52349048Y-31141009D01*
X52349048Y-31141009D02*
X52349048Y-31236247D01*
X52349048Y-31236247D02*
X51872858Y-31331485D01*
X52777620Y-30998152D02*
X52777620Y-31664819D01*
X52777620Y-31093390D02*
X52825239Y-31045771D01*
X52825239Y-31045771D02*
X52920477Y-30998152D01*
X52920477Y-30998152D02*
X53063334Y-30998152D01*
X53063334Y-30998152D02*
X53158572Y-31045771D01*
X53158572Y-31045771D02*
X53206191Y-31141009D01*
X53206191Y-31141009D02*
X53206191Y-31664819D01*
X54110953Y-31617200D02*
X54015715Y-31664819D01*
X54015715Y-31664819D02*
X53825239Y-31664819D01*
X53825239Y-31664819D02*
X53730001Y-31617200D01*
X53730001Y-31617200D02*
X53682382Y-31569580D01*
X53682382Y-31569580D02*
X53634763Y-31474342D01*
X53634763Y-31474342D02*
X53634763Y-31188628D01*
X53634763Y-31188628D02*
X53682382Y-31093390D01*
X53682382Y-31093390D02*
X53730001Y-31045771D01*
X53730001Y-31045771D02*
X53825239Y-30998152D01*
X53825239Y-30998152D02*
X54015715Y-30998152D01*
X54015715Y-30998152D02*
X54110953Y-31045771D01*
X54301430Y-31760057D02*
X55063334Y-31760057D01*
X55301430Y-31664819D02*
X55301430Y-30664819D01*
X55301430Y-31045771D02*
X55396668Y-30998152D01*
X55396668Y-30998152D02*
X55587144Y-30998152D01*
X55587144Y-30998152D02*
X55682382Y-31045771D01*
X55682382Y-31045771D02*
X55730001Y-31093390D01*
X55730001Y-31093390D02*
X55777620Y-31188628D01*
X55777620Y-31188628D02*
X55777620Y-31474342D01*
X55777620Y-31474342D02*
X55730001Y-31569580D01*
X55730001Y-31569580D02*
X55682382Y-31617200D01*
X55682382Y-31617200D02*
X55587144Y-31664819D01*
X55587144Y-31664819D02*
X55396668Y-31664819D01*
X55396668Y-31664819D02*
X55301430Y-31617200D01*
X55968097Y-31760057D02*
X56730001Y-31760057D01*
X57444287Y-30664819D02*
X56968097Y-30664819D01*
X56968097Y-30664819D02*
X56920478Y-31141009D01*
X56920478Y-31141009D02*
X56968097Y-31093390D01*
X56968097Y-31093390D02*
X57063335Y-31045771D01*
X57063335Y-31045771D02*
X57301430Y-31045771D01*
X57301430Y-31045771D02*
X57396668Y-31093390D01*
X57396668Y-31093390D02*
X57444287Y-31141009D01*
X57444287Y-31141009D02*
X57491906Y-31236247D01*
X57491906Y-31236247D02*
X57491906Y-31474342D01*
X57491906Y-31474342D02*
X57444287Y-31569580D01*
X57444287Y-31569580D02*
X57396668Y-31617200D01*
X57396668Y-31617200D02*
X57301430Y-31664819D01*
X57301430Y-31664819D02*
X57063335Y-31664819D01*
X57063335Y-31664819D02*
X56968097Y-31617200D01*
X56968097Y-31617200D02*
X56920478Y-31569580D01*
X57825240Y-30998152D02*
X58063335Y-31664819D01*
X58063335Y-31664819D02*
X58301430Y-30998152D01*
X58444288Y-31760057D02*
X59206192Y-31760057D01*
X59968097Y-30712438D02*
X59872859Y-30664819D01*
X59872859Y-30664819D02*
X59730002Y-30664819D01*
X59730002Y-30664819D02*
X59587145Y-30712438D01*
X59587145Y-30712438D02*
X59491907Y-30807676D01*
X59491907Y-30807676D02*
X59444288Y-30902914D01*
X59444288Y-30902914D02*
X59396669Y-31093390D01*
X59396669Y-31093390D02*
X59396669Y-31236247D01*
X59396669Y-31236247D02*
X59444288Y-31426723D01*
X59444288Y-31426723D02*
X59491907Y-31521961D01*
X59491907Y-31521961D02*
X59587145Y-31617200D01*
X59587145Y-31617200D02*
X59730002Y-31664819D01*
X59730002Y-31664819D02*
X59825240Y-31664819D01*
X59825240Y-31664819D02*
X59968097Y-31617200D01*
X59968097Y-31617200D02*
X60015716Y-31569580D01*
X60015716Y-31569580D02*
X60015716Y-31236247D01*
X60015716Y-31236247D02*
X59825240Y-31236247D01*
X60444288Y-31664819D02*
X60444288Y-30664819D01*
X60444288Y-30664819D02*
X61015716Y-31664819D01*
X61015716Y-31664819D02*
X61015716Y-30664819D01*
X61491907Y-31664819D02*
X61491907Y-30664819D01*
X61491907Y-30664819D02*
X61730002Y-30664819D01*
X61730002Y-30664819D02*
X61872859Y-30712438D01*
X61872859Y-30712438D02*
X61968097Y-30807676D01*
X61968097Y-30807676D02*
X62015716Y-30902914D01*
X62015716Y-30902914D02*
X62063335Y-31093390D01*
X62063335Y-31093390D02*
X62063335Y-31236247D01*
X62063335Y-31236247D02*
X62015716Y-31426723D01*
X62015716Y-31426723D02*
X61968097Y-31521961D01*
X61968097Y-31521961D02*
X61872859Y-31617200D01*
X61872859Y-31617200D02*
X61730002Y-31664819D01*
X61730002Y-31664819D02*
X61491907Y-31664819D01*
X43968094Y-28771009D02*
X44301427Y-28771009D01*
X44444284Y-29294819D02*
X43968094Y-29294819D01*
X43968094Y-29294819D02*
X43968094Y-28294819D01*
X43968094Y-28294819D02*
X44444284Y-28294819D01*
X44872856Y-28628152D02*
X44872856Y-29294819D01*
X44872856Y-28723390D02*
X44920475Y-28675771D01*
X44920475Y-28675771D02*
X45015713Y-28628152D01*
X45015713Y-28628152D02*
X45158570Y-28628152D01*
X45158570Y-28628152D02*
X45253808Y-28675771D01*
X45253808Y-28675771D02*
X45301427Y-28771009D01*
X45301427Y-28771009D02*
X45301427Y-29294819D01*
X46206189Y-29247200D02*
X46110951Y-29294819D01*
X46110951Y-29294819D02*
X45920475Y-29294819D01*
X45920475Y-29294819D02*
X45825237Y-29247200D01*
X45825237Y-29247200D02*
X45777618Y-29199580D01*
X45777618Y-29199580D02*
X45729999Y-29104342D01*
X45729999Y-29104342D02*
X45729999Y-28818628D01*
X45729999Y-28818628D02*
X45777618Y-28723390D01*
X45777618Y-28723390D02*
X45825237Y-28675771D01*
X45825237Y-28675771D02*
X45920475Y-28628152D01*
X45920475Y-28628152D02*
X46110951Y-28628152D01*
X46110951Y-28628152D02*
X46206189Y-28675771D01*
X46777618Y-29294819D02*
X46682380Y-29247200D01*
X46682380Y-29247200D02*
X46634761Y-29199580D01*
X46634761Y-29199580D02*
X46587142Y-29104342D01*
X46587142Y-29104342D02*
X46587142Y-28818628D01*
X46587142Y-28818628D02*
X46634761Y-28723390D01*
X46634761Y-28723390D02*
X46682380Y-28675771D01*
X46682380Y-28675771D02*
X46777618Y-28628152D01*
X46777618Y-28628152D02*
X46920475Y-28628152D01*
X46920475Y-28628152D02*
X47015713Y-28675771D01*
X47015713Y-28675771D02*
X47063332Y-28723390D01*
X47063332Y-28723390D02*
X47110951Y-28818628D01*
X47110951Y-28818628D02*
X47110951Y-29104342D01*
X47110951Y-29104342D02*
X47063332Y-29199580D01*
X47063332Y-29199580D02*
X47015713Y-29247200D01*
X47015713Y-29247200D02*
X46920475Y-29294819D01*
X46920475Y-29294819D02*
X46777618Y-29294819D01*
X47968094Y-29294819D02*
X47968094Y-28294819D01*
X47968094Y-29247200D02*
X47872856Y-29294819D01*
X47872856Y-29294819D02*
X47682380Y-29294819D01*
X47682380Y-29294819D02*
X47587142Y-29247200D01*
X47587142Y-29247200D02*
X47539523Y-29199580D01*
X47539523Y-29199580D02*
X47491904Y-29104342D01*
X47491904Y-29104342D02*
X47491904Y-28818628D01*
X47491904Y-28818628D02*
X47539523Y-28723390D01*
X47539523Y-28723390D02*
X47587142Y-28675771D01*
X47587142Y-28675771D02*
X47682380Y-28628152D01*
X47682380Y-28628152D02*
X47872856Y-28628152D01*
X47872856Y-28628152D02*
X47968094Y-28675771D01*
X48825237Y-29247200D02*
X48729999Y-29294819D01*
X48729999Y-29294819D02*
X48539523Y-29294819D01*
X48539523Y-29294819D02*
X48444285Y-29247200D01*
X48444285Y-29247200D02*
X48396666Y-29151961D01*
X48396666Y-29151961D02*
X48396666Y-28771009D01*
X48396666Y-28771009D02*
X48444285Y-28675771D01*
X48444285Y-28675771D02*
X48539523Y-28628152D01*
X48539523Y-28628152D02*
X48729999Y-28628152D01*
X48729999Y-28628152D02*
X48825237Y-28675771D01*
X48825237Y-28675771D02*
X48872856Y-28771009D01*
X48872856Y-28771009D02*
X48872856Y-28866247D01*
X48872856Y-28866247D02*
X48396666Y-28961485D01*
X49301428Y-29294819D02*
X49301428Y-28628152D01*
X49301428Y-28818628D02*
X49349047Y-28723390D01*
X49349047Y-28723390D02*
X49396666Y-28675771D01*
X49396666Y-28675771D02*
X49491904Y-28628152D01*
X49491904Y-28628152D02*
X49587142Y-28628152D01*
X49682381Y-29390057D02*
X50444285Y-29390057D01*
X50682381Y-29294819D02*
X50682381Y-28628152D01*
X50682381Y-28723390D02*
X50730000Y-28675771D01*
X50730000Y-28675771D02*
X50825238Y-28628152D01*
X50825238Y-28628152D02*
X50968095Y-28628152D01*
X50968095Y-28628152D02*
X51063333Y-28675771D01*
X51063333Y-28675771D02*
X51110952Y-28771009D01*
X51110952Y-28771009D02*
X51110952Y-29294819D01*
X51110952Y-28771009D02*
X51158571Y-28675771D01*
X51158571Y-28675771D02*
X51253809Y-28628152D01*
X51253809Y-28628152D02*
X51396666Y-28628152D01*
X51396666Y-28628152D02*
X51491905Y-28675771D01*
X51491905Y-28675771D02*
X51539524Y-28771009D01*
X51539524Y-28771009D02*
X51539524Y-29294819D01*
X52158571Y-29294819D02*
X52063333Y-29247200D01*
X52063333Y-29247200D02*
X52015714Y-29199580D01*
X52015714Y-29199580D02*
X51968095Y-29104342D01*
X51968095Y-29104342D02*
X51968095Y-28818628D01*
X51968095Y-28818628D02*
X52015714Y-28723390D01*
X52015714Y-28723390D02*
X52063333Y-28675771D01*
X52063333Y-28675771D02*
X52158571Y-28628152D01*
X52158571Y-28628152D02*
X52301428Y-28628152D01*
X52301428Y-28628152D02*
X52396666Y-28675771D01*
X52396666Y-28675771D02*
X52444285Y-28723390D01*
X52444285Y-28723390D02*
X52491904Y-28818628D01*
X52491904Y-28818628D02*
X52491904Y-29104342D01*
X52491904Y-29104342D02*
X52444285Y-29199580D01*
X52444285Y-29199580D02*
X52396666Y-29247200D01*
X52396666Y-29247200D02*
X52301428Y-29294819D01*
X52301428Y-29294819D02*
X52158571Y-29294819D01*
X52777619Y-28628152D02*
X53158571Y-28628152D01*
X52920476Y-28294819D02*
X52920476Y-29151961D01*
X52920476Y-29151961D02*
X52968095Y-29247200D01*
X52968095Y-29247200D02*
X53063333Y-29294819D01*
X53063333Y-29294819D02*
X53158571Y-29294819D01*
X53634762Y-29294819D02*
X53539524Y-29247200D01*
X53539524Y-29247200D02*
X53491905Y-29199580D01*
X53491905Y-29199580D02*
X53444286Y-29104342D01*
X53444286Y-29104342D02*
X53444286Y-28818628D01*
X53444286Y-28818628D02*
X53491905Y-28723390D01*
X53491905Y-28723390D02*
X53539524Y-28675771D01*
X53539524Y-28675771D02*
X53634762Y-28628152D01*
X53634762Y-28628152D02*
X53777619Y-28628152D01*
X53777619Y-28628152D02*
X53872857Y-28675771D01*
X53872857Y-28675771D02*
X53920476Y-28723390D01*
X53920476Y-28723390D02*
X53968095Y-28818628D01*
X53968095Y-28818628D02*
X53968095Y-29104342D01*
X53968095Y-29104342D02*
X53920476Y-29199580D01*
X53920476Y-29199580D02*
X53872857Y-29247200D01*
X53872857Y-29247200D02*
X53777619Y-29294819D01*
X53777619Y-29294819D02*
X53634762Y-29294819D01*
X54396667Y-29294819D02*
X54396667Y-28628152D01*
X54396667Y-28818628D02*
X54444286Y-28723390D01*
X54444286Y-28723390D02*
X54491905Y-28675771D01*
X54491905Y-28675771D02*
X54587143Y-28628152D01*
X54587143Y-28628152D02*
X54682381Y-28628152D01*
X55539524Y-29294819D02*
X54968096Y-29294819D01*
X55253810Y-29294819D02*
X55253810Y-28294819D01*
X55253810Y-28294819D02*
X55158572Y-28437676D01*
X55158572Y-28437676D02*
X55063334Y-28532914D01*
X55063334Y-28532914D02*
X54968096Y-28580533D01*
X103970057Y-74165713D02*
X103922438Y-74118094D01*
X103922438Y-74118094D02*
X103874819Y-74022856D01*
X103874819Y-74022856D02*
X103874819Y-73784761D01*
X103874819Y-73784761D02*
X103922438Y-73689523D01*
X103922438Y-73689523D02*
X103970057Y-73641904D01*
X103970057Y-73641904D02*
X104065295Y-73594285D01*
X104065295Y-73594285D02*
X104160533Y-73594285D01*
X104160533Y-73594285D02*
X104303390Y-73641904D01*
X104303390Y-73641904D02*
X104874819Y-74213332D01*
X104874819Y-74213332D02*
X104874819Y-73594285D01*
X104874819Y-73165713D02*
X103874819Y-73165713D01*
X104874819Y-72594285D02*
X104303390Y-73022856D01*
X103874819Y-72594285D02*
X104446247Y-73165713D01*
D11*
X102827469Y-73842856D02*
X102484612Y-74082856D01*
X102827469Y-74254285D02*
X102107469Y-74254285D01*
X102107469Y-74254285D02*
X102107469Y-73979999D01*
X102107469Y-73979999D02*
X102141755Y-73911428D01*
X102141755Y-73911428D02*
X102176041Y-73877142D01*
X102176041Y-73877142D02*
X102244612Y-73842856D01*
X102244612Y-73842856D02*
X102347469Y-73842856D01*
X102347469Y-73842856D02*
X102416041Y-73877142D01*
X102416041Y-73877142D02*
X102450326Y-73911428D01*
X102450326Y-73911428D02*
X102484612Y-73979999D01*
X102484612Y-73979999D02*
X102484612Y-74254285D01*
X102827469Y-73157142D02*
X102827469Y-73568571D01*
X102827469Y-73362856D02*
X102107469Y-73362856D01*
X102107469Y-73362856D02*
X102210326Y-73431428D01*
X102210326Y-73431428D02*
X102278898Y-73499999D01*
X102278898Y-73499999D02*
X102313184Y-73568571D01*
X102347469Y-72540000D02*
X102827469Y-72540000D01*
X102073184Y-72711428D02*
X102587469Y-72882857D01*
X102587469Y-72882857D02*
X102587469Y-72437142D01*
D10*
X40189104Y-87721904D02*
X40189104Y-87245714D01*
X40474819Y-87817142D02*
X39474819Y-87483809D01*
X39474819Y-87483809D02*
X40474819Y-87150476D01*
X40474819Y-86817142D02*
X39474819Y-86817142D01*
X39474819Y-86817142D02*
X40474819Y-86245714D01*
X40474819Y-86245714D02*
X39474819Y-86245714D01*
X40474819Y-85245714D02*
X40474819Y-85817142D01*
X40474819Y-85531428D02*
X39474819Y-85531428D01*
X39474819Y-85531428D02*
X39617676Y-85626666D01*
X39617676Y-85626666D02*
X39712914Y-85721904D01*
X39712914Y-85721904D02*
X39760533Y-85817142D01*
X40570057Y-85055238D02*
X40570057Y-84293333D01*
X40474819Y-84055237D02*
X39474819Y-84055237D01*
X40474819Y-83579047D02*
X39474819Y-83579047D01*
X39474819Y-83579047D02*
X40474819Y-83007619D01*
X40474819Y-83007619D02*
X39474819Y-83007619D01*
X40474819Y-82007619D02*
X40474819Y-82579047D01*
X40474819Y-82293333D02*
X39474819Y-82293333D01*
X39474819Y-82293333D02*
X39617676Y-82388571D01*
X39617676Y-82388571D02*
X39712914Y-82483809D01*
X39712914Y-82483809D02*
X39760533Y-82579047D01*
X40570057Y-81817143D02*
X40570057Y-81055238D01*
X39522438Y-80293333D02*
X39474819Y-80388571D01*
X39474819Y-80388571D02*
X39474819Y-80531428D01*
X39474819Y-80531428D02*
X39522438Y-80674285D01*
X39522438Y-80674285D02*
X39617676Y-80769523D01*
X39617676Y-80769523D02*
X39712914Y-80817142D01*
X39712914Y-80817142D02*
X39903390Y-80864761D01*
X39903390Y-80864761D02*
X40046247Y-80864761D01*
X40046247Y-80864761D02*
X40236723Y-80817142D01*
X40236723Y-80817142D02*
X40331961Y-80769523D01*
X40331961Y-80769523D02*
X40427200Y-80674285D01*
X40427200Y-80674285D02*
X40474819Y-80531428D01*
X40474819Y-80531428D02*
X40474819Y-80436190D01*
X40474819Y-80436190D02*
X40427200Y-80293333D01*
X40427200Y-80293333D02*
X40379580Y-80245714D01*
X40379580Y-80245714D02*
X40046247Y-80245714D01*
X40046247Y-80245714D02*
X40046247Y-80436190D01*
X40474819Y-79817142D02*
X39474819Y-79817142D01*
X39474819Y-79817142D02*
X40474819Y-79245714D01*
X40474819Y-79245714D02*
X39474819Y-79245714D01*
X40474819Y-78769523D02*
X39474819Y-78769523D01*
X39474819Y-78769523D02*
X39474819Y-78531428D01*
X39474819Y-78531428D02*
X39522438Y-78388571D01*
X39522438Y-78388571D02*
X39617676Y-78293333D01*
X39617676Y-78293333D02*
X39712914Y-78245714D01*
X39712914Y-78245714D02*
X39903390Y-78198095D01*
X39903390Y-78198095D02*
X40046247Y-78198095D01*
X40046247Y-78198095D02*
X40236723Y-78245714D01*
X40236723Y-78245714D02*
X40331961Y-78293333D01*
X40331961Y-78293333D02*
X40427200Y-78388571D01*
X40427200Y-78388571D02*
X40474819Y-78531428D01*
X40474819Y-78531428D02*
X40474819Y-78769523D01*
X37438152Y-87650476D02*
X37438152Y-87269524D01*
X38104819Y-87507619D02*
X37247676Y-87507619D01*
X37247676Y-87507619D02*
X37152438Y-87460000D01*
X37152438Y-87460000D02*
X37104819Y-87364762D01*
X37104819Y-87364762D02*
X37104819Y-87269524D01*
X38104819Y-86793333D02*
X38057200Y-86888571D01*
X38057200Y-86888571D02*
X38009580Y-86936190D01*
X38009580Y-86936190D02*
X37914342Y-86983809D01*
X37914342Y-86983809D02*
X37628628Y-86983809D01*
X37628628Y-86983809D02*
X37533390Y-86936190D01*
X37533390Y-86936190D02*
X37485771Y-86888571D01*
X37485771Y-86888571D02*
X37438152Y-86793333D01*
X37438152Y-86793333D02*
X37438152Y-86650476D01*
X37438152Y-86650476D02*
X37485771Y-86555238D01*
X37485771Y-86555238D02*
X37533390Y-86507619D01*
X37533390Y-86507619D02*
X37628628Y-86460000D01*
X37628628Y-86460000D02*
X37914342Y-86460000D01*
X37914342Y-86460000D02*
X38009580Y-86507619D01*
X38009580Y-86507619D02*
X38057200Y-86555238D01*
X38057200Y-86555238D02*
X38104819Y-86650476D01*
X38104819Y-86650476D02*
X38104819Y-86793333D01*
X38104819Y-85888571D02*
X38057200Y-85983809D01*
X38057200Y-85983809D02*
X38009580Y-86031428D01*
X38009580Y-86031428D02*
X37914342Y-86079047D01*
X37914342Y-86079047D02*
X37628628Y-86079047D01*
X37628628Y-86079047D02*
X37533390Y-86031428D01*
X37533390Y-86031428D02*
X37485771Y-85983809D01*
X37485771Y-85983809D02*
X37438152Y-85888571D01*
X37438152Y-85888571D02*
X37438152Y-85745714D01*
X37438152Y-85745714D02*
X37485771Y-85650476D01*
X37485771Y-85650476D02*
X37533390Y-85602857D01*
X37533390Y-85602857D02*
X37628628Y-85555238D01*
X37628628Y-85555238D02*
X37914342Y-85555238D01*
X37914342Y-85555238D02*
X38009580Y-85602857D01*
X38009580Y-85602857D02*
X38057200Y-85650476D01*
X38057200Y-85650476D02*
X38104819Y-85745714D01*
X38104819Y-85745714D02*
X38104819Y-85888571D01*
X37438152Y-85269523D02*
X37438152Y-84888571D01*
X37104819Y-85126666D02*
X37961961Y-85126666D01*
X37961961Y-85126666D02*
X38057200Y-85079047D01*
X38057200Y-85079047D02*
X38104819Y-84983809D01*
X38104819Y-84983809D02*
X38104819Y-84888571D01*
X38200057Y-84793333D02*
X38200057Y-84031428D01*
X38104819Y-83793332D02*
X37104819Y-83793332D01*
X37104819Y-83793332D02*
X37819104Y-83459999D01*
X37819104Y-83459999D02*
X37104819Y-83126666D01*
X37104819Y-83126666D02*
X38104819Y-83126666D01*
X38104819Y-82507618D02*
X38057200Y-82602856D01*
X38057200Y-82602856D02*
X38009580Y-82650475D01*
X38009580Y-82650475D02*
X37914342Y-82698094D01*
X37914342Y-82698094D02*
X37628628Y-82698094D01*
X37628628Y-82698094D02*
X37533390Y-82650475D01*
X37533390Y-82650475D02*
X37485771Y-82602856D01*
X37485771Y-82602856D02*
X37438152Y-82507618D01*
X37438152Y-82507618D02*
X37438152Y-82364761D01*
X37438152Y-82364761D02*
X37485771Y-82269523D01*
X37485771Y-82269523D02*
X37533390Y-82221904D01*
X37533390Y-82221904D02*
X37628628Y-82174285D01*
X37628628Y-82174285D02*
X37914342Y-82174285D01*
X37914342Y-82174285D02*
X38009580Y-82221904D01*
X38009580Y-82221904D02*
X38057200Y-82269523D01*
X38057200Y-82269523D02*
X38104819Y-82364761D01*
X38104819Y-82364761D02*
X38104819Y-82507618D01*
X37438152Y-81888570D02*
X37438152Y-81507618D01*
X37104819Y-81745713D02*
X37961961Y-81745713D01*
X37961961Y-81745713D02*
X38057200Y-81698094D01*
X38057200Y-81698094D02*
X38104819Y-81602856D01*
X38104819Y-81602856D02*
X38104819Y-81507618D01*
X38104819Y-81031427D02*
X38057200Y-81126665D01*
X38057200Y-81126665D02*
X38009580Y-81174284D01*
X38009580Y-81174284D02*
X37914342Y-81221903D01*
X37914342Y-81221903D02*
X37628628Y-81221903D01*
X37628628Y-81221903D02*
X37533390Y-81174284D01*
X37533390Y-81174284D02*
X37485771Y-81126665D01*
X37485771Y-81126665D02*
X37438152Y-81031427D01*
X37438152Y-81031427D02*
X37438152Y-80888570D01*
X37438152Y-80888570D02*
X37485771Y-80793332D01*
X37485771Y-80793332D02*
X37533390Y-80745713D01*
X37533390Y-80745713D02*
X37628628Y-80698094D01*
X37628628Y-80698094D02*
X37914342Y-80698094D01*
X37914342Y-80698094D02*
X38009580Y-80745713D01*
X38009580Y-80745713D02*
X38057200Y-80793332D01*
X38057200Y-80793332D02*
X38104819Y-80888570D01*
X38104819Y-80888570D02*
X38104819Y-81031427D01*
X38104819Y-80269522D02*
X37438152Y-80269522D01*
X37628628Y-80269522D02*
X37533390Y-80221903D01*
X37533390Y-80221903D02*
X37485771Y-80174284D01*
X37485771Y-80174284D02*
X37438152Y-80079046D01*
X37438152Y-80079046D02*
X37438152Y-79983808D01*
X38200057Y-79888570D02*
X38200057Y-79126665D01*
X37200057Y-78936188D02*
X37152438Y-78888569D01*
X37152438Y-78888569D02*
X37104819Y-78793331D01*
X37104819Y-78793331D02*
X37104819Y-78555236D01*
X37104819Y-78555236D02*
X37152438Y-78459998D01*
X37152438Y-78459998D02*
X37200057Y-78412379D01*
X37200057Y-78412379D02*
X37295295Y-78364760D01*
X37295295Y-78364760D02*
X37390533Y-78364760D01*
X37390533Y-78364760D02*
X37533390Y-78412379D01*
X37533390Y-78412379D02*
X38104819Y-78983807D01*
X38104819Y-78983807D02*
X38104819Y-78364760D01*
X57470057Y-40261904D02*
X57422438Y-40214285D01*
X57422438Y-40214285D02*
X57374819Y-40119047D01*
X57374819Y-40119047D02*
X57374819Y-39880952D01*
X57374819Y-39880952D02*
X57422438Y-39785714D01*
X57422438Y-39785714D02*
X57470057Y-39738095D01*
X57470057Y-39738095D02*
X57565295Y-39690476D01*
X57565295Y-39690476D02*
X57660533Y-39690476D01*
X57660533Y-39690476D02*
X57803390Y-39738095D01*
X57803390Y-39738095D02*
X58374819Y-40309523D01*
X58374819Y-40309523D02*
X58374819Y-39690476D01*
X57374819Y-39071428D02*
X57374819Y-38976190D01*
X57374819Y-38976190D02*
X57422438Y-38880952D01*
X57422438Y-38880952D02*
X57470057Y-38833333D01*
X57470057Y-38833333D02*
X57565295Y-38785714D01*
X57565295Y-38785714D02*
X57755771Y-38738095D01*
X57755771Y-38738095D02*
X57993866Y-38738095D01*
X57993866Y-38738095D02*
X58184342Y-38785714D01*
X58184342Y-38785714D02*
X58279580Y-38833333D01*
X58279580Y-38833333D02*
X58327200Y-38880952D01*
X58327200Y-38880952D02*
X58374819Y-38976190D01*
X58374819Y-38976190D02*
X58374819Y-39071428D01*
X58374819Y-39071428D02*
X58327200Y-39166666D01*
X58327200Y-39166666D02*
X58279580Y-39214285D01*
X58279580Y-39214285D02*
X58184342Y-39261904D01*
X58184342Y-39261904D02*
X57993866Y-39309523D01*
X57993866Y-39309523D02*
X57755771Y-39309523D01*
X57755771Y-39309523D02*
X57565295Y-39261904D01*
X57565295Y-39261904D02*
X57470057Y-39214285D01*
X57470057Y-39214285D02*
X57422438Y-39166666D01*
X57422438Y-39166666D02*
X57374819Y-39071428D01*
X58374819Y-38309523D02*
X57374819Y-38309523D01*
X58374819Y-37738095D02*
X57803390Y-38166666D01*
X57374819Y-37738095D02*
X57946247Y-38309523D01*
D11*
X56327469Y-39119999D02*
X55984612Y-39359999D01*
X56327469Y-39531428D02*
X55607469Y-39531428D01*
X55607469Y-39531428D02*
X55607469Y-39257142D01*
X55607469Y-39257142D02*
X55641755Y-39188571D01*
X55641755Y-39188571D02*
X55676041Y-39154285D01*
X55676041Y-39154285D02*
X55744612Y-39119999D01*
X55744612Y-39119999D02*
X55847469Y-39119999D01*
X55847469Y-39119999D02*
X55916041Y-39154285D01*
X55916041Y-39154285D02*
X55950326Y-39188571D01*
X55950326Y-39188571D02*
X55984612Y-39257142D01*
X55984612Y-39257142D02*
X55984612Y-39531428D01*
X55847469Y-38502857D02*
X56327469Y-38502857D01*
X55573184Y-38674285D02*
X56087469Y-38845714D01*
X56087469Y-38845714D02*
X56087469Y-38399999D01*
D10*
X70119523Y-36374819D02*
X69548095Y-36374819D01*
X69833809Y-36374819D02*
X69833809Y-35374819D01*
X69833809Y-35374819D02*
X69738571Y-35517676D01*
X69738571Y-35517676D02*
X69643333Y-35612914D01*
X69643333Y-35612914D02*
X69548095Y-35660533D01*
X70738571Y-35374819D02*
X70833809Y-35374819D01*
X70833809Y-35374819D02*
X70929047Y-35422438D01*
X70929047Y-35422438D02*
X70976666Y-35470057D01*
X70976666Y-35470057D02*
X71024285Y-35565295D01*
X71024285Y-35565295D02*
X71071904Y-35755771D01*
X71071904Y-35755771D02*
X71071904Y-35993866D01*
X71071904Y-35993866D02*
X71024285Y-36184342D01*
X71024285Y-36184342D02*
X70976666Y-36279580D01*
X70976666Y-36279580D02*
X70929047Y-36327200D01*
X70929047Y-36327200D02*
X70833809Y-36374819D01*
X70833809Y-36374819D02*
X70738571Y-36374819D01*
X70738571Y-36374819D02*
X70643333Y-36327200D01*
X70643333Y-36327200D02*
X70595714Y-36279580D01*
X70595714Y-36279580D02*
X70548095Y-36184342D01*
X70548095Y-36184342D02*
X70500476Y-35993866D01*
X70500476Y-35993866D02*
X70500476Y-35755771D01*
X70500476Y-35755771D02*
X70548095Y-35565295D01*
X70548095Y-35565295D02*
X70595714Y-35470057D01*
X70595714Y-35470057D02*
X70643333Y-35422438D01*
X70643333Y-35422438D02*
X70738571Y-35374819D01*
X71500476Y-36374819D02*
X71500476Y-35374819D01*
X72071904Y-36374819D02*
X71643333Y-35803390D01*
X72071904Y-35374819D02*
X71500476Y-35946247D01*
D11*
X70690000Y-34327469D02*
X70450000Y-33984612D01*
X70278571Y-34327469D02*
X70278571Y-33607469D01*
X70278571Y-33607469D02*
X70552857Y-33607469D01*
X70552857Y-33607469D02*
X70621428Y-33641755D01*
X70621428Y-33641755D02*
X70655714Y-33676041D01*
X70655714Y-33676041D02*
X70690000Y-33744612D01*
X70690000Y-33744612D02*
X70690000Y-33847469D01*
X70690000Y-33847469D02*
X70655714Y-33916041D01*
X70655714Y-33916041D02*
X70621428Y-33950326D01*
X70621428Y-33950326D02*
X70552857Y-33984612D01*
X70552857Y-33984612D02*
X70278571Y-33984612D01*
X70930000Y-33607469D02*
X71410000Y-33607469D01*
X71410000Y-33607469D02*
X71101428Y-34327469D01*
D10*
X126573866Y-92761904D02*
X126526247Y-92714285D01*
X126526247Y-92714285D02*
X126478628Y-92619047D01*
X126478628Y-92619047D02*
X126573866Y-92428571D01*
X126573866Y-92428571D02*
X126526247Y-92333333D01*
X126526247Y-92333333D02*
X126478628Y-92285714D01*
X127454819Y-93261904D02*
X128264342Y-93261904D01*
X128264342Y-93261904D02*
X128359580Y-93214285D01*
X128359580Y-93214285D02*
X128407200Y-93166666D01*
X128407200Y-93166666D02*
X128454819Y-93071428D01*
X128454819Y-93071428D02*
X128454819Y-92880952D01*
X128454819Y-92880952D02*
X128407200Y-92785714D01*
X128407200Y-92785714D02*
X128359580Y-92738095D01*
X128359580Y-92738095D02*
X128264342Y-92690476D01*
X128264342Y-92690476D02*
X127454819Y-92690476D01*
X127788152Y-91785714D02*
X128454819Y-91785714D01*
X127407200Y-92023809D02*
X128121485Y-92261904D01*
X128121485Y-92261904D02*
X128121485Y-91642857D01*
X31434819Y-106714285D02*
X30434819Y-106714285D01*
X31434819Y-106238095D02*
X30434819Y-106238095D01*
X30434819Y-106238095D02*
X31434819Y-105666667D01*
X31434819Y-105666667D02*
X30434819Y-105666667D01*
X30530057Y-105238095D02*
X30482438Y-105190476D01*
X30482438Y-105190476D02*
X30434819Y-105095238D01*
X30434819Y-105095238D02*
X30434819Y-104857143D01*
X30434819Y-104857143D02*
X30482438Y-104761905D01*
X30482438Y-104761905D02*
X30530057Y-104714286D01*
X30530057Y-104714286D02*
X30625295Y-104666667D01*
X30625295Y-104666667D02*
X30720533Y-104666667D01*
X30720533Y-104666667D02*
X30863390Y-104714286D01*
X30863390Y-104714286D02*
X31434819Y-105285714D01*
X31434819Y-105285714D02*
X31434819Y-104666667D01*
X31530057Y-104476191D02*
X31530057Y-103714286D01*
X31149104Y-103523809D02*
X31149104Y-103047619D01*
X31434819Y-103619047D02*
X30434819Y-103285714D01*
X30434819Y-103285714D02*
X31434819Y-102952381D01*
X31434819Y-102619047D02*
X30434819Y-102619047D01*
X30434819Y-102619047D02*
X31434819Y-102047619D01*
X31434819Y-102047619D02*
X30434819Y-102047619D01*
X30530057Y-101619047D02*
X30482438Y-101571428D01*
X30482438Y-101571428D02*
X30434819Y-101476190D01*
X30434819Y-101476190D02*
X30434819Y-101238095D01*
X30434819Y-101238095D02*
X30482438Y-101142857D01*
X30482438Y-101142857D02*
X30530057Y-101095238D01*
X30530057Y-101095238D02*
X30625295Y-101047619D01*
X30625295Y-101047619D02*
X30720533Y-101047619D01*
X30720533Y-101047619D02*
X30863390Y-101095238D01*
X30863390Y-101095238D02*
X31434819Y-101666666D01*
X31434819Y-101666666D02*
X31434819Y-101047619D01*
X31530057Y-100857143D02*
X31530057Y-100095238D01*
X30482438Y-99333333D02*
X30434819Y-99428571D01*
X30434819Y-99428571D02*
X30434819Y-99571428D01*
X30434819Y-99571428D02*
X30482438Y-99714285D01*
X30482438Y-99714285D02*
X30577676Y-99809523D01*
X30577676Y-99809523D02*
X30672914Y-99857142D01*
X30672914Y-99857142D02*
X30863390Y-99904761D01*
X30863390Y-99904761D02*
X31006247Y-99904761D01*
X31006247Y-99904761D02*
X31196723Y-99857142D01*
X31196723Y-99857142D02*
X31291961Y-99809523D01*
X31291961Y-99809523D02*
X31387200Y-99714285D01*
X31387200Y-99714285D02*
X31434819Y-99571428D01*
X31434819Y-99571428D02*
X31434819Y-99476190D01*
X31434819Y-99476190D02*
X31387200Y-99333333D01*
X31387200Y-99333333D02*
X31339580Y-99285714D01*
X31339580Y-99285714D02*
X31006247Y-99285714D01*
X31006247Y-99285714D02*
X31006247Y-99476190D01*
X31434819Y-98857142D02*
X30434819Y-98857142D01*
X30434819Y-98857142D02*
X31434819Y-98285714D01*
X31434819Y-98285714D02*
X30434819Y-98285714D01*
X31434819Y-97809523D02*
X30434819Y-97809523D01*
X30434819Y-97809523D02*
X30434819Y-97571428D01*
X30434819Y-97571428D02*
X30482438Y-97428571D01*
X30482438Y-97428571D02*
X30577676Y-97333333D01*
X30577676Y-97333333D02*
X30672914Y-97285714D01*
X30672914Y-97285714D02*
X30863390Y-97238095D01*
X30863390Y-97238095D02*
X31006247Y-97238095D01*
X31006247Y-97238095D02*
X31196723Y-97285714D01*
X31196723Y-97285714D02*
X31291961Y-97333333D01*
X31291961Y-97333333D02*
X31387200Y-97428571D01*
X31387200Y-97428571D02*
X31434819Y-97571428D01*
X31434819Y-97571428D02*
X31434819Y-97809523D01*
X33138152Y-106690476D02*
X33138152Y-106309524D01*
X33804819Y-106547619D02*
X32947676Y-106547619D01*
X32947676Y-106547619D02*
X32852438Y-106500000D01*
X32852438Y-106500000D02*
X32804819Y-106404762D01*
X32804819Y-106404762D02*
X32804819Y-106309524D01*
X33804819Y-105833333D02*
X33757200Y-105928571D01*
X33757200Y-105928571D02*
X33709580Y-105976190D01*
X33709580Y-105976190D02*
X33614342Y-106023809D01*
X33614342Y-106023809D02*
X33328628Y-106023809D01*
X33328628Y-106023809D02*
X33233390Y-105976190D01*
X33233390Y-105976190D02*
X33185771Y-105928571D01*
X33185771Y-105928571D02*
X33138152Y-105833333D01*
X33138152Y-105833333D02*
X33138152Y-105690476D01*
X33138152Y-105690476D02*
X33185771Y-105595238D01*
X33185771Y-105595238D02*
X33233390Y-105547619D01*
X33233390Y-105547619D02*
X33328628Y-105500000D01*
X33328628Y-105500000D02*
X33614342Y-105500000D01*
X33614342Y-105500000D02*
X33709580Y-105547619D01*
X33709580Y-105547619D02*
X33757200Y-105595238D01*
X33757200Y-105595238D02*
X33804819Y-105690476D01*
X33804819Y-105690476D02*
X33804819Y-105833333D01*
X33804819Y-104928571D02*
X33757200Y-105023809D01*
X33757200Y-105023809D02*
X33709580Y-105071428D01*
X33709580Y-105071428D02*
X33614342Y-105119047D01*
X33614342Y-105119047D02*
X33328628Y-105119047D01*
X33328628Y-105119047D02*
X33233390Y-105071428D01*
X33233390Y-105071428D02*
X33185771Y-105023809D01*
X33185771Y-105023809D02*
X33138152Y-104928571D01*
X33138152Y-104928571D02*
X33138152Y-104785714D01*
X33138152Y-104785714D02*
X33185771Y-104690476D01*
X33185771Y-104690476D02*
X33233390Y-104642857D01*
X33233390Y-104642857D02*
X33328628Y-104595238D01*
X33328628Y-104595238D02*
X33614342Y-104595238D01*
X33614342Y-104595238D02*
X33709580Y-104642857D01*
X33709580Y-104642857D02*
X33757200Y-104690476D01*
X33757200Y-104690476D02*
X33804819Y-104785714D01*
X33804819Y-104785714D02*
X33804819Y-104928571D01*
X33138152Y-104309523D02*
X33138152Y-103928571D01*
X32804819Y-104166666D02*
X33661961Y-104166666D01*
X33661961Y-104166666D02*
X33757200Y-104119047D01*
X33757200Y-104119047D02*
X33804819Y-104023809D01*
X33804819Y-104023809D02*
X33804819Y-103928571D01*
X33900057Y-103833333D02*
X33900057Y-103071428D01*
X33804819Y-102833332D02*
X32804819Y-102833332D01*
X32804819Y-102833332D02*
X33519104Y-102499999D01*
X33519104Y-102499999D02*
X32804819Y-102166666D01*
X32804819Y-102166666D02*
X33804819Y-102166666D01*
X33804819Y-101547618D02*
X33757200Y-101642856D01*
X33757200Y-101642856D02*
X33709580Y-101690475D01*
X33709580Y-101690475D02*
X33614342Y-101738094D01*
X33614342Y-101738094D02*
X33328628Y-101738094D01*
X33328628Y-101738094D02*
X33233390Y-101690475D01*
X33233390Y-101690475D02*
X33185771Y-101642856D01*
X33185771Y-101642856D02*
X33138152Y-101547618D01*
X33138152Y-101547618D02*
X33138152Y-101404761D01*
X33138152Y-101404761D02*
X33185771Y-101309523D01*
X33185771Y-101309523D02*
X33233390Y-101261904D01*
X33233390Y-101261904D02*
X33328628Y-101214285D01*
X33328628Y-101214285D02*
X33614342Y-101214285D01*
X33614342Y-101214285D02*
X33709580Y-101261904D01*
X33709580Y-101261904D02*
X33757200Y-101309523D01*
X33757200Y-101309523D02*
X33804819Y-101404761D01*
X33804819Y-101404761D02*
X33804819Y-101547618D01*
X33138152Y-100928570D02*
X33138152Y-100547618D01*
X32804819Y-100785713D02*
X33661961Y-100785713D01*
X33661961Y-100785713D02*
X33757200Y-100738094D01*
X33757200Y-100738094D02*
X33804819Y-100642856D01*
X33804819Y-100642856D02*
X33804819Y-100547618D01*
X33804819Y-100071427D02*
X33757200Y-100166665D01*
X33757200Y-100166665D02*
X33709580Y-100214284D01*
X33709580Y-100214284D02*
X33614342Y-100261903D01*
X33614342Y-100261903D02*
X33328628Y-100261903D01*
X33328628Y-100261903D02*
X33233390Y-100214284D01*
X33233390Y-100214284D02*
X33185771Y-100166665D01*
X33185771Y-100166665D02*
X33138152Y-100071427D01*
X33138152Y-100071427D02*
X33138152Y-99928570D01*
X33138152Y-99928570D02*
X33185771Y-99833332D01*
X33185771Y-99833332D02*
X33233390Y-99785713D01*
X33233390Y-99785713D02*
X33328628Y-99738094D01*
X33328628Y-99738094D02*
X33614342Y-99738094D01*
X33614342Y-99738094D02*
X33709580Y-99785713D01*
X33709580Y-99785713D02*
X33757200Y-99833332D01*
X33757200Y-99833332D02*
X33804819Y-99928570D01*
X33804819Y-99928570D02*
X33804819Y-100071427D01*
X33804819Y-99309522D02*
X33138152Y-99309522D01*
X33328628Y-99309522D02*
X33233390Y-99261903D01*
X33233390Y-99261903D02*
X33185771Y-99214284D01*
X33185771Y-99214284D02*
X33138152Y-99119046D01*
X33138152Y-99119046D02*
X33138152Y-99023808D01*
X33900057Y-98928570D02*
X33900057Y-98166665D01*
X33804819Y-97404760D02*
X33804819Y-97976188D01*
X33804819Y-97690474D02*
X32804819Y-97690474D01*
X32804819Y-97690474D02*
X32947676Y-97785712D01*
X32947676Y-97785712D02*
X33042914Y-97880950D01*
X33042914Y-97880950D02*
X33090533Y-97976188D01*
X40427200Y-76825714D02*
X40474819Y-76682857D01*
X40474819Y-76682857D02*
X40474819Y-76444762D01*
X40474819Y-76444762D02*
X40427200Y-76349524D01*
X40427200Y-76349524D02*
X40379580Y-76301905D01*
X40379580Y-76301905D02*
X40284342Y-76254286D01*
X40284342Y-76254286D02*
X40189104Y-76254286D01*
X40189104Y-76254286D02*
X40093866Y-76301905D01*
X40093866Y-76301905D02*
X40046247Y-76349524D01*
X40046247Y-76349524D02*
X39998628Y-76444762D01*
X39998628Y-76444762D02*
X39951009Y-76635238D01*
X39951009Y-76635238D02*
X39903390Y-76730476D01*
X39903390Y-76730476D02*
X39855771Y-76778095D01*
X39855771Y-76778095D02*
X39760533Y-76825714D01*
X39760533Y-76825714D02*
X39665295Y-76825714D01*
X39665295Y-76825714D02*
X39570057Y-76778095D01*
X39570057Y-76778095D02*
X39522438Y-76730476D01*
X39522438Y-76730476D02*
X39474819Y-76635238D01*
X39474819Y-76635238D02*
X39474819Y-76397143D01*
X39474819Y-76397143D02*
X39522438Y-76254286D01*
X40474819Y-75825714D02*
X39808152Y-75825714D01*
X39474819Y-75825714D02*
X39522438Y-75873333D01*
X39522438Y-75873333D02*
X39570057Y-75825714D01*
X39570057Y-75825714D02*
X39522438Y-75778095D01*
X39522438Y-75778095D02*
X39474819Y-75825714D01*
X39474819Y-75825714D02*
X39570057Y-75825714D01*
X39808152Y-74920953D02*
X40617676Y-74920953D01*
X40617676Y-74920953D02*
X40712914Y-74968572D01*
X40712914Y-74968572D02*
X40760533Y-75016191D01*
X40760533Y-75016191D02*
X40808152Y-75111429D01*
X40808152Y-75111429D02*
X40808152Y-75254286D01*
X40808152Y-75254286D02*
X40760533Y-75349524D01*
X40427200Y-74920953D02*
X40474819Y-75016191D01*
X40474819Y-75016191D02*
X40474819Y-75206667D01*
X40474819Y-75206667D02*
X40427200Y-75301905D01*
X40427200Y-75301905D02*
X40379580Y-75349524D01*
X40379580Y-75349524D02*
X40284342Y-75397143D01*
X40284342Y-75397143D02*
X39998628Y-75397143D01*
X39998628Y-75397143D02*
X39903390Y-75349524D01*
X39903390Y-75349524D02*
X39855771Y-75301905D01*
X39855771Y-75301905D02*
X39808152Y-75206667D01*
X39808152Y-75206667D02*
X39808152Y-75016191D01*
X39808152Y-75016191D02*
X39855771Y-74920953D01*
X39808152Y-74444762D02*
X40474819Y-74444762D01*
X39903390Y-74444762D02*
X39855771Y-74397143D01*
X39855771Y-74397143D02*
X39808152Y-74301905D01*
X39808152Y-74301905D02*
X39808152Y-74159048D01*
X39808152Y-74159048D02*
X39855771Y-74063810D01*
X39855771Y-74063810D02*
X39951009Y-74016191D01*
X39951009Y-74016191D02*
X40474819Y-74016191D01*
X40474819Y-73111429D02*
X39951009Y-73111429D01*
X39951009Y-73111429D02*
X39855771Y-73159048D01*
X39855771Y-73159048D02*
X39808152Y-73254286D01*
X39808152Y-73254286D02*
X39808152Y-73444762D01*
X39808152Y-73444762D02*
X39855771Y-73540000D01*
X40427200Y-73111429D02*
X40474819Y-73206667D01*
X40474819Y-73206667D02*
X40474819Y-73444762D01*
X40474819Y-73444762D02*
X40427200Y-73540000D01*
X40427200Y-73540000D02*
X40331961Y-73587619D01*
X40331961Y-73587619D02*
X40236723Y-73587619D01*
X40236723Y-73587619D02*
X40141485Y-73540000D01*
X40141485Y-73540000D02*
X40093866Y-73444762D01*
X40093866Y-73444762D02*
X40093866Y-73206667D01*
X40093866Y-73206667D02*
X40046247Y-73111429D01*
X40474819Y-72492381D02*
X40427200Y-72587619D01*
X40427200Y-72587619D02*
X40331961Y-72635238D01*
X40331961Y-72635238D02*
X39474819Y-72635238D01*
X40570057Y-72349524D02*
X40570057Y-71587619D01*
X39474819Y-70873333D02*
X39474819Y-71349523D01*
X39474819Y-71349523D02*
X39951009Y-71397142D01*
X39951009Y-71397142D02*
X39903390Y-71349523D01*
X39903390Y-71349523D02*
X39855771Y-71254285D01*
X39855771Y-71254285D02*
X39855771Y-71016190D01*
X39855771Y-71016190D02*
X39903390Y-70920952D01*
X39903390Y-70920952D02*
X39951009Y-70873333D01*
X39951009Y-70873333D02*
X40046247Y-70825714D01*
X40046247Y-70825714D02*
X40284342Y-70825714D01*
X40284342Y-70825714D02*
X40379580Y-70873333D01*
X40379580Y-70873333D02*
X40427200Y-70920952D01*
X40427200Y-70920952D02*
X40474819Y-71016190D01*
X40474819Y-71016190D02*
X40474819Y-71254285D01*
X40474819Y-71254285D02*
X40427200Y-71349523D01*
X40427200Y-71349523D02*
X40379580Y-71397142D01*
X39808152Y-70492380D02*
X40474819Y-70254285D01*
X40474819Y-70254285D02*
X39808152Y-70016190D01*
X40570057Y-69873333D02*
X40570057Y-69111428D01*
X39522438Y-68349523D02*
X39474819Y-68444761D01*
X39474819Y-68444761D02*
X39474819Y-68587618D01*
X39474819Y-68587618D02*
X39522438Y-68730475D01*
X39522438Y-68730475D02*
X39617676Y-68825713D01*
X39617676Y-68825713D02*
X39712914Y-68873332D01*
X39712914Y-68873332D02*
X39903390Y-68920951D01*
X39903390Y-68920951D02*
X40046247Y-68920951D01*
X40046247Y-68920951D02*
X40236723Y-68873332D01*
X40236723Y-68873332D02*
X40331961Y-68825713D01*
X40331961Y-68825713D02*
X40427200Y-68730475D01*
X40427200Y-68730475D02*
X40474819Y-68587618D01*
X40474819Y-68587618D02*
X40474819Y-68492380D01*
X40474819Y-68492380D02*
X40427200Y-68349523D01*
X40427200Y-68349523D02*
X40379580Y-68301904D01*
X40379580Y-68301904D02*
X40046247Y-68301904D01*
X40046247Y-68301904D02*
X40046247Y-68492380D01*
X40474819Y-67873332D02*
X39474819Y-67873332D01*
X39474819Y-67873332D02*
X40474819Y-67301904D01*
X40474819Y-67301904D02*
X39474819Y-67301904D01*
X40474819Y-66825713D02*
X39474819Y-66825713D01*
X39474819Y-66825713D02*
X39474819Y-66587618D01*
X39474819Y-66587618D02*
X39522438Y-66444761D01*
X39522438Y-66444761D02*
X39617676Y-66349523D01*
X39617676Y-66349523D02*
X39712914Y-66301904D01*
X39712914Y-66301904D02*
X39903390Y-66254285D01*
X39903390Y-66254285D02*
X40046247Y-66254285D01*
X40046247Y-66254285D02*
X40236723Y-66301904D01*
X40236723Y-66301904D02*
X40331961Y-66349523D01*
X40331961Y-66349523D02*
X40427200Y-66444761D01*
X40427200Y-66444761D02*
X40474819Y-66587618D01*
X40474819Y-66587618D02*
X40474819Y-66825713D01*
X38104819Y-76682857D02*
X37104819Y-76682857D01*
X37485771Y-76682857D02*
X37438152Y-76587619D01*
X37438152Y-76587619D02*
X37438152Y-76397143D01*
X37438152Y-76397143D02*
X37485771Y-76301905D01*
X37485771Y-76301905D02*
X37533390Y-76254286D01*
X37533390Y-76254286D02*
X37628628Y-76206667D01*
X37628628Y-76206667D02*
X37914342Y-76206667D01*
X37914342Y-76206667D02*
X38009580Y-76254286D01*
X38009580Y-76254286D02*
X38057200Y-76301905D01*
X38057200Y-76301905D02*
X38104819Y-76397143D01*
X38104819Y-76397143D02*
X38104819Y-76587619D01*
X38104819Y-76587619D02*
X38057200Y-76682857D01*
X37438152Y-75349524D02*
X38104819Y-75349524D01*
X37438152Y-75778095D02*
X37961961Y-75778095D01*
X37961961Y-75778095D02*
X38057200Y-75730476D01*
X38057200Y-75730476D02*
X38104819Y-75635238D01*
X38104819Y-75635238D02*
X38104819Y-75492381D01*
X38104819Y-75492381D02*
X38057200Y-75397143D01*
X38057200Y-75397143D02*
X38009580Y-75349524D01*
X38104819Y-74873333D02*
X37104819Y-74873333D01*
X37485771Y-74873333D02*
X37438152Y-74778095D01*
X37438152Y-74778095D02*
X37438152Y-74587619D01*
X37438152Y-74587619D02*
X37485771Y-74492381D01*
X37485771Y-74492381D02*
X37533390Y-74444762D01*
X37533390Y-74444762D02*
X37628628Y-74397143D01*
X37628628Y-74397143D02*
X37914342Y-74397143D01*
X37914342Y-74397143D02*
X38009580Y-74444762D01*
X38009580Y-74444762D02*
X38057200Y-74492381D01*
X38057200Y-74492381D02*
X38104819Y-74587619D01*
X38104819Y-74587619D02*
X38104819Y-74778095D01*
X38104819Y-74778095D02*
X38057200Y-74873333D01*
X38104819Y-73968571D02*
X37104819Y-73968571D01*
X37485771Y-73968571D02*
X37438152Y-73873333D01*
X37438152Y-73873333D02*
X37438152Y-73682857D01*
X37438152Y-73682857D02*
X37485771Y-73587619D01*
X37485771Y-73587619D02*
X37533390Y-73540000D01*
X37533390Y-73540000D02*
X37628628Y-73492381D01*
X37628628Y-73492381D02*
X37914342Y-73492381D01*
X37914342Y-73492381D02*
X38009580Y-73540000D01*
X38009580Y-73540000D02*
X38057200Y-73587619D01*
X38057200Y-73587619D02*
X38104819Y-73682857D01*
X38104819Y-73682857D02*
X38104819Y-73873333D01*
X38104819Y-73873333D02*
X38057200Y-73968571D01*
X38104819Y-72920952D02*
X38057200Y-73016190D01*
X38057200Y-73016190D02*
X37961961Y-73063809D01*
X37961961Y-73063809D02*
X37104819Y-73063809D01*
X38057200Y-72159047D02*
X38104819Y-72254285D01*
X38104819Y-72254285D02*
X38104819Y-72444761D01*
X38104819Y-72444761D02*
X38057200Y-72539999D01*
X38057200Y-72539999D02*
X37961961Y-72587618D01*
X37961961Y-72587618D02*
X37581009Y-72587618D01*
X37581009Y-72587618D02*
X37485771Y-72539999D01*
X37485771Y-72539999D02*
X37438152Y-72444761D01*
X37438152Y-72444761D02*
X37438152Y-72254285D01*
X37438152Y-72254285D02*
X37485771Y-72159047D01*
X37485771Y-72159047D02*
X37581009Y-72111428D01*
X37581009Y-72111428D02*
X37676247Y-72111428D01*
X37676247Y-72111428D02*
X37771485Y-72587618D01*
X38200057Y-71920952D02*
X38200057Y-71159047D01*
X38104819Y-70349523D02*
X37628628Y-70682856D01*
X38104819Y-70920951D02*
X37104819Y-70920951D01*
X37104819Y-70920951D02*
X37104819Y-70539999D01*
X37104819Y-70539999D02*
X37152438Y-70444761D01*
X37152438Y-70444761D02*
X37200057Y-70397142D01*
X37200057Y-70397142D02*
X37295295Y-70349523D01*
X37295295Y-70349523D02*
X37438152Y-70349523D01*
X37438152Y-70349523D02*
X37533390Y-70397142D01*
X37533390Y-70397142D02*
X37581009Y-70444761D01*
X37581009Y-70444761D02*
X37628628Y-70539999D01*
X37628628Y-70539999D02*
X37628628Y-70920951D01*
X38057200Y-69539999D02*
X38104819Y-69635237D01*
X38104819Y-69635237D02*
X38104819Y-69825713D01*
X38104819Y-69825713D02*
X38057200Y-69920951D01*
X38057200Y-69920951D02*
X37961961Y-69968570D01*
X37961961Y-69968570D02*
X37581009Y-69968570D01*
X37581009Y-69968570D02*
X37485771Y-69920951D01*
X37485771Y-69920951D02*
X37438152Y-69825713D01*
X37438152Y-69825713D02*
X37438152Y-69635237D01*
X37438152Y-69635237D02*
X37485771Y-69539999D01*
X37485771Y-69539999D02*
X37581009Y-69492380D01*
X37581009Y-69492380D02*
X37676247Y-69492380D01*
X37676247Y-69492380D02*
X37771485Y-69968570D01*
X38104819Y-68920951D02*
X38057200Y-69016189D01*
X38057200Y-69016189D02*
X37961961Y-69063808D01*
X37961961Y-69063808D02*
X37104819Y-69063808D01*
X38104819Y-68111427D02*
X37581009Y-68111427D01*
X37581009Y-68111427D02*
X37485771Y-68159046D01*
X37485771Y-68159046D02*
X37438152Y-68254284D01*
X37438152Y-68254284D02*
X37438152Y-68444760D01*
X37438152Y-68444760D02*
X37485771Y-68539998D01*
X38057200Y-68111427D02*
X38104819Y-68206665D01*
X38104819Y-68206665D02*
X38104819Y-68444760D01*
X38104819Y-68444760D02*
X38057200Y-68539998D01*
X38057200Y-68539998D02*
X37961961Y-68587617D01*
X37961961Y-68587617D02*
X37866723Y-68587617D01*
X37866723Y-68587617D02*
X37771485Y-68539998D01*
X37771485Y-68539998D02*
X37723866Y-68444760D01*
X37723866Y-68444760D02*
X37723866Y-68206665D01*
X37723866Y-68206665D02*
X37676247Y-68111427D01*
X37438152Y-67730474D02*
X38104819Y-67492379D01*
X37438152Y-67254284D02*
X38104819Y-67492379D01*
X38104819Y-67492379D02*
X38342914Y-67587617D01*
X38342914Y-67587617D02*
X38390533Y-67635236D01*
X38390533Y-67635236D02*
X38438152Y-67730474D01*
X38104819Y-66349522D02*
X38104819Y-66920950D01*
X38104819Y-66635236D02*
X37104819Y-66635236D01*
X37104819Y-66635236D02*
X37247676Y-66730474D01*
X37247676Y-66730474D02*
X37342914Y-66825712D01*
X37342914Y-66825712D02*
X37390533Y-66920950D01*
X42809523Y-110874819D02*
X42238095Y-110874819D01*
X42523809Y-110874819D02*
X42523809Y-109874819D01*
X42523809Y-109874819D02*
X42428571Y-110017676D01*
X42428571Y-110017676D02*
X42333333Y-110112914D01*
X42333333Y-110112914D02*
X42238095Y-110160533D01*
X43428571Y-109874819D02*
X43523809Y-109874819D01*
X43523809Y-109874819D02*
X43619047Y-109922438D01*
X43619047Y-109922438D02*
X43666666Y-109970057D01*
X43666666Y-109970057D02*
X43714285Y-110065295D01*
X43714285Y-110065295D02*
X43761904Y-110255771D01*
X43761904Y-110255771D02*
X43761904Y-110493866D01*
X43761904Y-110493866D02*
X43714285Y-110684342D01*
X43714285Y-110684342D02*
X43666666Y-110779580D01*
X43666666Y-110779580D02*
X43619047Y-110827200D01*
X43619047Y-110827200D02*
X43523809Y-110874819D01*
X43523809Y-110874819D02*
X43428571Y-110874819D01*
X43428571Y-110874819D02*
X43333333Y-110827200D01*
X43333333Y-110827200D02*
X43285714Y-110779580D01*
X43285714Y-110779580D02*
X43238095Y-110684342D01*
X43238095Y-110684342D02*
X43190476Y-110493866D01*
X43190476Y-110493866D02*
X43190476Y-110255771D01*
X43190476Y-110255771D02*
X43238095Y-110065295D01*
X43238095Y-110065295D02*
X43285714Y-109970057D01*
X43285714Y-109970057D02*
X43333333Y-109922438D01*
X43333333Y-109922438D02*
X43428571Y-109874819D01*
X44190476Y-110874819D02*
X44190476Y-109874819D01*
X44761904Y-110874819D02*
X44333333Y-110303390D01*
X44761904Y-109874819D02*
X44190476Y-110446247D01*
D11*
X43037143Y-108827469D02*
X42797143Y-108484612D01*
X42625714Y-108827469D02*
X42625714Y-108107469D01*
X42625714Y-108107469D02*
X42900000Y-108107469D01*
X42900000Y-108107469D02*
X42968571Y-108141755D01*
X42968571Y-108141755D02*
X43002857Y-108176041D01*
X43002857Y-108176041D02*
X43037143Y-108244612D01*
X43037143Y-108244612D02*
X43037143Y-108347469D01*
X43037143Y-108347469D02*
X43002857Y-108416041D01*
X43002857Y-108416041D02*
X42968571Y-108450326D01*
X42968571Y-108450326D02*
X42900000Y-108484612D01*
X42900000Y-108484612D02*
X42625714Y-108484612D01*
X43722857Y-108827469D02*
X43311428Y-108827469D01*
X43517143Y-108827469D02*
X43517143Y-108107469D01*
X43517143Y-108107469D02*
X43448571Y-108210326D01*
X43448571Y-108210326D02*
X43380000Y-108278898D01*
X43380000Y-108278898D02*
X43311428Y-108313184D01*
X44408571Y-108827469D02*
X43997142Y-108827469D01*
X44202857Y-108827469D02*
X44202857Y-108107469D01*
X44202857Y-108107469D02*
X44134285Y-108210326D01*
X44134285Y-108210326D02*
X44065714Y-108278898D01*
X44065714Y-108278898D02*
X43997142Y-108313184D01*
D10*
X57182380Y-100934819D02*
X56706190Y-100934819D01*
X56706190Y-100934819D02*
X56658571Y-101411009D01*
X56658571Y-101411009D02*
X56706190Y-101363390D01*
X56706190Y-101363390D02*
X56801428Y-101315771D01*
X56801428Y-101315771D02*
X57039523Y-101315771D01*
X57039523Y-101315771D02*
X57134761Y-101363390D01*
X57134761Y-101363390D02*
X57182380Y-101411009D01*
X57182380Y-101411009D02*
X57229999Y-101506247D01*
X57229999Y-101506247D02*
X57229999Y-101744342D01*
X57229999Y-101744342D02*
X57182380Y-101839580D01*
X57182380Y-101839580D02*
X57134761Y-101887200D01*
X57134761Y-101887200D02*
X57039523Y-101934819D01*
X57039523Y-101934819D02*
X56801428Y-101934819D01*
X56801428Y-101934819D02*
X56706190Y-101887200D01*
X56706190Y-101887200D02*
X56658571Y-101839580D01*
X57563333Y-101268152D02*
X57801428Y-101934819D01*
X57801428Y-101934819D02*
X58039523Y-101268152D01*
X58182381Y-102030057D02*
X58944285Y-102030057D01*
X59706190Y-100982438D02*
X59610952Y-100934819D01*
X59610952Y-100934819D02*
X59468095Y-100934819D01*
X59468095Y-100934819D02*
X59325238Y-100982438D01*
X59325238Y-100982438D02*
X59230000Y-101077676D01*
X59230000Y-101077676D02*
X59182381Y-101172914D01*
X59182381Y-101172914D02*
X59134762Y-101363390D01*
X59134762Y-101363390D02*
X59134762Y-101506247D01*
X59134762Y-101506247D02*
X59182381Y-101696723D01*
X59182381Y-101696723D02*
X59230000Y-101791961D01*
X59230000Y-101791961D02*
X59325238Y-101887200D01*
X59325238Y-101887200D02*
X59468095Y-101934819D01*
X59468095Y-101934819D02*
X59563333Y-101934819D01*
X59563333Y-101934819D02*
X59706190Y-101887200D01*
X59706190Y-101887200D02*
X59753809Y-101839580D01*
X59753809Y-101839580D02*
X59753809Y-101506247D01*
X59753809Y-101506247D02*
X59563333Y-101506247D01*
X60182381Y-101934819D02*
X60182381Y-100934819D01*
X60182381Y-100934819D02*
X60753809Y-101934819D01*
X60753809Y-101934819D02*
X60753809Y-100934819D01*
X61230000Y-101934819D02*
X61230000Y-100934819D01*
X61230000Y-100934819D02*
X61468095Y-100934819D01*
X61468095Y-100934819D02*
X61610952Y-100982438D01*
X61610952Y-100982438D02*
X61706190Y-101077676D01*
X61706190Y-101077676D02*
X61753809Y-101172914D01*
X61753809Y-101172914D02*
X61801428Y-101363390D01*
X61801428Y-101363390D02*
X61801428Y-101506247D01*
X61801428Y-101506247D02*
X61753809Y-101696723D01*
X61753809Y-101696723D02*
X61706190Y-101791961D01*
X61706190Y-101791961D02*
X61610952Y-101887200D01*
X61610952Y-101887200D02*
X61468095Y-101934819D01*
X61468095Y-101934819D02*
X61230000Y-101934819D01*
X56777619Y-104304819D02*
X56777619Y-103304819D01*
X56777619Y-103304819D02*
X57158571Y-103304819D01*
X57158571Y-103304819D02*
X57253809Y-103352438D01*
X57253809Y-103352438D02*
X57301428Y-103400057D01*
X57301428Y-103400057D02*
X57349047Y-103495295D01*
X57349047Y-103495295D02*
X57349047Y-103638152D01*
X57349047Y-103638152D02*
X57301428Y-103733390D01*
X57301428Y-103733390D02*
X57253809Y-103781009D01*
X57253809Y-103781009D02*
X57158571Y-103828628D01*
X57158571Y-103828628D02*
X56777619Y-103828628D01*
X57920476Y-104304819D02*
X57825238Y-104257200D01*
X57825238Y-104257200D02*
X57777619Y-104209580D01*
X57777619Y-104209580D02*
X57730000Y-104114342D01*
X57730000Y-104114342D02*
X57730000Y-103828628D01*
X57730000Y-103828628D02*
X57777619Y-103733390D01*
X57777619Y-103733390D02*
X57825238Y-103685771D01*
X57825238Y-103685771D02*
X57920476Y-103638152D01*
X57920476Y-103638152D02*
X58063333Y-103638152D01*
X58063333Y-103638152D02*
X58158571Y-103685771D01*
X58158571Y-103685771D02*
X58206190Y-103733390D01*
X58206190Y-103733390D02*
X58253809Y-103828628D01*
X58253809Y-103828628D02*
X58253809Y-104114342D01*
X58253809Y-104114342D02*
X58206190Y-104209580D01*
X58206190Y-104209580D02*
X58158571Y-104257200D01*
X58158571Y-104257200D02*
X58063333Y-104304819D01*
X58063333Y-104304819D02*
X57920476Y-104304819D01*
X58587143Y-103638152D02*
X58777619Y-104304819D01*
X58777619Y-104304819D02*
X58968095Y-103828628D01*
X58968095Y-103828628D02*
X59158571Y-104304819D01*
X59158571Y-104304819D02*
X59349047Y-103638152D01*
X60110952Y-104257200D02*
X60015714Y-104304819D01*
X60015714Y-104304819D02*
X59825238Y-104304819D01*
X59825238Y-104304819D02*
X59730000Y-104257200D01*
X59730000Y-104257200D02*
X59682381Y-104161961D01*
X59682381Y-104161961D02*
X59682381Y-103781009D01*
X59682381Y-103781009D02*
X59730000Y-103685771D01*
X59730000Y-103685771D02*
X59825238Y-103638152D01*
X59825238Y-103638152D02*
X60015714Y-103638152D01*
X60015714Y-103638152D02*
X60110952Y-103685771D01*
X60110952Y-103685771D02*
X60158571Y-103781009D01*
X60158571Y-103781009D02*
X60158571Y-103876247D01*
X60158571Y-103876247D02*
X59682381Y-103971485D01*
X60587143Y-104304819D02*
X60587143Y-103638152D01*
X60587143Y-103828628D02*
X60634762Y-103733390D01*
X60634762Y-103733390D02*
X60682381Y-103685771D01*
X60682381Y-103685771D02*
X60777619Y-103638152D01*
X60777619Y-103638152D02*
X60872857Y-103638152D01*
X61730000Y-104304819D02*
X61158572Y-104304819D01*
X61444286Y-104304819D02*
X61444286Y-103304819D01*
X61444286Y-103304819D02*
X61349048Y-103447676D01*
X61349048Y-103447676D02*
X61253810Y-103542914D01*
X61253810Y-103542914D02*
X61158572Y-103590533D01*
X89130057Y-58595713D02*
X89082438Y-58548094D01*
X89082438Y-58548094D02*
X89034819Y-58452856D01*
X89034819Y-58452856D02*
X89034819Y-58214761D01*
X89034819Y-58214761D02*
X89082438Y-58119523D01*
X89082438Y-58119523D02*
X89130057Y-58071904D01*
X89130057Y-58071904D02*
X89225295Y-58024285D01*
X89225295Y-58024285D02*
X89320533Y-58024285D01*
X89320533Y-58024285D02*
X89463390Y-58071904D01*
X89463390Y-58071904D02*
X90034819Y-58643332D01*
X90034819Y-58643332D02*
X90034819Y-58024285D01*
X90034819Y-57595713D02*
X89034819Y-57595713D01*
X90034819Y-57024285D02*
X89463390Y-57452856D01*
X89034819Y-57024285D02*
X89606247Y-57595713D01*
D11*
X91827469Y-58272856D02*
X91484612Y-58512856D01*
X91827469Y-58684285D02*
X91107469Y-58684285D01*
X91107469Y-58684285D02*
X91107469Y-58409999D01*
X91107469Y-58409999D02*
X91141755Y-58341428D01*
X91141755Y-58341428D02*
X91176041Y-58307142D01*
X91176041Y-58307142D02*
X91244612Y-58272856D01*
X91244612Y-58272856D02*
X91347469Y-58272856D01*
X91347469Y-58272856D02*
X91416041Y-58307142D01*
X91416041Y-58307142D02*
X91450326Y-58341428D01*
X91450326Y-58341428D02*
X91484612Y-58409999D01*
X91484612Y-58409999D02*
X91484612Y-58684285D01*
X91827469Y-57587142D02*
X91827469Y-57998571D01*
X91827469Y-57792856D02*
X91107469Y-57792856D01*
X91107469Y-57792856D02*
X91210326Y-57861428D01*
X91210326Y-57861428D02*
X91278898Y-57929999D01*
X91278898Y-57929999D02*
X91313184Y-57998571D01*
X91107469Y-56970000D02*
X91107469Y-57107142D01*
X91107469Y-57107142D02*
X91141755Y-57175714D01*
X91141755Y-57175714D02*
X91176041Y-57210000D01*
X91176041Y-57210000D02*
X91278898Y-57278571D01*
X91278898Y-57278571D02*
X91416041Y-57312857D01*
X91416041Y-57312857D02*
X91690326Y-57312857D01*
X91690326Y-57312857D02*
X91758898Y-57278571D01*
X91758898Y-57278571D02*
X91793184Y-57244285D01*
X91793184Y-57244285D02*
X91827469Y-57175714D01*
X91827469Y-57175714D02*
X91827469Y-57038571D01*
X91827469Y-57038571D02*
X91793184Y-56970000D01*
X91793184Y-56970000D02*
X91758898Y-56935714D01*
X91758898Y-56935714D02*
X91690326Y-56901428D01*
X91690326Y-56901428D02*
X91518898Y-56901428D01*
X91518898Y-56901428D02*
X91450326Y-56935714D01*
X91450326Y-56935714D02*
X91416041Y-56970000D01*
X91416041Y-56970000D02*
X91381755Y-57038571D01*
X91381755Y-57038571D02*
X91381755Y-57175714D01*
X91381755Y-57175714D02*
X91416041Y-57244285D01*
X91416041Y-57244285D02*
X91450326Y-57278571D01*
X91450326Y-57278571D02*
X91518898Y-57312857D01*
D10*
X42970057Y-40261904D02*
X42922438Y-40214285D01*
X42922438Y-40214285D02*
X42874819Y-40119047D01*
X42874819Y-40119047D02*
X42874819Y-39880952D01*
X42874819Y-39880952D02*
X42922438Y-39785714D01*
X42922438Y-39785714D02*
X42970057Y-39738095D01*
X42970057Y-39738095D02*
X43065295Y-39690476D01*
X43065295Y-39690476D02*
X43160533Y-39690476D01*
X43160533Y-39690476D02*
X43303390Y-39738095D01*
X43303390Y-39738095D02*
X43874819Y-40309523D01*
X43874819Y-40309523D02*
X43874819Y-39690476D01*
X42874819Y-39071428D02*
X42874819Y-38976190D01*
X42874819Y-38976190D02*
X42922438Y-38880952D01*
X42922438Y-38880952D02*
X42970057Y-38833333D01*
X42970057Y-38833333D02*
X43065295Y-38785714D01*
X43065295Y-38785714D02*
X43255771Y-38738095D01*
X43255771Y-38738095D02*
X43493866Y-38738095D01*
X43493866Y-38738095D02*
X43684342Y-38785714D01*
X43684342Y-38785714D02*
X43779580Y-38833333D01*
X43779580Y-38833333D02*
X43827200Y-38880952D01*
X43827200Y-38880952D02*
X43874819Y-38976190D01*
X43874819Y-38976190D02*
X43874819Y-39071428D01*
X43874819Y-39071428D02*
X43827200Y-39166666D01*
X43827200Y-39166666D02*
X43779580Y-39214285D01*
X43779580Y-39214285D02*
X43684342Y-39261904D01*
X43684342Y-39261904D02*
X43493866Y-39309523D01*
X43493866Y-39309523D02*
X43255771Y-39309523D01*
X43255771Y-39309523D02*
X43065295Y-39261904D01*
X43065295Y-39261904D02*
X42970057Y-39214285D01*
X42970057Y-39214285D02*
X42922438Y-39166666D01*
X42922438Y-39166666D02*
X42874819Y-39071428D01*
X43874819Y-38309523D02*
X42874819Y-38309523D01*
X43874819Y-37738095D02*
X43303390Y-38166666D01*
X42874819Y-37738095D02*
X43446247Y-38309523D01*
D11*
X41827469Y-39119999D02*
X41484612Y-39359999D01*
X41827469Y-39531428D02*
X41107469Y-39531428D01*
X41107469Y-39531428D02*
X41107469Y-39257142D01*
X41107469Y-39257142D02*
X41141755Y-39188571D01*
X41141755Y-39188571D02*
X41176041Y-39154285D01*
X41176041Y-39154285D02*
X41244612Y-39119999D01*
X41244612Y-39119999D02*
X41347469Y-39119999D01*
X41347469Y-39119999D02*
X41416041Y-39154285D01*
X41416041Y-39154285D02*
X41450326Y-39188571D01*
X41450326Y-39188571D02*
X41484612Y-39257142D01*
X41484612Y-39257142D02*
X41484612Y-39531428D01*
X41176041Y-38845714D02*
X41141755Y-38811428D01*
X41141755Y-38811428D02*
X41107469Y-38742857D01*
X41107469Y-38742857D02*
X41107469Y-38571428D01*
X41107469Y-38571428D02*
X41141755Y-38502857D01*
X41141755Y-38502857D02*
X41176041Y-38468571D01*
X41176041Y-38468571D02*
X41244612Y-38434285D01*
X41244612Y-38434285D02*
X41313184Y-38434285D01*
X41313184Y-38434285D02*
X41416041Y-38468571D01*
X41416041Y-38468571D02*
X41827469Y-38879999D01*
X41827469Y-38879999D02*
X41827469Y-38434285D01*
D10*
X30666666Y-63502438D02*
X30571428Y-63454819D01*
X30571428Y-63454819D02*
X30428571Y-63454819D01*
X30428571Y-63454819D02*
X30285714Y-63502438D01*
X30285714Y-63502438D02*
X30190476Y-63597676D01*
X30190476Y-63597676D02*
X30142857Y-63692914D01*
X30142857Y-63692914D02*
X30095238Y-63883390D01*
X30095238Y-63883390D02*
X30095238Y-64026247D01*
X30095238Y-64026247D02*
X30142857Y-64216723D01*
X30142857Y-64216723D02*
X30190476Y-64311961D01*
X30190476Y-64311961D02*
X30285714Y-64407200D01*
X30285714Y-64407200D02*
X30428571Y-64454819D01*
X30428571Y-64454819D02*
X30523809Y-64454819D01*
X30523809Y-64454819D02*
X30666666Y-64407200D01*
X30666666Y-64407200D02*
X30714285Y-64359580D01*
X30714285Y-64359580D02*
X30714285Y-64026247D01*
X30714285Y-64026247D02*
X30523809Y-64026247D01*
X31142857Y-64454819D02*
X31142857Y-63454819D01*
X31142857Y-63454819D02*
X31714285Y-64454819D01*
X31714285Y-64454819D02*
X31714285Y-63454819D01*
X32190476Y-64454819D02*
X32190476Y-63454819D01*
X32190476Y-63454819D02*
X32428571Y-63454819D01*
X32428571Y-63454819D02*
X32571428Y-63502438D01*
X32571428Y-63502438D02*
X32666666Y-63597676D01*
X32666666Y-63597676D02*
X32714285Y-63692914D01*
X32714285Y-63692914D02*
X32761904Y-63883390D01*
X32761904Y-63883390D02*
X32761904Y-64026247D01*
X32761904Y-64026247D02*
X32714285Y-64216723D01*
X32714285Y-64216723D02*
X32666666Y-64311961D01*
X32666666Y-64311961D02*
X32571428Y-64407200D01*
X32571428Y-64407200D02*
X32428571Y-64454819D01*
X32428571Y-64454819D02*
X32190476Y-64454819D01*
X32952381Y-64550057D02*
X33714285Y-64550057D01*
X34285714Y-63931009D02*
X34428571Y-63978628D01*
X34428571Y-63978628D02*
X34476190Y-64026247D01*
X34476190Y-64026247D02*
X34523809Y-64121485D01*
X34523809Y-64121485D02*
X34523809Y-64264342D01*
X34523809Y-64264342D02*
X34476190Y-64359580D01*
X34476190Y-64359580D02*
X34428571Y-64407200D01*
X34428571Y-64407200D02*
X34333333Y-64454819D01*
X34333333Y-64454819D02*
X33952381Y-64454819D01*
X33952381Y-64454819D02*
X33952381Y-63454819D01*
X33952381Y-63454819D02*
X34285714Y-63454819D01*
X34285714Y-63454819D02*
X34380952Y-63502438D01*
X34380952Y-63502438D02*
X34428571Y-63550057D01*
X34428571Y-63550057D02*
X34476190Y-63645295D01*
X34476190Y-63645295D02*
X34476190Y-63740533D01*
X34476190Y-63740533D02*
X34428571Y-63835771D01*
X34428571Y-63835771D02*
X34380952Y-63883390D01*
X34380952Y-63883390D02*
X34285714Y-63931009D01*
X34285714Y-63931009D02*
X33952381Y-63931009D01*
X35523809Y-64454819D02*
X35190476Y-63978628D01*
X34952381Y-64454819D02*
X34952381Y-63454819D01*
X34952381Y-63454819D02*
X35333333Y-63454819D01*
X35333333Y-63454819D02*
X35428571Y-63502438D01*
X35428571Y-63502438D02*
X35476190Y-63550057D01*
X35476190Y-63550057D02*
X35523809Y-63645295D01*
X35523809Y-63645295D02*
X35523809Y-63788152D01*
X35523809Y-63788152D02*
X35476190Y-63883390D01*
X35476190Y-63883390D02*
X35428571Y-63931009D01*
X35428571Y-63931009D02*
X35333333Y-63978628D01*
X35333333Y-63978628D02*
X34952381Y-63978628D01*
X35952381Y-64454819D02*
X35952381Y-63454819D01*
X36428571Y-64454819D02*
X36428571Y-63454819D01*
X36428571Y-63454819D02*
X36666666Y-63454819D01*
X36666666Y-63454819D02*
X36809523Y-63502438D01*
X36809523Y-63502438D02*
X36904761Y-63597676D01*
X36904761Y-63597676D02*
X36952380Y-63692914D01*
X36952380Y-63692914D02*
X36999999Y-63883390D01*
X36999999Y-63883390D02*
X36999999Y-64026247D01*
X36999999Y-64026247D02*
X36952380Y-64216723D01*
X36952380Y-64216723D02*
X36904761Y-64311961D01*
X36904761Y-64311961D02*
X36809523Y-64407200D01*
X36809523Y-64407200D02*
X36666666Y-64454819D01*
X36666666Y-64454819D02*
X36428571Y-64454819D01*
X37952380Y-63502438D02*
X37857142Y-63454819D01*
X37857142Y-63454819D02*
X37714285Y-63454819D01*
X37714285Y-63454819D02*
X37571428Y-63502438D01*
X37571428Y-63502438D02*
X37476190Y-63597676D01*
X37476190Y-63597676D02*
X37428571Y-63692914D01*
X37428571Y-63692914D02*
X37380952Y-63883390D01*
X37380952Y-63883390D02*
X37380952Y-64026247D01*
X37380952Y-64026247D02*
X37428571Y-64216723D01*
X37428571Y-64216723D02*
X37476190Y-64311961D01*
X37476190Y-64311961D02*
X37571428Y-64407200D01*
X37571428Y-64407200D02*
X37714285Y-64454819D01*
X37714285Y-64454819D02*
X37809523Y-64454819D01*
X37809523Y-64454819D02*
X37952380Y-64407200D01*
X37952380Y-64407200D02*
X37999999Y-64359580D01*
X37999999Y-64359580D02*
X37999999Y-64026247D01*
X37999999Y-64026247D02*
X37809523Y-64026247D01*
X38428571Y-63931009D02*
X38761904Y-63931009D01*
X38904761Y-64454819D02*
X38428571Y-64454819D01*
X38428571Y-64454819D02*
X38428571Y-63454819D01*
X38428571Y-63454819D02*
X38904761Y-63454819D01*
X72619523Y-42374819D02*
X72048095Y-42374819D01*
X72333809Y-42374819D02*
X72333809Y-41374819D01*
X72333809Y-41374819D02*
X72238571Y-41517676D01*
X72238571Y-41517676D02*
X72143333Y-41612914D01*
X72143333Y-41612914D02*
X72048095Y-41660533D01*
X73238571Y-41374819D02*
X73333809Y-41374819D01*
X73333809Y-41374819D02*
X73429047Y-41422438D01*
X73429047Y-41422438D02*
X73476666Y-41470057D01*
X73476666Y-41470057D02*
X73524285Y-41565295D01*
X73524285Y-41565295D02*
X73571904Y-41755771D01*
X73571904Y-41755771D02*
X73571904Y-41993866D01*
X73571904Y-41993866D02*
X73524285Y-42184342D01*
X73524285Y-42184342D02*
X73476666Y-42279580D01*
X73476666Y-42279580D02*
X73429047Y-42327200D01*
X73429047Y-42327200D02*
X73333809Y-42374819D01*
X73333809Y-42374819D02*
X73238571Y-42374819D01*
X73238571Y-42374819D02*
X73143333Y-42327200D01*
X73143333Y-42327200D02*
X73095714Y-42279580D01*
X73095714Y-42279580D02*
X73048095Y-42184342D01*
X73048095Y-42184342D02*
X73000476Y-41993866D01*
X73000476Y-41993866D02*
X73000476Y-41755771D01*
X73000476Y-41755771D02*
X73048095Y-41565295D01*
X73048095Y-41565295D02*
X73095714Y-41470057D01*
X73095714Y-41470057D02*
X73143333Y-41422438D01*
X73143333Y-41422438D02*
X73238571Y-41374819D01*
X74000476Y-42374819D02*
X74000476Y-41374819D01*
X74571904Y-42374819D02*
X74143333Y-41803390D01*
X74571904Y-41374819D02*
X74000476Y-41946247D01*
D11*
X73190000Y-40327469D02*
X72950000Y-39984612D01*
X72778571Y-40327469D02*
X72778571Y-39607469D01*
X72778571Y-39607469D02*
X73052857Y-39607469D01*
X73052857Y-39607469D02*
X73121428Y-39641755D01*
X73121428Y-39641755D02*
X73155714Y-39676041D01*
X73155714Y-39676041D02*
X73190000Y-39744612D01*
X73190000Y-39744612D02*
X73190000Y-39847469D01*
X73190000Y-39847469D02*
X73155714Y-39916041D01*
X73155714Y-39916041D02*
X73121428Y-39950326D01*
X73121428Y-39950326D02*
X73052857Y-39984612D01*
X73052857Y-39984612D02*
X72778571Y-39984612D01*
X73601428Y-39916041D02*
X73532857Y-39881755D01*
X73532857Y-39881755D02*
X73498571Y-39847469D01*
X73498571Y-39847469D02*
X73464285Y-39778898D01*
X73464285Y-39778898D02*
X73464285Y-39744612D01*
X73464285Y-39744612D02*
X73498571Y-39676041D01*
X73498571Y-39676041D02*
X73532857Y-39641755D01*
X73532857Y-39641755D02*
X73601428Y-39607469D01*
X73601428Y-39607469D02*
X73738571Y-39607469D01*
X73738571Y-39607469D02*
X73807143Y-39641755D01*
X73807143Y-39641755D02*
X73841428Y-39676041D01*
X73841428Y-39676041D02*
X73875714Y-39744612D01*
X73875714Y-39744612D02*
X73875714Y-39778898D01*
X73875714Y-39778898D02*
X73841428Y-39847469D01*
X73841428Y-39847469D02*
X73807143Y-39881755D01*
X73807143Y-39881755D02*
X73738571Y-39916041D01*
X73738571Y-39916041D02*
X73601428Y-39916041D01*
X73601428Y-39916041D02*
X73532857Y-39950326D01*
X73532857Y-39950326D02*
X73498571Y-39984612D01*
X73498571Y-39984612D02*
X73464285Y-40053184D01*
X73464285Y-40053184D02*
X73464285Y-40190326D01*
X73464285Y-40190326D02*
X73498571Y-40258898D01*
X73498571Y-40258898D02*
X73532857Y-40293184D01*
X73532857Y-40293184D02*
X73601428Y-40327469D01*
X73601428Y-40327469D02*
X73738571Y-40327469D01*
X73738571Y-40327469D02*
X73807143Y-40293184D01*
X73807143Y-40293184D02*
X73841428Y-40258898D01*
X73841428Y-40258898D02*
X73875714Y-40190326D01*
X73875714Y-40190326D02*
X73875714Y-40053184D01*
X73875714Y-40053184D02*
X73841428Y-39984612D01*
X73841428Y-39984612D02*
X73807143Y-39950326D01*
X73807143Y-39950326D02*
X73738571Y-39916041D01*
D10*
X34630057Y-53761904D02*
X34582438Y-53714285D01*
X34582438Y-53714285D02*
X34534819Y-53619047D01*
X34534819Y-53619047D02*
X34534819Y-53380952D01*
X34534819Y-53380952D02*
X34582438Y-53285714D01*
X34582438Y-53285714D02*
X34630057Y-53238095D01*
X34630057Y-53238095D02*
X34725295Y-53190476D01*
X34725295Y-53190476D02*
X34820533Y-53190476D01*
X34820533Y-53190476D02*
X34963390Y-53238095D01*
X34963390Y-53238095D02*
X35534819Y-53809523D01*
X35534819Y-53809523D02*
X35534819Y-53190476D01*
X34534819Y-52571428D02*
X34534819Y-52476190D01*
X34534819Y-52476190D02*
X34582438Y-52380952D01*
X34582438Y-52380952D02*
X34630057Y-52333333D01*
X34630057Y-52333333D02*
X34725295Y-52285714D01*
X34725295Y-52285714D02*
X34915771Y-52238095D01*
X34915771Y-52238095D02*
X35153866Y-52238095D01*
X35153866Y-52238095D02*
X35344342Y-52285714D01*
X35344342Y-52285714D02*
X35439580Y-52333333D01*
X35439580Y-52333333D02*
X35487200Y-52380952D01*
X35487200Y-52380952D02*
X35534819Y-52476190D01*
X35534819Y-52476190D02*
X35534819Y-52571428D01*
X35534819Y-52571428D02*
X35487200Y-52666666D01*
X35487200Y-52666666D02*
X35439580Y-52714285D01*
X35439580Y-52714285D02*
X35344342Y-52761904D01*
X35344342Y-52761904D02*
X35153866Y-52809523D01*
X35153866Y-52809523D02*
X34915771Y-52809523D01*
X34915771Y-52809523D02*
X34725295Y-52761904D01*
X34725295Y-52761904D02*
X34630057Y-52714285D01*
X34630057Y-52714285D02*
X34582438Y-52666666D01*
X34582438Y-52666666D02*
X34534819Y-52571428D01*
X35534819Y-51809523D02*
X34534819Y-51809523D01*
X35534819Y-51238095D02*
X34963390Y-51666666D01*
X34534819Y-51238095D02*
X35106247Y-51809523D01*
D11*
X37327469Y-52619999D02*
X36984612Y-52859999D01*
X37327469Y-53031428D02*
X36607469Y-53031428D01*
X36607469Y-53031428D02*
X36607469Y-52757142D01*
X36607469Y-52757142D02*
X36641755Y-52688571D01*
X36641755Y-52688571D02*
X36676041Y-52654285D01*
X36676041Y-52654285D02*
X36744612Y-52619999D01*
X36744612Y-52619999D02*
X36847469Y-52619999D01*
X36847469Y-52619999D02*
X36916041Y-52654285D01*
X36916041Y-52654285D02*
X36950326Y-52688571D01*
X36950326Y-52688571D02*
X36984612Y-52757142D01*
X36984612Y-52757142D02*
X36984612Y-53031428D01*
X36607469Y-52002857D02*
X36607469Y-52139999D01*
X36607469Y-52139999D02*
X36641755Y-52208571D01*
X36641755Y-52208571D02*
X36676041Y-52242857D01*
X36676041Y-52242857D02*
X36778898Y-52311428D01*
X36778898Y-52311428D02*
X36916041Y-52345714D01*
X36916041Y-52345714D02*
X37190326Y-52345714D01*
X37190326Y-52345714D02*
X37258898Y-52311428D01*
X37258898Y-52311428D02*
X37293184Y-52277142D01*
X37293184Y-52277142D02*
X37327469Y-52208571D01*
X37327469Y-52208571D02*
X37327469Y-52071428D01*
X37327469Y-52071428D02*
X37293184Y-52002857D01*
X37293184Y-52002857D02*
X37258898Y-51968571D01*
X37258898Y-51968571D02*
X37190326Y-51934285D01*
X37190326Y-51934285D02*
X37018898Y-51934285D01*
X37018898Y-51934285D02*
X36950326Y-51968571D01*
X36950326Y-51968571D02*
X36916041Y-52002857D01*
X36916041Y-52002857D02*
X36881755Y-52071428D01*
X36881755Y-52071428D02*
X36881755Y-52208571D01*
X36881755Y-52208571D02*
X36916041Y-52277142D01*
X36916041Y-52277142D02*
X36950326Y-52311428D01*
X36950326Y-52311428D02*
X37018898Y-52345714D01*
D10*
X50034819Y-39690476D02*
X50034819Y-40261904D01*
X50034819Y-39976190D02*
X49034819Y-39976190D01*
X49034819Y-39976190D02*
X49177676Y-40071428D01*
X49177676Y-40071428D02*
X49272914Y-40166666D01*
X49272914Y-40166666D02*
X49320533Y-40261904D01*
X49034819Y-39071428D02*
X49034819Y-38976190D01*
X49034819Y-38976190D02*
X49082438Y-38880952D01*
X49082438Y-38880952D02*
X49130057Y-38833333D01*
X49130057Y-38833333D02*
X49225295Y-38785714D01*
X49225295Y-38785714D02*
X49415771Y-38738095D01*
X49415771Y-38738095D02*
X49653866Y-38738095D01*
X49653866Y-38738095D02*
X49844342Y-38785714D01*
X49844342Y-38785714D02*
X49939580Y-38833333D01*
X49939580Y-38833333D02*
X49987200Y-38880952D01*
X49987200Y-38880952D02*
X50034819Y-38976190D01*
X50034819Y-38976190D02*
X50034819Y-39071428D01*
X50034819Y-39071428D02*
X49987200Y-39166666D01*
X49987200Y-39166666D02*
X49939580Y-39214285D01*
X49939580Y-39214285D02*
X49844342Y-39261904D01*
X49844342Y-39261904D02*
X49653866Y-39309523D01*
X49653866Y-39309523D02*
X49415771Y-39309523D01*
X49415771Y-39309523D02*
X49225295Y-39261904D01*
X49225295Y-39261904D02*
X49130057Y-39214285D01*
X49130057Y-39214285D02*
X49082438Y-39166666D01*
X49082438Y-39166666D02*
X49034819Y-39071428D01*
X50034819Y-38309523D02*
X49034819Y-38309523D01*
X50034819Y-37738095D02*
X49463390Y-38166666D01*
X49034819Y-37738095D02*
X49606247Y-38309523D01*
D11*
X51827469Y-39119999D02*
X51484612Y-39359999D01*
X51827469Y-39531428D02*
X51107469Y-39531428D01*
X51107469Y-39531428D02*
X51107469Y-39257142D01*
X51107469Y-39257142D02*
X51141755Y-39188571D01*
X51141755Y-39188571D02*
X51176041Y-39154285D01*
X51176041Y-39154285D02*
X51244612Y-39119999D01*
X51244612Y-39119999D02*
X51347469Y-39119999D01*
X51347469Y-39119999D02*
X51416041Y-39154285D01*
X51416041Y-39154285D02*
X51450326Y-39188571D01*
X51450326Y-39188571D02*
X51484612Y-39257142D01*
X51484612Y-39257142D02*
X51484612Y-39531428D01*
X51107469Y-38879999D02*
X51107469Y-38434285D01*
X51107469Y-38434285D02*
X51381755Y-38674285D01*
X51381755Y-38674285D02*
X51381755Y-38571428D01*
X51381755Y-38571428D02*
X51416041Y-38502857D01*
X51416041Y-38502857D02*
X51450326Y-38468571D01*
X51450326Y-38468571D02*
X51518898Y-38434285D01*
X51518898Y-38434285D02*
X51690326Y-38434285D01*
X51690326Y-38434285D02*
X51758898Y-38468571D01*
X51758898Y-38468571D02*
X51793184Y-38502857D01*
X51793184Y-38502857D02*
X51827469Y-38571428D01*
X51827469Y-38571428D02*
X51827469Y-38777142D01*
X51827469Y-38777142D02*
X51793184Y-38845714D01*
X51793184Y-38845714D02*
X51758898Y-38879999D01*
D10*
X100224819Y-81214285D02*
X100224819Y-81785713D01*
X100224819Y-81499999D02*
X99224819Y-81499999D01*
X99224819Y-81499999D02*
X99367676Y-81595237D01*
X99367676Y-81595237D02*
X99462914Y-81690475D01*
X99462914Y-81690475D02*
X99510533Y-81785713D01*
X100224819Y-80785713D02*
X99224819Y-80785713D01*
X100224819Y-80214285D02*
X99653390Y-80642856D01*
X99224819Y-80214285D02*
X99796247Y-80785713D01*
D11*
X98177469Y-81462856D02*
X97834612Y-81702856D01*
X98177469Y-81874285D02*
X97457469Y-81874285D01*
X97457469Y-81874285D02*
X97457469Y-81599999D01*
X97457469Y-81599999D02*
X97491755Y-81531428D01*
X97491755Y-81531428D02*
X97526041Y-81497142D01*
X97526041Y-81497142D02*
X97594612Y-81462856D01*
X97594612Y-81462856D02*
X97697469Y-81462856D01*
X97697469Y-81462856D02*
X97766041Y-81497142D01*
X97766041Y-81497142D02*
X97800326Y-81531428D01*
X97800326Y-81531428D02*
X97834612Y-81599999D01*
X97834612Y-81599999D02*
X97834612Y-81874285D01*
X98177469Y-80777142D02*
X98177469Y-81188571D01*
X98177469Y-80982856D02*
X97457469Y-80982856D01*
X97457469Y-80982856D02*
X97560326Y-81051428D01*
X97560326Y-81051428D02*
X97628898Y-81119999D01*
X97628898Y-81119999D02*
X97663184Y-81188571D01*
X97457469Y-80537142D02*
X97457469Y-80091428D01*
X97457469Y-80091428D02*
X97731755Y-80331428D01*
X97731755Y-80331428D02*
X97731755Y-80228571D01*
X97731755Y-80228571D02*
X97766041Y-80160000D01*
X97766041Y-80160000D02*
X97800326Y-80125714D01*
X97800326Y-80125714D02*
X97868898Y-80091428D01*
X97868898Y-80091428D02*
X98040326Y-80091428D01*
X98040326Y-80091428D02*
X98108898Y-80125714D01*
X98108898Y-80125714D02*
X98143184Y-80160000D01*
X98143184Y-80160000D02*
X98177469Y-80228571D01*
X98177469Y-80228571D02*
X98177469Y-80434285D01*
X98177469Y-80434285D02*
X98143184Y-80502857D01*
X98143184Y-80502857D02*
X98108898Y-80537142D01*
D10*
X64611429Y-31664819D02*
X64611429Y-30664819D01*
X64611429Y-30664819D02*
X64849524Y-30664819D01*
X64849524Y-30664819D02*
X64992381Y-30712438D01*
X64992381Y-30712438D02*
X65087619Y-30807676D01*
X65087619Y-30807676D02*
X65135238Y-30902914D01*
X65135238Y-30902914D02*
X65182857Y-31093390D01*
X65182857Y-31093390D02*
X65182857Y-31236247D01*
X65182857Y-31236247D02*
X65135238Y-31426723D01*
X65135238Y-31426723D02*
X65087619Y-31521961D01*
X65087619Y-31521961D02*
X64992381Y-31617200D01*
X64992381Y-31617200D02*
X64849524Y-31664819D01*
X64849524Y-31664819D02*
X64611429Y-31664819D01*
X65611429Y-31664819D02*
X65611429Y-30664819D01*
X66659047Y-31664819D02*
X66325714Y-31188628D01*
X66087619Y-31664819D02*
X66087619Y-30664819D01*
X66087619Y-30664819D02*
X66468571Y-30664819D01*
X66468571Y-30664819D02*
X66563809Y-30712438D01*
X66563809Y-30712438D02*
X66611428Y-30760057D01*
X66611428Y-30760057D02*
X66659047Y-30855295D01*
X66659047Y-30855295D02*
X66659047Y-30998152D01*
X66659047Y-30998152D02*
X66611428Y-31093390D01*
X66611428Y-31093390D02*
X66563809Y-31141009D01*
X66563809Y-31141009D02*
X66468571Y-31188628D01*
X66468571Y-31188628D02*
X66087619Y-31188628D01*
X66849524Y-31760057D02*
X67611428Y-31760057D01*
X67849524Y-31664819D02*
X67849524Y-30664819D01*
X67849524Y-30664819D02*
X68230476Y-30664819D01*
X68230476Y-30664819D02*
X68325714Y-30712438D01*
X68325714Y-30712438D02*
X68373333Y-30760057D01*
X68373333Y-30760057D02*
X68420952Y-30855295D01*
X68420952Y-30855295D02*
X68420952Y-30998152D01*
X68420952Y-30998152D02*
X68373333Y-31093390D01*
X68373333Y-31093390D02*
X68325714Y-31141009D01*
X68325714Y-31141009D02*
X68230476Y-31188628D01*
X68230476Y-31188628D02*
X67849524Y-31188628D01*
X68754286Y-30664819D02*
X68992381Y-31664819D01*
X68992381Y-31664819D02*
X69182857Y-30950533D01*
X69182857Y-30950533D02*
X69373333Y-31664819D01*
X69373333Y-31664819D02*
X69611429Y-30664819D01*
X69992381Y-31664819D02*
X69992381Y-30664819D01*
X69992381Y-30664819D02*
X70325714Y-31379104D01*
X70325714Y-31379104D02*
X70659047Y-30664819D01*
X70659047Y-30664819D02*
X70659047Y-31664819D01*
X70897143Y-31760057D02*
X71659047Y-31760057D01*
X72420952Y-30712438D02*
X72325714Y-30664819D01*
X72325714Y-30664819D02*
X72182857Y-30664819D01*
X72182857Y-30664819D02*
X72040000Y-30712438D01*
X72040000Y-30712438D02*
X71944762Y-30807676D01*
X71944762Y-30807676D02*
X71897143Y-30902914D01*
X71897143Y-30902914D02*
X71849524Y-31093390D01*
X71849524Y-31093390D02*
X71849524Y-31236247D01*
X71849524Y-31236247D02*
X71897143Y-31426723D01*
X71897143Y-31426723D02*
X71944762Y-31521961D01*
X71944762Y-31521961D02*
X72040000Y-31617200D01*
X72040000Y-31617200D02*
X72182857Y-31664819D01*
X72182857Y-31664819D02*
X72278095Y-31664819D01*
X72278095Y-31664819D02*
X72420952Y-31617200D01*
X72420952Y-31617200D02*
X72468571Y-31569580D01*
X72468571Y-31569580D02*
X72468571Y-31236247D01*
X72468571Y-31236247D02*
X72278095Y-31236247D01*
X72897143Y-31664819D02*
X72897143Y-30664819D01*
X72897143Y-30664819D02*
X73468571Y-31664819D01*
X73468571Y-31664819D02*
X73468571Y-30664819D01*
X73944762Y-31664819D02*
X73944762Y-30664819D01*
X73944762Y-30664819D02*
X74182857Y-30664819D01*
X74182857Y-30664819D02*
X74325714Y-30712438D01*
X74325714Y-30712438D02*
X74420952Y-30807676D01*
X74420952Y-30807676D02*
X74468571Y-30902914D01*
X74468571Y-30902914D02*
X74516190Y-31093390D01*
X74516190Y-31093390D02*
X74516190Y-31236247D01*
X74516190Y-31236247D02*
X74468571Y-31426723D01*
X74468571Y-31426723D02*
X74420952Y-31521961D01*
X74420952Y-31521961D02*
X74325714Y-31617200D01*
X74325714Y-31617200D02*
X74182857Y-31664819D01*
X74182857Y-31664819D02*
X73944762Y-31664819D01*
X64587618Y-29199580D02*
X64539999Y-29247200D01*
X64539999Y-29247200D02*
X64397142Y-29294819D01*
X64397142Y-29294819D02*
X64301904Y-29294819D01*
X64301904Y-29294819D02*
X64159047Y-29247200D01*
X64159047Y-29247200D02*
X64063809Y-29151961D01*
X64063809Y-29151961D02*
X64016190Y-29056723D01*
X64016190Y-29056723D02*
X63968571Y-28866247D01*
X63968571Y-28866247D02*
X63968571Y-28723390D01*
X63968571Y-28723390D02*
X64016190Y-28532914D01*
X64016190Y-28532914D02*
X64063809Y-28437676D01*
X64063809Y-28437676D02*
X64159047Y-28342438D01*
X64159047Y-28342438D02*
X64301904Y-28294819D01*
X64301904Y-28294819D02*
X64397142Y-28294819D01*
X64397142Y-28294819D02*
X64539999Y-28342438D01*
X64539999Y-28342438D02*
X64587618Y-28390057D01*
X64920952Y-28628152D02*
X65159047Y-29294819D01*
X65397142Y-28628152D02*
X65159047Y-29294819D01*
X65159047Y-29294819D02*
X65063809Y-29532914D01*
X65063809Y-29532914D02*
X65016190Y-29580533D01*
X65016190Y-29580533D02*
X64920952Y-29628152D01*
X65635238Y-28628152D02*
X66016190Y-28628152D01*
X65778095Y-28294819D02*
X65778095Y-29151961D01*
X65778095Y-29151961D02*
X65825714Y-29247200D01*
X65825714Y-29247200D02*
X65920952Y-29294819D01*
X65920952Y-29294819D02*
X66016190Y-29294819D01*
X66349524Y-29294819D02*
X66349524Y-28628152D01*
X66349524Y-28818628D02*
X66397143Y-28723390D01*
X66397143Y-28723390D02*
X66444762Y-28675771D01*
X66444762Y-28675771D02*
X66540000Y-28628152D01*
X66540000Y-28628152D02*
X66635238Y-28628152D01*
X67111429Y-29294819D02*
X67016191Y-29247200D01*
X67016191Y-29247200D02*
X66968572Y-29199580D01*
X66968572Y-29199580D02*
X66920953Y-29104342D01*
X66920953Y-29104342D02*
X66920953Y-28818628D01*
X66920953Y-28818628D02*
X66968572Y-28723390D01*
X66968572Y-28723390D02*
X67016191Y-28675771D01*
X67016191Y-28675771D02*
X67111429Y-28628152D01*
X67111429Y-28628152D02*
X67254286Y-28628152D01*
X67254286Y-28628152D02*
X67349524Y-28675771D01*
X67349524Y-28675771D02*
X67397143Y-28723390D01*
X67397143Y-28723390D02*
X67444762Y-28818628D01*
X67444762Y-28818628D02*
X67444762Y-29104342D01*
X67444762Y-29104342D02*
X67397143Y-29199580D01*
X67397143Y-29199580D02*
X67349524Y-29247200D01*
X67349524Y-29247200D02*
X67254286Y-29294819D01*
X67254286Y-29294819D02*
X67111429Y-29294819D01*
X67873334Y-28628152D02*
X67873334Y-29294819D01*
X67873334Y-28723390D02*
X67920953Y-28675771D01*
X67920953Y-28675771D02*
X68016191Y-28628152D01*
X68016191Y-28628152D02*
X68159048Y-28628152D01*
X68159048Y-28628152D02*
X68254286Y-28675771D01*
X68254286Y-28675771D02*
X68301905Y-28771009D01*
X68301905Y-28771009D02*
X68301905Y-29294819D01*
X68540001Y-29390057D02*
X69301905Y-29390057D01*
X69540001Y-29294819D02*
X69540001Y-28294819D01*
X69540001Y-28294819D02*
X69873334Y-29009104D01*
X69873334Y-29009104D02*
X70206667Y-28294819D01*
X70206667Y-28294819D02*
X70206667Y-29294819D01*
X70682858Y-29294819D02*
X70682858Y-28294819D01*
X70682858Y-28294819D02*
X70920953Y-28294819D01*
X70920953Y-28294819D02*
X71063810Y-28342438D01*
X71063810Y-28342438D02*
X71159048Y-28437676D01*
X71159048Y-28437676D02*
X71206667Y-28532914D01*
X71206667Y-28532914D02*
X71254286Y-28723390D01*
X71254286Y-28723390D02*
X71254286Y-28866247D01*
X71254286Y-28866247D02*
X71206667Y-29056723D01*
X71206667Y-29056723D02*
X71159048Y-29151961D01*
X71159048Y-29151961D02*
X71063810Y-29247200D01*
X71063810Y-29247200D02*
X70920953Y-29294819D01*
X70920953Y-29294819D02*
X70682858Y-29294819D01*
X72206667Y-29294819D02*
X71635239Y-29294819D01*
X71920953Y-29294819D02*
X71920953Y-28294819D01*
X71920953Y-28294819D02*
X71825715Y-28437676D01*
X71825715Y-28437676D02*
X71730477Y-28532914D01*
X71730477Y-28532914D02*
X71635239Y-28580533D01*
X72825715Y-28294819D02*
X72920953Y-28294819D01*
X72920953Y-28294819D02*
X73016191Y-28342438D01*
X73016191Y-28342438D02*
X73063810Y-28390057D01*
X73063810Y-28390057D02*
X73111429Y-28485295D01*
X73111429Y-28485295D02*
X73159048Y-28675771D01*
X73159048Y-28675771D02*
X73159048Y-28913866D01*
X73159048Y-28913866D02*
X73111429Y-29104342D01*
X73111429Y-29104342D02*
X73063810Y-29199580D01*
X73063810Y-29199580D02*
X73016191Y-29247200D01*
X73016191Y-29247200D02*
X72920953Y-29294819D01*
X72920953Y-29294819D02*
X72825715Y-29294819D01*
X72825715Y-29294819D02*
X72730477Y-29247200D01*
X72730477Y-29247200D02*
X72682858Y-29199580D01*
X72682858Y-29199580D02*
X72635239Y-29104342D01*
X72635239Y-29104342D02*
X72587620Y-28913866D01*
X72587620Y-28913866D02*
X72587620Y-28675771D01*
X72587620Y-28675771D02*
X72635239Y-28485295D01*
X72635239Y-28485295D02*
X72682858Y-28390057D01*
X72682858Y-28390057D02*
X72730477Y-28342438D01*
X72730477Y-28342438D02*
X72825715Y-28294819D01*
X74159048Y-29199580D02*
X74111429Y-29247200D01*
X74111429Y-29247200D02*
X73968572Y-29294819D01*
X73968572Y-29294819D02*
X73873334Y-29294819D01*
X73873334Y-29294819D02*
X73730477Y-29247200D01*
X73730477Y-29247200D02*
X73635239Y-29151961D01*
X73635239Y-29151961D02*
X73587620Y-29056723D01*
X73587620Y-29056723D02*
X73540001Y-28866247D01*
X73540001Y-28866247D02*
X73540001Y-28723390D01*
X73540001Y-28723390D02*
X73587620Y-28532914D01*
X73587620Y-28532914D02*
X73635239Y-28437676D01*
X73635239Y-28437676D02*
X73730477Y-28342438D01*
X73730477Y-28342438D02*
X73873334Y-28294819D01*
X73873334Y-28294819D02*
X73968572Y-28294819D01*
X73968572Y-28294819D02*
X74111429Y-28342438D01*
X74111429Y-28342438D02*
X74159048Y-28390057D01*
X75111429Y-29294819D02*
X74540001Y-29294819D01*
X74825715Y-29294819D02*
X74825715Y-28294819D01*
X74825715Y-28294819D02*
X74730477Y-28437676D01*
X74730477Y-28437676D02*
X74635239Y-28532914D01*
X74635239Y-28532914D02*
X74540001Y-28580533D01*
X118618095Y-51733866D02*
X118665714Y-51686247D01*
X118665714Y-51686247D02*
X118760952Y-51638628D01*
X118760952Y-51638628D02*
X118951428Y-51733866D01*
X118951428Y-51733866D02*
X119046666Y-51686247D01*
X119046666Y-51686247D02*
X119094285Y-51638628D01*
X118118095Y-49614819D02*
X118118095Y-50424342D01*
X118118095Y-50424342D02*
X118165714Y-50519580D01*
X118165714Y-50519580D02*
X118213333Y-50567200D01*
X118213333Y-50567200D02*
X118308571Y-50614819D01*
X118308571Y-50614819D02*
X118499047Y-50614819D01*
X118499047Y-50614819D02*
X118594285Y-50567200D01*
X118594285Y-50567200D02*
X118641904Y-50519580D01*
X118641904Y-50519580D02*
X118689523Y-50424342D01*
X118689523Y-50424342D02*
X118689523Y-49614819D01*
X119070476Y-49614819D02*
X119689523Y-49614819D01*
X119689523Y-49614819D02*
X119356190Y-49995771D01*
X119356190Y-49995771D02*
X119499047Y-49995771D01*
X119499047Y-49995771D02*
X119594285Y-50043390D01*
X119594285Y-50043390D02*
X119641904Y-50091009D01*
X119641904Y-50091009D02*
X119689523Y-50186247D01*
X119689523Y-50186247D02*
X119689523Y-50424342D01*
X119689523Y-50424342D02*
X119641904Y-50519580D01*
X119641904Y-50519580D02*
X119594285Y-50567200D01*
X119594285Y-50567200D02*
X119499047Y-50614819D01*
X119499047Y-50614819D02*
X119213333Y-50614819D01*
X119213333Y-50614819D02*
X119118095Y-50567200D01*
X119118095Y-50567200D02*
X119070476Y-50519580D01*
X33029819Y-39907976D02*
X33029819Y-40479404D01*
X33029819Y-40193690D02*
X32029819Y-40193690D01*
X32029819Y-40193690D02*
X32172676Y-40288928D01*
X32172676Y-40288928D02*
X32267914Y-40384166D01*
X32267914Y-40384166D02*
X32315533Y-40479404D01*
X32029819Y-39288928D02*
X32029819Y-39193690D01*
X32029819Y-39193690D02*
X32077438Y-39098452D01*
X32077438Y-39098452D02*
X32125057Y-39050833D01*
X32125057Y-39050833D02*
X32220295Y-39003214D01*
X32220295Y-39003214D02*
X32410771Y-38955595D01*
X32410771Y-38955595D02*
X32648866Y-38955595D01*
X32648866Y-38955595D02*
X32839342Y-39003214D01*
X32839342Y-39003214D02*
X32934580Y-39050833D01*
X32934580Y-39050833D02*
X32982200Y-39098452D01*
X32982200Y-39098452D02*
X33029819Y-39193690D01*
X33029819Y-39193690D02*
X33029819Y-39288928D01*
X33029819Y-39288928D02*
X32982200Y-39384166D01*
X32982200Y-39384166D02*
X32934580Y-39431785D01*
X32934580Y-39431785D02*
X32839342Y-39479404D01*
X32839342Y-39479404D02*
X32648866Y-39527023D01*
X32648866Y-39527023D02*
X32410771Y-39527023D01*
X32410771Y-39527023D02*
X32220295Y-39479404D01*
X32220295Y-39479404D02*
X32125057Y-39431785D01*
X32125057Y-39431785D02*
X32077438Y-39384166D01*
X32077438Y-39384166D02*
X32029819Y-39288928D01*
X33029819Y-38527023D02*
X32029819Y-38527023D01*
X33029819Y-37955595D02*
X32458390Y-38384166D01*
X32029819Y-37955595D02*
X32601247Y-38527023D01*
D11*
X34822469Y-39337499D02*
X34479612Y-39577499D01*
X34822469Y-39748928D02*
X34102469Y-39748928D01*
X34102469Y-39748928D02*
X34102469Y-39474642D01*
X34102469Y-39474642D02*
X34136755Y-39406071D01*
X34136755Y-39406071D02*
X34171041Y-39371785D01*
X34171041Y-39371785D02*
X34239612Y-39337499D01*
X34239612Y-39337499D02*
X34342469Y-39337499D01*
X34342469Y-39337499D02*
X34411041Y-39371785D01*
X34411041Y-39371785D02*
X34445326Y-39406071D01*
X34445326Y-39406071D02*
X34479612Y-39474642D01*
X34479612Y-39474642D02*
X34479612Y-39748928D01*
X34102469Y-38686071D02*
X34102469Y-39028928D01*
X34102469Y-39028928D02*
X34445326Y-39063214D01*
X34445326Y-39063214D02*
X34411041Y-39028928D01*
X34411041Y-39028928D02*
X34376755Y-38960357D01*
X34376755Y-38960357D02*
X34376755Y-38788928D01*
X34376755Y-38788928D02*
X34411041Y-38720357D01*
X34411041Y-38720357D02*
X34445326Y-38686071D01*
X34445326Y-38686071D02*
X34513898Y-38651785D01*
X34513898Y-38651785D02*
X34685326Y-38651785D01*
X34685326Y-38651785D02*
X34753898Y-38686071D01*
X34753898Y-38686071D02*
X34788184Y-38720357D01*
X34788184Y-38720357D02*
X34822469Y-38788928D01*
X34822469Y-38788928D02*
X34822469Y-38960357D01*
X34822469Y-38960357D02*
X34788184Y-39028928D01*
X34788184Y-39028928D02*
X34753898Y-39063214D01*
D10*
X45809523Y-75534819D02*
X45238095Y-75534819D01*
X45523809Y-75534819D02*
X45523809Y-74534819D01*
X45523809Y-74534819D02*
X45428571Y-74677676D01*
X45428571Y-74677676D02*
X45333333Y-74772914D01*
X45333333Y-74772914D02*
X45238095Y-74820533D01*
X46428571Y-74534819D02*
X46523809Y-74534819D01*
X46523809Y-74534819D02*
X46619047Y-74582438D01*
X46619047Y-74582438D02*
X46666666Y-74630057D01*
X46666666Y-74630057D02*
X46714285Y-74725295D01*
X46714285Y-74725295D02*
X46761904Y-74915771D01*
X46761904Y-74915771D02*
X46761904Y-75153866D01*
X46761904Y-75153866D02*
X46714285Y-75344342D01*
X46714285Y-75344342D02*
X46666666Y-75439580D01*
X46666666Y-75439580D02*
X46619047Y-75487200D01*
X46619047Y-75487200D02*
X46523809Y-75534819D01*
X46523809Y-75534819D02*
X46428571Y-75534819D01*
X46428571Y-75534819D02*
X46333333Y-75487200D01*
X46333333Y-75487200D02*
X46285714Y-75439580D01*
X46285714Y-75439580D02*
X46238095Y-75344342D01*
X46238095Y-75344342D02*
X46190476Y-75153866D01*
X46190476Y-75153866D02*
X46190476Y-74915771D01*
X46190476Y-74915771D02*
X46238095Y-74725295D01*
X46238095Y-74725295D02*
X46285714Y-74630057D01*
X46285714Y-74630057D02*
X46333333Y-74582438D01*
X46333333Y-74582438D02*
X46428571Y-74534819D01*
X47190476Y-75534819D02*
X47190476Y-74534819D01*
X47761904Y-75534819D02*
X47333333Y-74963390D01*
X47761904Y-74534819D02*
X47190476Y-75106247D01*
D11*
X46380000Y-77327469D02*
X46140000Y-76984612D01*
X45968571Y-77327469D02*
X45968571Y-76607469D01*
X45968571Y-76607469D02*
X46242857Y-76607469D01*
X46242857Y-76607469D02*
X46311428Y-76641755D01*
X46311428Y-76641755D02*
X46345714Y-76676041D01*
X46345714Y-76676041D02*
X46380000Y-76744612D01*
X46380000Y-76744612D02*
X46380000Y-76847469D01*
X46380000Y-76847469D02*
X46345714Y-76916041D01*
X46345714Y-76916041D02*
X46311428Y-76950326D01*
X46311428Y-76950326D02*
X46242857Y-76984612D01*
X46242857Y-76984612D02*
X45968571Y-76984612D01*
X46722857Y-77327469D02*
X46860000Y-77327469D01*
X46860000Y-77327469D02*
X46928571Y-77293184D01*
X46928571Y-77293184D02*
X46962857Y-77258898D01*
X46962857Y-77258898D02*
X47031428Y-77156041D01*
X47031428Y-77156041D02*
X47065714Y-77018898D01*
X47065714Y-77018898D02*
X47065714Y-76744612D01*
X47065714Y-76744612D02*
X47031428Y-76676041D01*
X47031428Y-76676041D02*
X46997143Y-76641755D01*
X46997143Y-76641755D02*
X46928571Y-76607469D01*
X46928571Y-76607469D02*
X46791428Y-76607469D01*
X46791428Y-76607469D02*
X46722857Y-76641755D01*
X46722857Y-76641755D02*
X46688571Y-76676041D01*
X46688571Y-76676041D02*
X46654285Y-76744612D01*
X46654285Y-76744612D02*
X46654285Y-76916041D01*
X46654285Y-76916041D02*
X46688571Y-76984612D01*
X46688571Y-76984612D02*
X46722857Y-77018898D01*
X46722857Y-77018898D02*
X46791428Y-77053184D01*
X46791428Y-77053184D02*
X46928571Y-77053184D01*
X46928571Y-77053184D02*
X46997143Y-77018898D01*
X46997143Y-77018898D02*
X47031428Y-76984612D01*
X47031428Y-76984612D02*
X47065714Y-76916041D01*
D10*
X34309523Y-93534819D02*
X33738095Y-93534819D01*
X34023809Y-93534819D02*
X34023809Y-92534819D01*
X34023809Y-92534819D02*
X33928571Y-92677676D01*
X33928571Y-92677676D02*
X33833333Y-92772914D01*
X33833333Y-92772914D02*
X33738095Y-92820533D01*
X34928571Y-92534819D02*
X35023809Y-92534819D01*
X35023809Y-92534819D02*
X35119047Y-92582438D01*
X35119047Y-92582438D02*
X35166666Y-92630057D01*
X35166666Y-92630057D02*
X35214285Y-92725295D01*
X35214285Y-92725295D02*
X35261904Y-92915771D01*
X35261904Y-92915771D02*
X35261904Y-93153866D01*
X35261904Y-93153866D02*
X35214285Y-93344342D01*
X35214285Y-93344342D02*
X35166666Y-93439580D01*
X35166666Y-93439580D02*
X35119047Y-93487200D01*
X35119047Y-93487200D02*
X35023809Y-93534819D01*
X35023809Y-93534819D02*
X34928571Y-93534819D01*
X34928571Y-93534819D02*
X34833333Y-93487200D01*
X34833333Y-93487200D02*
X34785714Y-93439580D01*
X34785714Y-93439580D02*
X34738095Y-93344342D01*
X34738095Y-93344342D02*
X34690476Y-93153866D01*
X34690476Y-93153866D02*
X34690476Y-92915771D01*
X34690476Y-92915771D02*
X34738095Y-92725295D01*
X34738095Y-92725295D02*
X34785714Y-92630057D01*
X34785714Y-92630057D02*
X34833333Y-92582438D01*
X34833333Y-92582438D02*
X34928571Y-92534819D01*
X35690476Y-93534819D02*
X35690476Y-92534819D01*
X36261904Y-93534819D02*
X35833333Y-92963390D01*
X36261904Y-92534819D02*
X35690476Y-93106247D01*
D11*
X34537143Y-95327469D02*
X34297143Y-94984612D01*
X34125714Y-95327469D02*
X34125714Y-94607469D01*
X34125714Y-94607469D02*
X34400000Y-94607469D01*
X34400000Y-94607469D02*
X34468571Y-94641755D01*
X34468571Y-94641755D02*
X34502857Y-94676041D01*
X34502857Y-94676041D02*
X34537143Y-94744612D01*
X34537143Y-94744612D02*
X34537143Y-94847469D01*
X34537143Y-94847469D02*
X34502857Y-94916041D01*
X34502857Y-94916041D02*
X34468571Y-94950326D01*
X34468571Y-94950326D02*
X34400000Y-94984612D01*
X34400000Y-94984612D02*
X34125714Y-94984612D01*
X35222857Y-95327469D02*
X34811428Y-95327469D01*
X35017143Y-95327469D02*
X35017143Y-94607469D01*
X35017143Y-94607469D02*
X34948571Y-94710326D01*
X34948571Y-94710326D02*
X34880000Y-94778898D01*
X34880000Y-94778898D02*
X34811428Y-94813184D01*
X35497142Y-94676041D02*
X35531428Y-94641755D01*
X35531428Y-94641755D02*
X35600000Y-94607469D01*
X35600000Y-94607469D02*
X35771428Y-94607469D01*
X35771428Y-94607469D02*
X35840000Y-94641755D01*
X35840000Y-94641755D02*
X35874285Y-94676041D01*
X35874285Y-94676041D02*
X35908571Y-94744612D01*
X35908571Y-94744612D02*
X35908571Y-94813184D01*
X35908571Y-94813184D02*
X35874285Y-94916041D01*
X35874285Y-94916041D02*
X35462857Y-95327469D01*
X35462857Y-95327469D02*
X35908571Y-95327469D01*
D10*
X31590237Y-31644700D02*
X31685475Y-31692319D01*
X31685475Y-31692319D02*
X31875951Y-31692319D01*
X31875951Y-31692319D02*
X31971189Y-31644700D01*
X31971189Y-31644700D02*
X32018808Y-31549461D01*
X32018808Y-31549461D02*
X32018808Y-31501842D01*
X32018808Y-31501842D02*
X31971189Y-31406604D01*
X31971189Y-31406604D02*
X31875951Y-31358985D01*
X31875951Y-31358985D02*
X31733094Y-31358985D01*
X31733094Y-31358985D02*
X31637856Y-31311366D01*
X31637856Y-31311366D02*
X31590237Y-31216128D01*
X31590237Y-31216128D02*
X31590237Y-31168509D01*
X31590237Y-31168509D02*
X31637856Y-31073271D01*
X31637856Y-31073271D02*
X31733094Y-31025652D01*
X31733094Y-31025652D02*
X31875951Y-31025652D01*
X31875951Y-31025652D02*
X31971189Y-31073271D01*
X32828332Y-31644700D02*
X32733094Y-31692319D01*
X32733094Y-31692319D02*
X32542618Y-31692319D01*
X32542618Y-31692319D02*
X32447380Y-31644700D01*
X32447380Y-31644700D02*
X32399761Y-31549461D01*
X32399761Y-31549461D02*
X32399761Y-31168509D01*
X32399761Y-31168509D02*
X32447380Y-31073271D01*
X32447380Y-31073271D02*
X32542618Y-31025652D01*
X32542618Y-31025652D02*
X32733094Y-31025652D01*
X32733094Y-31025652D02*
X32828332Y-31073271D01*
X32828332Y-31073271D02*
X32875951Y-31168509D01*
X32875951Y-31168509D02*
X32875951Y-31263747D01*
X32875951Y-31263747D02*
X32399761Y-31358985D01*
X33304523Y-31025652D02*
X33304523Y-31692319D01*
X33304523Y-31120890D02*
X33352142Y-31073271D01*
X33352142Y-31073271D02*
X33447380Y-31025652D01*
X33447380Y-31025652D02*
X33590237Y-31025652D01*
X33590237Y-31025652D02*
X33685475Y-31073271D01*
X33685475Y-31073271D02*
X33733094Y-31168509D01*
X33733094Y-31168509D02*
X33733094Y-31692319D01*
X34161666Y-31644700D02*
X34256904Y-31692319D01*
X34256904Y-31692319D02*
X34447380Y-31692319D01*
X34447380Y-31692319D02*
X34542618Y-31644700D01*
X34542618Y-31644700D02*
X34590237Y-31549461D01*
X34590237Y-31549461D02*
X34590237Y-31501842D01*
X34590237Y-31501842D02*
X34542618Y-31406604D01*
X34542618Y-31406604D02*
X34447380Y-31358985D01*
X34447380Y-31358985D02*
X34304523Y-31358985D01*
X34304523Y-31358985D02*
X34209285Y-31311366D01*
X34209285Y-31311366D02*
X34161666Y-31216128D01*
X34161666Y-31216128D02*
X34161666Y-31168509D01*
X34161666Y-31168509D02*
X34209285Y-31073271D01*
X34209285Y-31073271D02*
X34304523Y-31025652D01*
X34304523Y-31025652D02*
X34447380Y-31025652D01*
X34447380Y-31025652D02*
X34542618Y-31073271D01*
X35161666Y-31692319D02*
X35066428Y-31644700D01*
X35066428Y-31644700D02*
X35018809Y-31597080D01*
X35018809Y-31597080D02*
X34971190Y-31501842D01*
X34971190Y-31501842D02*
X34971190Y-31216128D01*
X34971190Y-31216128D02*
X35018809Y-31120890D01*
X35018809Y-31120890D02*
X35066428Y-31073271D01*
X35066428Y-31073271D02*
X35161666Y-31025652D01*
X35161666Y-31025652D02*
X35304523Y-31025652D01*
X35304523Y-31025652D02*
X35399761Y-31073271D01*
X35399761Y-31073271D02*
X35447380Y-31120890D01*
X35447380Y-31120890D02*
X35494999Y-31216128D01*
X35494999Y-31216128D02*
X35494999Y-31501842D01*
X35494999Y-31501842D02*
X35447380Y-31597080D01*
X35447380Y-31597080D02*
X35399761Y-31644700D01*
X35399761Y-31644700D02*
X35304523Y-31692319D01*
X35304523Y-31692319D02*
X35161666Y-31692319D01*
X35923571Y-31692319D02*
X35923571Y-31025652D01*
X35923571Y-31216128D02*
X35971190Y-31120890D01*
X35971190Y-31120890D02*
X36018809Y-31073271D01*
X36018809Y-31073271D02*
X36114047Y-31025652D01*
X36114047Y-31025652D02*
X36209285Y-31025652D01*
X36304524Y-31787557D02*
X37066428Y-31787557D01*
X37780714Y-30692319D02*
X37304524Y-30692319D01*
X37304524Y-30692319D02*
X37256905Y-31168509D01*
X37256905Y-31168509D02*
X37304524Y-31120890D01*
X37304524Y-31120890D02*
X37399762Y-31073271D01*
X37399762Y-31073271D02*
X37637857Y-31073271D01*
X37637857Y-31073271D02*
X37733095Y-31120890D01*
X37733095Y-31120890D02*
X37780714Y-31168509D01*
X37780714Y-31168509D02*
X37828333Y-31263747D01*
X37828333Y-31263747D02*
X37828333Y-31501842D01*
X37828333Y-31501842D02*
X37780714Y-31597080D01*
X37780714Y-31597080D02*
X37733095Y-31644700D01*
X37733095Y-31644700D02*
X37637857Y-31692319D01*
X37637857Y-31692319D02*
X37399762Y-31692319D01*
X37399762Y-31692319D02*
X37304524Y-31644700D01*
X37304524Y-31644700D02*
X37256905Y-31597080D01*
X38161667Y-31025652D02*
X38399762Y-31692319D01*
X38399762Y-31692319D02*
X38637857Y-31025652D01*
X38780715Y-31787557D02*
X39542619Y-31787557D01*
X40304524Y-30739938D02*
X40209286Y-30692319D01*
X40209286Y-30692319D02*
X40066429Y-30692319D01*
X40066429Y-30692319D02*
X39923572Y-30739938D01*
X39923572Y-30739938D02*
X39828334Y-30835176D01*
X39828334Y-30835176D02*
X39780715Y-30930414D01*
X39780715Y-30930414D02*
X39733096Y-31120890D01*
X39733096Y-31120890D02*
X39733096Y-31263747D01*
X39733096Y-31263747D02*
X39780715Y-31454223D01*
X39780715Y-31454223D02*
X39828334Y-31549461D01*
X39828334Y-31549461D02*
X39923572Y-31644700D01*
X39923572Y-31644700D02*
X40066429Y-31692319D01*
X40066429Y-31692319D02*
X40161667Y-31692319D01*
X40161667Y-31692319D02*
X40304524Y-31644700D01*
X40304524Y-31644700D02*
X40352143Y-31597080D01*
X40352143Y-31597080D02*
X40352143Y-31263747D01*
X40352143Y-31263747D02*
X40161667Y-31263747D01*
X40780715Y-31692319D02*
X40780715Y-30692319D01*
X40780715Y-30692319D02*
X41352143Y-31692319D01*
X41352143Y-31692319D02*
X41352143Y-30692319D01*
X41828334Y-31692319D02*
X41828334Y-30692319D01*
X41828334Y-30692319D02*
X42066429Y-30692319D01*
X42066429Y-30692319D02*
X42209286Y-30739938D01*
X42209286Y-30739938D02*
X42304524Y-30835176D01*
X42304524Y-30835176D02*
X42352143Y-30930414D01*
X42352143Y-30930414D02*
X42399762Y-31120890D01*
X42399762Y-31120890D02*
X42399762Y-31263747D01*
X42399762Y-31263747D02*
X42352143Y-31454223D01*
X42352143Y-31454223D02*
X42304524Y-31549461D01*
X42304524Y-31549461D02*
X42209286Y-31644700D01*
X42209286Y-31644700D02*
X42066429Y-31692319D01*
X42066429Y-31692319D02*
X41828334Y-31692319D01*
X31923571Y-29322319D02*
X31923571Y-28322319D01*
X32352142Y-29322319D02*
X32352142Y-28798509D01*
X32352142Y-28798509D02*
X32304523Y-28703271D01*
X32304523Y-28703271D02*
X32209285Y-28655652D01*
X32209285Y-28655652D02*
X32066428Y-28655652D01*
X32066428Y-28655652D02*
X31971190Y-28703271D01*
X31971190Y-28703271D02*
X31923571Y-28750890D01*
X32971190Y-29322319D02*
X32875952Y-29274700D01*
X32875952Y-29274700D02*
X32828333Y-29227080D01*
X32828333Y-29227080D02*
X32780714Y-29131842D01*
X32780714Y-29131842D02*
X32780714Y-28846128D01*
X32780714Y-28846128D02*
X32828333Y-28750890D01*
X32828333Y-28750890D02*
X32875952Y-28703271D01*
X32875952Y-28703271D02*
X32971190Y-28655652D01*
X32971190Y-28655652D02*
X33114047Y-28655652D01*
X33114047Y-28655652D02*
X33209285Y-28703271D01*
X33209285Y-28703271D02*
X33256904Y-28750890D01*
X33256904Y-28750890D02*
X33304523Y-28846128D01*
X33304523Y-28846128D02*
X33304523Y-29131842D01*
X33304523Y-29131842D02*
X33256904Y-29227080D01*
X33256904Y-29227080D02*
X33209285Y-29274700D01*
X33209285Y-29274700D02*
X33114047Y-29322319D01*
X33114047Y-29322319D02*
X32971190Y-29322319D01*
X33733095Y-29322319D02*
X33733095Y-28655652D01*
X33733095Y-28750890D02*
X33780714Y-28703271D01*
X33780714Y-28703271D02*
X33875952Y-28655652D01*
X33875952Y-28655652D02*
X34018809Y-28655652D01*
X34018809Y-28655652D02*
X34114047Y-28703271D01*
X34114047Y-28703271D02*
X34161666Y-28798509D01*
X34161666Y-28798509D02*
X34161666Y-29322319D01*
X34161666Y-28798509D02*
X34209285Y-28703271D01*
X34209285Y-28703271D02*
X34304523Y-28655652D01*
X34304523Y-28655652D02*
X34447380Y-28655652D01*
X34447380Y-28655652D02*
X34542619Y-28703271D01*
X34542619Y-28703271D02*
X34590238Y-28798509D01*
X34590238Y-28798509D02*
X34590238Y-29322319D01*
X35447380Y-29274700D02*
X35352142Y-29322319D01*
X35352142Y-29322319D02*
X35161666Y-29322319D01*
X35161666Y-29322319D02*
X35066428Y-29274700D01*
X35066428Y-29274700D02*
X35018809Y-29179461D01*
X35018809Y-29179461D02*
X35018809Y-28798509D01*
X35018809Y-28798509D02*
X35066428Y-28703271D01*
X35066428Y-28703271D02*
X35161666Y-28655652D01*
X35161666Y-28655652D02*
X35352142Y-28655652D01*
X35352142Y-28655652D02*
X35447380Y-28703271D01*
X35447380Y-28703271D02*
X35494999Y-28798509D01*
X35494999Y-28798509D02*
X35494999Y-28893747D01*
X35494999Y-28893747D02*
X35018809Y-28988985D01*
X35685476Y-29417557D02*
X36447380Y-29417557D01*
X36637857Y-29274700D02*
X36733095Y-29322319D01*
X36733095Y-29322319D02*
X36923571Y-29322319D01*
X36923571Y-29322319D02*
X37018809Y-29274700D01*
X37018809Y-29274700D02*
X37066428Y-29179461D01*
X37066428Y-29179461D02*
X37066428Y-29131842D01*
X37066428Y-29131842D02*
X37018809Y-29036604D01*
X37018809Y-29036604D02*
X36923571Y-28988985D01*
X36923571Y-28988985D02*
X36780714Y-28988985D01*
X36780714Y-28988985D02*
X36685476Y-28941366D01*
X36685476Y-28941366D02*
X36637857Y-28846128D01*
X36637857Y-28846128D02*
X36637857Y-28798509D01*
X36637857Y-28798509D02*
X36685476Y-28703271D01*
X36685476Y-28703271D02*
X36780714Y-28655652D01*
X36780714Y-28655652D02*
X36923571Y-28655652D01*
X36923571Y-28655652D02*
X37018809Y-28703271D01*
X37875952Y-29274700D02*
X37780714Y-29322319D01*
X37780714Y-29322319D02*
X37590238Y-29322319D01*
X37590238Y-29322319D02*
X37495000Y-29274700D01*
X37495000Y-29274700D02*
X37447381Y-29179461D01*
X37447381Y-29179461D02*
X37447381Y-28798509D01*
X37447381Y-28798509D02*
X37495000Y-28703271D01*
X37495000Y-28703271D02*
X37590238Y-28655652D01*
X37590238Y-28655652D02*
X37780714Y-28655652D01*
X37780714Y-28655652D02*
X37875952Y-28703271D01*
X37875952Y-28703271D02*
X37923571Y-28798509D01*
X37923571Y-28798509D02*
X37923571Y-28893747D01*
X37923571Y-28893747D02*
X37447381Y-28988985D01*
X38352143Y-28655652D02*
X38352143Y-29322319D01*
X38352143Y-28750890D02*
X38399762Y-28703271D01*
X38399762Y-28703271D02*
X38495000Y-28655652D01*
X38495000Y-28655652D02*
X38637857Y-28655652D01*
X38637857Y-28655652D02*
X38733095Y-28703271D01*
X38733095Y-28703271D02*
X38780714Y-28798509D01*
X38780714Y-28798509D02*
X38780714Y-29322319D01*
X39209286Y-29274700D02*
X39304524Y-29322319D01*
X39304524Y-29322319D02*
X39495000Y-29322319D01*
X39495000Y-29322319D02*
X39590238Y-29274700D01*
X39590238Y-29274700D02*
X39637857Y-29179461D01*
X39637857Y-29179461D02*
X39637857Y-29131842D01*
X39637857Y-29131842D02*
X39590238Y-29036604D01*
X39590238Y-29036604D02*
X39495000Y-28988985D01*
X39495000Y-28988985D02*
X39352143Y-28988985D01*
X39352143Y-28988985D02*
X39256905Y-28941366D01*
X39256905Y-28941366D02*
X39209286Y-28846128D01*
X39209286Y-28846128D02*
X39209286Y-28798509D01*
X39209286Y-28798509D02*
X39256905Y-28703271D01*
X39256905Y-28703271D02*
X39352143Y-28655652D01*
X39352143Y-28655652D02*
X39495000Y-28655652D01*
X39495000Y-28655652D02*
X39590238Y-28703271D01*
X40209286Y-29322319D02*
X40114048Y-29274700D01*
X40114048Y-29274700D02*
X40066429Y-29227080D01*
X40066429Y-29227080D02*
X40018810Y-29131842D01*
X40018810Y-29131842D02*
X40018810Y-28846128D01*
X40018810Y-28846128D02*
X40066429Y-28750890D01*
X40066429Y-28750890D02*
X40114048Y-28703271D01*
X40114048Y-28703271D02*
X40209286Y-28655652D01*
X40209286Y-28655652D02*
X40352143Y-28655652D01*
X40352143Y-28655652D02*
X40447381Y-28703271D01*
X40447381Y-28703271D02*
X40495000Y-28750890D01*
X40495000Y-28750890D02*
X40542619Y-28846128D01*
X40542619Y-28846128D02*
X40542619Y-29131842D01*
X40542619Y-29131842D02*
X40495000Y-29227080D01*
X40495000Y-29227080D02*
X40447381Y-29274700D01*
X40447381Y-29274700D02*
X40352143Y-29322319D01*
X40352143Y-29322319D02*
X40209286Y-29322319D01*
X40971191Y-29322319D02*
X40971191Y-28655652D01*
X40971191Y-28846128D02*
X41018810Y-28750890D01*
X41018810Y-28750890D02*
X41066429Y-28703271D01*
X41066429Y-28703271D02*
X41161667Y-28655652D01*
X41161667Y-28655652D02*
X41256905Y-28655652D01*
X42114048Y-29322319D02*
X41542620Y-29322319D01*
X41828334Y-29322319D02*
X41828334Y-28322319D01*
X41828334Y-28322319D02*
X41733096Y-28465176D01*
X41733096Y-28465176D02*
X41637858Y-28560414D01*
X41637858Y-28560414D02*
X41542620Y-28608033D01*
X44534819Y-39690476D02*
X44534819Y-40261904D01*
X44534819Y-39976190D02*
X43534819Y-39976190D01*
X43534819Y-39976190D02*
X43677676Y-40071428D01*
X43677676Y-40071428D02*
X43772914Y-40166666D01*
X43772914Y-40166666D02*
X43820533Y-40261904D01*
X43534819Y-39071428D02*
X43534819Y-38976190D01*
X43534819Y-38976190D02*
X43582438Y-38880952D01*
X43582438Y-38880952D02*
X43630057Y-38833333D01*
X43630057Y-38833333D02*
X43725295Y-38785714D01*
X43725295Y-38785714D02*
X43915771Y-38738095D01*
X43915771Y-38738095D02*
X44153866Y-38738095D01*
X44153866Y-38738095D02*
X44344342Y-38785714D01*
X44344342Y-38785714D02*
X44439580Y-38833333D01*
X44439580Y-38833333D02*
X44487200Y-38880952D01*
X44487200Y-38880952D02*
X44534819Y-38976190D01*
X44534819Y-38976190D02*
X44534819Y-39071428D01*
X44534819Y-39071428D02*
X44487200Y-39166666D01*
X44487200Y-39166666D02*
X44439580Y-39214285D01*
X44439580Y-39214285D02*
X44344342Y-39261904D01*
X44344342Y-39261904D02*
X44153866Y-39309523D01*
X44153866Y-39309523D02*
X43915771Y-39309523D01*
X43915771Y-39309523D02*
X43725295Y-39261904D01*
X43725295Y-39261904D02*
X43630057Y-39214285D01*
X43630057Y-39214285D02*
X43582438Y-39166666D01*
X43582438Y-39166666D02*
X43534819Y-39071428D01*
X44534819Y-38309523D02*
X43534819Y-38309523D01*
X44534819Y-37738095D02*
X43963390Y-38166666D01*
X43534819Y-37738095D02*
X44106247Y-38309523D01*
D11*
X46327469Y-39119999D02*
X45984612Y-39359999D01*
X46327469Y-39531428D02*
X45607469Y-39531428D01*
X45607469Y-39531428D02*
X45607469Y-39257142D01*
X45607469Y-39257142D02*
X45641755Y-39188571D01*
X45641755Y-39188571D02*
X45676041Y-39154285D01*
X45676041Y-39154285D02*
X45744612Y-39119999D01*
X45744612Y-39119999D02*
X45847469Y-39119999D01*
X45847469Y-39119999D02*
X45916041Y-39154285D01*
X45916041Y-39154285D02*
X45950326Y-39188571D01*
X45950326Y-39188571D02*
X45984612Y-39257142D01*
X45984612Y-39257142D02*
X45984612Y-39531428D01*
X46327469Y-38434285D02*
X46327469Y-38845714D01*
X46327469Y-38639999D02*
X45607469Y-38639999D01*
X45607469Y-38639999D02*
X45710326Y-38708571D01*
X45710326Y-38708571D02*
X45778898Y-38777142D01*
X45778898Y-38777142D02*
X45813184Y-38845714D01*
D10*
X34309523Y-88534819D02*
X33738095Y-88534819D01*
X34023809Y-88534819D02*
X34023809Y-87534819D01*
X34023809Y-87534819D02*
X33928571Y-87677676D01*
X33928571Y-87677676D02*
X33833333Y-87772914D01*
X33833333Y-87772914D02*
X33738095Y-87820533D01*
X34928571Y-87534819D02*
X35023809Y-87534819D01*
X35023809Y-87534819D02*
X35119047Y-87582438D01*
X35119047Y-87582438D02*
X35166666Y-87630057D01*
X35166666Y-87630057D02*
X35214285Y-87725295D01*
X35214285Y-87725295D02*
X35261904Y-87915771D01*
X35261904Y-87915771D02*
X35261904Y-88153866D01*
X35261904Y-88153866D02*
X35214285Y-88344342D01*
X35214285Y-88344342D02*
X35166666Y-88439580D01*
X35166666Y-88439580D02*
X35119047Y-88487200D01*
X35119047Y-88487200D02*
X35023809Y-88534819D01*
X35023809Y-88534819D02*
X34928571Y-88534819D01*
X34928571Y-88534819D02*
X34833333Y-88487200D01*
X34833333Y-88487200D02*
X34785714Y-88439580D01*
X34785714Y-88439580D02*
X34738095Y-88344342D01*
X34738095Y-88344342D02*
X34690476Y-88153866D01*
X34690476Y-88153866D02*
X34690476Y-87915771D01*
X34690476Y-87915771D02*
X34738095Y-87725295D01*
X34738095Y-87725295D02*
X34785714Y-87630057D01*
X34785714Y-87630057D02*
X34833333Y-87582438D01*
X34833333Y-87582438D02*
X34928571Y-87534819D01*
X35690476Y-88534819D02*
X35690476Y-87534819D01*
X36261904Y-88534819D02*
X35833333Y-87963390D01*
X36261904Y-87534819D02*
X35690476Y-88106247D01*
D11*
X34537143Y-90327469D02*
X34297143Y-89984612D01*
X34125714Y-90327469D02*
X34125714Y-89607469D01*
X34125714Y-89607469D02*
X34400000Y-89607469D01*
X34400000Y-89607469D02*
X34468571Y-89641755D01*
X34468571Y-89641755D02*
X34502857Y-89676041D01*
X34502857Y-89676041D02*
X34537143Y-89744612D01*
X34537143Y-89744612D02*
X34537143Y-89847469D01*
X34537143Y-89847469D02*
X34502857Y-89916041D01*
X34502857Y-89916041D02*
X34468571Y-89950326D01*
X34468571Y-89950326D02*
X34400000Y-89984612D01*
X34400000Y-89984612D02*
X34125714Y-89984612D01*
X35222857Y-90327469D02*
X34811428Y-90327469D01*
X35017143Y-90327469D02*
X35017143Y-89607469D01*
X35017143Y-89607469D02*
X34948571Y-89710326D01*
X34948571Y-89710326D02*
X34880000Y-89778898D01*
X34880000Y-89778898D02*
X34811428Y-89813184D01*
X35668571Y-89607469D02*
X35737142Y-89607469D01*
X35737142Y-89607469D02*
X35805714Y-89641755D01*
X35805714Y-89641755D02*
X35840000Y-89676041D01*
X35840000Y-89676041D02*
X35874285Y-89744612D01*
X35874285Y-89744612D02*
X35908571Y-89881755D01*
X35908571Y-89881755D02*
X35908571Y-90053184D01*
X35908571Y-90053184D02*
X35874285Y-90190326D01*
X35874285Y-90190326D02*
X35840000Y-90258898D01*
X35840000Y-90258898D02*
X35805714Y-90293184D01*
X35805714Y-90293184D02*
X35737142Y-90327469D01*
X35737142Y-90327469D02*
X35668571Y-90327469D01*
X35668571Y-90327469D02*
X35600000Y-90293184D01*
X35600000Y-90293184D02*
X35565714Y-90258898D01*
X35565714Y-90258898D02*
X35531428Y-90190326D01*
X35531428Y-90190326D02*
X35497142Y-90053184D01*
X35497142Y-90053184D02*
X35497142Y-89881755D01*
X35497142Y-89881755D02*
X35531428Y-89744612D01*
X35531428Y-89744612D02*
X35565714Y-89676041D01*
X35565714Y-89676041D02*
X35600000Y-89641755D01*
X35600000Y-89641755D02*
X35668571Y-89607469D01*
D10*
X71628593Y-70842908D02*
X71676212Y-70890527D01*
X71676212Y-70890527D02*
X71723831Y-70985765D01*
X71723831Y-70985765D02*
X71628593Y-71176241D01*
X71628593Y-71176241D02*
X71676212Y-71271479D01*
X71676212Y-71271479D02*
X71723831Y-71319098D01*
X70747640Y-70342908D02*
X69938117Y-70342908D01*
X69938117Y-70342908D02*
X69842879Y-70390527D01*
X69842879Y-70390527D02*
X69795260Y-70438146D01*
X69795260Y-70438146D02*
X69747640Y-70533384D01*
X69747640Y-70533384D02*
X69747640Y-70723860D01*
X69747640Y-70723860D02*
X69795260Y-70819098D01*
X69795260Y-70819098D02*
X69842879Y-70866717D01*
X69842879Y-70866717D02*
X69938117Y-70914336D01*
X69938117Y-70914336D02*
X70747640Y-70914336D01*
X69747640Y-71914336D02*
X69747640Y-71342908D01*
X69747640Y-71628622D02*
X70747640Y-71628622D01*
X70747640Y-71628622D02*
X70604783Y-71533384D01*
X70604783Y-71533384D02*
X70509545Y-71438146D01*
X70509545Y-71438146D02*
X70461926Y-71342908D01*
%TO.C,R15*%
D12*
X96000000Y-46190000D02*
X96000000Y-48200000D01*
X96000000Y-53810000D02*
X96000000Y-51800000D01*
X95200000Y-48200000D02*
X96800000Y-48200000D01*
X96800000Y-51800000D01*
X95200000Y-51800000D01*
X95200000Y-48200000D01*
%TO.C,XIAO-ESP32-C6-SMD1*%
X89480000Y-90955000D02*
X107280000Y-90955000D01*
X107280000Y-111930000D01*
X89480000Y-111930000D01*
X89480000Y-90955000D01*
D13*
X106436000Y-110806000D02*
G75*
G02*
X105932000Y-110806000I-252000J0D01*
G01*
X105932000Y-110806000D02*
G75*
G02*
X106436000Y-110806000I252000J0D01*
G01*
%TO.C,Encoder_motor1*%
D12*
X44400000Y-23590000D02*
X55060000Y-23590000D01*
X44400000Y-25190000D02*
X55060000Y-25190000D01*
X44400000Y-28290000D02*
X55060000Y-28290000D01*
X44400000Y-29290000D02*
X44400000Y-23590000D01*
X44400000Y-29290000D02*
X55060000Y-29290000D01*
X45200000Y-30090000D02*
X44400000Y-29290000D01*
X46556000Y-25932000D02*
X45162000Y-27326000D01*
X46678000Y-26054000D02*
X45284000Y-27448000D01*
X49096000Y-25932000D02*
X47702000Y-27326000D01*
X49218000Y-26054000D02*
X47824000Y-27448000D01*
X51636000Y-25932000D02*
X50242000Y-27326000D01*
X51758000Y-26054000D02*
X50364000Y-27448000D01*
X54176000Y-25932000D02*
X52782000Y-27326000D01*
X54298000Y-26054000D02*
X52904000Y-27448000D01*
X55060000Y-23590000D02*
X55060000Y-30090000D01*
X55060000Y-30090000D02*
X45200000Y-30090000D01*
X46920000Y-26690000D02*
G75*
G02*
X44920000Y-26690000I-1000000J0D01*
G01*
X44920000Y-26690000D02*
G75*
G02*
X46920000Y-26690000I1000000J0D01*
G01*
X49460000Y-26690000D02*
G75*
G02*
X47460000Y-26690000I-1000000J0D01*
G01*
X47460000Y-26690000D02*
G75*
G02*
X49460000Y-26690000I1000000J0D01*
G01*
X52000000Y-26690000D02*
G75*
G02*
X50000000Y-26690000I-1000000J0D01*
G01*
X50000000Y-26690000D02*
G75*
G02*
X52000000Y-26690000I1000000J0D01*
G01*
X54540000Y-26690000D02*
G75*
G02*
X52540000Y-26690000I-1000000J0D01*
G01*
X52540000Y-26690000D02*
G75*
G02*
X54540000Y-26690000I1000000J0D01*
G01*
%TO.C,R14*%
X102500000Y-69570000D02*
X102500000Y-71580000D01*
X102500000Y-77190000D02*
X102500000Y-75180000D01*
X101700000Y-71580000D02*
X103300000Y-71580000D01*
X103300000Y-75180000D01*
X101700000Y-75180000D01*
X101700000Y-71580000D01*
%TO.C,foot_Motor_2*%
X32400000Y-78900000D02*
X38900000Y-78900000D01*
X32400000Y-87020000D02*
X32400000Y-78900000D01*
X34000000Y-87020000D02*
X34000000Y-78900000D01*
X34742000Y-79784000D02*
X36136000Y-81178000D01*
X34742000Y-82324000D02*
X36136000Y-83718000D01*
X34742000Y-84864000D02*
X36136000Y-86258000D01*
X34864000Y-79662000D02*
X36258000Y-81056000D01*
X34864000Y-82202000D02*
X36258000Y-83596000D01*
X34864000Y-84742000D02*
X36258000Y-86136000D01*
X37100000Y-87020000D02*
X37100000Y-78900000D01*
X38100000Y-87020000D02*
X32400000Y-87020000D01*
X38100000Y-87020000D02*
X38100000Y-78900000D01*
X38900000Y-78900000D02*
X38900000Y-86220000D01*
X38900000Y-86220000D02*
X38100000Y-87020000D01*
X36500000Y-80420000D02*
G75*
G02*
X34500000Y-80420000I-1000000J0D01*
G01*
X34500000Y-80420000D02*
G75*
G02*
X36500000Y-80420000I1000000J0D01*
G01*
X36500000Y-82960000D02*
G75*
G02*
X34500000Y-82960000I-1000000J0D01*
G01*
X34500000Y-82960000D02*
G75*
G02*
X36500000Y-82960000I1000000J0D01*
G01*
X36500000Y-85500000D02*
G75*
G02*
X34500000Y-85500000I-1000000J0D01*
G01*
X34500000Y-85500000D02*
G75*
G02*
X36500000Y-85500000I1000000J0D01*
G01*
%TO.C,R4*%
X56000000Y-35190000D02*
X56000000Y-37200000D01*
X56000000Y-42810000D02*
X56000000Y-40800000D01*
X55200000Y-37200000D02*
X56800000Y-37200000D01*
X56800000Y-40800000D01*
X55200000Y-40800000D01*
X55200000Y-37200000D01*
%TO.C,R7*%
X67000000Y-34000000D02*
X69010000Y-34000000D01*
X74620000Y-34000000D02*
X72610000Y-34000000D01*
X69010000Y-33200000D02*
X72610000Y-33200000D01*
X72610000Y-34800000D01*
X69010000Y-34800000D01*
X69010000Y-33200000D01*
%TO.C,U4*%
D14*
X112285469Y-81140000D02*
G75*
G02*
X109994531Y-81140000I-1145469J0D01*
G01*
X109994531Y-81140000D02*
G75*
G02*
X112285469Y-81140000I1145469J0D01*
G01*
X112242769Y-120060000D02*
G75*
G02*
X110037231Y-120060000I-1102769J0D01*
G01*
X110037231Y-120060000D02*
G75*
G02*
X112242769Y-120060000I1102769J0D01*
G01*
X133005469Y-81140000D02*
G75*
G02*
X130714531Y-81140000I-1145469J0D01*
G01*
X130714531Y-81140000D02*
G75*
G02*
X133005469Y-81140000I1145469J0D01*
G01*
X133098225Y-120060000D02*
G75*
G02*
X130621775Y-120060000I-1238225J0D01*
G01*
X130621775Y-120060000D02*
G75*
G02*
X133098225Y-120060000I1238225J0D01*
G01*
%TO.C,foot_Motor_1*%
D12*
X32100000Y-98740000D02*
X32900000Y-97940000D01*
X32100000Y-106060000D02*
X32100000Y-98740000D01*
X32900000Y-97940000D02*
X32900000Y-106060000D01*
X32900000Y-97940000D02*
X38600000Y-97940000D01*
X33900000Y-97940000D02*
X33900000Y-106060000D01*
X36136000Y-100218000D02*
X34742000Y-98824000D01*
X36136000Y-102758000D02*
X34742000Y-101364000D01*
X36136000Y-105298000D02*
X34742000Y-103904000D01*
X36258000Y-100096000D02*
X34864000Y-98702000D01*
X36258000Y-102636000D02*
X34864000Y-101242000D01*
X36258000Y-105176000D02*
X34864000Y-103782000D01*
X37000000Y-97940000D02*
X37000000Y-106060000D01*
X38600000Y-97940000D02*
X38600000Y-106060000D01*
X38600000Y-106060000D02*
X32100000Y-106060000D01*
X36500000Y-99460000D02*
G75*
G02*
X34500000Y-99460000I-1000000J0D01*
G01*
X34500000Y-99460000D02*
G75*
G02*
X36500000Y-99460000I1000000J0D01*
G01*
X36500000Y-102000000D02*
G75*
G02*
X34500000Y-102000000I-1000000J0D01*
G01*
X34500000Y-102000000D02*
G75*
G02*
X36500000Y-102000000I1000000J0D01*
G01*
X36500000Y-104540000D02*
G75*
G02*
X34500000Y-104540000I-1000000J0D01*
G01*
X34500000Y-104540000D02*
G75*
G02*
X36500000Y-104540000I1000000J0D01*
G01*
%TO.C,bubble_Relay1*%
X32400000Y-67480000D02*
X38900000Y-67480000D01*
X32400000Y-75600000D02*
X32400000Y-67480000D01*
X34000000Y-75600000D02*
X34000000Y-67480000D01*
X34742000Y-68364000D02*
X36136000Y-69758000D01*
X34742000Y-70904000D02*
X36136000Y-72298000D01*
X34742000Y-73444000D02*
X36136000Y-74838000D01*
X34864000Y-68242000D02*
X36258000Y-69636000D01*
X34864000Y-70782000D02*
X36258000Y-72176000D01*
X34864000Y-73322000D02*
X36258000Y-74716000D01*
X37100000Y-75600000D02*
X37100000Y-67480000D01*
X38100000Y-75600000D02*
X32400000Y-75600000D01*
X38100000Y-75600000D02*
X38100000Y-67480000D01*
X38900000Y-67480000D02*
X38900000Y-74800000D01*
X38900000Y-74800000D02*
X38100000Y-75600000D01*
X36500000Y-69000000D02*
G75*
G02*
X34500000Y-69000000I-1000000J0D01*
G01*
X34500000Y-69000000D02*
G75*
G02*
X36500000Y-69000000I1000000J0D01*
G01*
X36500000Y-71540000D02*
G75*
G02*
X34500000Y-71540000I-1000000J0D01*
G01*
X34500000Y-71540000D02*
G75*
G02*
X36500000Y-71540000I1000000J0D01*
G01*
X36500000Y-74080000D02*
G75*
G02*
X34500000Y-74080000I-1000000J0D01*
G01*
X34500000Y-74080000D02*
G75*
G02*
X36500000Y-74080000I1000000J0D01*
G01*
%TO.C,R11*%
X39690000Y-108500000D02*
X41700000Y-108500000D01*
X47310000Y-108500000D02*
X45300000Y-108500000D01*
X41700000Y-107700000D02*
X45300000Y-107700000D01*
X45300000Y-109300000D01*
X41700000Y-109300000D01*
X41700000Y-107700000D01*
%TO.C,Power1*%
X56440000Y-109100000D02*
X56440000Y-102600000D01*
X62020000Y-109100000D02*
X56440000Y-109100000D01*
X62020000Y-107500000D02*
X56440000Y-107500000D01*
X57324000Y-106758000D02*
X58718000Y-105364000D01*
X59864000Y-106758000D02*
X61258000Y-105364000D01*
X57202000Y-106636000D02*
X58596000Y-105242000D01*
X59742000Y-106636000D02*
X61136000Y-105242000D01*
X62020000Y-104400000D02*
X56440000Y-104400000D01*
X62020000Y-103400000D02*
X62020000Y-109100000D01*
X62020000Y-103400000D02*
X56440000Y-103400000D01*
X56440000Y-102600000D02*
X61220000Y-102600000D01*
X61220000Y-102600000D02*
X62020000Y-103400000D01*
X58960000Y-106000000D02*
G75*
G02*
X56960000Y-106000000I-1000000J0D01*
G01*
X56960000Y-106000000D02*
G75*
G02*
X58960000Y-106000000I1000000J0D01*
G01*
X61500000Y-106000000D02*
G75*
G02*
X59500000Y-106000000I-1000000J0D01*
G01*
X59500000Y-106000000D02*
G75*
G02*
X61500000Y-106000000I1000000J0D01*
G01*
%TO.C,R16*%
X91500000Y-54000000D02*
X91500000Y-56010000D01*
X91500000Y-61620000D02*
X91500000Y-59610000D01*
X90700000Y-56010000D02*
X92300000Y-56010000D01*
X92300000Y-59610000D01*
X90700000Y-59610000D01*
X90700000Y-56010000D01*
%TO.C,R2*%
X41500000Y-35190000D02*
X41500000Y-37200000D01*
X41500000Y-42810000D02*
X41500000Y-40800000D01*
X40700000Y-37200000D02*
X42300000Y-37200000D01*
X42300000Y-40800000D01*
X40700000Y-40800000D01*
X40700000Y-37200000D01*
%TO.C,R8*%
X69500000Y-40000000D02*
X71510000Y-40000000D01*
X77120000Y-40000000D02*
X75110000Y-40000000D01*
X71510000Y-39200000D02*
X75110000Y-39200000D01*
X75110000Y-40800000D01*
X71510000Y-40800000D01*
X71510000Y-39200000D01*
%TO.C,R6*%
X37000000Y-48690000D02*
X37000000Y-50700000D01*
X37000000Y-56310000D02*
X37000000Y-54300000D01*
X36200000Y-50700000D02*
X37800000Y-50700000D01*
X37800000Y-54300000D01*
X36200000Y-54300000D01*
X36200000Y-50700000D01*
%TO.C,R3*%
X51500000Y-35190000D02*
X51500000Y-37200000D01*
X51500000Y-42810000D02*
X51500000Y-40800000D01*
X50700000Y-37200000D02*
X52300000Y-37200000D01*
X52300000Y-40800000D01*
X50700000Y-40800000D01*
X50700000Y-37200000D01*
%TO.C,R13*%
X97850000Y-77190000D02*
X97850000Y-79200000D01*
X97850000Y-84810000D02*
X97850000Y-82800000D01*
X97050000Y-79200000D02*
X98650000Y-79200000D01*
X98650000Y-82800000D01*
X97050000Y-82800000D01*
X97050000Y-79200000D01*
%TO.C,Cytron_MD10C1*%
X65480000Y-23590000D02*
X73600000Y-23590000D01*
X65480000Y-25190000D02*
X73600000Y-25190000D01*
X65480000Y-28290000D02*
X73600000Y-28290000D01*
X65480000Y-29290000D02*
X65480000Y-23590000D01*
X65480000Y-29290000D02*
X73600000Y-29290000D01*
X66280000Y-30090000D02*
X65480000Y-29290000D01*
X67636000Y-25932000D02*
X66242000Y-27326000D01*
X67758000Y-26054000D02*
X66364000Y-27448000D01*
X70176000Y-25932000D02*
X68782000Y-27326000D01*
X70298000Y-26054000D02*
X68904000Y-27448000D01*
X72716000Y-25932000D02*
X71322000Y-27326000D01*
X72838000Y-26054000D02*
X71444000Y-27448000D01*
X73600000Y-23590000D02*
X73600000Y-30090000D01*
X73600000Y-30090000D02*
X66280000Y-30090000D01*
X68000000Y-26690000D02*
G75*
G02*
X66000000Y-26690000I-1000000J0D01*
G01*
X66000000Y-26690000D02*
G75*
G02*
X68000000Y-26690000I1000000J0D01*
G01*
X70540000Y-26690000D02*
G75*
G02*
X68540000Y-26690000I-1000000J0D01*
G01*
X68540000Y-26690000D02*
G75*
G02*
X70540000Y-26690000I1000000J0D01*
G01*
X73080000Y-26690000D02*
G75*
G02*
X71080000Y-26690000I-1000000J0D01*
G01*
X71080000Y-26690000D02*
G75*
G02*
X73080000Y-26690000I1000000J0D01*
G01*
%TO.C,U3*%
X109010000Y-45760000D02*
G75*
G02*
X107990000Y-45760000I-510000J0D01*
G01*
X107990000Y-45760000D02*
G75*
G02*
X109010000Y-45760000I510000J0D01*
G01*
X109010000Y-48300000D02*
G75*
G02*
X107990000Y-48300000I-510000J0D01*
G01*
X107990000Y-48300000D02*
G75*
G02*
X109010000Y-48300000I510000J0D01*
G01*
X109010000Y-50840000D02*
G75*
G02*
X107990000Y-50840000I-510000J0D01*
G01*
X107990000Y-50840000D02*
G75*
G02*
X109010000Y-50840000I510000J0D01*
G01*
X109010000Y-53380000D02*
G75*
G02*
X107990000Y-53380000I-510000J0D01*
G01*
X107990000Y-53380000D02*
G75*
G02*
X109010000Y-53380000I510000J0D01*
G01*
X109010000Y-55920000D02*
G75*
G02*
X107990000Y-55920000I-510000J0D01*
G01*
X107990000Y-55920000D02*
G75*
G02*
X109010000Y-55920000I510000J0D01*
G01*
X109010000Y-58460000D02*
G75*
G02*
X107990000Y-58460000I-510000J0D01*
G01*
X107990000Y-58460000D02*
G75*
G02*
X109010000Y-58460000I510000J0D01*
G01*
X109010000Y-61000000D02*
G75*
G02*
X107990000Y-61000000I-510000J0D01*
G01*
X107990000Y-61000000D02*
G75*
G02*
X109010000Y-61000000I510000J0D01*
G01*
X110880000Y-68660000D02*
G75*
G02*
X108080000Y-68660000I-1400000J0D01*
G01*
X108080000Y-68660000D02*
G75*
G02*
X110880000Y-68660000I1400000J0D01*
G01*
X123270000Y-38060000D02*
G75*
G02*
X121090000Y-38060000I-1090000J0D01*
G01*
X121090000Y-38060000D02*
G75*
G02*
X123270000Y-38060000I1090000J0D01*
G01*
X126250000Y-69600000D02*
G75*
G02*
X125230000Y-69600000I-510000J0D01*
G01*
X125230000Y-69600000D02*
G75*
G02*
X126250000Y-69600000I510000J0D01*
G01*
X128790000Y-36580000D02*
G75*
G02*
X127770000Y-36580000I-510000J0D01*
G01*
X127770000Y-36580000D02*
G75*
G02*
X128790000Y-36580000I510000J0D01*
G01*
X128790000Y-39120000D02*
G75*
G02*
X127770000Y-39120000I-510000J0D01*
G01*
X127770000Y-39120000D02*
G75*
G02*
X128790000Y-39120000I510000J0D01*
G01*
X128790000Y-41660000D02*
G75*
G02*
X127770000Y-41660000I-510000J0D01*
G01*
X127770000Y-41660000D02*
G75*
G02*
X128790000Y-41660000I510000J0D01*
G01*
X128790000Y-44200000D02*
G75*
G02*
X127770000Y-44200000I-510000J0D01*
G01*
X127770000Y-44200000D02*
G75*
G02*
X128790000Y-44200000I510000J0D01*
G01*
X128790000Y-46740000D02*
G75*
G02*
X127770000Y-46740000I-510000J0D01*
G01*
X127770000Y-46740000D02*
G75*
G02*
X128790000Y-46740000I510000J0D01*
G01*
X128790000Y-49280000D02*
G75*
G02*
X127770000Y-49280000I-510000J0D01*
G01*
X127770000Y-49280000D02*
G75*
G02*
X128790000Y-49280000I510000J0D01*
G01*
X128790000Y-51820000D02*
G75*
G02*
X127770000Y-51820000I-510000J0D01*
G01*
X127770000Y-51820000D02*
G75*
G02*
X128790000Y-51820000I510000J0D01*
G01*
X128790000Y-54360000D02*
G75*
G02*
X127770000Y-54360000I-510000J0D01*
G01*
X127770000Y-54360000D02*
G75*
G02*
X128790000Y-54360000I510000J0D01*
G01*
X128790000Y-56900000D02*
G75*
G02*
X127770000Y-56900000I-510000J0D01*
G01*
X127770000Y-56900000D02*
G75*
G02*
X128790000Y-56900000I510000J0D01*
G01*
X128790000Y-59440000D02*
G75*
G02*
X127770000Y-59440000I-510000J0D01*
G01*
X127770000Y-59440000D02*
G75*
G02*
X128790000Y-59440000I510000J0D01*
G01*
X128790000Y-61980000D02*
G75*
G02*
X127770000Y-61980000I-510000J0D01*
G01*
X127770000Y-61980000D02*
G75*
G02*
X128790000Y-61980000I510000J0D01*
G01*
X128790000Y-64520000D02*
G75*
G02*
X127770000Y-64520000I-510000J0D01*
G01*
X127770000Y-64520000D02*
G75*
G02*
X128790000Y-64520000I510000J0D01*
G01*
X128790000Y-67060000D02*
G75*
G02*
X127770000Y-67060000I-510000J0D01*
G01*
X127770000Y-67060000D02*
G75*
G02*
X128790000Y-67060000I510000J0D01*
G01*
X128790000Y-69600000D02*
G75*
G02*
X127770000Y-69600000I-510000J0D01*
G01*
X127770000Y-69600000D02*
G75*
G02*
X128790000Y-69600000I510000J0D01*
G01*
X131330000Y-36580000D02*
G75*
G02*
X130310000Y-36580000I-510000J0D01*
G01*
X130310000Y-36580000D02*
G75*
G02*
X131330000Y-36580000I510000J0D01*
G01*
X131330000Y-39120000D02*
G75*
G02*
X130310000Y-39120000I-510000J0D01*
G01*
X130310000Y-39120000D02*
G75*
G02*
X131330000Y-39120000I510000J0D01*
G01*
X131330000Y-41660000D02*
G75*
G02*
X130310000Y-41660000I-510000J0D01*
G01*
X130310000Y-41660000D02*
G75*
G02*
X131330000Y-41660000I510000J0D01*
G01*
X131330000Y-44200000D02*
G75*
G02*
X130310000Y-44200000I-510000J0D01*
G01*
X130310000Y-44200000D02*
G75*
G02*
X131330000Y-44200000I510000J0D01*
G01*
X131330000Y-46740000D02*
G75*
G02*
X130310000Y-46740000I-510000J0D01*
G01*
X130310000Y-46740000D02*
G75*
G02*
X131330000Y-46740000I510000J0D01*
G01*
X131330000Y-49280000D02*
G75*
G02*
X130310000Y-49280000I-510000J0D01*
G01*
X130310000Y-49280000D02*
G75*
G02*
X131330000Y-49280000I510000J0D01*
G01*
X131330000Y-51820000D02*
G75*
G02*
X130310000Y-51820000I-510000J0D01*
G01*
X130310000Y-51820000D02*
G75*
G02*
X131330000Y-51820000I510000J0D01*
G01*
X131330000Y-54360000D02*
G75*
G02*
X130310000Y-54360000I-510000J0D01*
G01*
X130310000Y-54360000D02*
G75*
G02*
X131330000Y-54360000I510000J0D01*
G01*
X131330000Y-56900000D02*
G75*
G02*
X130310000Y-56900000I-510000J0D01*
G01*
X130310000Y-56900000D02*
G75*
G02*
X131330000Y-56900000I510000J0D01*
G01*
X131330000Y-59440000D02*
G75*
G02*
X130310000Y-59440000I-510000J0D01*
G01*
X130310000Y-59440000D02*
G75*
G02*
X131330000Y-59440000I510000J0D01*
G01*
X131330000Y-61980000D02*
G75*
G02*
X130310000Y-61980000I-510000J0D01*
G01*
X130310000Y-61980000D02*
G75*
G02*
X131330000Y-61980000I510000J0D01*
G01*
X131330000Y-64520000D02*
G75*
G02*
X130310000Y-64520000I-510000J0D01*
G01*
X130310000Y-64520000D02*
G75*
G02*
X131330000Y-64520000I510000J0D01*
G01*
X131330000Y-67060000D02*
G75*
G02*
X130310000Y-67060000I-510000J0D01*
G01*
X130310000Y-67060000D02*
G75*
G02*
X131330000Y-67060000I510000J0D01*
G01*
X131330000Y-69600000D02*
G75*
G02*
X130310000Y-69600000I-510000J0D01*
G01*
X130310000Y-69600000D02*
G75*
G02*
X131330000Y-69600000I510000J0D01*
G01*
X133870000Y-36580000D02*
G75*
G02*
X132850000Y-36580000I-510000J0D01*
G01*
X132850000Y-36580000D02*
G75*
G02*
X133870000Y-36580000I510000J0D01*
G01*
X133870000Y-39120000D02*
G75*
G02*
X132850000Y-39120000I-510000J0D01*
G01*
X132850000Y-39120000D02*
G75*
G02*
X133870000Y-39120000I510000J0D01*
G01*
X133870000Y-41660000D02*
G75*
G02*
X132850000Y-41660000I-510000J0D01*
G01*
X132850000Y-41660000D02*
G75*
G02*
X133870000Y-41660000I510000J0D01*
G01*
X133870000Y-44200000D02*
G75*
G02*
X132850000Y-44200000I-510000J0D01*
G01*
X132850000Y-44200000D02*
G75*
G02*
X133870000Y-44200000I510000J0D01*
G01*
X133870000Y-46740000D02*
G75*
G02*
X132850000Y-46740000I-510000J0D01*
G01*
X132850000Y-46740000D02*
G75*
G02*
X133870000Y-46740000I510000J0D01*
G01*
X133870000Y-49280000D02*
G75*
G02*
X132850000Y-49280000I-510000J0D01*
G01*
X132850000Y-49280000D02*
G75*
G02*
X133870000Y-49280000I510000J0D01*
G01*
X133870000Y-51820000D02*
G75*
G02*
X132850000Y-51820000I-510000J0D01*
G01*
X132850000Y-51820000D02*
G75*
G02*
X133870000Y-51820000I510000J0D01*
G01*
X133870000Y-54360000D02*
G75*
G02*
X132850000Y-54360000I-510000J0D01*
G01*
X132850000Y-54360000D02*
G75*
G02*
X133870000Y-54360000I510000J0D01*
G01*
X133870000Y-56900000D02*
G75*
G02*
X132850000Y-56900000I-510000J0D01*
G01*
X132850000Y-56900000D02*
G75*
G02*
X133870000Y-56900000I510000J0D01*
G01*
X133870000Y-59440000D02*
G75*
G02*
X132850000Y-59440000I-510000J0D01*
G01*
X132850000Y-59440000D02*
G75*
G02*
X133870000Y-59440000I510000J0D01*
G01*
X133870000Y-61980000D02*
G75*
G02*
X132850000Y-61980000I-510000J0D01*
G01*
X132850000Y-61980000D02*
G75*
G02*
X133870000Y-61980000I510000J0D01*
G01*
X133870000Y-64520000D02*
G75*
G02*
X132850000Y-64520000I-510000J0D01*
G01*
X132850000Y-64520000D02*
G75*
G02*
X133870000Y-64520000I510000J0D01*
G01*
X133870000Y-67060000D02*
G75*
G02*
X132850000Y-67060000I-510000J0D01*
G01*
X132850000Y-67060000D02*
G75*
G02*
X133870000Y-67060000I510000J0D01*
G01*
X133870000Y-69600000D02*
G75*
G02*
X132850000Y-69600000I-510000J0D01*
G01*
X132850000Y-69600000D02*
G75*
G02*
X133870000Y-69600000I510000J0D01*
G01*
%TO.C,R5*%
X34495000Y-35407500D02*
X34495000Y-37417500D01*
X34495000Y-43027500D02*
X34495000Y-41017500D01*
X33695000Y-37417500D02*
X35295000Y-37417500D01*
X35295000Y-41017500D01*
X33695000Y-41017500D01*
X33695000Y-37417500D01*
%TO.C,R9*%
X42690000Y-77000000D02*
X44700000Y-77000000D01*
X50310000Y-77000000D02*
X48300000Y-77000000D01*
X44700000Y-76200000D02*
X48300000Y-76200000D01*
X48300000Y-77800000D01*
X44700000Y-77800000D01*
X44700000Y-76200000D01*
%TO.C,R12*%
X31190000Y-95000000D02*
X33200000Y-95000000D01*
X38810000Y-95000000D02*
X36800000Y-95000000D01*
X33200000Y-94200000D02*
X36800000Y-94200000D01*
X36800000Y-95800000D01*
X33200000Y-95800000D01*
X33200000Y-94200000D01*
%TO.C,home_sensor1*%
X32935000Y-23617500D02*
X41055000Y-23617500D01*
X32935000Y-25217500D02*
X41055000Y-25217500D01*
X32935000Y-28317500D02*
X41055000Y-28317500D01*
X32935000Y-29317500D02*
X32935000Y-23617500D01*
X32935000Y-29317500D02*
X41055000Y-29317500D01*
X33735000Y-30117500D02*
X32935000Y-29317500D01*
X35091000Y-25959500D02*
X33697000Y-27353500D01*
X35213000Y-26081500D02*
X33819000Y-27475500D01*
X37631000Y-25959500D02*
X36237000Y-27353500D01*
X37753000Y-26081500D02*
X36359000Y-27475500D01*
X40171000Y-25959500D02*
X38777000Y-27353500D01*
X40293000Y-26081500D02*
X38899000Y-27475500D01*
X41055000Y-23617500D02*
X41055000Y-30117500D01*
X41055000Y-30117500D02*
X33735000Y-30117500D01*
X35455000Y-26717500D02*
G75*
G02*
X33455000Y-26717500I-1000000J0D01*
G01*
X33455000Y-26717500D02*
G75*
G02*
X35455000Y-26717500I1000000J0D01*
G01*
X37995000Y-26717500D02*
G75*
G02*
X35995000Y-26717500I-1000000J0D01*
G01*
X35995000Y-26717500D02*
G75*
G02*
X37995000Y-26717500I1000000J0D01*
G01*
X40535000Y-26717500D02*
G75*
G02*
X38535000Y-26717500I-1000000J0D01*
G01*
X38535000Y-26717500D02*
G75*
G02*
X40535000Y-26717500I1000000J0D01*
G01*
%TO.C,R1*%
X46000000Y-35190000D02*
X46000000Y-37200000D01*
X46000000Y-42810000D02*
X46000000Y-40800000D01*
X45200000Y-37200000D02*
X46800000Y-37200000D01*
X46800000Y-40800000D01*
X45200000Y-40800000D01*
X45200000Y-37200000D01*
%TO.C,R10*%
X38810000Y-90000000D02*
X36800000Y-90000000D01*
X31190000Y-90000000D02*
X33200000Y-90000000D01*
X33200000Y-89200000D02*
X36800000Y-89200000D01*
X36800000Y-90800000D01*
X33200000Y-90800000D01*
X33200000Y-89200000D01*
%TD*%
M02*
