%TF.GenerationSoftware,KiCad,Pcbnew,10.0.5*%
%TF.CreationDate,2026-08-14T23:15:36-07:00*%
%TF.ProjectId,chopper_body_v2,63686f70-7065-4725-9f62-6f64795f7632,rev?*%
%TF.SameCoordinates,Original*%
%TF.FileFunction,Other,User*%
%FSLAX46Y46*%
G04 Gerber Fmt 4.6, Leading zero omitted, Abs format (unit mm)*
G04 Created by KiCad (PCBNEW 10.0.5) date 2026-08-14 23:15:36*
%MOMM*%
%LPD*%
G01*
G04 APERTURE LIST*
%ADD10C,0.050000*%
G04 APERTURE END LIST*
%TO.C,Encoder_motor1*%
D10*
X71320000Y-37880000D02*
X82980000Y-37880000D01*
X82980000Y-45380000D01*
X71320000Y-45380000D01*
X71320000Y-37880000D01*
%TO.C,REF\u002A\u002A*%
X83400000Y-105880000D02*
X89990000Y-105880000D01*
X89990000Y-113380000D01*
X83400000Y-113380000D01*
X83400000Y-105880000D01*
%TO.C,R4*%
X83870000Y-48930000D02*
X85970000Y-48930000D01*
X85970000Y-58450000D01*
X83870000Y-58450000D01*
X83870000Y-48930000D01*
%TO.C,R12*%
X65950000Y-104740000D02*
X68050000Y-104740000D01*
X68050000Y-114260000D01*
X65950000Y-114260000D01*
X65950000Y-104740000D01*
%TO.C,Cytron_MD10C1*%
X40850000Y-37880000D02*
X49980000Y-37880000D01*
X49980000Y-45380000D01*
X40850000Y-45380000D01*
X40850000Y-37880000D01*
%TO.C,R7*%
X44660000Y-49430000D02*
X54180000Y-49430000D01*
X54180000Y-51530000D01*
X44660000Y-51530000D01*
X44660000Y-49430000D01*
%TO.C,R14*%
X94870000Y-83220000D02*
X96970000Y-83220000D01*
X96970000Y-92740000D01*
X94870000Y-92740000D01*
X94870000Y-83220000D01*
%TO.C,R11*%
X78950000Y-104740000D02*
X81050000Y-104740000D01*
X81050000Y-114260000D01*
X78950000Y-114260000D01*
X78950000Y-104740000D01*
%TO.C,R15*%
X93870000Y-56720000D02*
X95970000Y-56720000D01*
X95970000Y-66240000D01*
X93870000Y-66240000D01*
X93870000Y-56720000D01*
%TO.C,U4*%
X99920000Y-77480000D02*
X142420000Y-77480000D01*
X142420000Y-101480000D01*
X99920000Y-101480000D01*
X99920000Y-77480000D01*
%TO.C,R2*%
X64370000Y-49220000D02*
X66470000Y-49220000D01*
X66470000Y-58740000D01*
X64370000Y-58740000D01*
X64370000Y-49220000D01*
%TO.C,foot_Motor_2*%
X69390000Y-105600000D02*
X78520000Y-105600000D01*
X78520000Y-113100000D01*
X69390000Y-113100000D01*
X69390000Y-105600000D01*
%TO.C,R16*%
X87870000Y-61720000D02*
X89970000Y-61720000D01*
X89970000Y-71240000D01*
X87870000Y-71240000D01*
X87870000Y-61720000D01*
%TO.C,R13*%
X92450000Y-95720000D02*
X94550000Y-95720000D01*
X94550000Y-105240000D01*
X92450000Y-105240000D01*
X92450000Y-95720000D01*
%TO.C,R4*%
X70370000Y-48930000D02*
X72470000Y-48930000D01*
X72470000Y-58450000D01*
X70370000Y-58450000D01*
X70370000Y-48930000D01*
%TO.C,R1*%
X73870000Y-48930000D02*
X75970000Y-48930000D01*
X75970000Y-58450000D01*
X73870000Y-58450000D01*
X73870000Y-48930000D01*
%TO.C,R10*%
X59870000Y-104530000D02*
X61970000Y-104530000D01*
X61970000Y-114050000D01*
X59870000Y-114050000D01*
X59870000Y-104530000D01*
%TO.C,R5*%
X59370000Y-49220000D02*
X61470000Y-49220000D01*
X61470000Y-58740000D01*
X59370000Y-58740000D01*
X59370000Y-49220000D01*
%TO.C,R9*%
X44870000Y-104530000D02*
X46970000Y-104530000D01*
X46970000Y-114050000D01*
X44870000Y-114050000D01*
X44870000Y-104530000D01*
%TO.C,home_sensor1*%
X58320000Y-37880000D02*
X67450000Y-37880000D01*
X67450000Y-45380000D01*
X58320000Y-45380000D01*
X58320000Y-37880000D01*
%TO.C,foot_Motor_1*%
X49810000Y-105580000D02*
X58940000Y-105580000D01*
X58940000Y-113080000D01*
X49810000Y-113080000D01*
X49810000Y-105580000D01*
%TO.C,Power1*%
X33625000Y-61597500D02*
X40215000Y-61597500D01*
X40215000Y-69097500D01*
X33625000Y-69097500D01*
X33625000Y-61597500D01*
%TO.C,R3*%
X79370000Y-48930000D02*
X81470000Y-48930000D01*
X81470000Y-58450000D01*
X79370000Y-58450000D01*
X79370000Y-48930000D01*
%TO.C,R8*%
X39740000Y-57930000D02*
X49260000Y-57930000D01*
X49260000Y-60030000D01*
X39740000Y-60030000D01*
X39740000Y-57930000D01*
%TO.C,XIAO-ESP32-C6-SMD1*%
X108330000Y-103720000D02*
X129305000Y-103720000D01*
X129305000Y-121520000D01*
X108330000Y-121520000D01*
X108330000Y-103720000D01*
%TD*%
M02*
