%TF.GenerationSoftware,KiCad,Pcbnew,10.0.5*%
%TF.CreationDate,2026-08-14T23:15:36-07:00*%
%TF.ProjectId,chopper_body_v2,63686f70-7065-4725-9f62-6f64795f7632,rev?*%
%TF.SameCoordinates,Original*%
%TF.FileFunction,Copper,L1,Top*%
%TF.FilePolarity,Positive*%
%FSLAX46Y46*%
G04 Gerber Fmt 4.6, Leading zero omitted, Abs format (unit mm)*
G04 Created by KiCad (PCBNEW 10.0.5) date 2026-08-14 23:15:36*
%MOMM*%
%LPD*%
G01*
G04 APERTURE LIST*
G04 Aperture macros list*
%AMRoundRect*
0 Rectangle with rounded corners*
0 $1 Rounding radius*
0 $2 $3 $4 $5 $6 $7 $8 $9 X,Y pos of 4 corners*
0 Add a 4 corners polygon primitive as box body*
4,1,4,$2,$3,$4,$5,$6,$7,$8,$9,$2,$3,0*
0 Add four circle primitives for the rounded corners*
1,1,$1+$1,$2,$3*
1,1,$1+$1,$4,$5*
1,1,$1+$1,$6,$7*
1,1,$1+$1,$8,$9*
0 Add four rect primitives between the rounded corners*
20,1,$1+$1,$2,$3,$4,$5,0*
20,1,$1+$1,$4,$5,$6,$7,0*
20,1,$1+$1,$6,$7,$8,$9,0*
20,1,$1+$1,$8,$9,$2,$3,0*%
G04 Aperture macros list end*
%TA.AperFunction,ComponentPad*%
%ADD10C,1.900000*%
%TD*%
%TA.AperFunction,ComponentPad*%
%ADD11R,1.900000X1.900000*%
%TD*%
%TA.AperFunction,ComponentPad*%
%ADD12RoundRect,0.250000X-0.750000X-0.750000X0.750000X-0.750000X0.750000X0.750000X-0.750000X0.750000X0*%
%TD*%
%TA.AperFunction,ComponentPad*%
%ADD13C,2.000000*%
%TD*%
%TA.AperFunction,Conductor*%
%ADD14C,1.500000*%
%TD*%
%TA.AperFunction,Conductor*%
%ADD15C,0.700000*%
%TD*%
G04 APERTURE END LIST*
D10*
%TO.P,Encoder_motor1,1,Pin_1_1*%
%TO.N,encoder_a_signal*%
X73340000Y-41480000D03*
%TO.P,Encoder_motor1,2,Pin_2_2*%
%TO.N,encoder_b_signal*%
X75880000Y-41480000D03*
%TO.P,Encoder_motor1,3,Pin_3_3*%
%TO.N,+5V*%
X78420000Y-41480000D03*
D11*
%TO.P,Encoder_motor1,4,Pin_4_4*%
%TO.N,GND*%
X80960000Y-41480000D03*
%TD*%
D12*
%TO.P,REF\u002A\u002A,1*%
%TO.N,GND*%
X85420000Y-109480000D03*
D13*
%TO.P,REF\u002A\u002A,2*%
%TO.N,relay_signal*%
X87960000Y-109480000D03*
%TD*%
D10*
%TO.P,R4,1*%
%TO.N,encoder_b_resistor*%
X84920000Y-57500000D03*
D11*
%TO.P,R4,2*%
%TO.N,GND*%
X84920000Y-49880000D03*
%TD*%
D10*
%TO.P,R12,1*%
%TO.N,AN1*%
X67000000Y-105690000D03*
D11*
%TO.P,R12,2*%
%TO.N,GND*%
X67000000Y-113310000D03*
%TD*%
D10*
%TO.P,Cytron_MD10C1,1,Pin_1_1*%
%TO.N,MD10_DIR*%
X42870000Y-41480000D03*
%TO.P,Cytron_MD10C1,2,Pin_2_2*%
%TO.N,MD10PWM*%
X45410000Y-41480000D03*
D11*
%TO.P,Cytron_MD10C1,3,Pin_3_3*%
%TO.N,GND*%
X47950000Y-41480000D03*
%TD*%
D10*
%TO.P,R7,1*%
%TO.N,MD10PWM*%
X45610000Y-50480000D03*
D11*
%TO.P,R7,2*%
%TO.N,GND*%
X53230000Y-50480000D03*
%TD*%
D10*
%TO.P,R14,1*%
%TO.N,audio_tx_resistor*%
X95920000Y-91790000D03*
D11*
%TO.P,R14,2*%
%TO.N,GND*%
X95920000Y-84170000D03*
%TD*%
D10*
%TO.P,U3,0,0_0*%
%TO.N,N/C*%
X120920000Y-38980000D03*
%TO.P,U3,1,1_1*%
X120920000Y-41520000D03*
%TO.P,U3,2,2_2*%
X120920000Y-44060000D03*
%TO.P,U3,3,3_3*%
X120920000Y-46600000D03*
%TO.P,U3,4,4_4*%
X120920000Y-49140000D03*
%TO.P,U3,5,5_5*%
X120920000Y-51680000D03*
%TO.P,U3,5V,5V_5V*%
X120920000Y-54220000D03*
%TO.P,U3,6,6_6*%
X120920000Y-56760000D03*
%TO.P,U3,7,7_7*%
X120920000Y-59300000D03*
%TO.P,U3,8,8_8*%
X120920000Y-61840000D03*
%TO.P,U3,9,9_9*%
X120920000Y-64380000D03*
%TO.P,U3,10,10_10*%
X120920000Y-66920000D03*
%TO.P,U3,11,11_11*%
X120920000Y-69460000D03*
%TO.P,U3,ERR,ERR_ERR*%
X101140000Y-60860000D03*
%TO.P,U3,GND0,GND0_GND0*%
X126000000Y-38980000D03*
%TO.P,U3,GND1,GND1_GND1*%
X126000000Y-41560000D03*
%TO.P,U3,GND2,GND2_GND2*%
X126000000Y-44060000D03*
%TO.P,U3,GND3,GND3_GND3*%
X126000000Y-46600000D03*
%TO.P,U3,GND4,GND4_GND4*%
X126000000Y-49140000D03*
%TO.P,U3,GND5,GND5_GND5*%
X126000000Y-51680000D03*
%TO.P,U3,GND5V,GND5V_GND5V*%
X126000000Y-54220000D03*
%TO.P,U3,GND6,GND6_GND6*%
X126000000Y-56760000D03*
%TO.P,U3,GND7,GND7_GND7*%
X126000000Y-59300000D03*
%TO.P,U3,GND8,GND8_GND8*%
X126000000Y-61840000D03*
%TO.P,U3,GND9,GND9_GND9*%
X126000000Y-64380000D03*
%TO.P,U3,GND10,GND10_GND10*%
X126000000Y-66920000D03*
%TO.P,U3,GND11,GND11_GND11*%
X126000000Y-69460000D03*
D11*
%TO.P,U3,GNDBoard,GNDBoard_GNDBoard*%
%TO.N,GND*%
X101140000Y-48160000D03*
%TO.P,U3,GNDIn,GNDIn_GNDIn*%
X126000000Y-72000000D03*
D10*
%TO.P,U3,RST,RST_RST*%
%TO.N,N/C*%
X101140000Y-58320000D03*
%TO.P,U3,Rx,Rx_Rx*%
%TO.N,pololu_rx*%
X101140000Y-53240000D03*
%TO.P,U3,TXIn,TXIn_TXIn*%
%TO.N,N/C*%
X101140000Y-63400000D03*
%TO.P,U3,Tx,Tx_Tx*%
%TO.N,pololu_tx*%
X101140000Y-55780000D03*
%TO.P,U3,V0,V0_V0*%
%TO.N,N/C*%
X123460000Y-38980000D03*
%TO.P,U3,V1,V1_V1*%
X123520000Y-41560000D03*
%TO.P,U3,V2,V2_V2*%
X123520000Y-44060000D03*
%TO.P,U3,V3,V3_V3*%
X123520000Y-46560000D03*
%TO.P,U3,V4,V4_V4*%
X123520000Y-49060000D03*
%TO.P,U3,V5,V5_V5*%
X123520000Y-51560000D03*
%TO.P,U3,V5In,V5In_V5In*%
%TO.N,+5V*%
X123460000Y-72000000D03*
%TO.P,U3,V5V,V5V_V5V*%
%TO.N,N/C*%
X123460000Y-54220000D03*
%TO.P,U3,V6,V6_V6*%
X123460000Y-56760000D03*
%TO.P,U3,V7,V7_V7*%
X123460000Y-59300000D03*
%TO.P,U3,V8,V8_V8*%
X123460000Y-61840000D03*
%TO.P,U3,V9,V9_V9*%
X123460000Y-64380000D03*
%TO.P,U3,V10,V10_V10*%
X123460000Y-66920000D03*
%TO.P,U3,V11,V11_V11*%
X123460000Y-69460000D03*
%TO.P,U3,VSRV,VSRV_VSRV*%
%TO.N,vin_pololu*%
X118380000Y-72000000D03*
%TO.P,U3,VinBoard,VinBoard_VinBoard*%
%TO.N,N/C*%
X101140000Y-50700000D03*
%TO.P,U3,vin,vin_vin*%
%TO.N,vin_pololu*%
X120920000Y-72000000D03*
%TD*%
%TO.P,R11,1*%
%TO.N,AN2*%
X80000000Y-105690000D03*
D11*
%TO.P,R11,2*%
%TO.N,GND*%
X80000000Y-113310000D03*
%TD*%
D10*
%TO.P,R15,1*%
%TO.N,pololu_tx*%
X94920000Y-57670000D03*
%TO.P,R15,2*%
%TO.N,pololu_tx_resistor*%
X94920000Y-65290000D03*
%TD*%
%TO.P,U1,1,VIN_1*%
%TO.N,+5V*%
X46220000Y-72980000D03*
D11*
%TO.P,U1,2,GND_2*%
%TO.N,GND*%
X48760000Y-72980000D03*
D10*
%TO.P,U1,3,GPIO13_3*%
%TO.N,N/C*%
X51300000Y-72980000D03*
%TO.P,U1,4,GPIO12_4*%
X53840000Y-72980000D03*
%TO.P,U1,5,GPIO14_5*%
%TO.N,MD10_DIR*%
X56380000Y-72980000D03*
%TO.P,U1,6,GPIO27_6*%
%TO.N,MD10PWM*%
X58920000Y-72980000D03*
%TO.P,U1,7,GPIO26_7*%
%TO.N,home_sensor_resistant*%
X61460000Y-72980000D03*
%TO.P,U1,8,GPIO25_8*%
%TO.N,encoder_a_resistor*%
X64000000Y-72980000D03*
%TO.P,U1,9,GPIO33_9*%
%TO.N,encoder_b_resistor*%
X66540000Y-72980000D03*
%TO.P,U1,10,GPIO32_10*%
%TO.N,pololu_rx*%
X69080000Y-72980000D03*
%TO.P,U1,11,GPIO35_11*%
%TO.N,pololu_tx_resistor*%
X71620000Y-72980000D03*
%TO.P,U1,12,GPIO34_12*%
%TO.N,N/C*%
X74160000Y-72980000D03*
%TO.P,U1,13,GPIO39_13*%
X76700000Y-72980000D03*
%TO.P,U1,14,GPIO36_14*%
X79240000Y-72980000D03*
%TO.P,U1,15,EN_15*%
X81780000Y-72980000D03*
%TO.P,U1,16,3.3v_16*%
X46220000Y-98380000D03*
D11*
%TO.P,U1,17,GND_17*%
%TO.N,GND*%
X48760000Y-98380000D03*
D10*
%TO.P,U1,18,GPIO15_18*%
%TO.N,unconnected-(U1-GPIO15-Pad18)*%
X51300000Y-98380000D03*
%TO.P,U1,19,GPIO2_19*%
%TO.N,unconnected-(U1-GPIO2-Pad19)*%
X53840000Y-98380000D03*
%TO.P,U1,20,GPIO4_20*%
%TO.N,IN1*%
X56380000Y-98380000D03*
%TO.P,U1,21,GPIO16_21*%
%TO.N,IN2*%
X58920000Y-98380000D03*
%TO.P,U1,22,GPIO17_22*%
%TO.N,AN1*%
X61460000Y-98380000D03*
%TO.P,U1,23,GPIO5_23*%
%TO.N,AN2*%
X64000000Y-98380000D03*
%TO.P,U1,24,GPIO18_24*%
%TO.N,audio_tx_resistor*%
X66540000Y-98380000D03*
%TO.P,U1,25,GPIO19_25*%
%TO.N,audio_rx*%
X69080000Y-98380000D03*
%TO.P,U1,26,GPIO21_26*%
%TO.N,relay_signal*%
X71620000Y-98380000D03*
%TO.P,U1,27,GPIO3_27*%
%TO.N,N/C*%
X74160000Y-98380000D03*
%TO.P,U1,28,GPIO1_28*%
X76700000Y-98380000D03*
%TO.P,U1,29,GPIO22_29*%
X79240000Y-98380000D03*
%TO.P,U1,30,GPIO23_30*%
X81780000Y-98380000D03*
%TD*%
%TO.P,U4,5V*%
%TO.N,+5V*%
X102620000Y-89100000D03*
D11*
%TO.P,U4,GND*%
%TO.N,GND*%
X102620000Y-86560000D03*
D10*
%TO.P,U4,RX*%
%TO.N,audio_rx*%
X102620000Y-94180000D03*
%TO.P,U4,TX*%
%TO.N,audio_tx*%
X102620000Y-91640000D03*
%TD*%
%TO.P,R2,1*%
%TO.N,home_sensor_resistant*%
X65420000Y-57790000D03*
D11*
%TO.P,R2,2*%
%TO.N,GND*%
X65420000Y-50170000D03*
%TD*%
D10*
%TO.P,foot_Motor_2,1,Pin_1_1*%
%TO.N,AN2*%
X76500000Y-109500000D03*
%TO.P,foot_Motor_2,2,Pin_2_2*%
%TO.N,AN1*%
X73960000Y-109500000D03*
D11*
%TO.P,foot_Motor_2,3,Pin_3_3*%
%TO.N,GND*%
X71420000Y-109500000D03*
%TD*%
D10*
%TO.P,R16,1*%
%TO.N,pololu_tx_resistor*%
X88920000Y-62670000D03*
D11*
%TO.P,R16,2*%
%TO.N,GND*%
X88920000Y-70290000D03*
%TD*%
D10*
%TO.P,R13,1*%
%TO.N,audio_tx*%
X93500000Y-104290000D03*
%TO.P,R13,2*%
%TO.N,audio_tx_resistor*%
X93500000Y-96670000D03*
%TD*%
%TO.P,R4,1*%
%TO.N,encoder_a_resistor*%
X71420000Y-57500000D03*
D11*
%TO.P,R4,2*%
%TO.N,GND*%
X71420000Y-49880000D03*
%TD*%
D10*
%TO.P,R1,1*%
%TO.N,encoder_a_signal*%
X74920000Y-49880000D03*
%TO.P,R1,2*%
%TO.N,encoder_a_resistor*%
X74920000Y-57500000D03*
%TD*%
%TO.P,R10,1*%
%TO.N,IN2*%
X60920000Y-105480000D03*
D11*
%TO.P,R10,2*%
%TO.N,GND*%
X60920000Y-113100000D03*
%TD*%
D10*
%TO.P,R5,1*%
%TO.N,home_sensor_signal*%
X60420000Y-50170000D03*
%TO.P,R5,2*%
%TO.N,home_sensor_resistant*%
X60420000Y-57790000D03*
%TD*%
%TO.P,R9,1*%
%TO.N,IN1*%
X45920000Y-105480000D03*
D11*
%TO.P,R9,2*%
%TO.N,GND*%
X45920000Y-113100000D03*
%TD*%
D10*
%TO.P,home_sensor1,1,Pin_1_1*%
%TO.N,home_sensor_signal*%
X60340000Y-41480000D03*
%TO.P,home_sensor1,2,Pin_2_2*%
%TO.N,+5V*%
X62880000Y-41480000D03*
D11*
%TO.P,home_sensor1,3,Pin_3_3*%
%TO.N,GND*%
X65420000Y-41480000D03*
%TD*%
D10*
%TO.P,foot_Motor_1,1,Pin_1_1*%
%TO.N,IN2*%
X56920000Y-109480000D03*
%TO.P,foot_Motor_1,2,Pin_2_2*%
%TO.N,IN1*%
X54380000Y-109480000D03*
D11*
%TO.P,foot_Motor_1,3,Pin_3_3*%
%TO.N,GND*%
X51840000Y-109480000D03*
%TD*%
D10*
%TO.P,Power1,1,Pin_1_1*%
%TO.N,+5V*%
X35645000Y-65197500D03*
D11*
%TO.P,Power1,2,Pin_2_2*%
%TO.N,GND*%
X38185000Y-65197500D03*
%TD*%
D10*
%TO.P,R3,1*%
%TO.N,encoder_b_signal*%
X80420000Y-49880000D03*
%TO.P,R3,2*%
%TO.N,encoder_b_resistor*%
X80420000Y-57500000D03*
%TD*%
%TO.P,R8,1*%
%TO.N,MD10_DIR*%
X48310000Y-58980000D03*
D11*
%TO.P,R8,2*%
%TO.N,GND*%
X40690000Y-58980000D03*
%TD*%
D10*
%TO.P,XIAO-ESP32-C6-SMD1,1,D0_1*%
%TO.N,N/C*%
X111260000Y-120240000D03*
%TO.P,XIAO-ESP32-C6-SMD1,2,D1_2*%
X113800000Y-120240000D03*
%TO.P,XIAO-ESP32-C6-SMD1,3,D2_3*%
X116340000Y-120240000D03*
%TO.P,XIAO-ESP32-C6-SMD1,4,D3_4*%
X118880000Y-120240000D03*
%TO.P,XIAO-ESP32-C6-SMD1,5,D4_5*%
X121420000Y-120240000D03*
%TO.P,XIAO-ESP32-C6-SMD1,6,D5_6*%
X123960000Y-120240000D03*
%TO.P,XIAO-ESP32-C6-SMD1,7,D6_7*%
X126500000Y-120240000D03*
%TO.P,XIAO-ESP32-C6-SMD1,8,D7_8*%
X126500000Y-105000000D03*
%TO.P,XIAO-ESP32-C6-SMD1,9,D8_9*%
X123960000Y-105000000D03*
%TO.P,XIAO-ESP32-C6-SMD1,10,D9_10*%
X121420000Y-105000000D03*
%TO.P,XIAO-ESP32-C6-SMD1,11,D10_11*%
X118880000Y-105000000D03*
%TO.P,XIAO-ESP32-C6-SMD1,12,3V3_OUT_12*%
X116340000Y-105000000D03*
D11*
%TO.P,XIAO-ESP32-C6-SMD1,13,GND_13*%
%TO.N,GND*%
X113800000Y-105000000D03*
D10*
%TO.P,XIAO-ESP32-C6-SMD1,14,VBUS_14*%
%TO.N,+5V*%
X111260000Y-105000000D03*
%TD*%
%TO.N,+5V*%
D14*
X94540000Y-89100000D02*
X102620000Y-89100000D01*
X46940000Y-82000000D02*
X87440000Y-82000000D01*
X43420000Y-78480000D02*
X46940000Y-82000000D01*
X87440000Y-82000000D02*
X94540000Y-89100000D01*
X130340000Y-110000000D02*
X113000000Y-110000000D01*
X130420000Y-109920000D02*
X130340000Y-110000000D01*
X113000000Y-110000000D02*
X112250000Y-110750000D01*
X130420000Y-79500000D02*
X130420000Y-109920000D01*
%TO.N,GND*%
D15*
X65420000Y-53400000D02*
X65500000Y-53480000D01*
D14*
X65420000Y-50170000D02*
X65420000Y-53400000D01*
X68480000Y-53480000D02*
X65500000Y-53480000D01*
X65420000Y-45480000D02*
X65420000Y-41480000D01*
X68500000Y-53500000D02*
X68500000Y-48560000D01*
X68500000Y-48560000D02*
X65420000Y-45480000D01*
D15*
X66940000Y-53500000D02*
X68500000Y-53500000D01*
D14*
X57420000Y-47670000D02*
X53230000Y-43480000D01*
X57420000Y-53480000D02*
X57420000Y-47670000D01*
X65500000Y-53480000D02*
X57420000Y-53480000D01*
X68500000Y-53500000D02*
X68480000Y-53480000D01*
D15*
X51840000Y-117280000D02*
X52000000Y-117440000D01*
D14*
X52000000Y-117440000D02*
X60420000Y-117440000D01*
X51840000Y-109480000D02*
X51840000Y-117280000D01*
D15*
X71420000Y-117360000D02*
X71500000Y-117440000D01*
D14*
X71420000Y-109500000D02*
X71420000Y-117360000D01*
X71500000Y-117440000D02*
X77920000Y-117440000D01*
%TO.N,pololu_tx_resistor*%
D15*
X84749813Y-65750187D02*
X87830000Y-62670000D01*
X87830000Y-62670000D02*
X88920000Y-62670000D01*
X82120000Y-78280000D02*
X84749813Y-75650187D01*
X84749813Y-75650187D02*
X84749813Y-65750187D01*
X71620000Y-78280000D02*
X82120000Y-78280000D01*
X71620000Y-72980000D02*
X71620000Y-78280000D01*
%TO.N,GND*%
D14*
X85420000Y-117020000D02*
X85000000Y-117440000D01*
X85420000Y-109480000D02*
X85420000Y-117020000D01*
X85000000Y-117440000D02*
X85920000Y-117440000D01*
X40690000Y-52190000D02*
X40690000Y-58980000D01*
X37000000Y-48500000D02*
X40690000Y-52190000D01*
X35420000Y-48500000D02*
X37000000Y-48500000D01*
X35420000Y-48500000D02*
X35420000Y-39980000D01*
%TO.N,MD10_DIR*%
D15*
X56260000Y-67000000D02*
X56380000Y-67120000D01*
X48310000Y-61810000D02*
X53500000Y-67000000D01*
X48310000Y-58980000D02*
X48310000Y-61810000D01*
X53500000Y-67000000D02*
X56260000Y-67000000D01*
X56380000Y-67120000D02*
X56380000Y-72980000D01*
X48310000Y-57310000D02*
X48310000Y-58980000D01*
X42870000Y-51870000D02*
X48310000Y-57310000D01*
X42870000Y-41480000D02*
X42870000Y-51870000D01*
%TO.N,AN1*%
X61460000Y-100960000D02*
X61460000Y-98380000D01*
X62920000Y-102420000D02*
X61460000Y-100960000D01*
X64500000Y-103000000D02*
X62920000Y-103000000D01*
X62920000Y-103000000D02*
X62920000Y-102420000D01*
%TO.N,AN2*%
X74690000Y-105690000D02*
X80000000Y-105690000D01*
X74250000Y-105250000D02*
X74690000Y-105690000D01*
X74250000Y-105250000D02*
X76500000Y-107500000D01*
%TO.N,encoder_a_signal*%
X73340000Y-41480000D02*
X73340000Y-44400000D01*
X73340000Y-44400000D02*
X74920000Y-45980000D01*
X74920000Y-45980000D02*
X74920000Y-49880000D01*
%TO.N,encoder_b_signal*%
X75880000Y-41480000D02*
X75880000Y-43440000D01*
X80420000Y-47980000D02*
X80420000Y-49880000D01*
X75880000Y-43440000D02*
X80420000Y-47980000D01*
%TO.N,+5V*%
D14*
X38000000Y-103500000D02*
X38000000Y-118060000D01*
X105420000Y-34980000D02*
X105420000Y-35980000D01*
X62880000Y-35440000D02*
X62880000Y-41480000D01*
X78420000Y-41480000D02*
X78420000Y-35980000D01*
X115920000Y-76480000D02*
X121420000Y-76480000D01*
X46220000Y-75680000D02*
X46220000Y-72980000D01*
X43420000Y-78480000D02*
X46220000Y-75680000D01*
X42920000Y-78980000D02*
X43420000Y-78480000D01*
X130420000Y-79500000D02*
X130420000Y-34980000D01*
X104420000Y-34980000D02*
X105420000Y-35980000D01*
X38000000Y-78980000D02*
X42920000Y-78980000D01*
X105420000Y-36980000D02*
X115920000Y-47480000D01*
X111260000Y-109760000D02*
X112250000Y-110750000D01*
X38000000Y-78980000D02*
X38000000Y-103500000D01*
X78420000Y-35980000D02*
X79420000Y-34980000D01*
X123460000Y-74440000D02*
X123460000Y-72000000D01*
X35645000Y-65197500D02*
X35645000Y-73645000D01*
X40440000Y-120500000D02*
X102500000Y-120500000D01*
X38000000Y-76000000D02*
X38000000Y-78980000D01*
X115920000Y-47480000D02*
X115920000Y-76480000D01*
X121420000Y-76480000D02*
X123460000Y-74440000D01*
X38000000Y-118060000D02*
X40440000Y-120500000D01*
X130420000Y-34980000D02*
X105420000Y-34980000D01*
X35645000Y-73645000D02*
X38000000Y-76000000D01*
X111260000Y-105000000D02*
X111260000Y-109760000D01*
X79420000Y-34980000D02*
X104420000Y-34980000D01*
X79420000Y-34980000D02*
X63340000Y-34980000D01*
X105420000Y-35980000D02*
X105420000Y-36980000D01*
X102500000Y-120500000D02*
X112250000Y-110750000D01*
X63340000Y-34980000D02*
X62880000Y-35440000D01*
%TO.N,GND*%
X98500000Y-41500000D02*
X100940000Y-41500000D01*
X77920000Y-117440000D02*
X79500000Y-117440000D01*
X35420000Y-39980000D02*
X39420000Y-35980000D01*
X67000000Y-113310000D02*
X67000000Y-117440000D01*
X35420000Y-54480000D02*
X35420000Y-48500000D01*
X38185000Y-65197500D02*
X45137500Y-65197500D01*
X113800000Y-101800000D02*
X113800000Y-102200000D01*
X45920000Y-116940000D02*
X46420000Y-117440000D01*
X82900000Y-53500000D02*
X85000000Y-53500000D01*
X71000000Y-53500000D02*
X66940000Y-53500000D01*
X71420000Y-53080000D02*
X71420000Y-49880000D01*
X60920000Y-113100000D02*
X60920000Y-116940000D01*
X43420000Y-117480000D02*
X43460000Y-117440000D01*
X46420000Y-117440000D02*
X52000000Y-117440000D01*
D15*
X95920000Y-76080000D02*
X96000000Y-76000000D01*
D14*
X79500000Y-117440000D02*
X85000000Y-117440000D01*
X95920000Y-84170000D02*
X95920000Y-79980000D01*
X48760000Y-101140000D02*
X45260000Y-101140000D01*
X63920000Y-117440000D02*
X67000000Y-117440000D01*
X90420000Y-41480000D02*
X98480000Y-41480000D01*
X108920000Y-85480000D02*
X107840000Y-86560000D01*
X88920000Y-70290000D02*
X94630000Y-76000000D01*
X74440000Y-53500000D02*
X71000000Y-53500000D01*
X86940000Y-53500000D02*
X87900000Y-53500000D01*
X96000000Y-76000000D02*
X111400000Y-76000000D01*
D15*
X85000000Y-52000000D02*
X84920000Y-51920000D01*
D14*
X45920000Y-113100000D02*
X45920000Y-116940000D01*
X45137500Y-65197500D02*
X48760000Y-68820000D01*
X100960000Y-47980000D02*
X101140000Y-48160000D01*
X105420000Y-98500000D02*
X105420000Y-105080000D01*
X84920000Y-51920000D02*
X84920000Y-49880000D01*
X60920000Y-116940000D02*
X60420000Y-117440000D01*
X90420000Y-41480000D02*
X80960000Y-41480000D01*
X111420000Y-78980000D02*
X111420000Y-79980000D01*
X43460000Y-117440000D02*
X46420000Y-117440000D01*
X80000000Y-113310000D02*
X80000000Y-116940000D01*
X45260000Y-101140000D02*
X41920000Y-104480000D01*
X35420000Y-59480000D02*
X35420000Y-58480000D01*
D15*
X71000000Y-53500000D02*
X71420000Y-53080000D01*
D14*
X110500000Y-98500000D02*
X113800000Y-101800000D01*
X85000000Y-53500000D02*
X85000000Y-52000000D01*
X126000000Y-75900000D02*
X126000000Y-72000000D01*
X38185000Y-62245000D02*
X35420000Y-59480000D01*
X93420000Y-44480000D02*
X93420000Y-47980000D01*
X105420000Y-105080000D02*
X93060000Y-117440000D01*
X38185000Y-65197500D02*
X38185000Y-62245000D01*
X39420000Y-35980000D02*
X47920000Y-35980000D01*
X105420000Y-98500000D02*
X110500000Y-98500000D01*
X90420000Y-41480000D02*
X92170000Y-43230000D01*
X60420000Y-117440000D02*
X63920000Y-117440000D01*
X94630000Y-76000000D02*
X96000000Y-76000000D01*
X111420000Y-75980000D02*
X111420000Y-78980000D01*
X111420000Y-51980000D02*
X111420000Y-75980000D01*
X108920000Y-85480000D02*
X105420000Y-88980000D01*
X53230000Y-39790000D02*
X53230000Y-43480000D01*
X47920000Y-35980000D02*
X49420000Y-35980000D01*
X87900000Y-53500000D02*
X93420000Y-47980000D01*
X47950000Y-36010000D02*
X47920000Y-35980000D01*
D15*
X98480000Y-41480000D02*
X98500000Y-41500000D01*
D14*
X74440000Y-53500000D02*
X82900000Y-53500000D01*
X35420000Y-58480000D02*
X35420000Y-54480000D01*
X105420000Y-88980000D02*
X105420000Y-98500000D01*
X47950000Y-41480000D02*
X47950000Y-36010000D01*
D15*
X80000000Y-116940000D02*
X79500000Y-117440000D01*
D14*
X67000000Y-117440000D02*
X71500000Y-117440000D01*
X111400000Y-76000000D02*
X111420000Y-75980000D01*
X48760000Y-98380000D02*
X48760000Y-101140000D01*
X48760000Y-68820000D02*
X48760000Y-72980000D01*
X111420000Y-82980000D02*
X108920000Y-85480000D01*
X41920000Y-115980000D02*
X43420000Y-117480000D01*
X111420000Y-79980000D02*
X121920000Y-79980000D01*
X85000000Y-53500000D02*
X86940000Y-53500000D01*
X92170000Y-43230000D02*
X93420000Y-44480000D01*
X41920000Y-104480000D02*
X41920000Y-115980000D01*
X93060000Y-117440000D02*
X85920000Y-117440000D01*
X95920000Y-79980000D02*
X95920000Y-76080000D01*
X121920000Y-79980000D02*
X126000000Y-75900000D01*
X100940000Y-41500000D02*
X111420000Y-51980000D01*
X53230000Y-50480000D02*
X53230000Y-43480000D01*
X49420000Y-35980000D02*
X53230000Y-39790000D01*
X107840000Y-86560000D02*
X102620000Y-86560000D01*
X111420000Y-79980000D02*
X111420000Y-82980000D01*
X93420000Y-47980000D02*
X100960000Y-47980000D01*
X113800000Y-102200000D02*
X113800000Y-105000000D01*
%TO.N,relay_signal*%
D15*
X82670000Y-101980000D02*
X73480000Y-101980000D01*
X73480000Y-101980000D02*
X71620000Y-100120000D01*
X87960000Y-108980000D02*
X87960000Y-107270000D01*
X71620000Y-100120000D02*
X71620000Y-98380000D01*
X87960000Y-107270000D02*
X82670000Y-101980000D01*
%TO.N,encoder_b_resistor*%
X66540000Y-69360000D02*
X68920000Y-66980000D01*
X81420000Y-60480000D02*
X81940000Y-60480000D01*
X74920000Y-66980000D02*
X81420000Y-60480000D01*
X81420000Y-60480000D02*
X80420000Y-59480000D01*
X81940000Y-60480000D02*
X84920000Y-57500000D01*
X68920000Y-66980000D02*
X74920000Y-66980000D01*
X80420000Y-59480000D02*
X80420000Y-57500000D01*
X66540000Y-72980000D02*
X66540000Y-69360000D01*
%TO.N,AN1*%
X73960000Y-108156498D02*
X73960000Y-109500000D01*
X64500000Y-103000000D02*
X68803502Y-103000000D01*
X64630000Y-105690000D02*
X67000000Y-105690000D01*
X64500000Y-103000000D02*
X64500000Y-105560000D01*
X64500000Y-105560000D02*
X64630000Y-105690000D01*
X68803502Y-103000000D02*
X73960000Y-108156498D01*
%TO.N,MD10PWM*%
X45610000Y-50480000D02*
X45610000Y-41670000D01*
X45610000Y-51670000D02*
X45610000Y-50480000D01*
X58920000Y-72980000D02*
X58920000Y-64980000D01*
X45610000Y-41670000D02*
X45420000Y-41480000D01*
X58920000Y-64980000D02*
X45610000Y-51670000D01*
%TO.N,audio_tx_resistor*%
X90920000Y-93980000D02*
X93610000Y-96670000D01*
X69420000Y-87480000D02*
X66540000Y-90360000D01*
X90920000Y-93980000D02*
X84420000Y-87480000D01*
X84420000Y-87480000D02*
X69420000Y-87480000D01*
X66540000Y-90360000D02*
X66540000Y-98380000D01*
X93110000Y-91790000D02*
X95920000Y-91790000D01*
X90920000Y-93980000D02*
X93110000Y-91790000D01*
%TO.N,pololu_rx*%
X78020000Y-68980000D02*
X93760000Y-53240000D01*
X69080000Y-70320000D02*
X70420000Y-68980000D01*
X69080000Y-72980000D02*
X69080000Y-70320000D01*
X70420000Y-68980000D02*
X78020000Y-68980000D01*
X93760000Y-53240000D02*
X101140000Y-53240000D01*
%TO.N,pololu_tx*%
X100840000Y-55480000D02*
X101140000Y-55780000D01*
X94990000Y-57600000D02*
X94920000Y-57670000D01*
X97110000Y-55480000D02*
X100840000Y-55480000D01*
X94920000Y-57670000D02*
X97110000Y-55480000D01*
%TO.N,vin_pololu*%
X118380000Y-72000000D02*
X120920000Y-72000000D01*
%TO.N,AN2*%
X64000000Y-101000000D02*
X70000000Y-101000000D01*
X76500000Y-107500000D02*
X76500000Y-108000000D01*
X76500000Y-108000000D02*
X76500000Y-109500000D01*
X70000000Y-101000000D02*
X74250000Y-105250000D01*
X64000000Y-98380000D02*
X64000000Y-101000000D01*
%TO.N,pololu_tx_resistor*%
X94920000Y-65290000D02*
X93290000Y-65290000D01*
X90670000Y-62670000D02*
X88920000Y-62670000D01*
X93290000Y-65290000D02*
X90670000Y-62670000D01*
%TO.N,home_sensor_resistant*%
X61460000Y-61940000D02*
X61460000Y-61750000D01*
X60420000Y-57790000D02*
X60420000Y-60900000D01*
X61460000Y-61750000D02*
X65420000Y-57790000D01*
X60420000Y-60900000D02*
X61460000Y-61940000D01*
X61460000Y-72980000D02*
X61460000Y-61940000D01*
%TO.N,encoder_a_resistor*%
X72420000Y-63980000D02*
X71420000Y-64980000D01*
X66420000Y-64980000D02*
X64000000Y-67400000D01*
X64000000Y-67400000D02*
X64000000Y-72980000D01*
X73440000Y-58980000D02*
X74920000Y-57500000D01*
X72420000Y-58980000D02*
X72420000Y-63980000D01*
X71420000Y-57980000D02*
X72420000Y-58980000D01*
X71420000Y-64980000D02*
X66420000Y-64980000D01*
X72420000Y-58980000D02*
X73440000Y-58980000D01*
%TO.N,IN1*%
X56380000Y-103480000D02*
X54420000Y-105440000D01*
X54420000Y-109940000D02*
X54380000Y-109980000D01*
X54420000Y-105440000D02*
X54420000Y-109940000D01*
X54380000Y-105480000D02*
X54420000Y-105440000D01*
X56380000Y-98380000D02*
X56380000Y-103480000D01*
X45920000Y-105480000D02*
X54380000Y-105480000D01*
%TO.N,IN2*%
X60920000Y-102480000D02*
X58920000Y-100480000D01*
X58920000Y-100480000D02*
X58920000Y-103980000D01*
X56920000Y-105980000D02*
X56920000Y-109980000D01*
X58920000Y-103980000D02*
X56920000Y-105980000D01*
X60920000Y-105480000D02*
X60920000Y-102480000D01*
X58920000Y-98380000D02*
X58920000Y-100480000D01*
%TO.N,audio_rx*%
X97500000Y-108000000D02*
X91020000Y-108000000D01*
X90000000Y-106980000D02*
X90000000Y-95560000D01*
X102620000Y-94180000D02*
X100820000Y-94180000D01*
X97500000Y-97500000D02*
X97500000Y-108000000D01*
X70420000Y-91480000D02*
X69080000Y-92820000D01*
X90000000Y-95560000D02*
X85920000Y-91480000D01*
X85920000Y-91480000D02*
X70420000Y-91480000D01*
X102620000Y-94180000D02*
X102940000Y-94500000D01*
X100820000Y-94180000D02*
X97500000Y-97500000D01*
X91020000Y-108000000D02*
X90000000Y-106980000D01*
X69080000Y-92820000D02*
X69080000Y-98380000D01*
%TO.N,audio_tx*%
X102620000Y-91640000D02*
X100260000Y-91640000D01*
X96000000Y-95900000D02*
X96000000Y-103370000D01*
X95080000Y-104290000D02*
X93500000Y-104290000D01*
X96000000Y-103370000D02*
X95080000Y-104290000D01*
X100260000Y-91640000D02*
X96000000Y-95900000D01*
%TO.N,home_sensor_signal*%
X60420000Y-50170000D02*
X60420000Y-42060000D01*
X60420000Y-42060000D02*
X60340000Y-41980000D01*
%TD*%
M02*
